[Module]
VortexTrackerII=0
Version=3.5
Title=2me,1p,1m
Author=oisee/siril^4d 2024.06.20
NoteTable=4
ChipFreq=1750000
Speed=4
PlayOrder=L0,1,2,3,4,5,6,7,8,9,10,11,12,13,14,15,16,17,18,19,20,21,22,23,24,25,26,27,28,29,30,31,32,33,34,35,36,37,38,39,40,41,42,43,44,45,46,47,48,48,48,48,48,48,48,55,56,57,58,59,60,61,62,63,64,65,66,67,68,69,70,71,72,73,74,75,76,77,78,79,80,80,80,80,80,80,80,87,88,89,90,91,92,93,94,95
ArgList=t1.mid 2me,1p,1m 8 6 12 0 64 2 6


[Ornament1]
L0,0,5,5

[Ornament2]
L0,0,4,4

[Ornament3]
L0,0,2,2

[Ornament4]
L0,0,1,1


[Sample1]
TnE +000_ +00_ F_
TnE +000_ +00_ F_
TnE +000_ +00_ F_
TnE +000_ +00_ D_
TnE +000_ +00_ B_
TnE +000_ +00_ B_ L

[Sample2]
TnE +000_ +00_ F_ L

[Sample3]
TnE +001_ +00_ F_
TnE +002_ +00_ F_
TnE +001_ +00_ E_
TnE +002_ +00_ E_
TnE +000_ +00_ E_ L
TnE -001_ +00_ E_
TnE -002_ +00_ E_
TnE -001_ +00_ E_
TnE +000_ +00_ E_
TnE +001_ +00_ E_
TnE +002_ +00_ E_
TnE +001_ +00_ E_

[Sample4]
TnE +002_ +00_ D_
TnE +002_ +00_ D_
TnE +002_ +00_ C_
TnE +002_ +00_ B_
TnE +002_ +00_ A_ L
TnE +002_ +00_ A_
TnE +002_ +00_ A_
TnE +002_ +00_ A_
TnE +002_ +00_ A_
TnE +002_ +00_ A_
TnE +002_ +00_ A_
TnE +002_ +00_ A_

[Sample5]
TnE +000_ +00_ F_
TnE +000_ +00_ F_
tne +000_ +00_ 0_ L

[Sample6]
TnE -001_ +00_ F_ L

[Sample7]
TnE +006_ +00_ F_ L

[Sample8]
tNe +000_ +00_ F_
tNe +000_ +00_ B_
tNe +000_ +00_ 7_
tNe +000_ +00_ 6- L

[Sample9]
TnE +080_ +00_ F_
TnE +100_ +00_ E_
TnE +180_ +00_ E_
TnE +200_ +00_ E_
TnE +240_ +00_ D_
TnE +280_ +00_ D_
TnE +2C0_ +00_ D_
TnE +300_ +00_ C_
TnE +300_ +00_ C_
TnE +340_ +00_ C_
TnE +340_ +00_ C_
TnE +380_ +00_ B_
TnE +380_ +00_ B_
TnE +400_ +00_ B_
TnE +400_ +00_ B_
TnE +480_ +00_ A_
TnE +500_ +00_ 9_
TnE +580_ +00_ 7_
TnE +600_ +00_ 4_
TnE +680_ +00_ 1_
TnE +000_ +00_ 0_ L

[Sample10]
Tne +1C0_ +00_ F_
Tne +280_ +00_ E_
Tne +380_ +00_ C_
Tne +440_ +00_ A_
Tne +480_ +00_ 8_
TnE +000_ +00_ 0_ L

[Sample11]
TNe +200_ -0A_ F_
tNe +000_ +0F_ A_
TNe +200_ -07_ E_
tNe +000_ +0E_ B- L

[Sample12]
TNE +0A0_ +05_ F_
TNE +140_ +02_ D_
TNE +140_ +02_ B_
TNE +100_ +00_ A_ L
TNE +140_ +00_ A_
TNE +200_ +00_ A-

[Sample13]
Tne +200_ +00_ F_
Tne +2C0_ +00_ F_
Tne +380_ +00_ E_
Tne +500_ +00_ C_
Tne +520_ +00_ 9_
tne +000_ +00_ 0_ L

[Sample14]
TNE -100_ +00_ F_
TNE -100_ +00_ D_
TNE -100_ +00_ A_
TNE -100_ +00_ 5_
tne +000_ +00_ 0_ L

[Sample15]
TNE -100_ +00_ 5_
TNE -100_ +00_ 8_
TNE -100_ +00_ B_
TNE -100_ +00_ F_
TNe -100_ +00_ 9- L

[Sample16]
TnE +000_ +00_ C_
TnE +000_ +00_ E_
TnE +000_ +00_ F_
TnE +000_ +00_ F_
TnE +000_ +00_ E_
TnE +000_ +00_ D_
TnE +000_ +00_ C_
TnE +000_ +00_ C_ L
TnE +001_ +00_ C_
TnE +002_ +00_ C_
TnE +003_ +00_ C_
TnE +001_ +00_ C_
TnE +000_ +00_ C_
TnE -001_ +00_ C_
TnE -002_ +00_ C_
TnE -003_ +00_ C_
TnE -001_ +00_ C_
TnE +000_ +00_ C_
TnE +000_ +00_ C_

[Sample17]
Tne +1C0_ +00_ F_
Tne +280_ +00_ D_
Tne +380_ +00_ 7_
TNE +000_ +00_ 0_ L

[Sample18]
TnE -00C_ +00_ 0_ L

[Sample19]
TNe +000_ +00_ F_
TNe +000_ +00_ C_
TNe +000_ +00_ 6_
TNe +000_ +01_ A- L

[Sample20]
TNE +140_ +00_ F_
tNE +000_ +00_ B- L

[Sample21]
tNE +000_ +00_ D_
tNE +000_ +00_ 8_
tNE +000_ +00_ 1_
TNE +000_ +00_ 0_ L

[Sample22]
TnE +000_ +00_ D_ L
TnE +000_ +00_ D_
tne +000_ +00_ 9_
tne +000_ +00_ 9_
TnE +000_ +00_ D_
TnE +000_ +00_ D_
tne +000_ +00_ 9_
tne +000_ +00_ 9_
TnE +000_ +00_ D_
TnE +000_ +00_ D_
TnE +000_ +00_ D_
TnE +000_ +00_ D_
TnE +000_ +00_ D_
TnE +000_ +00_ D_
tne +000_ +00_ 9_
tne +000_ +00_ 9_

[Sample23]
TnE +000_ +00_ F_ L
TnE +010_ +01_ F_
TnE +010_ +01_ F_
TnE +010_ +01_ F_
TnE +010_ +01_ F_
TnE +000_ +00_ F_
TnE +000_ +00_ F_
TnE -010_ -01_ F_
TnE -010_ -01_ F_
TnE -010_ -01_ F_
TnE -010_ -01_ F_
TnE +000_ +00_ F_

[Sample24]
TNe +000_ -01_ C_
TNe +000_ -01_ D_
TNe +000_ -01_ E_
TNe +000_ -01_ F_
TNe +000_ -01_ F_
TNe +000_ -01_ F_
TNe +000_ -01_ F_
TNe +000_ -01_ F_
TNe +000_ -01_ E_
TNe +000_ -01_ E_
TNe +000_ -01_ E_
TNe +000_ -01_ F_
TNe +000_ -01_ F_ L

[Sample25]
TNE +000_ +00_ F_
TNE +000_ +00_ F_ L
TNE +000_ +00_ F_
TNE +000_ +00_ F_
TNE +000_ +00_ F-

[Sample26]
tne +000_ +00_ 0_ L

[Sample27]
TnE +100_ +05_ F_
TnE +200_ +02_ A_
TnE +300_ +02_ 7_
TNE +400_ +00_ 3- L

[Sample28]
tne +000_ +00_ 0_ L

[Sample29]
tnE +000_ +00_ 0_ L

[Sample30]
TNE +000_ +00_ C+ L

[Sample31]
TNe +1C0_ +00_ F_
Tne +280_ +00_ E_
Tne +380_ +00_ C_
Tne +440_ +00_ A_
Tne +480_ +00_ 8_
TnE +000_ +00_ 0_ L

[Pattern0]
 E-4|..|E-4 2C.F ....|A-4 2F.F ....|A-4 2F.F ....
....|..|--- .... ....|--- .... ....|--- .... ....
....|..|E-3 2F.A ....|--- .... ....|--- .... ....
....|..|--- .... ....|--- .... ....|--- .... ....
 E-4|..|E-3 2C.F ....|R-- .... ....|R-- .... ....
....|..|--- .... ....|--- .... ....|--- .... ....
....|..|E-4 2F.A ....|A-4 2F.A ....|A-4 2F.A ....
....|..|--- .... ....|--- .... ....|--- .... ....
 E-4|..|E-4 2C.F ....|E-5 2F.F ....|E-5 2F.F ....
....|..|--- .... ....|--- .... ....|--- .... ....
....|..|E-3 2F.A ....|R-- .... ....|R-- .... ....
....|..|--- .... ....|--- .... ....|--- .... ....
....|..|E-4 2F.7 ....|A-4 2F.7 ....|A-4 2F.7 ....
....|..|--- .... ....|--- .... ....|--- .... ....
 E-4|..|E-3 2C.F ....|E-5 2F.A ....|E-5 2F.A ....
....|..|--- .... ....|--- .... ....|--- .... ....
 E-4|..|E-4 2C.F ....|E-4 2F1F ....|A-5 2F.F ....
....|..|--- .... ....|--- .... ....|--- .... ....
 E-4|..|E-4 2C.F ....|A-5 2F.F ....|A-5 2F.F ....
....|..|--- .... ....|--- .... ....|--- .... ....
 E-4|..|E-4 2C.F ....|E-5 2F.7 ....|E-5 2F.7 ....
....|..|--- .... ....|--- .... ....|--- .... ....
....|..|E-4 2F.A ....|E-4 2F1A ....|A-5 2F.A ....
....|..|--- .... ....|--- .... ....|--- .... ....
 E-4|..|E-4 2C.F ....|A-5 2F.A ....|A-5 2F.A ....
....|..|--- .... ....|--- .... ....|--- .... ....
 E-4|..|E-3 2C.F ....|--- .... ....|--- .... ....
....|..|--- .... ....|--- .... ....|--- .... ....
....|..|E-4 2F.7 ....|E-4 2F17 ....|A-5 2F.7 ....
....|..|--- .... ....|--- .... ....|--- .... ....
....|..|E-4 2F.7 ....|E-4 2F.F ....|E-4 2F.F ....
....|..|--- .... ....|--- .... ....|--- .... ....
 A-3|..|A-3 2C.F ....|E-6 2F.F ....|E-6 2F.F ....
....|..|--- .... ....|--- .... ....|--- .... ....
....|..|--- .... ....|--- .... ....|--- .... ....
....|..|--- .... ....|--- .... ....|--- .... ....
....|..|E-4 2F.7 ....|E-4 2F.F ....|E-4 2F.F ....
....|..|--- .... ....|--- .... ....|--- .... ....
....|..|E-3 2F.7 ....|E-6 2F.A ....|E-6 2F.A ....
....|..|--- .... ....|--- .... ....|--- .... ....
 E-4|..|E-4 2C.F ....|A-6 2F.F ....|A-6 2F.F ....
....|..|--- .... ....|--- .... ....|--- .... ....
....|..|R-- .... ....|A-6 2F.F ....|A-6 2F.F ....
....|..|--- .... ....|--- .... ....|--- .... ....
....|..|A-3 2F.7 ....|A-6 2F.F ....|A-6 2F.F ....
....|..|--- .... ....|--- .... ....|--- .... ....
....|..|E-4 2F.A ....|B-4 2F.F ....|B-4 2F.F ....
....|..|--- .... ....|--- .... ....|--- .... ....
....|..|R-- .... ....|E-4 2F.7 ....|E-4 2F.7 ....
....|..|--- .... ....|--- .... ....|--- .... ....
....|..|--- .... ....|A-6 2F.A ....|A-6 2F.A ....
....|..|--- .... ....|--- .... ....|--- .... ....
....|..|E-4 2F.7 ....|A-6 2F.7 ....|A-6 2F.7 ....
....|..|--- .... ....|--- .... ....|--- .... ....
....|..|--- .... ....|A-6 2F.7 ....|A-6 2F.7 ....
....|..|--- .... ....|--- .... ....|--- .... ....
....|..|--- .... ....|A-6 2F.7 ....|A-6 2F.7 ....
....|..|--- .... ....|--- .... ....|--- .... ....
....|..|R-- .... ....|B-4 2F.7 ....|B-4 2F.7 ....
....|..|--- .... ....|--- .... ....|--- .... ....
 A-3|..|A-4 2C.F ....|E-4 2F.F ....|E-4 2F.F ....
....|..|--- .... ....|--- .... ....|--- .... ....
....|..|--- .... ....|--- .... ....|--- .... ....
....|..|--- .... ....|--- .... ....|--- .... ....

[Pattern1]
 A-3|..|A-4 2C.F ....|E-4 2F1F ....|A-4 2F.F ....
....|..|--- .... ....|--- .... ....|--- .... ....
....|..|A-4 2F.A ....|E-4 2F.A ....|E-4 2F.A ....
....|..|--- .... ....|--- .... ....|--- .... ....
 A-3|..|A-4 2C.F ....|E-4 2F.F ....|E-4 2F.F ....
....|..|--- .... ....|--- .... ....|--- .... ....
....|..|A-4 2F.A ....|E-4 2F1A ....|A-4 2F.A ....
....|..|--- .... ....|--- .... ....|--- .... ....
 A-3|..|A-4 2C.F ....|E-4 2F.7 ....|E-4 2F.7 ....
....|..|--- .... ....|--- .... ....|--- .... ....
....|..|A-4 2F.A ....|E-4 2F.A ....|E-4 2F.A ....
....|..|--- .... ....|--- .... ....|--- .... ....
....|..|A-4 2F.7 ....|E-7 2F.F ....|E-7 2F.F ....
....|..|--- .... ....|--- .... ....|--- .... ....
 A-3|..|A-4 2C.F ....|--- .... ....|--- .... ....
....|..|--- .... ....|--- .... ....|--- .... ....
 A-3|..|A-4 2C.F ....|E-4 2F.7 ....|E-4 2F.7 ....
....|..|--- .... ....|--- .... ....|--- .... ....
 E-4|..|E-4 2C.F ....|E-7 2F.A ....|E-7 2F.A ....
....|..|--- .... ....|--- .... ....|--- .... ....
 E-4|..|E-4 2C.F ....|--- .... ....|--- .... ....
....|..|--- .... ....|--- .... ....|--- .... ....
....|..|A-4 2F.A ....|--- .... ....|--- .... ....
....|..|--- .... ....|--- .... ....|--- .... ....
 E-4|..|E-4 2C.F ....|E-7 2F.7 ....|E-7 2F.7 ....
....|..|--- .... ....|--- .... ....|--- .... ....
 A-3|..|A-3 2C.F ....|--- .... ....|--- .... ....
....|..|--- .... ....|--- .... ....|--- .... ....
....|..|A-4 2F.7 ....|R-- .... ....|R-- .... ....
....|..|--- .... ....|--- .... ....|--- .... ....
....|..|E-4 2F.7 ....|E-4 2F.F ....|E-4 2F.F ....
....|..|--- .... ....|--- .... ....|--- .... ....
 A-3|..|A-3 2C.F ....|E-4 2F.F ....|E-4 2F.F ....
....|..|--- .... ....|--- .... ....|--- .... ....
....|..|--- .... ....|E-4 2F.F ....|E-4 2F.F ....
....|..|--- .... ....|--- .... ....|--- .... ....
....|..|E-4 2F.7 ....|E-4 2F.A ....|E-4 2F.A ....
....|..|--- .... ....|--- .... ....|--- .... ....
....|..|A-3 2F.7 ....|E-4 2F.A ....|E-4 2F.A ....
....|..|--- .... ....|--- .... ....|--- .... ....
 E-4|..|E-4 2C.F ....|E-4 2F.A ....|E-4 2F.A ....
....|..|--- .... ....|--- .... ....|--- .... ....
....|..|R-- .... ....|E-4 2F.7 ....|E-4 2F.7 ....
....|..|--- .... ....|--- .... ....|--- .... ....
....|..|A-3 2F.7 ....|E-4 2F.7 ....|E-4 2F.7 ....
....|..|--- .... ....|--- .... ....|--- .... ....
....|..|E-4 2F.A ....|E-4 2F.7 ....|E-4 2F.7 ....
....|..|--- .... ....|--- .... ....|--- .... ....
....|..|R-- .... ....|R-- .... ....|R-- .... ....
....|..|--- .... ....|--- .... ....|--- .... ....
....|..|--- .... ....|--- .... ....|--- .... ....
....|..|--- .... ....|--- .... ....|--- .... ....
....|..|E-4 2F.7 ....|--- .... ....|--- .... ....
....|..|--- .... ....|--- .... ....|--- .... ....
....|..|--- .... ....|--- .... ....|--- .... ....
....|..|--- .... ....|--- .... ....|--- .... ....
....|..|--- .... ....|--- .... ....|--- .... ....
....|..|--- .... ....|--- .... ....|--- .... ....
....|..|R-- .... ....|--- .... ....|--- .... ....
....|..|--- .... ....|--- .... ....|--- .... ....
 E-4|..|E-3 2C.F ....|--- .... ....|--- .... ....
....|..|--- .... ....|--- .... ....|--- .... ....
....|..|--- .... ....|--- .... ....|--- .... ....
....|..|--- .... ....|--- .... ....|--- .... ....

[Pattern2]
 E-4|..|E-4 2C.F ....|A-4 2F.F ....|A-4 2F.F ....
....|..|--- .... ....|--- .... ....|--- .... ....
....|..|E-3 2F.A ....|--- .... ....|--- .... ....
....|..|--- .... ....|--- .... ....|--- .... ....
 E-4|..|E-3 2C.F ....|R-- .... ....|R-- .... ....
....|..|--- .... ....|--- .... ....|--- .... ....
....|..|E-4 2F.A ....|A-4 2F.A ....|A-4 2F.A ....
....|..|--- .... ....|--- .... ....|--- .... ....
 E-4|..|E-4 2C.F ....|E-4 2F.F ....|E-4 2F.F ....
....|..|--- .... ....|--- .... ....|--- .... ....
....|..|E-3 2F.A ....|R-- .... ....|R-- .... ....
....|..|--- .... ....|--- .... ....|--- .... ....
....|..|E-4 2F.7 ....|A-4 2F.7 ....|A-4 2F.7 ....
....|..|--- .... ....|--- .... ....|--- .... ....
 E-4|..|E-3 2C.F ....|E-4 2F.A ....|E-4 2F.A ....
....|..|--- .... ....|--- .... ....|--- .... ....
 E-4|..|E-4 2C.F ....|E-4 2F.F ....|E-4 2F.F ....
....|..|--- .... ....|--- .... ....|--- .... ....
 E-4|..|E-4 2C.F ....|E-4 2F.F ....|E-4 2F.F ....
....|..|--- .... ....|--- .... ....|--- .... ....
 E-4|..|E-4 2C.F ....|E-4 2F.7 ....|E-4 2F.7 ....
....|..|--- .... ....|--- .... ....|--- .... ....
....|..|E-4 2F.A ....|E-4 2F.A ....|E-4 2F.A ....
....|..|--- .... ....|--- .... ....|--- .... ....
 E-4|..|E-4 2C.F ....|E-4 2F.A ....|E-4 2F.A ....
....|..|--- .... ....|--- .... ....|--- .... ....
 E-4|..|E-3 2C.F ....|--- .... ....|--- .... ....
....|..|--- .... ....|--- .... ....|--- .... ....
....|..|E-4 2F.7 ....|E-4 2F.7 ....|E-4 2F.7 ....
....|..|--- .... ....|--- .... ....|--- .... ....
....|..|E-4 2F.7 ....|E-4 2F.F ....|E-4 2F.F ....
....|..|--- .... ....|--- .... ....|--- .... ....
 A-3|..|A-3 2C.F ....|E-5 2F.F ....|E-5 2F.F ....
....|..|--- .... ....|--- .... ....|--- .... ....
....|..|--- .... ....|--- .... ....|--- .... ....
....|..|--- .... ....|--- .... ....|--- .... ....
....|..|E-4 2F.7 ....|E-4 2F.F ....|E-4 2F.F ....
....|..|--- .... ....|--- .... ....|--- .... ....
....|..|E-3 2F.7 ....|E-5 2F.A ....|E-5 2F.A ....
....|..|--- .... ....|--- .... ....|--- .... ....
 E-4|..|E-4 2C.F ....|E-4 2F.F ....|E-4 2F.F ....
....|..|--- .... ....|--- .... ....|--- .... ....
....|..|R-- .... ....|E-4 2F.F ....|E-4 2F.F ....
....|..|--- .... ....|--- .... ....|--- .... ....
....|..|A-3 2F.7 ....|A-5 2F.F ....|A-5 2F.F ....
....|..|--- .... ....|--- .... ....|--- .... ....
....|..|E-4 2F.A ....|A-5 2F.F ....|A-5 2F.F ....
....|..|--- .... ....|--- .... ....|--- .... ....
....|..|R-- .... ....|E-4 2F.7 ....|E-4 2F.7 ....
....|..|--- .... ....|--- .... ....|--- .... ....
....|..|--- .... ....|A-5 2F.A ....|A-5 2F.A ....
....|..|--- .... ....|--- .... ....|--- .... ....
....|..|E-4 2F.7 ....|E-4 2F.7 ....|E-4 2F.7 ....
....|..|--- .... ....|--- .... ....|--- .... ....
....|..|--- .... ....|E-4 2F.7 ....|E-4 2F.7 ....
....|..|--- .... ....|--- .... ....|--- .... ....
....|..|--- .... ....|A-5 2F.7 ....|A-5 2F.7 ....
....|..|--- .... ....|--- .... ....|--- .... ....
....|..|R-- .... ....|A-5 2F.7 ....|A-5 2F.7 ....
....|..|--- .... ....|--- .... ....|--- .... ....
 E-4|..|E-4 2C.F ....|E-4 2F.F ....|E-4 2F.F ....
....|..|--- .... ....|--- .... ....|--- .... ....
....|..|--- .... ....|--- .... ....|--- .... ....
....|..|--- .... ....|--- .... ....|--- .... ....

[Pattern3]
 E-4|..|E-4 2C.F ....|E-4 2F1F ....|A-4 2F.F ....
....|..|--- .... ....|--- .... ....|--- .... ....
....|..|E-4 2F.A ....|E-4 2F.A ....|E-4 2F.A ....
....|..|--- .... ....|--- .... ....|--- .... ....
 E-4|..|E-4 2C.F ....|E-4 2F.F ....|E-4 2F.F ....
....|..|--- .... ....|--- .... ....|--- .... ....
....|..|E-4 2F.A ....|E-4 2F1A ....|A-4 2F.A ....
....|..|--- .... ....|--- .... ....|--- .... ....
 E-4|..|E-4 2C.F ....|E-4 2F.7 ....|E-4 2F.7 ....
....|..|--- .... ....|--- .... ....|--- .... ....
....|..|E-4 2F.A ....|E-4 2F.A ....|E-4 2F.A ....
....|..|--- .... ....|--- .... ....|--- .... ....
....|..|E-4 2F.7 ....|E-4 2F.F ....|E-4 2F.F ....
....|..|--- .... ....|--- .... ....|--- .... ....
 E-4|..|E-4 2C.F ....|--- .... ....|--- .... ....
....|..|--- .... ....|--- .... ....|--- .... ....
 E-4|..|E-4 2C.F ....|E-4 2F.7 ....|E-4 2F.7 ....
....|..|--- .... ....|--- .... ....|--- .... ....
 E-4|..|E-4 2C.F ....|E-4 2F.A ....|E-4 2F.A ....
....|..|--- .... ....|--- .... ....|--- .... ....
 E-4|..|E-4 2C.F ....|--- .... ....|--- .... ....
....|..|--- .... ....|--- .... ....|--- .... ....
....|..|E-4 2F.A ....|--- .... ....|--- .... ....
....|..|--- .... ....|--- .... ....|--- .... ....
 A-3|..|A-4 2C.F ....|E-4 2F.7 ....|E-4 2F.7 ....
....|..|--- .... ....|--- .... ....|--- .... ....
 A-3|..|A-4 2C.F ....|--- .... ....|--- .... ....
....|..|--- .... ....|--- .... ....|--- .... ....
....|..|E-4 2F.7 ....|R-- .... ....|R-- .... ....
....|..|--- .... ....|--- .... ....|--- .... ....
....|..|E-4 2F.7 ....|--- .... ....|--- .... ....
....|..|--- .... ....|--- .... ....|--- .... ....
 A-3|..|A-3 2C.F ....|E-4 2F.F ....|E-4 2F.F ....
....|..|--- .... ....|--- .... ....|--- .... ....
....|..|--- .... ....|R-- .... ....|R-- .... ....
....|..|--- .... ....|--- .... ....|--- .... ....
....|..|A-4 2F.7 ....|R-- .... ....|R-- .... ....
....|..|--- .... ....|--- .... ....|--- .... ....
....|..|A-4 2F.7 ....|E-4 2F.A ....|E-4 2F.A ....
....|..|--- .... ....|--- .... ....|--- .... ....
 E-4|..|E-4 2C.F ....|R-- .... ....|R-- .... ....
....|..|--- .... ....|--- .... ....|--- .... ....
....|..|R-- .... ....|R-- .... ....|R-- .... ....
....|..|--- .... ....|--- .... ....|--- .... ....
....|..|A-3 2F.7 ....|E-4 2F.7 ....|E-4 2F.7 ....
....|..|--- .... ....|--- .... ....|--- .... ....
....|..|E-4 2F.A ....|--- .... ....|--- .... ....
....|..|--- .... ....|--- .... ....|--- .... ....
....|..|R-- .... ....|R-- .... ....|R-- .... ....
....|..|--- .... ....|--- .... ....|--- .... ....
....|..|--- .... ....|--- .... ....|--- .... ....
....|..|--- .... ....|--- .... ....|--- .... ....
....|..|E-4 2F.7 ....|--- .... ....|--- .... ....
....|..|--- .... ....|--- .... ....|--- .... ....
....|..|--- .... ....|--- .... ....|--- .... ....
....|..|--- .... ....|--- .... ....|--- .... ....
....|..|--- .... ....|--- .... ....|--- .... ....
....|..|--- .... ....|--- .... ....|--- .... ....
....|..|R-- .... ....|--- .... ....|--- .... ....
....|..|--- .... ....|--- .... ....|--- .... ....
 E-4|..|E-3 2C.F ....|--- .... ....|--- .... ....
....|..|--- .... ....|--- .... ....|--- .... ....
....|..|--- .... ....|--- .... ....|--- .... ....
....|..|--- .... ....|--- .... ....|--- .... ....

[Pattern4]
 E-4|..|E-4 2C.F ....|A-4 2F.F ....|A-4 2F.F ....
....|..|--- .... ....|--- .... ....|--- .... ....
....|..|E-3 2F.A ....|--- .... ....|--- .... ....
....|..|--- .... ....|--- .... ....|--- .... ....
 E-4|..|E-3 2C.F ....|R-- .... ....|R-- .... ....
....|..|--- .... ....|--- .... ....|--- .... ....
....|..|E-4 2F.A ....|A-4 2F.A ....|A-4 2F.A ....
....|..|--- .... ....|--- .... ....|--- .... ....
 E-4|..|E-4 2C.F ....|E-5 2F.F ....|E-5 2F.F ....
....|..|--- .... ....|--- .... ....|--- .... ....
....|..|E-3 2F.A ....|R-- .... ....|R-- .... ....
....|..|--- .... ....|--- .... ....|--- .... ....
....|..|E-4 2F.7 ....|A-4 2F.7 ....|A-4 2F.7 ....
....|..|--- .... ....|--- .... ....|--- .... ....
 E-4|..|E-3 2C.F ....|E-5 2F.A ....|E-5 2F.A ....
....|..|--- .... ....|--- .... ....|--- .... ....
 E-4|..|E-4 2C.F ....|E-5 2F.F ....|E-5 2F.F ....
....|..|--- .... ....|--- .... ....|--- .... ....
 E-4|..|E-4 2C.F ....|E-4 2F.F ....|E-4 2F.F ....
....|..|--- .... ....|--- .... ....|--- .... ....
 E-4|..|E-4 2C.F ....|E-5 2F.7 ....|E-5 2F.7 ....
....|..|--- .... ....|--- .... ....|--- .... ....
....|..|E-4 2F.A ....|E-5 2F.A ....|E-5 2F.A ....
....|..|--- .... ....|--- .... ....|--- .... ....
 E-4|..|E-4 2C.F ....|E-4 2F.A ....|E-4 2F.A ....
....|..|--- .... ....|--- .... ....|--- .... ....
 E-4|..|E-3 2C.F ....|--- .... ....|--- .... ....
....|..|--- .... ....|--- .... ....|--- .... ....
....|..|E-4 2F.7 ....|E-5 2F.7 ....|E-5 2F.7 ....
....|..|--- .... ....|--- .... ....|--- .... ....
....|..|E-4 2F.7 ....|A-5 2F.F ....|A-5 2F.F ....
....|..|--- .... ....|--- .... ....|--- .... ....
 A-3|..|A-4 2C.F ....|A-5 2F.F ....|A-5 2F.F ....
....|..|--- .... ....|--- .... ....|--- .... ....
....|..|--- .... ....|--- .... ....|--- .... ....
....|..|--- .... ....|--- .... ....|--- .... ....
....|..|E-4 2F.7 ....|A-5 2F.F ....|A-5 2F.F ....
....|..|--- .... ....|--- .... ....|--- .... ....
....|..|E-3 2F.7 ....|A-5 2F.A ....|A-5 2F.A ....
....|..|--- .... ....|--- .... ....|--- .... ....
 E-4|..|E-4 2C.F ....|E-6 2F.F ....|E-6 2F.F ....
....|..|--- .... ....|--- .... ....|--- .... ....
....|..|R-- .... ....|E-6 2F.F ....|E-6 2F.F ....
....|..|--- .... ....|--- .... ....|--- .... ....
....|..|A-4 2F.7 ....|E-6 2F.F ....|E-6 2F.F ....
....|..|--- .... ....|--- .... ....|--- .... ....
....|..|E-4 2F.A ....|B-4 2F.F ....|B-4 2F.F ....
....|..|--- .... ....|--- .... ....|--- .... ....
....|..|R-- .... ....|A-5 2F.7 ....|A-5 2F.7 ....
....|..|--- .... ....|--- .... ....|--- .... ....
....|..|--- .... ....|E-6 2F.A ....|E-6 2F.A ....
....|..|--- .... ....|--- .... ....|--- .... ....
....|..|E-4 2F.7 ....|E-6 2F.7 ....|E-6 2F.7 ....
....|..|--- .... ....|--- .... ....|--- .... ....
....|..|--- .... ....|E-6 2F.7 ....|E-6 2F.7 ....
....|..|--- .... ....|--- .... ....|--- .... ....
....|..|--- .... ....|E-6 2F.7 ....|E-6 2F.7 ....
....|..|--- .... ....|--- .... ....|--- .... ....
....|..|R-- .... ....|B-4 2F.7 ....|B-4 2F.7 ....
....|..|--- .... ....|--- .... ....|--- .... ....
 E-4|..|E-3 2C.F ....|A-6 2F.F ....|A-6 2F.F ....
....|..|--- .... ....|--- .... ....|--- .... ....
....|..|--- .... ....|--- .... ....|--- .... ....
....|..|--- .... ....|--- .... ....|--- .... ....

[Pattern5]
 E-4|..|E-4 2C.F ....|A-6 2F.F ....|A-6 2F.F ....
....|..|--- .... ....|--- .... ....|--- .... ....
....|..|E-3 2F.A ....|A-6 2F.A ....|A-6 2F.A ....
....|..|--- .... ....|--- .... ....|--- .... ....
 E-4|..|E-3 2C.F ....|A-6 2F.F ....|A-6 2F.F ....
....|..|--- .... ....|--- .... ....|--- .... ....
....|..|E-4 2F.A ....|A-6 2F.A ....|A-6 2F.A ....
....|..|--- .... ....|--- .... ....|--- .... ....
 E-4|..|E-4 2C.F ....|A-6 2F.7 ....|A-6 2F.7 ....
....|..|--- .... ....|--- .... ....|--- .... ....
....|..|E-3 2F.A ....|A-6 2F.A ....|A-6 2F.A ....
....|..|--- .... ....|--- .... ....|--- .... ....
....|..|E-4 2F.7 ....|E-5 2F.F ....|E-5 2F.F ....
....|..|--- .... ....|--- .... ....|--- .... ....
 E-4|..|E-3 2C.F ....|--- .... ....|--- .... ....
....|..|--- .... ....|--- .... ....|--- .... ....
 E-4|..|E-4 2C.F ....|A-6 2F.7 ....|A-6 2F.7 ....
....|..|--- .... ....|--- .... ....|--- .... ....
 E-4|..|E-4 2C.F ....|E-5 2F.A ....|E-5 2F.A ....
....|..|--- .... ....|--- .... ....|--- .... ....
 E-4|..|E-4 2C.F ....|--- .... ....|--- .... ....
....|..|--- .... ....|--- .... ....|--- .... ....
....|..|E-4 2F.A ....|--- .... ....|--- .... ....
....|..|--- .... ....|--- .... ....|--- .... ....
 E-4|..|E-4 2C.F ....|E-5 2F.7 ....|E-5 2F.7 ....
....|..|--- .... ....|--- .... ....|--- .... ....
 E-4|..|E-3 2C.F ....|--- .... ....|--- .... ....
....|..|--- .... ....|--- .... ....|--- .... ....
....|..|E-4 2F.7 ....|R-- .... ....|R-- .... ....
....|..|--- .... ....|--- .... ....|--- .... ....
....|..|E-4 2F.7 ....|--- .... ....|--- .... ....
....|..|--- .... ....|--- .... ....|--- .... ....
 A-3|..|A-3 2C.F ....|E-4 2F.F ....|E-4 2F.F ....
....|..|--- .... ....|--- .... ....|--- .... ....
....|..|--- .... ....|R-- .... ....|R-- .... ....
....|..|--- .... ....|--- .... ....|--- .... ....
....|..|E-4 2F.7 ....|R-- .... ....|R-- .... ....
....|..|--- .... ....|--- .... ....|--- .... ....
....|..|E-3 2F.7 ....|E-4 2F.A ....|E-4 2F.A ....
....|..|--- .... ....|--- .... ....|--- .... ....
 E-4|..|E-4 2C.F ....|R-- .... ....|R-- .... ....
....|..|--- .... ....|--- .... ....|--- .... ....
....|..|R-- .... ....|R-- .... ....|R-- .... ....
....|..|--- .... ....|--- .... ....|--- .... ....
....|..|A-3 2F.7 ....|E-4 2F.7 ....|E-4 2F.7 ....
....|..|--- .... ....|--- .... ....|--- .... ....
....|..|E-4 2F.A ....|--- .... ....|--- .... ....
....|..|--- .... ....|--- .... ....|--- .... ....
....|..|R-- .... ....|R-- .... ....|R-- .... ....
....|..|--- .... ....|--- .... ....|--- .... ....
....|..|--- .... ....|--- .... ....|--- .... ....
....|..|--- .... ....|--- .... ....|--- .... ....
....|..|E-4 2F.7 ....|--- .... ....|--- .... ....
....|..|--- .... ....|--- .... ....|--- .... ....
....|..|--- .... ....|--- .... ....|--- .... ....
....|..|--- .... ....|--- .... ....|--- .... ....
....|..|--- .... ....|--- .... ....|--- .... ....
....|..|--- .... ....|--- .... ....|--- .... ....
....|..|R-- .... ....|--- .... ....|--- .... ....
....|..|--- .... ....|--- .... ....|--- .... ....
 E-4|..|E-3 2C.F ....|--- .... ....|--- .... ....
....|..|--- .... ....|--- .... ....|--- .... ....
....|..|--- .... ....|--- .... ....|--- .... ....
....|..|--- .... ....|--- .... ....|--- .... ....

[Pattern6]
 E-4|..|E-4 2C.F ....|A-4 2F.F ....|A-4 2F.F ....
....|..|--- .... ....|--- .... ....|--- .... ....
....|..|E-3 2F.A ....|--- .... ....|--- .... ....
....|..|--- .... ....|--- .... ....|--- .... ....
 E-4|..|E-3 2C.F ....|R-- .... ....|R-- .... ....
....|..|--- .... ....|--- .... ....|--- .... ....
....|..|E-4 2F.A ....|A-4 2F.A ....|A-4 2F.A ....
....|..|--- .... ....|--- .... ....|--- .... ....
 E-4|..|E-4 2C.F ....|A-4 2F.F ....|A-4 2F.F ....
....|..|--- .... ....|--- .... ....|--- .... ....
....|..|E-3 2F.A ....|R-- .... ....|R-- .... ....
....|..|--- .... ....|--- .... ....|--- .... ....
....|..|E-4 2F.7 ....|A-4 2F.7 ....|A-4 2F.7 ....
....|..|--- .... ....|--- .... ....|--- .... ....
 E-4|..|E-3 2C.F ....|A-4 2F.A ....|A-4 2F.A ....
....|..|--- .... ....|--- .... ....|--- .... ....
 E-4|..|E-4 2C.F ....|E-5 2F.F ....|E-5 2F.F ....
....|..|--- .... ....|--- .... ....|--- .... ....
 E-4|..|E-4 2C.F ....|E-5 2F.F ....|E-5 2F.F ....
....|..|--- .... ....|--- .... ....|--- .... ....
 E-4|..|E-4 2C.F ....|A-4 2F.7 ....|A-4 2F.7 ....
....|..|--- .... ....|--- .... ....|--- .... ....
....|..|E-4 2F.A ....|E-5 2F.A ....|E-5 2F.A ....
....|..|--- .... ....|--- .... ....|--- .... ....
 E-4|..|E-4 2C.F ....|E-5 2F.A ....|E-5 2F.A ....
....|..|--- .... ....|--- .... ....|--- .... ....
 E-4|..|E-3 2C.F ....|--- .... ....|--- .... ....
....|..|--- .... ....|--- .... ....|--- .... ....
....|..|E-4 2F.7 ....|E-5 2F.7 ....|E-5 2F.7 ....
....|..|--- .... ....|--- .... ....|--- .... ....
....|..|E-4 2F.7 ....|A-5 2F.F ....|A-5 2F.F ....
....|..|--- .... ....|--- .... ....|--- .... ....
 A-3|..|A-4 2C.F ....|A-5 2F.F ....|A-5 2F.F ....
....|..|--- .... ....|--- .... ....|--- .... ....
....|..|--- .... ....|--- .... ....|--- .... ....
....|..|--- .... ....|--- .... ....|--- .... ....
....|..|E-4 2F.7 ....|A-5 2F.F ....|A-5 2F.F ....
....|..|--- .... ....|--- .... ....|--- .... ....
....|..|E-3 2F.7 ....|A-5 2F.A ....|A-5 2F.A ....
....|..|--- .... ....|--- .... ....|--- .... ....
 E-4|..|E-4 2C.F ....|E-6 2F.F ....|E-6 2F.F ....
....|..|--- .... ....|--- .... ....|--- .... ....
....|..|R-- .... ....|E-6 2F.F ....|E-6 2F.F ....
....|..|--- .... ....|--- .... ....|--- .... ....
....|..|A-4 2F.7 ....|E-5 2F1F ....|A-6 2F.F ....
....|..|--- .... ....|--- .... ....|--- .... ....
....|..|E-4 2F.A ....|A-6 2F.F ....|A-6 2F.F ....
....|..|--- .... ....|--- .... ....|--- .... ....
....|..|R-- .... ....|A-5 2F.7 ....|A-5 2F.7 ....
....|..|--- .... ....|--- .... ....|--- .... ....
....|..|--- .... ....|E-5 2F1A ....|A-6 2F.A ....
....|..|--- .... ....|--- .... ....|--- .... ....
....|..|E-4 2F.7 ....|E-6 2F.7 ....|E-6 2F.7 ....
....|..|--- .... ....|--- .... ....|--- .... ....
....|..|--- .... ....|E-6 2F.7 ....|E-6 2F.7 ....
....|..|--- .... ....|--- .... ....|--- .... ....
....|..|--- .... ....|E-5 2F17 ....|A-6 2F.7 ....
....|..|--- .... ....|--- .... ....|--- .... ....
....|..|R-- .... ....|A-6 2F.7 ....|A-6 2F.7 ....
....|..|--- .... ....|--- .... ....|--- .... ....
 E-4|..|E-3 2C.F ....|E-4 2F.F ....|E-4 2F.F ....
....|..|--- .... ....|--- .... ....|--- .... ....
....|..|--- .... ....|--- .... ....|--- .... ....
....|..|--- .... ....|--- .... ....|--- .... ....

[Pattern7]
 E-4|..|E-4 2C.F ....|E-5 2F.F ....|E-5 2F.F ....
....|..|--- .... ....|--- .... ....|--- .... ....
....|..|E-3 2F.A ....|E-4 2F.A ....|E-4 2F.A ....
....|..|--- .... ....|--- .... ....|--- .... ....
 E-4|..|E-4 2C.F ....|E-4 2F.F ....|E-4 2F.F ....
....|..|--- .... ....|--- .... ....|--- .... ....
....|..|E-4 2F.A ....|E-5 2F.A ....|E-5 2F.A ....
....|..|--- .... ....|--- .... ....|--- .... ....
 E-4|..|E-5 2C.F ....|E-4 2F.7 ....|E-4 2F.7 ....
....|..|--- .... ....|--- .... ....|--- .... ....
 E-4|..|E-5 2C.F ....|E-4 2F.A ....|E-4 2F.A ....
....|..|--- .... ....|--- .... ....|--- .... ....
....|..|E-4 2F.7 ....|A-5 2F.F ....|A-5 2F.F ....
....|..|--- .... ....|--- .... ....|--- .... ....
....|..|E-5 2F.A ....|--- .... ....|--- .... ....
....|..|--- .... ....|--- .... ....|--- .... ....
 E-4|..|E-5 2C.F ....|E-4 2F.7 ....|E-4 2F.7 ....
....|..|--- .... ....|--- .... ....|--- .... ....
 E-4|..|E-4 2C.F ....|A-5 2F.A ....|A-5 2F.A ....
....|..|--- .... ....|--- .... ....|--- .... ....
....|..|E-5 2F.7 ....|--- .... ....|--- .... ....
....|..|--- .... ....|--- .... ....|--- .... ....
....|..|E-5 2F.7 ....|--- .... ....|--- .... ....
....|..|--- .... ....|--- .... ....|--- .... ....
....|..|E-4 2F.A ....|A-5 2F.7 ....|A-5 2F.7 ....
....|..|--- .... ....|--- .... ....|--- .... ....
....|..|--- .... ....|--- .... ....|--- .... ....
....|..|--- .... ....|--- .... ....|--- .... ....
....|..|E-5 2F.7 ....|R-- .... ....|R-- .... ....
....|..|--- .... ....|--- .... ....|--- .... ....
....|..|E-4 2F.7 ....|--- .... ....|--- .... ....
....|..|--- .... ....|--- .... ....|--- .... ....
 A-3|..|A-4 2C.F ....|E-4 2F.F ....|E-4 2F.F ....
....|..|--- .... ....|--- .... ....|--- .... ....
....|..|--- .... ....|R-- .... ....|R-- .... ....
....|..|--- .... ....|--- .... ....|--- .... ....
....|..|R-- .... ....|R-- .... ....|R-- .... ....
....|..|--- .... ....|--- .... ....|--- .... ....
....|..|A-4 2F.A ....|E-4 2F.A ....|E-4 2F.A ....
....|..|--- .... ....|--- .... ....|--- .... ....
....|..|--- .... ....|R-- .... ....|R-- .... ....
....|..|--- .... ....|--- .... ....|--- .... ....
....|..|R-- .... ....|R-- .... ....|R-- .... ....
....|..|--- .... ....|--- .... ....|--- .... ....
....|..|A-4 2F.7 ....|E-4 2F.7 ....|E-4 2F.7 ....
....|..|--- .... ....|--- .... ....|--- .... ....
....|..|--- .... ....|--- .... ....|--- .... ....
....|..|--- .... ....|--- .... ....|--- .... ....
 E-4|..|E-4 2C.F ....|R-- .... ....|R-- .... ....
....|..|--- .... ....|--- .... ....|--- .... ....
....|..|--- .... ....|--- .... ....|--- .... ....
....|..|--- .... ....|--- .... ....|--- .... ....
 E-4|..|E-4 2C.F ....|--- .... ....|--- .... ....
....|..|--- .... ....|--- .... ....|--- .... ....
....|..|E-4 2F.A ....|--- .... ....|--- .... ....
....|..|--- .... ....|--- .... ....|--- .... ....
 E-4|..|E-5 2C.F ....|--- .... ....|--- .... ....
....|..|--- .... ....|--- .... ....|--- .... ....
....|..|E-4 2F.A ....|--- .... ....|--- .... ....
....|..|--- .... ....|--- .... ....|--- .... ....
 E-4|..|E-5 2C.F ....|--- .... ....|--- .... ....
....|..|--- .... ....|--- .... ....|--- .... ....
....|..|E-5 2F.A ....|--- .... ....|--- .... ....
....|..|--- .... ....|--- .... ....|--- .... ....

[Pattern8]
 E-4|..|E-5 2C.F ....|E-5 2F.F ....|E-5 2F.F ....
....|..|--- .... ....|--- .... ....|--- .... ....
....|..|E-5 2F.A ....|--- .... ....|--- .... ....
....|..|--- .... ....|--- .... ....|--- .... ....
 E-4|..|E-5 2C.F ....|R-- .... ....|R-- .... ....
....|..|--- .... ....|--- .... ....|--- .... ....
....|..|E-5 2F.A ....|E-5 2F.A ....|E-5 2F.A ....
....|..|--- .... ....|--- .... ....|--- .... ....
 E-4|..|E-5 2C.F ....|A-5 2F.F ....|A-5 2F.F ....
....|..|--- .... ....|--- .... ....|--- .... ....
 E-4|..|E-5 2C.F ....|R-- .... ....|R-- .... ....
....|..|--- .... ....|--- .... ....|--- .... ....
....|..|E-5 2F.7 ....|E-5 2F.7 ....|E-5 2F.7 ....
....|..|--- .... ....|--- .... ....|--- .... ....
....|..|E-5 2F.A ....|A-5 2F.A ....|A-5 2F.A ....
....|..|--- .... ....|--- .... ....|--- .... ....
 E-4|..|E-5 2C.F ....|E-6 2F.F ....|E-6 2F.F ....
....|..|--- .... ....|--- .... ....|--- .... ....
 E-4|..|E-5 2C.F ....|E-6 2F.F ....|E-6 2F.F ....
....|..|--- .... ....|--- .... ....|--- .... ....
....|..|E-5 2F.7 ....|A-5 2F.7 ....|A-5 2F.7 ....
....|..|--- .... ....|--- .... ....|--- .... ....
....|..|E-5 2F.7 ....|E-6 2F.A ....|E-6 2F.A ....
....|..|--- .... ....|--- .... ....|--- .... ....
 E-4|..|E-5 2C.F ....|E-6 2F.A ....|E-6 2F.A ....
....|..|--- .... ....|--- .... ....|--- .... ....
 E-4|..|E-5 2C.F ....|--- .... ....|--- .... ....
....|..|--- .... ....|--- .... ....|--- .... ....
....|..|E-5 2F.7 ....|E-6 2F.7 ....|E-6 2F.7 ....
....|..|--- .... ....|--- .... ....|--- .... ....
....|..|E-5 2F.7 ....|F-4 2F.F ....|F-4 2F.F ....
....|..|--- .... ....|--- .... ....|--- .... ....
 A-3|..|A-4 2C.F ....|F-4 2F2F ....|A-4 2F.F ....
....|..|--- .... ....|--- .... ....|--- .... ....
....|..|--- .... ....|--- .... ....|--- .... ....
....|..|--- .... ....|--- .... ....|--- .... ....
....|..|E-5 2F.7 ....|F-4 2F.F ....|F-4 2F.F ....
....|..|--- .... ....|--- .... ....|--- .... ....
....|..|E-5 2F.7 ....|F-4 2F2A ....|A-4 2F.A ....
....|..|--- .... ....|--- .... ....|--- .... ....
....|..|--- .... ....|E-5 2F.F ....|E-5 2F.F ....
....|..|--- .... ....|--- .... ....|--- .... ....
....|..|R-- .... ....|E-5 2F.F ....|E-5 2F.F ....
....|..|--- .... ....|--- .... ....|--- .... ....
....|..|A-4 2F.7 ....|E-4 2F1F ....|A-5 2F.F ....
....|..|--- .... ....|--- .... ....|--- .... ....
....|..|--- .... ....|A-5 2F.F ....|A-5 2F.F ....
....|..|--- .... ....|--- .... ....|--- .... ....
 A-3|..|A-5 2C.F ....|F-4 2F.7 ....|F-4 2F.7 ....
....|..|--- .... ....|--- .... ....|--- .... ....
....|..|--- .... ....|E-4 2F1A ....|A-5 2F.A ....
....|..|--- .... ....|--- .... ....|--- .... ....
 A-3|..|A-5 2C.F ....|E-5 2F.7 ....|E-5 2F.7 ....
....|..|--- .... ....|--- .... ....|--- .... ....
....|..|A-5 2F.A ....|E-5 2F.7 ....|E-5 2F.7 ....
....|..|--- .... ....|--- .... ....|--- .... ....
 A-3|..|A-5 2C.F ....|E-4 2F17 ....|A-5 2F.7 ....
....|..|--- .... ....|--- .... ....|--- .... ....
....|..|A-5 2F.A ....|A-5 2F.7 ....|A-5 2F.7 ....
....|..|--- .... ....|--- .... ....|--- .... ....
 A-3|..|A-5 2C.F ....|E-6 2F.F ....|E-6 2F.F ....
....|..|--- .... ....|--- .... ....|--- .... ....
....|..|A-5 2F.A ....|--- .... ....|--- .... ....
....|..|--- .... ....|--- .... ....|--- .... ....

[Pattern9]
 A-3|..|A-5 2C.F ....|E-6 2F.F ....|E-6 2F.F ....
....|..|--- .... ....|--- .... ....|--- .... ....
....|..|A-5 2F.A ....|E-6 2F.A ....|E-6 2F.A ....
....|..|--- .... ....|--- .... ....|--- .... ....
 A-3|..|A-5 2C.F ....|E-6 2F.F ....|E-6 2F.F ....
....|..|--- .... ....|--- .... ....|--- .... ....
....|..|A-5 2F.A ....|E-6 2F.A ....|E-6 2F.A ....
....|..|--- .... ....|--- .... ....|--- .... ....
 A-3|..|A-5 2C.F ....|E-6 2F.7 ....|E-6 2F.7 ....
....|..|--- .... ....|--- .... ....|--- .... ....
 A-3|..|A-5 2C.F ....|E-6 2F.A ....|E-6 2F.A ....
....|..|--- .... ....|--- .... ....|--- .... ....
....|..|A-5 2F.7 ....|A-5 2F.F ....|A-5 2F.F ....
....|..|--- .... ....|--- .... ....|--- .... ....
....|..|A-5 2F.A ....|--- .... ....|--- .... ....
....|..|--- .... ....|--- .... ....|--- .... ....
 A-3|..|A-5 2C.F ....|E-6 2F.7 ....|E-6 2F.7 ....
....|..|--- .... ....|--- .... ....|--- .... ....
 A-3|..|A-5 2C.F ....|A-5 2F.A ....|A-5 2F.A ....
....|..|--- .... ....|--- .... ....|--- .... ....
....|..|A-5 2F.7 ....|--- .... ....|--- .... ....
....|..|--- .... ....|--- .... ....|--- .... ....
....|..|A-5 2F.7 ....|--- .... ....|--- .... ....
....|..|--- .... ....|--- .... ....|--- .... ....
 E-4|..|E-5 2C.F ....|A-5 2F.7 ....|A-5 2F.7 ....
....|..|--- .... ....|--- .... ....|--- .... ....
 E-4|..|E-5 2C.F ....|--- .... ....|--- .... ....
....|..|--- .... ....|--- .... ....|--- .... ....
....|..|A-5 2F.7 ....|R-- .... ....|R-- .... ....
....|..|--- .... ....|--- .... ....|--- .... ....
....|..|A-5 2F.7 ....|--- .... ....|--- .... ....
....|..|--- .... ....|--- .... ....|--- .... ....
 A-3|..|A-4 2C.F ....|E-6 2F.F ....|E-6 2F.F ....
....|..|--- .... ....|--- .... ....|--- .... ....
....|..|--- .... ....|R-- .... ....|R-- .... ....
....|..|--- .... ....|--- .... ....|--- .... ....
....|..|E-5 2F.7 ....|R-- .... ....|R-- .... ....
....|..|--- .... ....|--- .... ....|--- .... ....
....|..|E-5 2F.7 ....|E-6 2F.A ....|E-6 2F.A ....
....|..|--- .... ....|--- .... ....|--- .... ....
....|..|--- .... ....|R-- .... ....|R-- .... ....
....|..|--- .... ....|--- .... ....|--- .... ....
....|..|R-- .... ....|R-- .... ....|R-- .... ....
....|..|--- .... ....|--- .... ....|--- .... ....
....|..|A-4 2F.7 ....|E-6 2F.7 ....|E-6 2F.7 ....
....|..|--- .... ....|--- .... ....|--- .... ....
....|..|--- .... ....|--- .... ....|--- .... ....
....|..|--- .... ....|--- .... ....|--- .... ....
 A-3|..|A-4 2C.F ....|R-- .... ....|R-- .... ....
....|..|--- .... ....|--- .... ....|--- .... ....
....|..|--- .... ....|--- .... ....|--- .... ....
....|..|--- .... ....|--- .... ....|--- .... ....
 A-3|..|A-4 2C.F ....|--- .... ....|--- .... ....
....|..|--- .... ....|--- .... ....|--- .... ....
....|..|A-4 2F.A ....|--- .... ....|--- .... ....
....|..|--- .... ....|--- .... ....|--- .... ....
 E-4|..|E-5 2C.F ....|--- .... ....|--- .... ....
....|..|--- .... ....|--- .... ....|--- .... ....
....|..|A-4 2F.A ....|--- .... ....|--- .... ....
....|..|--- .... ....|--- .... ....|--- .... ....
 E-4|..|E-5 2C.F ....|--- .... ....|--- .... ....
....|..|--- .... ....|--- .... ....|--- .... ....
....|..|E-5 2F.A ....|--- .... ....|--- .... ....
....|..|--- .... ....|--- .... ....|--- .... ....

[Pattern10]
 E-4|..|E-5 2C.F ....|E-5 2F.F ....|E-5 2F.F ....
....|..|--- .... ....|--- .... ....|--- .... ....
....|..|E-5 2F.A ....|--- .... ....|--- .... ....
....|..|--- .... ....|--- .... ....|--- .... ....
 E-4|..|E-5 2C.F ....|R-- .... ....|R-- .... ....
....|..|--- .... ....|--- .... ....|--- .... ....
....|..|E-5 2F.A ....|E-5 2F.A ....|E-5 2F.A ....
....|..|--- .... ....|--- .... ....|--- .... ....
 E-4|..|E-5 2C.F ....|A-4 2F.F ....|A-4 2F.F ....
....|..|--- .... ....|--- .... ....|--- .... ....
 E-4|..|E-5 2C.F ....|R-- .... ....|R-- .... ....
....|..|--- .... ....|--- .... ....|--- .... ....
....|..|E-5 2F.7 ....|E-5 2F.7 ....|E-5 2F.7 ....
....|..|--- .... ....|--- .... ....|--- .... ....
....|..|E-5 2F.A ....|A-4 2F.A ....|A-4 2F.A ....
....|..|--- .... ....|--- .... ....|--- .... ....
 E-4|..|E-5 2C.F ....|E-4 2F1F ....|A-4 2F.F ....
....|..|--- .... ....|--- .... ....|--- .... ....
 E-4|..|E-5 2C.F ....|E-4 2F.F ....|E-4 2F.F ....
....|..|--- .... ....|--- .... ....|--- .... ....
....|..|E-5 2F.7 ....|A-4 2F.7 ....|A-4 2F.7 ....
....|..|--- .... ....|--- .... ....|--- .... ....
....|..|E-5 2F.7 ....|E-4 2F1A ....|A-4 2F.A ....
....|..|--- .... ....|--- .... ....|--- .... ....
 E-4|..|E-5 2C.F ....|E-4 2F.A ....|E-4 2F.A ....
....|..|--- .... ....|--- .... ....|--- .... ....
 E-4|..|E-5 2C.F ....|--- .... ....|--- .... ....
....|..|--- .... ....|--- .... ....|--- .... ....
....|..|E-5 2F.7 ....|E-4 2F17 ....|A-4 2F.7 ....
....|..|--- .... ....|--- .... ....|--- .... ....
....|..|E-5 2F.7 ....|E-5 2F.F ....|E-5 2F.F ....
....|..|--- .... ....|--- .... ....|--- .... ....
 A-3|..|A-4 2C.F ....|E-4 2F1F ....|A-5 2F.F ....
....|..|--- .... ....|--- .... ....|--- .... ....
....|..|--- .... ....|--- .... ....|--- .... ....
....|..|--- .... ....|--- .... ....|--- .... ....
....|..|E-5 2F.7 ....|E-5 2F.F ....|E-5 2F.F ....
....|..|--- .... ....|--- .... ....|--- .... ....
....|..|E-5 2F.7 ....|E-4 2F1A ....|A-5 2F.A ....
....|..|--- .... ....|--- .... ....|--- .... ....
....|..|--- .... ....|E-6 2F.F ....|E-6 2F.F ....
....|..|--- .... ....|--- .... ....|--- .... ....
....|..|R-- .... ....|E-6 2F.F ....|E-6 2F.F ....
....|..|--- .... ....|--- .... ....|--- .... ....
....|..|A-4 2F.7 ....|E-6 2F.F ....|E-6 2F.F ....
....|..|--- .... ....|--- .... ....|--- .... ....
....|..|--- .... ....|F-4 2F.F ....|F-4 2F.F ....
....|..|--- .... ....|--- .... ....|--- .... ....
 E-4|..|E-4 2C.F ....|E-5 2F.7 ....|E-5 2F.7 ....
....|..|--- .... ....|--- .... ....|--- .... ....
....|..|--- .... ....|E-6 2F.A ....|E-6 2F.A ....
....|..|--- .... ....|--- .... ....|--- .... ....
 A-3|..|A-4 2C.F ....|E-6 2F.7 ....|E-6 2F.7 ....
....|..|--- .... ....|--- .... ....|--- .... ....
....|..|E-4 2F.A ....|E-6 2F.7 ....|E-6 2F.7 ....
....|..|--- .... ....|--- .... ....|--- .... ....
 E-4|..|E-5 2C.F ....|E-6 2F.7 ....|E-6 2F.7 ....
....|..|--- .... ....|--- .... ....|--- .... ....
....|..|A-4 2F.A ....|F-4 2F.7 ....|F-4 2F.7 ....
....|..|--- .... ....|--- .... ....|--- .... ....
 E-4|..|E-5 2C.F ....|A-4 2F.F ....|A-4 2F.F ....
....|..|--- .... ....|--- .... ....|--- .... ....
....|..|E-5 2F.A ....|--- .... ....|--- .... ....
....|..|--- .... ....|--- .... ....|--- .... ....

[Pattern11]
 E-4|..|E-5 2C.F ....|E-5 2F.F ....|E-5 2F.F ....
....|..|--- .... ....|--- .... ....|--- .... ....
....|..|E-5 2F.A ....|A-4 2F.A ....|A-4 2F.A ....
....|..|--- .... ....|--- .... ....|--- .... ....
 E-4|..|E-5 2C.F ....|A-4 2F.F ....|A-4 2F.F ....
....|..|--- .... ....|--- .... ....|--- .... ....
....|..|E-5 2F.A ....|E-5 2F.A ....|E-5 2F.A ....
....|..|--- .... ....|--- .... ....|--- .... ....
 E-4|..|E-5 2C.F ....|A-4 2F.7 ....|A-4 2F.7 ....
....|..|--- .... ....|--- .... ....|--- .... ....
 E-4|..|E-5 2C.F ....|A-4 2F.A ....|A-4 2F.A ....
....|..|--- .... ....|--- .... ....|--- .... ....
....|..|E-5 2F.7 ....|A-5 2F.F ....|A-5 2F.F ....
....|..|--- .... ....|--- .... ....|--- .... ....
....|..|E-5 2F.A ....|--- .... ....|--- .... ....
....|..|--- .... ....|--- .... ....|--- .... ....
 A-3|..|A-5 2C.F ....|A-4 2F.7 ....|A-4 2F.7 ....
....|..|--- .... ....|--- .... ....|--- .... ....
 A-3|..|A-5 2C.F ....|A-5 2F.A ....|A-5 2F.A ....
....|..|--- .... ....|--- .... ....|--- .... ....
....|..|E-5 2F.7 ....|--- .... ....|--- .... ....
....|..|--- .... ....|--- .... ....|--- .... ....
....|..|E-5 2F.7 ....|--- .... ....|--- .... ....
....|..|--- .... ....|--- .... ....|--- .... ....
 E-4|..|E-5 2C.F ....|A-5 2F.7 ....|A-5 2F.7 ....
....|..|--- .... ....|--- .... ....|--- .... ....
 E-4|..|E-5 2C.F ....|--- .... ....|--- .... ....
....|..|--- .... ....|--- .... ....|--- .... ....
....|..|A-5 2F.7 ....|R-- .... ....|R-- .... ....
....|..|--- .... ....|--- .... ....|--- .... ....
....|..|A-5 2F.7 ....|--- .... ....|--- .... ....
....|..|--- .... ....|--- .... ....|--- .... ....
 A-3|..|A-4 2C.F ....|E-6 2F.F ....|E-6 2F.F ....
....|..|--- .... ....|--- .... ....|--- .... ....
....|..|--- .... ....|R-- .... ....|R-- .... ....
....|..|--- .... ....|--- .... ....|--- .... ....
....|..|E-5 2F.7 ....|R-- .... ....|R-- .... ....
....|..|--- .... ....|--- .... ....|--- .... ....
....|..|E-5 2F.7 ....|E-6 2F.A ....|E-6 2F.A ....
....|..|--- .... ....|--- .... ....|--- .... ....
....|..|--- .... ....|R-- .... ....|R-- .... ....
....|..|--- .... ....|--- .... ....|--- .... ....
....|..|R-- .... ....|R-- .... ....|R-- .... ....
....|..|--- .... ....|--- .... ....|--- .... ....
....|..|A-4 2F.7 ....|E-6 2F.7 ....|E-6 2F.7 ....
....|..|--- .... ....|--- .... ....|--- .... ....
....|..|--- .... ....|--- .... ....|--- .... ....
....|..|--- .... ....|--- .... ....|--- .... ....
 A-3|..|A-4 2C.F ....|R-- .... ....|R-- .... ....
....|..|--- .... ....|--- .... ....|--- .... ....
....|..|--- .... ....|--- .... ....|--- .... ....
....|..|--- .... ....|--- .... ....|--- .... ....
 A-3|..|A-4 2C.F ....|--- .... ....|--- .... ....
....|..|--- .... ....|--- .... ....|--- .... ....
....|..|A-4 2F.A ....|--- .... ....|--- .... ....
....|..|--- .... ....|--- .... ....|--- .... ....
 E-4|..|E-5 2C.F ....|--- .... ....|--- .... ....
....|..|--- .... ....|--- .... ....|--- .... ....
....|..|A-4 2F.A ....|--- .... ....|--- .... ....
....|..|--- .... ....|--- .... ....|--- .... ....
 E-4|..|E-5 2C.F ....|--- .... ....|--- .... ....
....|..|--- .... ....|--- .... ....|--- .... ....
....|..|E-5 2F.A ....|--- .... ....|--- .... ....
....|..|--- .... ....|--- .... ....|--- .... ....

[Pattern12]
 E-4|..|E-5 2C.F ....|E-5 2F.F ....|E-5 2F.F ....
....|..|--- .... ....|--- .... ....|--- .... ....
....|..|E-5 2F.A ....|--- .... ....|--- .... ....
....|..|--- .... ....|--- .... ....|--- .... ....
 E-4|..|E-5 2C.F ....|R-- .... ....|R-- .... ....
....|..|--- .... ....|--- .... ....|--- .... ....
....|..|E-5 2F.A ....|E-5 2F.A ....|E-5 2F.A ....
....|..|--- .... ....|--- .... ....|--- .... ....
 E-4|..|E-5 2C.F ....|A-5 2F.F ....|A-5 2F.F ....
....|..|--- .... ....|--- .... ....|--- .... ....
 E-4|..|E-5 2C.F ....|R-- .... ....|R-- .... ....
....|..|--- .... ....|--- .... ....|--- .... ....
....|..|E-5 2F.7 ....|E-5 2F.7 ....|E-5 2F.7 ....
....|..|--- .... ....|--- .... ....|--- .... ....
....|..|E-5 2F.A ....|A-5 2F.A ....|A-5 2F.A ....
....|..|--- .... ....|--- .... ....|--- .... ....
 E-4|..|E-5 2C.F ....|A-5 2F.F ....|A-5 2F.F ....
....|..|--- .... ....|--- .... ....|--- .... ....
 E-4|..|E-5 2C.F ....|E-4 2F.F ....|E-4 2F.F ....
....|..|--- .... ....|--- .... ....|--- .... ....
....|..|E-5 2F.7 ....|A-5 2F.7 ....|A-5 2F.7 ....
....|..|--- .... ....|--- .... ....|--- .... ....
....|..|E-5 2F.7 ....|A-5 2F.A ....|A-5 2F.A ....
....|..|--- .... ....|--- .... ....|--- .... ....
 E-4|..|E-5 2C.F ....|E-4 2F.A ....|E-4 2F.A ....
....|..|--- .... ....|--- .... ....|--- .... ....
 E-4|..|E-5 2C.F ....|--- .... ....|--- .... ....
....|..|--- .... ....|--- .... ....|--- .... ....
....|..|E-5 2F.7 ....|A-5 2F.7 ....|A-5 2F.7 ....
....|..|--- .... ....|--- .... ....|--- .... ....
....|..|E-5 2F.7 ....|E-6 2F.F ....|E-6 2F.F ....
....|..|--- .... ....|--- .... ....|--- .... ....
 A-3|..|A-4 2C.F ....|E-6 2F.F ....|E-6 2F.F ....
....|..|--- .... ....|--- .... ....|--- .... ....
....|..|--- .... ....|--- .... ....|--- .... ....
....|..|--- .... ....|--- .... ....|--- .... ....
....|..|E-5 2F.7 ....|E-6 2F.F ....|E-6 2F.F ....
....|..|--- .... ....|--- .... ....|--- .... ....
....|..|E-5 2F.7 ....|E-6 2F.A ....|E-6 2F.A ....
....|..|--- .... ....|--- .... ....|--- .... ....
....|..|--- .... ....|E-6 2F.F ....|E-6 2F.F ....
....|..|--- .... ....|--- .... ....|--- .... ....
....|..|R-- .... ....|E-5 2F.F ....|E-5 2F.F ....
....|..|--- .... ....|--- .... ....|--- .... ....
....|..|A-4 2F.7 ....|E-5 2F.F ....|E-5 2F.F ....
....|..|--- .... ....|--- .... ....|--- .... ....
....|..|--- .... ....|F-4 2F.F ....|F-4 2F.F ....
....|..|--- .... ....|--- .... ....|--- .... ....
 E-4|..|E-4 2C.F ....|E-6 2F.7 ....|E-6 2F.7 ....
....|..|--- .... ....|--- .... ....|--- .... ....
....|..|--- .... ....|E-5 2F.A ....|E-5 2F.A ....
....|..|--- .... ....|--- .... ....|--- .... ....
 A-3|..|A-4 2C.F ....|E-6 2F.7 ....|E-6 2F.7 ....
....|..|--- .... ....|--- .... ....|--- .... ....
....|..|E-4 2F.A ....|E-5 2F.7 ....|E-5 2F.7 ....
....|..|--- .... ....|--- .... ....|--- .... ....
 E-4|..|E-5 2C.F ....|E-5 2F.7 ....|E-5 2F.7 ....
....|..|--- .... ....|--- .... ....|--- .... ....
....|..|A-4 2F.A ....|F-4 2F.7 ....|F-4 2F.7 ....
....|..|--- .... ....|--- .... ....|--- .... ....
 E-4|..|E-5 2C.F ....|A-5 2F.F ....|A-5 2F.F ....
....|..|--- .... ....|--- .... ....|--- .... ....
....|..|E-5 2F.A ....|--- .... ....|--- .... ....
....|..|--- .... ....|--- .... ....|--- .... ....

[Pattern13]
 E-4|..|E-5 2C.F ....|E-4 2F1F ....|A-5 2F.F ....
....|..|--- .... ....|--- .... ....|--- .... ....
....|..|E-5 2F.A ....|A-5 2F.A ....|A-5 2F.A ....
....|..|--- .... ....|--- .... ....|--- .... ....
 E-4|..|E-5 2C.F ....|A-5 2F.F ....|A-5 2F.F ....
....|..|--- .... ....|--- .... ....|--- .... ....
....|..|E-5 2F.A ....|E-4 2F1A ....|A-5 2F.A ....
....|..|--- .... ....|--- .... ....|--- .... ....
 E-4|..|E-5 2C.F ....|A-5 2F.7 ....|A-5 2F.7 ....
....|..|--- .... ....|--- .... ....|--- .... ....
 E-4|..|E-5 2C.F ....|A-5 2F.A ....|A-5 2F.A ....
....|..|--- .... ....|--- .... ....|--- .... ....
....|..|E-5 2F.7 ....|A-5 2F.F ....|A-5 2F.F ....
....|..|--- .... ....|--- .... ....|--- .... ....
....|..|E-5 2F.A ....|--- .... ....|--- .... ....
....|..|--- .... ....|--- .... ....|--- .... ....
 E-4|..|E-5 2C.F ....|A-5 2F.7 ....|A-5 2F.7 ....
....|..|--- .... ....|--- .... ....|--- .... ....
 E-4|..|E-5 2C.F ....|A-5 2F.A ....|A-5 2F.A ....
....|..|--- .... ....|--- .... ....|--- .... ....
....|..|E-5 2F.7 ....|--- .... ....|--- .... ....
....|..|--- .... ....|--- .... ....|--- .... ....
....|..|E-5 2F.7 ....|--- .... ....|--- .... ....
....|..|--- .... ....|--- .... ....|--- .... ....
 E-4|..|E-5 2C.F ....|A-5 2F.7 ....|A-5 2F.7 ....
....|..|--- .... ....|--- .... ....|--- .... ....
 E-4|..|E-5 2C.F ....|--- .... ....|--- .... ....
....|..|--- .... ....|--- .... ....|--- .... ....
....|..|E-5 2F.7 ....|R-- .... ....|R-- .... ....
....|..|--- .... ....|--- .... ....|--- .... ....
....|..|E-5 2F.7 ....|--- .... ....|--- .... ....
....|..|--- .... ....|--- .... ....|--- .... ....
 A-3|..|A-5 2C.F ....|E-6 2F.F ....|E-6 2F.F ....
....|..|--- .... ....|--- .... ....|--- .... ....
....|..|--- .... ....|E-6 2F.F ....|E-6 2F.F ....
....|..|--- .... ....|--- .... ....|--- .... ....
....|..|E-5 2F.7 ....|A-4 2F.F ....|A-4 2F.F ....
....|..|--- .... ....|--- .... ....|--- .... ....
....|..|E-5 2F.7 ....|E-6 2F.A ....|E-6 2F.A ....
....|..|--- .... ....|--- .... ....|--- .... ....
....|..|--- .... ....|E-6 2F.A ....|E-6 2F.A ....
....|..|--- .... ....|--- .... ....|--- .... ....
....|..|R-- .... ....|A-4 2F.A ....|A-4 2F.A ....
....|..|--- .... ....|--- .... ....|--- .... ....
....|..|A-5 2F.7 ....|E-6 2F.7 ....|E-6 2F.7 ....
....|..|--- .... ....|--- .... ....|--- .... ....
....|..|--- .... ....|E-6 2F.7 ....|E-6 2F.7 ....
....|..|--- .... ....|--- .... ....|--- .... ....
 A-3|..|A-4 2C.F ....|A-4 2F.7 ....|A-4 2F.7 ....
....|..|--- .... ....|--- .... ....|--- .... ....
....|..|--- .... ....|R-- .... ....|R-- .... ....
....|..|--- .... ....|--- .... ....|--- .... ....
 A-3|..|A-4 2C.F ....|--- .... ....|--- .... ....
....|..|--- .... ....|--- .... ....|--- .... ....
....|..|A-4 2F.A ....|--- .... ....|--- .... ....
....|..|--- .... ....|--- .... ....|--- .... ....
 A-3|..|A-4 2C.F ....|R-- .... ....|R-- .... ....
....|..|--- .... ....|--- .... ....|--- .... ....
....|..|A-4 2F.A ....|--- .... ....|--- .... ....
....|..|--- .... ....|--- .... ....|--- .... ....
 E-4|..|E-5 2C.F ....|--- .... ....|--- .... ....
....|..|--- .... ....|--- .... ....|--- .... ....
....|..|A-4 2F.A ....|R-- .... ....|R-- .... ....
....|..|--- .... ....|--- .... ....|--- .... ....

[Pattern14]
 E-4|..|E-5 2C.F ....|E-5 2F.F ....|E-5 2F.F ....
....|..|--- .... ....|--- .... ....|--- .... ....
....|..|E-5 2F.A ....|--- .... ....|--- .... ....
....|..|--- .... ....|--- .... ....|--- .... ....
 E-4|..|E-5 2C.F ....|R-- .... ....|R-- .... ....
....|..|--- .... ....|--- .... ....|--- .... ....
....|..|E-5 2F.A ....|E-5 2F.A ....|E-5 2F.A ....
....|..|--- .... ....|--- .... ....|--- .... ....
 E-4|..|E-5 2C.F ....|A-5 2F.F ....|A-5 2F.F ....
....|..|--- .... ....|--- .... ....|--- .... ....
 E-4|..|E-5 2C.F ....|R-- .... ....|R-- .... ....
....|..|--- .... ....|--- .... ....|--- .... ....
....|..|E-5 2F.7 ....|E-5 2F.7 ....|E-5 2F.7 ....
....|..|--- .... ....|--- .... ....|--- .... ....
....|..|E-5 2F.A ....|A-5 2F.A ....|A-5 2F.A ....
....|..|--- .... ....|--- .... ....|--- .... ....
 E-4|..|E-5 2C.F ....|A-5 2F.F ....|A-5 2F.F ....
....|..|--- .... ....|--- .... ....|--- .... ....
 E-4|..|E-5 2C.F ....|E-4 2F.F ....|E-4 2F.F ....
....|..|--- .... ....|--- .... ....|--- .... ....
....|..|E-5 2F.7 ....|A-5 2F.7 ....|A-5 2F.7 ....
....|..|--- .... ....|--- .... ....|--- .... ....
....|..|E-5 2F.7 ....|A-5 2F.A ....|A-5 2F.A ....
....|..|--- .... ....|--- .... ....|--- .... ....
 E-4|..|E-5 2C.F ....|E-4 2F.A ....|E-4 2F.A ....
....|..|--- .... ....|--- .... ....|--- .... ....
 E-4|..|E-5 2C.F ....|--- .... ....|--- .... ....
....|..|--- .... ....|--- .... ....|--- .... ....
....|..|E-5 2F.7 ....|A-5 2F.7 ....|A-5 2F.7 ....
....|..|--- .... ....|--- .... ....|--- .... ....
....|..|E-5 2F.7 ....|E-6 2F.F ....|E-6 2F.F ....
....|..|--- .... ....|--- .... ....|--- .... ....
 A-3|..|A-4 2C.F ....|E-6 2F.F ....|E-6 2F.F ....
....|..|--- .... ....|--- .... ....|--- .... ....
....|..|--- .... ....|--- .... ....|--- .... ....
....|..|--- .... ....|--- .... ....|--- .... ....
....|..|E-5 2F.7 ....|E-6 2F.F ....|E-6 2F.F ....
....|..|--- .... ....|--- .... ....|--- .... ....
....|..|E-5 2F.7 ....|E-6 2F.A ....|E-6 2F.A ....
....|..|--- .... ....|--- .... ....|--- .... ....
....|..|--- .... ....|E-6 2F.F ....|E-6 2F.F ....
....|..|--- .... ....|--- .... ....|--- .... ....
....|..|R-- .... ....|E-5 2F.F ....|E-5 2F.F ....
....|..|--- .... ....|--- .... ....|--- .... ....
....|..|A-4 2F.7 ....|E-4 2F1F ....|A-5 2F.F ....
....|..|--- .... ....|--- .... ....|--- .... ....
....|..|--- .... ....|A-5 2F.F ....|A-5 2F.F ....
....|..|--- .... ....|--- .... ....|--- .... ....
 E-4|..|E-4 2C.F ....|E-6 2F.7 ....|E-6 2F.7 ....
....|..|--- .... ....|--- .... ....|--- .... ....
....|..|--- .... ....|E-4 2F1A ....|A-5 2F.A ....
....|..|--- .... ....|--- .... ....|--- .... ....
 A-3|..|A-4 2C.F ....|E-6 2F.7 ....|E-6 2F.7 ....
....|..|--- .... ....|--- .... ....|--- .... ....
....|..|E-4 2F.A ....|E-5 2F.7 ....|E-5 2F.7 ....
....|..|--- .... ....|--- .... ....|--- .... ....
 E-4|..|E-5 2C.F ....|E-4 2F17 ....|A-5 2F.7 ....
....|..|--- .... ....|--- .... ....|--- .... ....
....|..|A-4 2F.A ....|A-5 2F.7 ....|A-5 2F.7 ....
....|..|--- .... ....|--- .... ....|--- .... ....
 E-4|..|E-5 2C.F ....|E-6 2F.F ....|E-6 2F.F ....
....|..|--- .... ....|--- .... ....|--- .... ....
....|..|E-5 2F.A ....|--- .... ....|--- .... ....
....|..|--- .... ....|--- .... ....|--- .... ....

[Pattern15]
 E-4|..|E-5 2C.F ....|E-6 2F.F ....|E-6 2F.F ....
....|..|--- .... ....|--- .... ....|--- .... ....
....|..|E-5 2F.A ....|E-6 2F.A ....|E-6 2F.A ....
....|..|--- .... ....|--- .... ....|--- .... ....
 E-4|..|E-5 2C.F ....|E-6 2F.F ....|E-6 2F.F ....
....|..|--- .... ....|--- .... ....|--- .... ....
....|..|E-5 2F.A ....|E-6 2F.A ....|E-6 2F.A ....
....|..|--- .... ....|--- .... ....|--- .... ....
 E-4|..|E-5 2C.F ....|E-6 2F.7 ....|E-6 2F.7 ....
....|..|--- .... ....|--- .... ....|--- .... ....
 E-4|..|E-5 2C.F ....|E-6 2F.F ....|E-6 2F.F ....
....|..|--- .... ....|--- .... ....|--- .... ....
 E-4|..|E-5 2C.F ....|A-5 2F.F ....|A-5 2F.F ....
....|..|--- .... ....|--- .... ....|--- .... ....
 E-4|..|E-5 2C.F ....|--- .... ....|--- .... ....
....|..|--- .... ....|--- .... ....|--- .... ....
 E-4|..|E-5 2C.F ....|E-6 2F.7 ....|E-6 2F.7 ....
....|..|--- .... ....|--- .... ....|--- .... ....
 E-4|..|E-5 2C.F ....|A-5 2F.A ....|A-5 2F.A ....
....|..|--- .... ....|--- .... ....|--- .... ....
 E-4|..|E-5 2C.F ....|R-- .... ....|R-- .... ....
....|..|--- .... ....|--- .... ....|--- .... ....
 E-4|..|E-5 2C.F ....|E-6 2F.7 ....|E-6 2F.7 ....
....|..|--- .... ....|--- .... ....|--- .... ....
 E-4|..|E-5 2C.F ....|E-6 2F.F ....|E-6 2F.F ....
....|..|--- .... ....|--- .... ....|--- .... ....
 E-4|..|E-5 2C.F ....|R-- .... ....|R-- .... ....
....|..|--- .... ....|--- .... ....|--- .... ....
....|..|E-5 2F.7 ....|E-6 2F.F ....|E-6 2F.F ....
....|..|--- .... ....|--- .... ....|--- .... ....
 E-4|..|E-4 2C.F ....|A-5 2F.F ....|A-5 2F.F ....
....|..|--- .... ....|--- .... ....|--- .... ....
 A-3|..|A-4 2C.F ....|E-6 2F.F ....|E-6 2F.F ....
....|..|--- .... ....|--- .... ....|--- .... ....
 A-3|..|A-4 2C.F ....|E-6 2F.F ....|E-6 2F.F ....
....|..|--- .... ....|--- .... ....|--- .... ....
 A-3|..|A-4 2C.F ....|E-6 2F.7 ....|E-6 2F.7 ....
....|..|--- .... ....|--- .... ....|--- .... ....
....|..|E-5 2F.7 ....|E-6 2F.A ....|E-6 2F.A ....
....|..|--- .... ....|--- .... ....|--- .... ....
 A-3|..|A-4 2C.F ....|E-6 2F.7 ....|E-6 2F.7 ....
....|..|--- .... ....|--- .... ....|--- .... ....
 E-4|..|E-4 2C.F ....|A-4 2F.F ....|A-4 2F.F ....
....|..|--- .... ....|--- .... ....|--- .... ....
 E-4|..|E-4 2C.F ....|E-6 2F.7 ....|E-6 2F.7 ....
....|..|--- .... ....|--- .... ....|--- .... ....
....|..|A-4 2F.7 ....|E-6 2F.7 ....|E-6 2F.7 ....
....|..|--- .... ....|--- .... ....|--- .... ....
 E-4|..|E-4 2C.F ....|A-4 2F.A ....|A-4 2F.A ....
....|..|--- .... ....|--- .... ....|--- .... ....
 E-4|..|E-4 2C.F ....|--- .... ....|--- .... ....
....|..|--- .... ....|--- .... ....|--- .... ....
 E-4|..|E-4 2C.F ....|R-- .... ....|R-- .... ....
....|..|--- .... ....|--- .... ....|--- .... ....
 E-4|..|E-4 2C.F ....|A-4 2F.7 ....|A-4 2F.7 ....
....|..|--- .... ....|--- .... ....|--- .... ....
 A-3|..|A-4 2C.F ....|E-5 2F.F ....|E-5 2F.F ....
....|..|--- .... ....|--- .... ....|--- .... ....
 A-3|..|A-4 2C.F ....|R-- .... ....|R-- .... ....
....|..|--- .... ....|--- .... ....|--- .... ....
....|..|E-4 2F.7 ....|E-4 2F1F ....|A-5 2F.F ....
....|..|--- .... ....|--- .... ....|--- .... ....
....|..|E-4 2F.7 ....|A-5 2F.F ....|A-5 2F.F ....
....|..|--- .... ....|--- .... ....|--- .... ....

[Pattern16]
 A-3|..|A-4 2C.F ....|E-4 2F1F ....|A-5 2F.F ....
....|..|--- .... ....|--- .... ....|--- .... ....
 E-4|..|E-4 2C.F ....|E-5 2F.F ....|E-5 2F.F ....
....|..|--- .... ....|--- .... ....|--- .... ....
 E-4|..|E-4 2C.F ....|E-5 2F.7 ....|E-5 2F.7 ....
....|..|--- .... ....|--- .... ....|--- .... ....
....|..|A-4 2F.7 ....|E-4 2F1A ....|A-5 2F.A ....
....|..|--- .... ....|--- .... ....|--- .... ....
 E-4|..|E-4 2C.F ....|E-4 2F17 ....|A-5 2F.7 ....
....|..|--- .... ....|--- .... ....|--- .... ....
 E-4|..|E-4 2C.F ....|A-5 2F.F ....|A-5 2F.F ....
....|..|--- .... ....|--- .... ....|--- .... ....
 E-4|..|E-5 2C.F ....|E-4 2F17 ....|A-5 2F.7 ....
....|..|--- .... ....|--- .... ....|--- .... ....
....|..|E-4 2F.7 ....|E-5 2F.7 ....|E-5 2F.7 ....
....|..|--- .... ....|--- .... ....|--- .... ....
 E-4|..|E-5 2C.F ....|A-5 2F.A ....|A-5 2F.A ....
....|..|--- .... ....|--- .... ....|--- .... ....
 E-4|..|E-4 2C.F ....|--- .... ....|--- .... ....
....|..|--- .... ....|--- .... ....|--- .... ....
....|..|E-4 2F.7 ....|R-- .... ....|R-- .... ....
....|..|--- .... ....|--- .... ....|--- .... ....
....|..|E-4 2F.7 ....|A-5 2F.7 ....|A-5 2F.7 ....
....|..|--- .... ....|--- .... ....|--- .... ....
....|..|E-5 2F.7 ....|E-6 2F.F ....|E-6 2F.F ....
....|..|--- .... ....|--- .... ....|--- .... ....
....|..|--- .... ....|R-- .... ....|R-- .... ....
....|..|--- .... ....|--- .... ....|--- .... ....
....|..|E-5 2F.7 ....|E-6 2F.F ....|E-6 2F.F ....
....|..|--- .... ....|--- .... ....|--- .... ....
....|..|E-4 2F.7 ....|A-5 2F.F ....|A-5 2F.F ....
....|..|--- .... ....|--- .... ....|--- .... ....
 E-4|..|E-5 2C.F ....|E-6 2F.F ....|E-6 2F.F ....
....|..|--- .... ....|--- .... ....|--- .... ....
....|..|R-- .... ....|E-6 2F.F ....|E-6 2F.F ....
....|..|--- .... ....|--- .... ....|--- .... ....
 E-4|..|E-4 2C.F ....|E-6 2F.7 ....|E-6 2F.7 ....
....|..|--- .... ....|--- .... ....|--- .... ....
....|..|E-5 2F.A ....|E-6 2F.A ....|E-6 2F.A ....
....|..|--- .... ....|--- .... ....|--- .... ....
 E-4|..|E-4 2C.F ....|E-6 2F.7 ....|E-6 2F.7 ....
....|..|--- .... ....|--- .... ....|--- .... ....
 A-3|..|A-4 2C.F ....|A-4 2F.F ....|A-4 2F.F ....
....|..|--- .... ....|--- .... ....|--- .... ....
 E-4|..|E-5 2C.F ....|E-6 2F.7 ....|E-6 2F.7 ....
....|..|--- .... ....|--- .... ....|--- .... ....
 E-4|..|E-5 2C.F ....|E-6 2F.7 ....|E-6 2F.7 ....
....|..|--- .... ....|--- .... ....|--- .... ....
....|..|E-4 2F.7 ....|A-4 2F.A ....|A-4 2F.A ....
....|..|--- .... ....|--- .... ....|--- .... ....
....|..|E-5 2F.A ....|--- .... ....|--- .... ....
....|..|--- .... ....|--- .... ....|--- .... ....
 A-3|..|A-5 2C.F ....|R-- .... ....|R-- .... ....
....|..|--- .... ....|--- .... ....|--- .... ....
....|..|A-4 2F.7 ....|A-4 2F.7 ....|A-4 2F.7 ....
....|..|--- .... ....|--- .... ....|--- .... ....
 A-3|..|A-5 2C.F ....|E-5 2F.F ....|E-5 2F.F ....
....|..|--- .... ....|--- .... ....|--- .... ....
 A-3|..|A-5 2C.F ....|R-- .... ....|R-- .... ....
....|..|--- .... ....|--- .... ....|--- .... ....
....|..|--- .... ....|E-4 2F1F ....|A-5 2F.F ....
....|..|--- .... ....|--- .... ....|--- .... ....
....|..|A-5 2F.A ....|A-5 2F.F ....|A-5 2F.F ....
....|..|--- .... ....|--- .... ....|--- .... ....

[Pattern17]
 A-3|..|A-5 2C.F ....|E-4 2F1F ....|A-5 2F.F ....
....|..|--- .... ....|--- .... ....|--- .... ....
 E-4|..|E-4 2C.F ....|E-5 2F.F ....|E-5 2F.F ....
....|..|--- .... ....|--- .... ....|--- .... ....
 A-3|..|A-4 2C.F ....|E-5 2F.7 ....|E-5 2F.7 ....
....|..|--- .... ....|--- .... ....|--- .... ....
....|..|A-5 2F.7 ....|E-4 2F1A ....|A-5 2F.A ....
....|..|--- .... ....|--- .... ....|--- .... ....
 A-3|..|A-4 2C.F ....|E-4 2F17 ....|A-5 2F.7 ....
....|..|--- .... ....|--- .... ....|--- .... ....
 E-4|..|E-5 2C.F ....|A-5 2F.F ....|A-5 2F.F ....
....|..|--- .... ....|--- .... ....|--- .... ....
 E-4|..|E-5 2C.F ....|E-4 2F17 ....|A-5 2F.7 ....
....|..|--- .... ....|--- .... ....|--- .... ....
 E-4|..|E-3 2C.F ....|E-5 2F.7 ....|E-5 2F.7 ....
....|..|--- .... ....|--- .... ....|--- .... ....
 A-3|..|A-5 2C.F ....|A-5 2F.A ....|A-5 2F.A ....
....|..|--- .... ....|--- .... ....|--- .... ....
 A-3|..|A-5 2C.F ....|--- .... ....|--- .... ....
....|..|--- .... ....|--- .... ....|--- .... ....
 A-3|..|A-5 2C.F ....|R-- .... ....|R-- .... ....
....|..|--- .... ....|--- .... ....|--- .... ....
 A-3|..|A-3 2C.F ....|A-5 2F.7 ....|A-5 2F.7 ....
....|..|--- .... ....|--- .... ....|--- .... ....
 E-4|..|E-4 2C.F ....|E-6 2F.F ....|E-6 2F.F ....
....|..|--- .... ....|--- .... ....|--- .... ....
 E-4|..|E-4 2C.F ....|R-- .... ....|R-- .... ....
....|..|--- .... ....|--- .... ....|--- .... ....
....|..|A-5 2F.7 ....|E-6 2F.F ....|E-6 2F.F ....
....|..|--- .... ....|--- .... ....|--- .... ....
....|..|A-5 2F.7 ....|A-5 2F.F ....|A-5 2F.F ....
....|..|--- .... ....|--- .... ....|--- .... ....
 A-3|..|A-4 2C.F ....|A-5 2F.F ....|A-5 2F.F ....
....|..|--- .... ....|--- .... ....|--- .... ....
 A-3|..|A-4 2C.F ....|E-4 2F.F ....|E-4 2F.F ....
....|..|--- .... ....|--- .... ....|--- .... ....
 A-3|..|A-4 2C.F ....|E-6 2F.7 ....|E-6 2F.7 ....
....|..|--- .... ....|--- .... ....|--- .... ....
....|..|E-4 2F.7 ....|A-5 2F.A ....|A-5 2F.A ....
....|..|--- .... ....|--- .... ....|--- .... ....
 A-3|..|A-4 2C.F ....|E-6 2F.7 ....|E-6 2F.7 ....
....|..|--- .... ....|--- .... ....|--- .... ....
 E-4|..|E-4 2C.F ....|E-4 2F.F ....|E-4 2F.F ....
....|..|--- .... ....|--- .... ....|--- .... ....
 E-4|..|E-3 2C.F ....|A-5 2F.7 ....|A-5 2F.7 ....
....|..|--- .... ....|--- .... ....|--- .... ....
....|..|A-4 2F.7 ....|E-4 2F.7 ....|E-4 2F.7 ....
....|..|--- .... ....|--- .... ....|--- .... ....
 E-4|..|E-4 2C.F ....|E-6 2F.F ....|E-6 2F.F ....
....|..|--- .... ....|--- .... ....|--- .... ....
 E-4|..|E-4 2C.F ....|--- .... ....|--- .... ....
....|..|--- .... ....|--- .... ....|--- .... ....
 E-4|..|E-4 2C.F ....|E-6 2F.F ....|E-6 2F.F ....
....|..|--- .... ....|--- .... ....|--- .... ....
 E-4|..|E-4 2C.F ....|E-4 2F.7 ....|E-4 2F.7 ....
....|..|--- .... ....|--- .... ....|--- .... ....
 E-4|..|E-4 2C.F ....|E-4 2F.F ....|E-4 2F.F ....
....|..|--- .... ....|--- .... ....|--- .... ....
 A-3|..|A-3 2C.F ....|E-6 2F.A ....|E-6 2F.A ....
....|..|--- .... ....|--- .... ....|--- .... ....
....|..|E-4 2F.7 ....|E-4 2F.F ....|E-4 2F.F ....
....|..|--- .... ....|--- .... ....|--- .... ....
....|..|E-4 2F.7 ....|E-4 2F.F ....|E-4 2F.F ....
....|..|--- .... ....|--- .... ....|--- .... ....

[Pattern18]
 E-4|..|E-4 2C.F ....|E-5 2F.F ....|E-5 2F.F ....
....|..|--- .... ....|--- .... ....|--- .... ....
 E-4|..|E-4 2C.F ....|E-5 2F.F ....|E-5 2F.F ....
....|..|--- .... ....|--- .... ....|--- .... ....
 A-3|..|A-4 2C.F ....|E-4 2F.7 ....|E-4 2F.7 ....
....|..|--- .... ....|--- .... ....|--- .... ....
....|..|A-3 2F.7 ....|E-5 2F.A ....|E-5 2F.A ....
....|..|--- .... ....|--- .... ....|--- .... ....
 A-3|..|A-4 2C.F ....|E-4 2F.7 ....|E-4 2F.7 ....
....|..|--- .... ....|--- .... ....|--- .... ....
 E-4|..|E-4 2C.F ....|A-5 2F.F ....|A-5 2F.F ....
....|..|--- .... ....|--- .... ....|--- .... ....
 E-4|..|E-5 2C.F ....|E-5 2F.7 ....|E-5 2F.7 ....
....|..|--- .... ....|--- .... ....|--- .... ....
....|..|E-4 2F.7 ....|E-5 2F.7 ....|E-5 2F.7 ....
....|..|--- .... ....|--- .... ....|--- .... ....
 E-4|..|E-5 2C.F ....|A-5 2F.A ....|A-5 2F.A ....
....|..|--- .... ....|--- .... ....|--- .... ....
 E-4|..|E-4 2C.F ....|--- .... ....|--- .... ....
....|..|--- .... ....|--- .... ....|--- .... ....
....|..|A-4 2F.7 ....|R-- .... ....|R-- .... ....
....|..|--- .... ....|--- .... ....|--- .... ....
....|..|E-4 2F.7 ....|A-5 2F.7 ....|A-5 2F.7 ....
....|..|--- .... ....|--- .... ....|--- .... ....
....|..|E-5 2F.7 ....|E-6 2F.F ....|E-6 2F.F ....
....|..|--- .... ....|--- .... ....|--- .... ....
....|..|--- .... ....|R-- .... ....|R-- .... ....
....|..|--- .... ....|--- .... ....|--- .... ....
....|..|E-5 2F.7 ....|E-6 2F.F ....|E-6 2F.F ....
....|..|--- .... ....|--- .... ....|--- .... ....
....|..|E-4 2F.7 ....|A-5 2F.F ....|A-5 2F.F ....
....|..|--- .... ....|--- .... ....|--- .... ....
 E-4|..|E-5 2C.F ....|E-6 2F.F ....|E-6 2F.F ....
....|..|--- .... ....|--- .... ....|--- .... ....
....|..|R-- .... ....|E-6 2F.F ....|E-6 2F.F ....
....|..|--- .... ....|--- .... ....|--- .... ....
 E-4|..|E-4 2C.F ....|E-6 2F.7 ....|E-6 2F.7 ....
....|..|--- .... ....|--- .... ....|--- .... ....
....|..|E-5 2F.A ....|E-6 2F.A ....|E-6 2F.A ....
....|..|--- .... ....|--- .... ....|--- .... ....
 E-4|..|E-4 2C.F ....|E-6 2F.7 ....|E-6 2F.7 ....
....|..|--- .... ....|--- .... ....|--- .... ....
 A-3|..|A-4 2C.F ....|A-4 2F.F ....|A-4 2F.F ....
....|..|--- .... ....|--- .... ....|--- .... ....
 E-4|..|E-5 2C.F ....|E-6 2F.7 ....|E-6 2F.7 ....
....|..|--- .... ....|--- .... ....|--- .... ....
 E-4|..|E-5 2C.F ....|E-6 2F.7 ....|E-6 2F.7 ....
....|..|--- .... ....|--- .... ....|--- .... ....
....|..|E-4 2F.7 ....|A-4 2F.A ....|A-4 2F.A ....
....|..|--- .... ....|--- .... ....|--- .... ....
....|..|E-5 2F.A ....|--- .... ....|--- .... ....
....|..|--- .... ....|--- .... ....|--- .... ....
 A-3|..|A-5 2C.F ....|R-- .... ....|R-- .... ....
....|..|--- .... ....|--- .... ....|--- .... ....
....|..|A-4 2F.7 ....|A-4 2F.7 ....|A-4 2F.7 ....
....|..|--- .... ....|--- .... ....|--- .... ....
 A-3|..|A-5 2C.F ....|E-4 2F.F ....|E-4 2F.F ....
....|..|--- .... ....|--- .... ....|--- .... ....
 A-3|..|A-5 2C.F ....|E-5 2F.F ....|E-5 2F.F ....
....|..|--- .... ....|--- .... ....|--- .... ....
....|..|--- .... ....|E-4 2F1F ....|A-5 2F.F ....
....|..|--- .... ....|--- .... ....|--- .... ....
....|..|A-5 2F.A ....|A-5 2F.F ....|A-5 2F.F ....
....|..|--- .... ....|--- .... ....|--- .... ....

[Pattern19]
 A-3|..|A-5 2C.F ....|E-4 2F1F ....|A-5 2F.F ....
....|..|--- .... ....|--- .... ....|--- .... ....
 E-4|..|E-4 2C.F ....|E-5 2F.F ....|E-5 2F.F ....
....|..|--- .... ....|--- .... ....|--- .... ....
 A-3|..|A-4 2C.F ....|E-4 2F.7 ....|E-4 2F.7 ....
....|..|--- .... ....|--- .... ....|--- .... ....
....|..|A-5 2F.7 ....|E-5 2F.7 ....|E-5 2F.7 ....
....|..|--- .... ....|--- .... ....|--- .... ....
 A-3|..|A-4 2C.F ....|E-4 2F17 ....|A-5 2F.7 ....
....|..|--- .... ....|--- .... ....|--- .... ....
 E-4|..|E-4 2C.F ....|A-5 2F.F ....|A-5 2F.F ....
....|..|--- .... ....|--- .... ....|--- .... ....
 E-4|..|E-4 2C.F ....|E-4 2F17 ....|A-5 2F.7 ....
....|..|--- .... ....|--- .... ....|--- .... ....
 E-4|..|E-3 2C.F ....|E-5 2F.7 ....|E-5 2F.7 ....
....|..|--- .... ....|--- .... ....|--- .... ....
 A-3|..|A-4 2C.F ....|A-5 2F.A ....|A-5 2F.A ....
....|..|--- .... ....|--- .... ....|--- .... ....
 A-3|..|A-4 2C.F ....|--- .... ....|--- .... ....
....|..|--- .... ....|--- .... ....|--- .... ....
 E-4|..|E-5 2C.F ....|R-- .... ....|R-- .... ....
....|..|--- .... ....|--- .... ....|--- .... ....
 E-4|..|E-5 2C.F ....|A-5 2F.7 ....|A-5 2F.7 ....
....|..|--- .... ....|--- .... ....|--- .... ....
 E-4|..|E-5 2C.F ....|E-6 2F.F ....|E-6 2F.F ....
....|..|--- .... ....|--- .... ....|--- .... ....
 E-4|..|E-4 2C.F ....|R-- .... ....|R-- .... ....
....|..|--- .... ....|--- .... ....|--- .... ....
....|..|A-4 2F.7 ....|E-6 2F.F ....|E-6 2F.F ....
....|..|--- .... ....|--- .... ....|--- .... ....
....|..|A-4 2F.7 ....|A-5 2F.F ....|A-5 2F.F ....
....|..|--- .... ....|--- .... ....|--- .... ....
 A-3|..|A-4 2C.F ....|E-6 2F.F ....|E-6 2F.F ....
....|..|--- .... ....|--- .... ....|--- .... ....
 A-3|..|A-4 2C.F ....|E-6 2F.F ....|E-6 2F.F ....
....|..|--- .... ....|R-- .... ....|R-- .... ....
 E-4|..|E-3 2C.F ....|E-6 2F.7 ....|E-6 2F.7 ....
....|..|--- .... ....|--- .... ....|--- .... ....
....|..|E-4 2F.7 ....|E-6 2F.A ....|E-6 2F.A ....
....|..|--- .... ....|--- .... ....|--- .... ....
 A-3|..|A-4 2C.F ....|E-6 2F.7 ....|E-6 2F.7 ....
....|..|--- .... ....|R-- .... ....|R-- .... ....
 A-3|..|A-4 2C.F ....|A-4 2F.F ....|A-4 2F.F ....
....|..|--- .... ....|--- .... ....|--- .... ....
 E-4|..|E-3 2C.F ....|E-6 2F.7 ....|E-6 2F.7 ....
....|..|--- .... ....|--- .... ....|--- .... ....
....|..|A-4 2F.7 ....|E-6 2F.7 ....|E-6 2F.7 ....
....|..|--- .... ....|R-- .... ....|R-- .... ....
 E-4|..|E-5 2C.F ....|A-4 2F.A ....|A-4 2F.A ....
....|..|--- .... ....|--- .... ....|--- .... ....
 E-4|..|E-5 2C.F ....|--- .... ....|--- .... ....
....|..|--- .... ....|--- .... ....|--- .... ....
 E-4|..|E-5 2C.F ....|R-- .... ....|R-- .... ....
....|..|--- .... ....|--- .... ....|--- .... ....
 A-3|..|A-4 2C.F ....|A-4 2F.7 ....|A-4 2F.7 ....
....|..|--- .... ....|--- .... ....|--- .... ....
 A-3|..|A-4 2C.F ....|E-5 2F.F ....|E-5 2F.F ....
....|..|--- .... ....|--- .... ....|--- .... ....
 A-3|..|A-3 2C.F ....|R-- .... ....|R-- .... ....
....|..|--- .... ....|--- .... ....|--- .... ....
....|..|E-5 2F.7 ....|E-4 2F1F ....|A-5 2F.F ....
....|..|--- .... ....|--- .... ....|--- .... ....
....|..|E-5 2F.7 ....|A-5 2F.F ....|A-5 2F.F ....
....|..|--- .... ....|--- .... ....|--- .... ....

[Pattern20]
 A-3|..|A-4 2C.F ....|E-4 2F1F ....|A-5 2F.F ....
....|..|--- .... ....|--- .... ....|--- .... ....
 A-3|..|A-4 2C.F ....|E-5 2F.F ....|E-5 2F.F ....
....|..|--- .... ....|--- .... ....|--- .... ....
 E-4|..|E-4 2C.F ....|E-5 2F.7 ....|E-5 2F.7 ....
....|..|--- .... ....|--- .... ....|--- .... ....
....|..|A-3 2F.7 ....|E-4 2F1A ....|A-5 2F.A ....
....|..|--- .... ....|--- .... ....|--- .... ....
 E-4|..|E-4 2C.F ....|E-4 2F17 ....|A-5 2F.7 ....
....|..|--- .... ....|--- .... ....|--- .... ....
 E-4|..|E-4 2C.F ....|A-5 2F.F ....|A-5 2F.F ....
....|..|--- .... ....|--- .... ....|--- .... ....
 E-4|..|E-5 2C.F ....|E-4 2F17 ....|A-5 2F.7 ....
....|..|--- .... ....|--- .... ....|--- .... ....
....|..|A-4 2F.7 ....|E-5 2F.7 ....|E-5 2F.7 ....
....|..|--- .... ....|--- .... ....|--- .... ....
 E-4|..|E-5 2C.F ....|A-5 2F.A ....|A-5 2F.A ....
....|..|--- .... ....|--- .... ....|--- .... ....
 E-4|..|E-4 2C.F ....|--- .... ....|--- .... ....
....|..|--- .... ....|--- .... ....|--- .... ....
....|..|E-4 2F.7 ....|R-- .... ....|R-- .... ....
....|..|--- .... ....|--- .... ....|--- .... ....
....|..|E-4 2F.7 ....|A-5 2F.7 ....|A-5 2F.7 ....
....|..|--- .... ....|--- .... ....|--- .... ....
....|..|E-5 2F.7 ....|E-6 2F.F ....|E-6 2F.F ....
....|..|--- .... ....|--- .... ....|--- .... ....
....|..|--- .... ....|R-- .... ....|R-- .... ....
....|..|--- .... ....|--- .... ....|--- .... ....
....|..|E-5 2F.7 ....|E-6 2F.F ....|E-6 2F.F ....
....|..|--- .... ....|--- .... ....|--- .... ....
....|..|E-4 2F.7 ....|A-5 2F.F ....|A-5 2F.F ....
....|..|--- .... ....|--- .... ....|--- .... ....
 E-4|..|E-5 2C.F ....|A-5 2F.F ....|A-5 2F.F ....
....|..|--- .... ....|--- .... ....|--- .... ....
....|..|R-- .... ....|E-4 2F.F ....|E-4 2F.F ....
....|..|--- .... ....|--- .... ....|--- .... ....
 E-4|..|E-4 2C.F ....|E-6 2F.7 ....|E-6 2F.7 ....
....|..|--- .... ....|--- .... ....|--- .... ....
....|..|E-5 2F.A ....|A-5 2F.A ....|A-5 2F.A ....
....|..|--- .... ....|--- .... ....|--- .... ....
 E-4|..|E-4 2C.F ....|E-6 2F.7 ....|E-6 2F.7 ....
....|..|--- .... ....|--- .... ....|--- .... ....
 E-4|..|E-4 2C.F ....|E-6 2F.F ....|E-6 2F.F ....
....|..|--- .... ....|--- .... ....|--- .... ....
 A-3|..|A-4 2C.F ....|A-5 2F.7 ....|A-5 2F.7 ....
....|..|--- .... ....|--- .... ....|--- .... ....
 A-3|..|A-4 2C.F ....|E-4 2F.7 ....|E-4 2F.7 ....
....|..|--- .... ....|--- .... ....|--- .... ....
....|..|E-4 2F.7 ....|E-6 2F.A ....|E-6 2F.A ....
....|..|--- .... ....|--- .... ....|--- .... ....
....|..|A-4 2F.A ....|--- .... ....|--- .... ....
....|..|--- .... ....|--- .... ....|--- .... ....
 E-4|..|E-5 2C.F ....|R-- .... ....|R-- .... ....
....|..|--- .... ....|--- .... ....|--- .... ....
....|..|E-4 2F.7 ....|E-6 2F.7 ....|E-6 2F.7 ....
....|..|--- .... ....|--- .... ....|--- .... ....
 A-3|..|A-5 2C.F ....|A-4 2F.F ....|A-4 2F.F ....
....|..|--- .... ....|--- .... ....|--- .... ....
 A-3|..|A-5 2C.F ....|R-- .... ....|R-- .... ....
....|..|--- .... ....|--- .... ....|--- .... ....
....|..|--- .... ....|E-5 2F.F ....|E-5 2F.F ....
....|..|--- .... ....|--- .... ....|--- .... ....
....|..|A-5 2F.A ....|E-5 2F.F ....|E-5 2F.F ....
....|..|--- .... ....|--- .... ....|--- .... ....

[Pattern21]
 A-3|..|A-5 2C.F ....|E-5 2F.F ....|E-5 2F.F ....
....|..|--- .... ....|--- .... ....|--- .... ....
 E-4|..|E-4 2C.F ....|E-5 2F.F ....|E-5 2F.F ....
....|..|--- .... ....|--- .... ....|--- .... ....
 A-3|..|A-4 2C.F ....|A-4 2F.7 ....|A-4 2F.7 ....
....|..|--- .... ....|--- .... ....|--- .... ....
....|..|A-5 2F.7 ....|E-5 2F.A ....|E-5 2F.A ....
....|..|--- .... ....|--- .... ....|--- .... ....
 E-4|..|E-5 2C.F ....|E-5 2F.7 ....|E-5 2F.7 ....
....|..|--- .... ....|--- .... ....|--- .... ....
 E-4|..|E-5 2C.F ....|A-5 2F.F ....|A-5 2F.F ....
....|..|--- .... ....|--- .... ....|--- .... ....
 E-4|..|E-4 2C.F ....|E-5 2F.7 ....|E-5 2F.7 ....
....|..|--- .... ....|--- .... ....|--- .... ....
 E-4|..|E-4 2C.F ....|E-5 2F.7 ....|E-5 2F.7 ....
....|..|--- .... ....|--- .... ....|--- .... ....
 E-4|..|E-4 2C.F ....|A-5 2F.A ....|A-5 2F.A ....
....|..|--- .... ....|--- .... ....|--- .... ....
 E-4|..|E-4 2C.F ....|--- .... ....|--- .... ....
....|..|--- .... ....|--- .... ....|--- .... ....
 A-3|..|A-4 2C.F ....|R-- .... ....|R-- .... ....
....|..|--- .... ....|--- .... ....|--- .... ....
 A-3|..|A-4 2C.F ....|A-5 2F.7 ....|A-5 2F.7 ....
....|..|--- .... ....|--- .... ....|--- .... ....
 A-3|..|A-4 2C.F ....|E-6 2F.F ....|E-6 2F.F ....
....|..|--- .... ....|--- .... ....|--- .... ....
 E-4|..|E-4 2C.F ....|R-- .... ....|R-- .... ....
....|..|--- .... ....|--- .... ....|--- .... ....
....|..|E-4 2F.7 ....|E-6 2F.F ....|E-6 2F.F ....
....|..|--- .... ....|--- .... ....|--- .... ....
....|..|E-4 2F.7 ....|A-5 2F.F ....|A-5 2F.F ....
....|..|--- .... ....|--- .... ....|--- .... ....
 A-3|..|A-4 2C.F ....|E-6 2F.F ....|E-6 2F.F ....
....|..|--- .... ....|--- .... ....|--- .... ....
 A-3|..|A-4 2C.F ....|E-6 2F.F ....|E-6 2F.F ....
....|..|--- .... ....|--- .... ....|--- .... ....
 E-4|..|E-3 2C.F ....|E-6 2F.7 ....|E-6 2F.7 ....
....|..|--- .... ....|--- .... ....|--- .... ....
....|..|E-4 2F.7 ....|E-6 2F.A ....|E-6 2F.A ....
....|..|--- .... ....|--- .... ....|--- .... ....
 E-4|..|E-4 2C.F ....|E-6 2F.7 ....|E-6 2F.7 ....
....|..|--- .... ....|--- .... ....|--- .... ....
 E-4|..|E-4 2C.F ....|A-4 2F.F ....|A-4 2F.F ....
....|..|--- .... ....|--- .... ....|--- .... ....
 E-4|..|E-4 2C.F ....|E-6 2F.7 ....|E-6 2F.7 ....
....|..|--- .... ....|--- .... ....|--- .... ....
....|..|A-4 2F.7 ....|E-6 2F.7 ....|E-6 2F.7 ....
....|..|--- .... ....|--- .... ....|--- .... ....
 E-4|..|E-4 2C.F ....|A-4 2F.A ....|A-4 2F.A ....
....|..|--- .... ....|--- .... ....|--- .... ....
 E-4|..|E-4 2C.F ....|--- .... ....|--- .... ....
....|..|--- .... ....|--- .... ....|--- .... ....
 A-3|..|A-4 2C.F ....|R-- .... ....|R-- .... ....
....|..|--- .... ....|--- .... ....|--- .... ....
 A-3|..|A-4 2C.F ....|A-4 2F.7 ....|A-4 2F.7 ....
....|..|--- .... ....|--- .... ....|--- .... ....
 A-3|..|A-4 2C.F ....|E-5 2F.F ....|E-5 2F.F ....
....|..|--- .... ....|--- .... ....|--- .... ....
 A-3|..|A-3 2C.F ....|R-- .... ....|R-- .... ....
....|..|--- .... ....|--- .... ....|--- .... ....
....|..|E-4 2F.7 ....|E-4 2F1F ....|A-5 2F.F ....
....|..|--- .... ....|--- .... ....|--- .... ....
....|..|E-4 2F.7 ....|A-5 2F.F ....|A-5 2F.F ....
....|..|--- .... ....|--- .... ....|--- .... ....

[Pattern22]
 A-3|..|A-4 2C.F ....|E-4 2F1F ....|A-5 2F.F ....
....|..|--- .... ....|--- .... ....|--- .... ....
 A-3|..|A-4 2C.F ....|E-5 2F.F ....|E-5 2F.F ....
....|..|--- .... ....|--- .... ....|--- .... ....
 E-4|..|E-4 2C.F ....|E-5 2F.7 ....|E-5 2F.7 ....
....|..|--- .... ....|--- .... ....|--- .... ....
....|..|A-3 2F.7 ....|E-4 2F1A ....|A-5 2F.A ....
....|..|--- .... ....|--- .... ....|--- .... ....
 A-3|..|A-4 2C.F ....|E-4 2F17 ....|A-5 2F.7 ....
....|..|--- .... ....|--- .... ....|--- .... ....
 A-3|..|A-4 2C.F ....|A-4 2F.F ....|A-4 2F.F ....
....|..|--- .... ....|--- .... ....|--- .... ....
 E-4|..|E-5 2C.F ....|E-4 2F17 ....|A-5 2F.7 ....
....|..|--- .... ....|--- .... ....|--- .... ....
....|..|A-4 2F.7 ....|E-5 2F.7 ....|E-5 2F.7 ....
....|..|--- .... ....|--- .... ....|--- .... ....
 E-4|..|E-5 2C.F ....|A-4 2F.A ....|A-4 2F.A ....
....|..|--- .... ....|--- .... ....|--- .... ....
 E-4|..|E-3 2C.F ....|--- .... ....|--- .... ....
....|..|--- .... ....|--- .... ....|--- .... ....
....|..|A-4 2F.7 ....|R-- .... ....|R-- .... ....
....|..|--- .... ....|--- .... ....|--- .... ....
....|..|A-4 2F.7 ....|A-4 2F.7 ....|A-4 2F.7 ....
....|..|--- .... ....|--- .... ....|--- .... ....
....|..|E-5 2F.7 ....|E-5 2F.F ....|E-5 2F.F ....
....|..|--- .... ....|--- .... ....|--- .... ....
....|..|--- .... ....|R-- .... ....|R-- .... ....
....|..|--- .... ....|--- .... ....|--- .... ....
....|..|E-5 2F.7 ....|E-5 2F.F ....|E-5 2F.F ....
....|..|--- .... ....|--- .... ....|--- .... ....
....|..|E-3 2F.7 ....|E-5 2F.F ....|E-5 2F.F ....
....|..|--- .... ....|--- .... ....|--- .... ....
 E-4|..|E-5 2C.F ....|E-4 2F1F ....|A-5 2F.F ....
....|..|--- .... ....|--- .... ....|--- .... ....
....|..|R-- .... ....|A-5 2F.F ....|A-5 2F.F ....
....|..|--- .... ....|--- .... ....|--- .... ....
 E-4|..|E-4 2C.F ....|E-5 2F.7 ....|E-5 2F.7 ....
....|..|--- .... ....|--- .... ....|--- .... ....
....|..|E-5 2F.A ....|E-4 2F1A ....|A-5 2F.A ....
....|..|--- .... ....|--- .... ....|--- .... ....
 A-3|..|A-4 2C.F ....|E-5 2F.7 ....|E-5 2F.7 ....
....|..|--- .... ....|--- .... ....|--- .... ....
 A-3|..|A-4 2C.F ....|E-6 2F.F ....|E-6 2F.F ....
....|..|--- .... ....|--- .... ....|--- .... ....
 E-4|..|E-5 2C.F ....|E-4 2F17 ....|A-5 2F.7 ....
....|..|--- .... ....|--- .... ....|--- .... ....
 E-4|..|E-5 2C.F ....|A-5 2F.7 ....|A-5 2F.7 ....
....|..|--- .... ....|--- .... ....|--- .... ....
....|..|E-4 2F.7 ....|E-6 2F.A ....|E-6 2F.A ....
....|..|--- .... ....|--- .... ....|--- .... ....
....|..|E-5 2F.A ....|--- .... ....|--- .... ....
....|..|--- .... ....|--- .... ....|--- .... ....
 E-4|..|E-5 2C.F ....|R-- .... ....|R-- .... ....
....|..|--- .... ....|--- .... ....|--- .... ....
....|..|A-4 2F.7 ....|E-6 2F.7 ....|E-6 2F.7 ....
....|..|--- .... ....|--- .... ....|--- .... ....
 E-4|..|E-5 2C.F ....|A-4 2F.F ....|A-4 2F.F ....
....|..|--- .... ....|--- .... ....|--- .... ....
 E-4|..|E-4 2C.F ....|R-- .... ....|R-- .... ....
....|..|--- .... ....|--- .... ....|--- .... ....
....|..|--- .... ....|E-5 2F.F ....|E-5 2F.F ....
....|..|--- .... ....|--- .... ....|--- .... ....
....|..|E-5 2F.A ....|E-5 2F.F ....|E-5 2F.F ....
....|..|--- .... ....|--- .... ....|--- .... ....

[Pattern23]
 E-4|..|E-4 2C.F ....|E-5 2F.F ....|E-5 2F.F ....
....|..|--- .... ....|--- .... ....|--- .... ....
 A-3|..|A-3 2C.F ....|E-4 2F.F ....|E-4 2F.F ....
....|..|--- .... ....|--- .... ....|--- .... ....
 E-4|..|E-4 2C.F ....|A-4 2F.7 ....|A-4 2F.7 ....
....|..|--- .... ....|--- .... ....|--- .... ....
....|..|E-4 2F.7 ....|E-5 2F.A ....|E-5 2F.A ....
....|..|--- .... ....|--- .... ....|--- .... ....
 A-3|..|A-4 2C.F ....|E-5 2F.7 ....|E-5 2F.7 ....
....|..|--- .... ....|--- .... ....|--- .... ....
 A-3|..|A-4 2C.F ....|A-4 2F.F ....|A-4 2F.F ....
....|..|--- .... ....|--- .... ....|--- .... ....
....|..|E-4 2F.7 ....|E-5 2F.7 ....|E-5 2F.7 ....
....|..|--- .... ....|--- .... ....|--- .... ....
....|..|A-3 2F.7 ....|E-4 2F.7 ....|E-4 2F.7 ....
....|..|--- .... ....|--- .... ....|--- .... ....
 A-3|..|A-4 2C.F ....|A-4 2F.A ....|A-4 2F.A ....
....|..|--- .... ....|--- .... ....|--- .... ....
 E-4|..|E-4 2C.F ....|--- .... ....|--- .... ....
....|..|--- .... ....|--- .... ....|--- .... ....
....|..|A-4 2F.7 ....|R-- .... ....|R-- .... ....
....|..|--- .... ....|--- .... ....|--- .... ....
....|..|A-4 2F.7 ....|A-4 2F.7 ....|A-4 2F.7 ....
....|..|--- .... ....|--- .... ....|--- .... ....
 A-3|..|A-4 2C.F ....|E-5 2F.F ....|E-5 2F.F ....
....|..|--- .... ....|--- .... ....|--- .... ....
 A-3|..|A-4 2C.F ....|R-- .... ....|R-- .... ....
....|..|--- .... ....|--- .... ....|--- .... ....
....|..|A-4 2F.7 ....|E-4 2F1F ....|A-5 2F.F ....
....|..|--- .... ....|--- .... ....|--- .... ....
....|..|E-4 2F.7 ....|A-5 2F.F ....|A-5 2F.F ....
....|..|--- .... ....|--- .... ....|--- .... ....
 A-3|..|A-3 2C.F ....|A-5 2F.F ....|A-5 2F.F ....
....|..|--- .... ....|--- .... ....|--- .... ....
....|..|--- .... ....|E-4 2F.F ....|E-4 2F.F ....
....|..|--- .... ....|--- .... ....|--- .... ....
 E-4|..|E-4 2C.F ....|E-5 2F.7 ....|E-5 2F.7 ....
....|..|--- .... ....|--- .... ....|--- .... ....
....|..|A-4 2F.7 ....|A-5 2F.A ....|A-5 2F.A ....
....|..|--- .... ....|--- .... ....|--- .... ....
 A-3|..|A-4 2C.F ....|E-4 2F17 ....|A-5 2F.7 ....
....|..|--- .... ....|--- .... ....|--- .... ....
 A-3|..|A-4 2C.F ....|E-4 2F.F ....|E-4 2F.F ....
....|..|--- .... ....|--- .... ....|--- .... ....
....|..|A-3 2F.7 ....|A-5 2F.7 ....|A-5 2F.7 ....
....|..|--- .... ....|--- .... ....|--- .... ....
....|..|A-4 2F.A ....|E-4 2F.7 ....|E-4 2F.7 ....
....|..|--- .... ....|--- .... ....|--- .... ....
 A-3|..|A-4 2C.F ....|E-4 2F.A ....|E-4 2F.A ....
....|..|--- .... ....|--- .... ....|--- .... ....
 E-4|..|E-4 2C.F ....|--- .... ....|--- .... ....
....|..|--- .... ....|--- .... ....|--- .... ....
....|..|A-4 2F.7 ....|R-- .... ....|R-- .... ....
....|..|--- .... ....|--- .... ....|--- .... ....
....|..|A-4 2F.7 ....|E-4 2F.7 ....|E-4 2F.7 ....
....|..|--- .... ....|--- .... ....|--- .... ....
 A-3|..|A-4 2C.F ....|A-4 2F.F ....|A-4 2F.F ....
....|..|--- .... ....|--- .... ....|--- .... ....
 A-3|..|A-4 2C.F ....|R-- .... ....|R-- .... ....
....|..|--- .... ....|--- .... ....|--- .... ....
....|..|A-4 2F.7 ....|E-5 2F.F ....|E-5 2F.F ....
....|..|--- .... ....|--- .... ....|--- .... ....
....|..|E-4 2F.7 ....|E-5 2F.F ....|E-5 2F.F ....
....|..|--- .... ....|--- .... ....|--- .... ....

[Pattern24]
 A-3|..|A-3 2C.F ....|E-5 2F.F ....|E-5 2F.F ....
....|..|--- .... ....|--- .... ....|--- .... ....
....|..|--- .... ....|A-4 2F.F ....|A-4 2F.F ....
....|..|--- .... ....|--- .... ....|--- .... ....
 E-4|..|E-4 2C.F ....|A-4 2F.7 ....|A-4 2F.7 ....
....|..|--- .... ....|--- .... ....|--- .... ....
....|..|A-4 2F.7 ....|E-5 2F.A ....|E-5 2F.A ....
....|..|--- .... ....|--- .... ....|--- .... ....
 A-3|..|A-4 2C.F ....|E-5 2F.7 ....|E-5 2F.7 ....
....|..|--- .... ....|--- .... ....|--- .... ....
 A-3|..|A-4 2C.F ....|E-5 2F.F ....|E-5 2F.F ....
....|..|--- .... ....|--- .... ....|--- .... ....
....|..|A-3 2F.7 ....|E-5 2F.7 ....|E-5 2F.7 ....
....|..|--- .... ....|--- .... ....|--- .... ....
....|..|A-4 2F.A ....|A-4 2F.7 ....|A-4 2F.7 ....
....|..|--- .... ....|--- .... ....|--- .... ....
 A-3|..|A-4 2C.F ....|E-5 2F.A ....|E-5 2F.A ....
....|..|--- .... ....|--- .... ....|--- .... ....
 E-4|..|E-4 2C.F ....|--- .... ....|--- .... ....
....|..|--- .... ....|--- .... ....|--- .... ....
....|..|A-4 2F.7 ....|R-- .... ....|R-- .... ....
....|..|--- .... ....|--- .... ....|--- .... ....
....|..|A-4 2F.7 ....|E-5 2F.7 ....|E-5 2F.7 ....
....|..|--- .... ....|--- .... ....|--- .... ....
 A-3|..|A-4 2C.F ....|E-4 2F.F ....|E-4 2F.F ....
....|..|--- .... ....|--- .... ....|--- .... ....
 A-3|..|A-4 2C.F ....|R-- .... ....|R-- .... ....
....|..|--- .... ....|--- .... ....|--- .... ....
....|..|A-4 2F.7 ....|A-5 2F.F ....|A-5 2F.F ....
....|..|--- .... ....|--- .... ....|--- .... ....
....|..|E-4 2F.7 ....|A-5 2F.F ....|A-5 2F.F ....
....|..|--- .... ....|--- .... ....|--- .... ....
 A-3|..|A-3 2C.F ....|A-5 2F.F ....|A-5 2F.F ....
....|..|--- .... ....|--- .... ....|--- .... ....
....|..|--- .... ....|A-4 2F.F ....|A-4 2F.F ....
....|..|--- .... ....|--- .... ....|--- .... ....
 E-4|..|E-4 2C.F ....|E-4 2F.7 ....|E-4 2F.7 ....
....|..|--- .... ....|--- .... ....|--- .... ....
....|..|A-4 2F.7 ....|A-5 2F.A ....|A-5 2F.A ....
....|..|--- .... ....|--- .... ....|--- .... ....
 A-3|..|A-4 2C.F ....|A-5 2F.7 ....|A-5 2F.7 ....
....|..|--- .... ....|--- .... ....|--- .... ....
 A-3|..|A-4 2C.F ....|E-5 2F.F ....|E-5 2F.F ....
....|..|--- .... ....|--- .... ....|--- .... ....
....|..|A-3 2F.7 ....|A-5 2F.7 ....|A-5 2F.7 ....
....|..|--- .... ....|--- .... ....|--- .... ....
....|..|A-4 2F.A ....|A-4 2F.7 ....|A-4 2F.7 ....
....|..|--- .... ....|--- .... ....|--- .... ....
 A-3|..|A-4 2C.F ....|E-5 2F.A ....|E-5 2F.A ....
....|..|--- .... ....|--- .... ....|--- .... ....
 E-4|..|E-4 2C.F ....|--- .... ....|--- .... ....
....|..|--- .... ....|--- .... ....|--- .... ....
....|..|A-4 2F.7 ....|R-- .... ....|R-- .... ....
....|..|--- .... ....|--- .... ....|--- .... ....
....|..|A-4 2F.7 ....|E-5 2F.7 ....|E-5 2F.7 ....
....|..|--- .... ....|--- .... ....|--- .... ....
 A-3|..|A-4 2C.F ....|E-4 2F.F ....|E-4 2F.F ....
....|..|--- .... ....|--- .... ....|--- .... ....
 A-3|..|A-4 2C.F ....|R-- .... ....|R-- .... ....
....|..|--- .... ....|--- .... ....|--- .... ....
....|..|A-4 2F.7 ....|A-5 2F.F ....|A-5 2F.F ....
....|..|--- .... ....|--- .... ....|--- .... ....
....|..|E-4 2F.7 ....|A-5 2F.F ....|A-5 2F.F ....
....|..|--- .... ....|--- .... ....|--- .... ....

[Pattern25]
 A-3|..|A-3 2C.F ....|A-5 2F.F ....|A-5 2F.F ....
....|..|--- .... ....|--- .... ....|--- .... ....
....|..|--- .... ....|A-4 2F.F ....|A-4 2F.F ....
....|..|--- .... ....|--- .... ....|--- .... ....
 E-4|..|E-4 2C.F ....|E-4 2F.7 ....|E-4 2F.7 ....
....|..|--- .... ....|--- .... ....|--- .... ....
....|..|A-4 2F.7 ....|A-5 2F.A ....|A-5 2F.A ....
....|..|--- .... ....|--- .... ....|--- .... ....
 A-3|..|A-4 2C.F ....|A-5 2F.7 ....|A-5 2F.7 ....
....|..|--- .... ....|--- .... ....|--- .... ....
 A-3|..|A-4 2C.F ....|E-5 2F.F ....|E-5 2F.F ....
....|..|--- .... ....|--- .... ....|--- .... ....
....|..|A-3 2F.7 ....|A-5 2F.7 ....|A-5 2F.7 ....
....|..|--- .... ....|--- .... ....|--- .... ....
....|..|A-4 2F.A ....|A-4 2F.7 ....|A-4 2F.7 ....
....|..|--- .... ....|--- .... ....|--- .... ....
 A-3|..|A-4 2C.F ....|E-5 2F.A ....|E-5 2F.A ....
....|..|--- .... ....|--- .... ....|--- .... ....
 E-4|..|E-4 2C.F ....|--- .... ....|--- .... ....
....|..|--- .... ....|--- .... ....|--- .... ....
....|..|A-4 2F.7 ....|R-- .... ....|R-- .... ....
....|..|--- .... ....|--- .... ....|--- .... ....
....|..|A-4 2F.7 ....|E-5 2F.7 ....|E-5 2F.7 ....
....|..|--- .... ....|--- .... ....|--- .... ....
 A-3|..|A-4 2C.F ....|A-5 2F.F ....|A-5 2F.F ....
....|..|--- .... ....|--- .... ....|--- .... ....
 A-3|..|A-4 2C.F ....|R-- .... ....|R-- .... ....
....|..|--- .... ....|--- .... ....|--- .... ....
....|..|A-4 2F.7 ....|A-5 2F.F ....|A-5 2F.F ....
....|..|--- .... ....|--- .... ....|--- .... ....
....|..|E-4 2F.7 ....|D-4 2F.F ....|D-4 2F.F ....
....|..|--- .... ....|--- .... ....|--- .... ....
 A-3|..|A-3 2C.F ....|D-4 2F3F ....|E-4 2F.F ....
....|..|--- .... ....|--- .... ....|--- .... ....
....|..|--- .... ....|E-4 2F.F ....|E-4 2F.F ....
....|..|--- .... ....|--- .... ....|--- .... ....
 E-4|..|E-4 2C.F ....|A-5 2F.7 ....|A-5 2F.7 ....
....|..|--- .... ....|--- .... ....|--- .... ....
....|..|A-4 2F.7 ....|D-4 2F3A ....|E-4 2F.A ....
....|..|--- .... ....|--- .... ....|--- .... ....
 A-3|..|A-4 2C.F ....|A-5 2F.7 ....|A-5 2F.7 ....
....|..|--- .... ....|--- .... ....|--- .... ....
 A-3|..|A-4 2C.F ....|A-4 2F.F ....|A-4 2F.F ....
....|..|--- .... ....|--- .... ....|--- .... ....
....|..|A-3 2F.7 ....|D-4 2F37 ....|E-4 2F.7 ....
....|..|--- .... ....|--- .... ....|--- .... ....
....|..|A-4 2F.A ....|E-4 2F.7 ....|E-4 2F.7 ....
....|..|--- .... ....|--- .... ....|--- .... ....
 A-3|..|A-4 2C.F ....|A-4 2F.A ....|A-4 2F.A ....
....|..|--- .... ....|--- .... ....|--- .... ....
 E-4|..|E-4 2C.F ....|--- .... ....|--- .... ....
....|..|--- .... ....|--- .... ....|--- .... ....
....|..|A-4 2F.7 ....|R-- .... ....|R-- .... ....
....|..|--- .... ....|--- .... ....|--- .... ....
....|..|A-4 2F.7 ....|A-4 2F.7 ....|A-4 2F.7 ....
....|..|--- .... ....|--- .... ....|--- .... ....
 A-3|..|A-4 2C.F ....|E-4 2F.F ....|E-4 2F.F ....
....|..|--- .... ....|--- .... ....|--- .... ....
 A-3|..|A-4 2C.F ....|R-- .... ....|R-- .... ....
....|..|--- .... ....|--- .... ....|--- .... ....
....|..|A-4 2F.7 ....|D-4 2F3F ....|E-4 2F.F ....
....|..|--- .... ....|--- .... ....|--- .... ....
....|..|E-4 2F.7 ....|D-4 2F.F ....|D-4 2F.F ....
....|..|--- .... ....|--- .... ....|--- .... ....

[Pattern26]
 A-3|..|A-3 2C.F ....|A-4 2F.F ....|A-4 2F.F ....
....|..|--- .... ....|--- .... ....|--- .... ....
....|..|--- .... ....|A-4 2F.F ....|A-4 2F.F ....
....|..|--- .... ....|--- .... ....|--- .... ....
 E-4|..|E-4 2C.F ....|E-4 2F.7 ....|E-4 2F.7 ....
....|..|--- .... ....|--- .... ....|--- .... ....
....|..|A-4 2F.7 ....|A-4 2F.A ....|A-4 2F.A ....
....|..|--- .... ....|--- .... ....|--- .... ....
 A-3|..|A-4 2C.F ....|D-4 2F37 ....|E-4 2F.7 ....
....|..|--- .... ....|--- .... ....|--- .... ....
 A-3|..|A-4 2C.F ....|E-4 2F.F ....|E-4 2F.F ....
....|..|--- .... ....|--- .... ....|--- .... ....
....|..|A-3 2F.7 ....|A-4 2F.7 ....|A-4 2F.7 ....
....|..|--- .... ....|--- .... ....|--- .... ....
....|..|A-4 2F.A ....|A-4 2F.7 ....|A-4 2F.7 ....
....|..|--- .... ....|--- .... ....|--- .... ....
 A-3|..|A-4 2C.F ....|E-4 2F.A ....|E-4 2F.A ....
....|..|--- .... ....|--- .... ....|--- .... ....
 E-4|..|E-4 2C.F ....|--- .... ....|--- .... ....
....|..|--- .... ....|--- .... ....|--- .... ....
....|..|A-4 2F.7 ....|R-- .... ....|R-- .... ....
....|..|--- .... ....|--- .... ....|--- .... ....
....|..|A-4 2F.7 ....|E-4 2F.7 ....|E-4 2F.7 ....
....|..|--- .... ....|--- .... ....|--- .... ....
 A-3|..|A-4 2C.F ....|E-5 2F.F ....|E-5 2F.F ....
....|..|--- .... ....|--- .... ....|--- .... ....
 A-3|..|A-4 2C.F ....|R-- .... ....|R-- .... ....
....|..|--- .... ....|--- .... ....|--- .... ....
....|..|A-4 2F.7 ....|E-5 2F.F ....|E-5 2F.F ....
....|..|--- .... ....|--- .... ....|--- .... ....
....|..|E-4 2F.7 ....|D-4 2F.F ....|D-4 2F.F ....
....|..|--- .... ....|--- .... ....|--- .... ....
 A-3|..|A-3 2C.F ....|A-4 2F.F ....|A-4 2F.F ....
....|..|--- .... ....|--- .... ....|--- .... ....
....|..|--- .... ....|A-4 2F.F ....|A-4 2F.F ....
....|..|--- .... ....|--- .... ....|--- .... ....
 E-4|..|E-4 2C.F ....|E-5 2F.7 ....|E-5 2F.7 ....
....|..|--- .... ....|--- .... ....|--- .... ....
....|..|A-4 2F.7 ....|A-4 2F.A ....|A-4 2F.A ....
....|..|--- .... ....|--- .... ....|--- .... ....
 A-3|..|A-4 2C.F ....|E-5 2F.7 ....|E-5 2F.7 ....
....|..|--- .... ....|--- .... ....|--- .... ....
 A-3|..|A-4 2C.F ....|E-5 2F.F ....|E-5 2F.F ....
....|..|--- .... ....|--- .... ....|--- .... ....
....|..|A-3 2F.7 ....|A-4 2F.7 ....|A-4 2F.7 ....
....|..|--- .... ....|--- .... ....|--- .... ....
....|..|A-4 2F.A ....|A-4 2F.7 ....|A-4 2F.7 ....
....|..|--- .... ....|--- .... ....|--- .... ....
 A-3|..|A-4 2C.F ....|E-5 2F.A ....|E-5 2F.A ....
....|..|--- .... ....|--- .... ....|--- .... ....
 E-4|..|E-4 2C.F ....|--- .... ....|--- .... ....
....|..|--- .... ....|--- .... ....|--- .... ....
....|..|A-4 2F.7 ....|R-- .... ....|R-- .... ....
....|..|--- .... ....|--- .... ....|--- .... ....
....|..|A-4 2F.7 ....|E-5 2F.7 ....|E-5 2F.7 ....
....|..|--- .... ....|--- .... ....|--- .... ....
 A-3|..|A-4 2C.F ....|A-5 2F.F ....|A-5 2F.F ....
....|..|--- .... ....|--- .... ....|--- .... ....
 A-3|..|A-4 2C.F ....|R-- .... ....|R-- .... ....
....|..|--- .... ....|--- .... ....|--- .... ....
....|..|A-4 2F.7 ....|E-6 2F.F ....|E-6 2F.F ....
....|..|--- .... ....|--- .... ....|--- .... ....
....|..|E-4 2F.7 ....|E-6 2F.F ....|E-6 2F.F ....
....|..|--- .... ....|--- .... ....|--- .... ....

[Pattern27]
 A-3|..|A-3 2C.F ....|E-6 2F.F ....|E-6 2F.F ....
....|..|--- .... ....|--- .... ....|--- .... ....
....|..|--- .... ....|A-4 2F.F ....|A-4 2F.F ....
....|..|--- .... ....|--- .... ....|--- .... ....
 E-4|..|E-4 2C.F ....|A-5 2F.7 ....|A-5 2F.7 ....
....|..|--- .... ....|--- .... ....|--- .... ....
....|..|A-4 2F.7 ....|E-6 2F.A ....|E-6 2F.A ....
....|..|--- .... ....|--- .... ....|--- .... ....
 E-4|..|E-4 2C.F ....|E-6 2F.7 ....|E-6 2F.7 ....
....|..|--- .... ....|--- .... ....|--- .... ....
 E-4|..|E-4 2C.F ....|E-4 2F.F ....|E-4 2F.F ....
....|..|--- .... ....|--- .... ....|--- .... ....
....|..|A-3 2F.7 ....|E-6 2F.7 ....|E-6 2F.7 ....
....|..|--- .... ....|--- .... ....|--- .... ....
....|..|E-4 2F.A ....|A-4 2F.7 ....|A-4 2F.7 ....
....|..|--- .... ....|--- .... ....|--- .... ....
 A-3|..|A-4 2C.F ....|E-4 2F.A ....|E-4 2F.A ....
....|..|--- .... ....|--- .... ....|--- .... ....
 A-3|..|A-4 2C.F ....|--- .... ....|--- .... ....
....|..|--- .... ....|--- .... ....|--- .... ....
....|..|E-4 2F.7 ....|R-- .... ....|R-- .... ....
....|..|--- .... ....|--- .... ....|--- .... ....
....|..|E-4 2F.7 ....|E-4 2F.7 ....|E-4 2F.7 ....
....|..|--- .... ....|--- .... ....|--- .... ....
 A-3|..|A-4 2C.F ....|E-4 2F.F ....|E-4 2F.F ....
....|..|--- .... ....|--- .... ....|--- .... ....
 E-4|..|E-4 2C.F ....|R-- .... ....|R-- .... ....
....|..|--- .... ....|--- .... ....|--- .... ....
....|..|A-4 2F.7 ....|D-4 2F3F ....|E-4 2F.F ....
....|..|--- .... ....|--- .... ....|--- .... ....
....|..|A-4 2F.7 ....|D-4 2F.F ....|D-4 2F.F ....
....|..|--- .... ....|--- .... ....|--- .... ....
 A-3|..|A-3 2C.F ....|A-4 2F.F ....|A-4 2F.F ....
....|..|--- .... ....|--- .... ....|--- .... ....
....|..|--- .... ....|A-4 2F.F ....|A-4 2F.F ....
....|..|--- .... ....|--- .... ....|--- .... ....
 E-4|..|E-4 2C.F ....|E-4 2F.7 ....|E-4 2F.7 ....
....|..|--- .... ....|--- .... ....|--- .... ....
....|..|E-4 2F.7 ....|A-4 2F.A ....|A-4 2F.A ....
....|..|--- .... ....|--- .... ....|--- .... ....
 A-3|..|A-4 2C.F ....|D-4 2F37 ....|E-4 2F.7 ....
....|..|--- .... ....|--- .... ....|--- .... ....
 A-3|..|A-4 2C.F ....|E-4 2F.F ....|E-4 2F.F ....
....|..|--- .... ....|--- .... ....|--- .... ....
....|..|A-3 2F.7 ....|A-4 2F.7 ....|A-4 2F.7 ....
....|..|--- .... ....|--- .... ....|--- .... ....
....|..|A-4 2F.A ....|A-4 2F.7 ....|A-4 2F.7 ....
....|..|--- .... ....|--- .... ....|--- .... ....
 A-3|..|A-4 2C.F ....|E-4 2F.A ....|E-4 2F.A ....
....|..|--- .... ....|--- .... ....|--- .... ....
 E-4|..|E-4 2C.F ....|--- .... ....|--- .... ....
....|..|--- .... ....|--- .... ....|--- .... ....
....|..|A-4 2F.7 ....|R-- .... ....|R-- .... ....
....|..|--- .... ....|--- .... ....|--- .... ....
....|..|A-4 2F.7 ....|E-4 2F.7 ....|E-4 2F.7 ....
....|..|--- .... ....|--- .... ....|--- .... ....
 A-3|..|A-4 2C.F ....|E-5 2F.F ....|E-5 2F.F ....
....|..|--- .... ....|--- .... ....|--- .... ....
 A-3|..|A-4 2C.F ....|R-- .... ....|R-- .... ....
....|..|--- .... ....|--- .... ....|--- .... ....
....|..|A-4 2F.7 ....|E-4 2F1F ....|A-5 2F.F ....
....|..|--- .... ....|--- .... ....|--- .... ....
....|..|E-4 2F.7 ....|A-5 2F.F ....|A-5 2F.F ....
....|..|--- .... ....|--- .... ....|--- .... ....

[Pattern28]
 A-3|..|A-3 2C.F ....|A-5 2F.F ....|A-5 2F.F ....
....|..|--- .... ....|--- .... ....|--- .... ....
....|..|--- .... ....|A-4 2F.F ....|A-4 2F.F ....
....|..|--- .... ....|--- .... ....|--- .... ....
 E-4|..|E-4 2C.F ....|E-5 2F.7 ....|E-5 2F.7 ....
....|..|--- .... ....|--- .... ....|--- .... ....
....|..|A-4 2F.7 ....|A-5 2F.A ....|A-5 2F.A ....
....|..|--- .... ....|--- .... ....|--- .... ....
 A-3|..|A-4 2C.F ....|E-4 2F17 ....|A-5 2F.7 ....
....|..|--- .... ....|--- .... ....|--- .... ....
 A-3|..|A-4 2C.F ....|E-5 2F.F ....|E-5 2F.F ....
....|..|--- .... ....|--- .... ....|--- .... ....
....|..|A-3 2F.7 ....|A-5 2F.7 ....|A-5 2F.7 ....
....|..|--- .... ....|--- .... ....|--- .... ....
....|..|A-4 2F.A ....|A-4 2F.7 ....|A-4 2F.7 ....
....|..|--- .... ....|--- .... ....|--- .... ....
 A-3|..|A-4 2C.F ....|E-5 2F.A ....|E-5 2F.A ....
....|..|--- .... ....|--- .... ....|--- .... ....
 E-4|..|E-4 2C.F ....|--- .... ....|--- .... ....
....|..|--- .... ....|--- .... ....|--- .... ....
....|..|A-4 2F.7 ....|R-- .... ....|R-- .... ....
....|..|--- .... ....|--- .... ....|--- .... ....
....|..|A-4 2F.7 ....|E-5 2F.7 ....|E-5 2F.7 ....
....|..|--- .... ....|--- .... ....|--- .... ....
 A-3|..|A-4 2C.F ....|E-4 2F.F ....|E-4 2F.F ....
....|..|--- .... ....|--- .... ....|--- .... ....
 A-3|..|A-4 2C.F ....|R-- .... ....|R-- .... ....
....|..|--- .... ....|--- .... ....|--- .... ....
....|..|A-4 2F.7 ....|D-4 2F3F ....|E-4 2F.F ....
....|..|--- .... ....|--- .... ....|--- .... ....
....|..|E-4 2F.7 ....|D-4 2F.F ....|D-4 2F.F ....
....|..|--- .... ....|--- .... ....|--- .... ....
 A-3|..|A-3 2C.F ....|D-4 2F3F ....|E-4 2F.F ....
....|..|--- .... ....|--- .... ....|--- .... ....
....|..|--- .... ....|E-4 2F.F ....|E-4 2F.F ....
....|..|--- .... ....|--- .... ....|--- .... ....
 E-4|..|E-4 2C.F ....|E-4 2F.7 ....|E-4 2F.7 ....
....|..|--- .... ....|--- .... ....|--- .... ....
....|..|A-4 2F.7 ....|D-4 2F3A ....|E-4 2F.A ....
....|..|--- .... ....|--- .... ....|--- .... ....
 A-3|..|A-4 2C.F ....|D-4 2F37 ....|E-4 2F.7 ....
....|..|--- .... ....|--- .... ....|--- .... ....
 A-3|..|A-4 2C.F ....|A-4 2F.F ....|A-4 2F.F ....
....|..|--- .... ....|--- .... ....|--- .... ....
....|..|A-3 2F.7 ....|D-4 2F37 ....|E-4 2F.7 ....
....|..|--- .... ....|--- .... ....|--- .... ....
....|..|A-4 2F.A ....|E-4 2F.7 ....|E-4 2F.7 ....
....|..|--- .... ....|--- .... ....|--- .... ....
 A-3|..|A-4 2C.F ....|A-4 2F.A ....|A-4 2F.A ....
....|..|--- .... ....|--- .... ....|--- .... ....
 E-4|..|E-4 2C.F ....|--- .... ....|--- .... ....
....|..|--- .... ....|--- .... ....|--- .... ....
....|..|A-4 2F.7 ....|R-- .... ....|R-- .... ....
....|..|--- .... ....|--- .... ....|--- .... ....
....|..|A-4 2F.7 ....|A-4 2F.7 ....|A-4 2F.7 ....
....|..|--- .... ....|--- .... ....|--- .... ....
 A-3|..|A-4 2C.F ....|E-4 2F.F ....|E-4 2F.F ....
....|..|--- .... ....|--- .... ....|--- .... ....
 A-3|..|A-4 2C.F ....|R-- .... ....|R-- .... ....
....|..|--- .... ....|--- .... ....|--- .... ....
....|..|A-4 2F.7 ....|E-5 2F.F ....|E-5 2F.F ....
....|..|--- .... ....|--- .... ....|--- .... ....
....|..|E-4 2F.7 ....|E-5 2F.F ....|E-5 2F.F ....
....|..|--- .... ....|--- .... ....|--- .... ....

[Pattern29]
 A-3|..|A-3 2C.F ....|E-5 2F.F ....|E-5 2F.F ....
....|..|--- .... ....|--- .... ....|--- .... ....
....|..|--- .... ....|A-4 2F.F ....|A-4 2F.F ....
....|..|--- .... ....|--- .... ....|--- .... ....
 E-4|..|E-4 2C.F ....|E-4 2F.7 ....|E-4 2F.7 ....
....|..|--- .... ....|--- .... ....|--- .... ....
....|..|A-4 2F.7 ....|E-5 2F.A ....|E-5 2F.A ....
....|..|--- .... ....|--- .... ....|--- .... ....
 A-3|..|A-4 2C.F ....|E-5 2F.7 ....|E-5 2F.7 ....
....|..|--- .... ....|--- .... ....|--- .... ....
 A-3|..|A-4 2C.F ....|E-4 2F.F ....|E-4 2F.F ....
....|..|--- .... ....|--- .... ....|--- .... ....
....|..|A-3 2F.7 ....|E-5 2F.7 ....|E-5 2F.7 ....
....|..|--- .... ....|--- .... ....|--- .... ....
....|..|A-4 2F.A ....|A-4 2F.7 ....|A-4 2F.7 ....
....|..|--- .... ....|--- .... ....|--- .... ....
 A-3|..|A-4 2C.F ....|E-4 2F.A ....|E-4 2F.A ....
....|..|--- .... ....|--- .... ....|--- .... ....
 E-4|..|E-4 2C.F ....|--- .... ....|--- .... ....
....|..|--- .... ....|--- .... ....|--- .... ....
....|..|A-4 2F.7 ....|R-- .... ....|R-- .... ....
....|..|--- .... ....|--- .... ....|--- .... ....
....|..|A-4 2F.7 ....|E-4 2F.7 ....|E-4 2F.7 ....
....|..|--- .... ....|--- .... ....|--- .... ....
 A-3|..|A-4 2C.F ....|E-4 2F.F ....|E-4 2F.F ....
....|..|--- .... ....|--- .... ....|--- .... ....
 A-3|..|A-4 2C.F ....|R-- .... ....|R-- .... ....
....|..|--- .... ....|--- .... ....|--- .... ....
....|..|A-4 2F.7 ....|E-5 2F.F ....|E-5 2F.F ....
....|..|--- .... ....|--- .... ....|--- .... ....
....|..|E-4 2F.7 ....|E-5 2F.F ....|E-5 2F.F ....
....|..|--- .... ....|--- .... ....|--- .... ....
 A-3|..|A-3 2C.F ....|E-5 2F.F ....|E-5 2F.F ....
....|..|--- .... ....|--- .... ....|--- .... ....
....|..|--- .... ....|A-4 2F.F ....|A-4 2F.F ....
....|..|--- .... ....|--- .... ....|--- .... ....
 E-4|..|E-4 2C.F ....|E-4 2F.7 ....|E-4 2F.7 ....
....|..|--- .... ....|--- .... ....|--- .... ....
....|..|A-4 2F.7 ....|E-5 2F.A ....|E-5 2F.A ....
....|..|--- .... ....|--- .... ....|--- .... ....
 A-3|..|A-4 2C.F ....|E-5 2F.7 ....|E-5 2F.7 ....
....|..|--- .... ....|--- .... ....|--- .... ....
 A-3|..|A-4 2C.F ....|E-5 2F.F ....|E-5 2F.F ....
....|..|--- .... ....|--- .... ....|--- .... ....
....|..|A-3 2F.7 ....|E-5 2F.7 ....|E-5 2F.7 ....
....|..|--- .... ....|--- .... ....|--- .... ....
....|..|A-4 2F.A ....|A-4 2F.7 ....|A-4 2F.7 ....
....|..|--- .... ....|--- .... ....|--- .... ....
 A-3|..|A-4 2C.F ....|E-5 2F.A ....|E-5 2F.A ....
....|..|--- .... ....|--- .... ....|--- .... ....
 E-4|..|E-4 2C.F ....|--- .... ....|--- .... ....
....|..|--- .... ....|--- .... ....|--- .... ....
....|..|A-4 2F.7 ....|R-- .... ....|R-- .... ....
....|..|--- .... ....|--- .... ....|--- .... ....
....|..|A-4 2F.7 ....|E-5 2F.7 ....|E-5 2F.7 ....
....|..|--- .... ....|--- .... ....|--- .... ....
 A-3|..|A-4 2C.F ....|A-5 2F.F ....|A-5 2F.F ....
....|..|--- .... ....|--- .... ....|--- .... ....
 A-3|..|A-4 2C.F ....|R-- .... ....|R-- .... ....
....|..|--- .... ....|--- .... ....|--- .... ....
....|..|A-4 2F.7 ....|E-6 2F.F ....|E-6 2F.F ....
....|..|--- .... ....|--- .... ....|--- .... ....
....|..|E-4 2F.7 ....|E-6 2F.F ....|E-6 2F.F ....
....|..|--- .... ....|--- .... ....|--- .... ....

[Pattern30]
 A-3|..|A-3 2C.F ....|E-6 2F.F ....|E-6 2F.F ....
....|..|--- .... ....|--- .... ....|--- .... ....
....|..|--- .... ....|A-4 2F.F ....|A-4 2F.F ....
....|..|--- .... ....|--- .... ....|--- .... ....
 E-4|..|E-4 2C.F ....|A-5 2F.7 ....|A-5 2F.7 ....
....|..|--- .... ....|--- .... ....|--- .... ....
....|..|A-4 2F.7 ....|E-6 2F.A ....|E-6 2F.A ....
....|..|--- .... ....|--- .... ....|--- .... ....
 A-3|..|A-4 2C.F ....|E-6 2F.7 ....|E-6 2F.7 ....
....|..|--- .... ....|--- .... ....|--- .... ....
 A-3|..|A-4 2C.F ....|E-5 2F.F ....|E-5 2F.F ....
....|..|--- .... ....|--- .... ....|--- .... ....
....|..|A-3 2F.7 ....|E-6 2F.7 ....|E-6 2F.7 ....
....|..|--- .... ....|--- .... ....|--- .... ....
....|..|A-4 2F.A ....|A-4 2F.7 ....|A-4 2F.7 ....
....|..|--- .... ....|--- .... ....|--- .... ....
 A-3|..|A-4 2C.F ....|E-5 2F.A ....|E-5 2F.A ....
....|..|--- .... ....|--- .... ....|--- .... ....
 E-4|..|E-4 2C.F ....|--- .... ....|--- .... ....
....|..|--- .... ....|--- .... ....|--- .... ....
....|..|A-4 2F.7 ....|R-- .... ....|R-- .... ....
....|..|--- .... ....|--- .... ....|--- .... ....
....|..|A-4 2F.7 ....|E-5 2F.7 ....|E-5 2F.7 ....
....|..|--- .... ....|--- .... ....|--- .... ....
 A-3|..|A-4 2C.F ....|E-4 2F.F ....|E-4 2F.F ....
....|..|--- .... ....|--- .... ....|--- .... ....
 A-3|..|A-4 2C.F ....|R-- .... ....|R-- .... ....
....|..|--- .... ....|--- .... ....|--- .... ....
....|..|A-4 2F.7 ....|A-5 2F.F ....|A-5 2F.F ....
....|..|--- .... ....|--- .... ....|--- .... ....
....|..|E-4 2F.7 ....|A-5 2F.F ....|A-5 2F.F ....
....|..|--- .... ....|--- .... ....|--- .... ....
 A-3|..|A-3 2C.F ....|A-5 2F.F ....|A-5 2F.F ....
....|..|--- .... ....|--- .... ....|--- .... ....
....|..|--- .... ....|A-4 2F.F ....|A-4 2F.F ....
....|..|--- .... ....|--- .... ....|--- .... ....
 E-4|..|E-4 2C.F ....|E-4 2F.7 ....|E-4 2F.7 ....
....|..|--- .... ....|--- .... ....|--- .... ....
....|..|A-4 2F.7 ....|A-5 2F.A ....|A-5 2F.A ....
....|..|--- .... ....|--- .... ....|--- .... ....
 A-3|..|A-4 2C.F ....|A-5 2F.7 ....|A-5 2F.7 ....
....|..|--- .... ....|--- .... ....|--- .... ....
 A-3|..|A-4 2C.F ....|E-4 2F.F ....|E-4 2F.F ....
....|..|--- .... ....|--- .... ....|--- .... ....
....|..|A-3 2F.7 ....|A-5 2F.7 ....|A-5 2F.7 ....
....|..|--- .... ....|--- .... ....|--- .... ....
....|..|A-4 2F.A ....|A-4 2F.7 ....|A-4 2F.7 ....
....|..|--- .... ....|--- .... ....|--- .... ....
 A-3|..|A-4 2C.F ....|E-4 2F.A ....|E-4 2F.A ....
....|..|--- .... ....|--- .... ....|--- .... ....
 E-4|..|E-4 2C.F ....|--- .... ....|--- .... ....
....|..|--- .... ....|--- .... ....|--- .... ....
....|..|A-4 2F.7 ....|R-- .... ....|R-- .... ....
....|..|--- .... ....|--- .... ....|--- .... ....
....|..|A-4 2F.7 ....|E-4 2F.7 ....|E-4 2F.7 ....
....|..|--- .... ....|--- .... ....|--- .... ....
 A-3|..|A-4 2C.F ....|E-4 2F.F ....|E-4 2F.F ....
....|..|--- .... ....|--- .... ....|--- .... ....
 A-3|..|A-4 2C.F ....|R-- .... ....|R-- .... ....
....|..|--- .... ....|--- .... ....|--- .... ....
....|..|A-4 2F.7 ....|E-5 2F.F ....|E-5 2F.F ....
....|..|--- .... ....|--- .... ....|--- .... ....
....|..|E-4 2F.7 ....|E-5 2F.F ....|E-5 2F.F ....
....|..|--- .... ....|--- .... ....|--- .... ....

[Pattern31]
 B-4|..|B-2 2A.F ....|B-4 2F1F ....|E-5 2F.F ....
....|..|--- .... ....|--- .... ....|--- .... ....
....|..|--- .... ....|B-4 2F.F ....|B-4 2F.F ....
....|..|--- .... ....|--- .... ....|--- .... ....
 B-4|..|B-2 2A.F ....|D-4 2F.F ....|D-4 2F.F ....
....|..|--- .... ....|--- .... ....|--- .... ....
 B-4|..|B-2 2A.F ....|B-4 2F1A ....|E-5 2F.A ....
....|..|--- .... ....|--- .... ....|--- .... ....
 B-4|..|B-2 2A.F ....|B-5 2F.F ....|B-5 2F.F ....
....|..|--- .... ....|--- .... ....|--- .... ....
....|..|B-2 2F.A ....|B-5 2F.F ....|B-5 2F.F ....
....|..|--- .... ....|--- .... ....|--- .... ....
 B-4|..|B-2 2A.F ....|B-6 2F.F ....|B-6 2F.F ....
....|..|--- .... ....|--- .... ....|--- .... ....
....|..|B-2 2F.A ....|B-6 2F.F ....|B-6 2F.F ....
....|..|--- .... ....|--- .... ....|--- .... ....
 B-4|..|B-2 2A.F ....|D-4 2F.7 ....|D-4 2F.7 ....
....|..|--- .... ....|--- .... ....|--- .... ....
 B-4|..|B-2 2A.F ....|B-6 2F.F ....|B-6 2F.F ....
....|..|--- .... ....|--- .... ....|--- .... ....
....|..|B-2 2F.7 ....|B-5 2F.F ....|B-5 2F.F ....
....|..|--- .... ....|--- .... ....|--- .... ....
....|..|B-2 2F.A ....|B-5 2F.F ....|B-5 2F.F ....
....|..|--- .... ....|--- .... ....|--- .... ....
 B-4|..|B-3 2C.F ....|B-5 2F.F ....|B-5 2F.F ....
....|..|--- .... ....|--- .... ....|--- .... ....
....|..|--- .... ....|B-5 2F.F ....|B-5 2F.F ....
....|..|--- .... ....|--- .... ....|--- .... ....
 B-4|..|B-3 2C.F ....|B-5 2F.A ....|B-5 2F.A ....
....|..|--- .... ....|--- .... ....|--- .... ....
 B-4|..|B-2 2A.F ....|B-6 2F.7 ....|B-6 2F.7 ....
....|..|--- .... ....|--- .... ....|--- .... ....
 B-4|..|B-2 2A.F ....|B-6 2F.F ....|B-6 2F.F ....
....|..|--- .... ....|--- .... ....|--- .... ....
 B-4|..|B-2 2A.F ....|B-6 2F.F ....|B-6 2F.F ....
....|..|--- .... ....|--- .... ....|--- .... ....
 B-4|..|B-2 2A.F ....|B-4 2F.F ....|B-4 2F.F ....
....|..|--- .... ....|--- .... ....|--- .... ....
....|..|B-2 2F.A ....|B-5 2F.7 ....|B-5 2F.7 ....
....|..|--- .... ....|--- .... ....|--- .... ....
 B-4|..|B-3 2C.F ....|B-5 2F.F ....|B-5 2F.F ....
....|..|--- .... ....|--- .... ....|--- .... ....
....|..|B-2 2F.7 ....|B-4 2F.A ....|B-4 2F.A ....
....|..|--- .... ....|--- .... ....|--- .... ....
....|..|B-2 2F.7 ....|B-6 2F.7 ....|B-6 2F.7 ....
....|..|--- .... ....|--- .... ....|--- .... ....
....|..|B-2 2F.7 ....|A-4 2F.F ....|A-4 2F.F ....
....|..|--- .... ....|--- .... ....|--- .... ....
 B-4|..|B-2 2A.F ....|A-4 2F3F ....|B-4 2F.F ....
....|..|--- .... ....|--- .... ....|--- .... ....
....|..|R-- .... ....|R-- .... ....|R-- .... ....
....|..|--- .... ....|--- .... ....|--- .... ....
 B-4|..|B-3 2C.F ....|B-5 2F.7 ....|B-5 2F.7 ....
....|..|--- .... ....|--- .... ....|--- .... ....
 B-4|..|B-3 2C.F ....|B-4 2F.F ....|B-4 2F.F ....
....|..|--- .... ....|--- .... ....|--- .... ....
 B-4|..|B-3 2C.F ....|R-- .... ....|R-- .... ....
....|..|--- .... ....|--- .... ....|--- .... ....
 B-4|..|B-3 2C.F ....|A-4 2F.7 ....|A-4 2F.7 ....
....|..|--- .... ....|--- .... ....|--- .... ....
 B-4|..|B-3 2C.F ....|A-4 2F37 ....|B-4 2F.7 ....
....|..|--- .... ....|--- .... ....|--- .... ....
 B-4|..|B-2 2A.F ....|B-3 2F.F ....|B-3 2F.F ....
....|..|--- .... ....|--- .... ....|--- .... ....

[Pattern32]
 B-4|..|B-2 2A.F ....|B-4 2F.F ....|B-4 2F.F ....
....|..|--- .... ....|--- .... ....|--- .... ....
 B-4|..|B-2 2A.F ....|B-4 2F.7 ....|B-4 2F.7 ....
....|..|--- .... ....|--- .... ....|--- .... ....
 B-4|..|B-2 2A.F ....|B-5 2F.F ....|B-5 2F.F ....
....|..|--- .... ....|--- .... ....|--- .... ....
 B-4|..|B-3 2C.F ....|B-4 2F.A ....|B-4 2F.A ....
....|..|--- .... ....|--- .... ....|--- .... ....
 B-4|..|B-3 2C.F ....|B-3 2F.F ....|B-3 2F.F ....
....|..|--- .... ....|--- .... ....|--- .... ....
....|..|B-2 2F.7 ....|B-4 2F.F ....|B-4 2F.F ....
....|..|--- .... ....|--- .... ....|--- .... ....
 B-4|..|B-4 2C.F ....|B-5 2F.F ....|B-5 2F.F ....
....|..|--- .... ....|--- .... ....|--- .... ....
....|..|B-2 2F.7 ....|B-5 2F.F ....|B-5 2F.F ....
....|..|--- .... ....|--- .... ....|--- .... ....
 B-4|..|B-4 2C.F ....|B-5 2F.7 ....|B-5 2F.7 ....
....|..|--- .... ....|--- .... ....|--- .... ....
 B-4|..|B-3 2C.F ....|B-5 2F.F ....|B-5 2F.F ....
....|..|--- .... ....|--- .... ....|--- .... ....
....|..|B-3 2F.7 ....|B-3 2F.F ....|B-3 2F.F ....
....|..|--- .... ....|--- .... ....|--- .... ....
....|..|B-4 2F.A ....|B-4 2F.F ....|B-4 2F.F ....
....|..|--- .... ....|--- .... ....|--- .... ....
 B-4|..|B-4 2C.F ....|B-4 2F.F ....|B-4 2F.F ....
....|..|--- .... ....|--- .... ....|--- .... ....
....|..|--- .... ....|B-4 2F.F ....|B-4 2F.F ....
....|..|--- .... ....|--- .... ....|--- .... ....
 B-4|..|B-4 2C.F ....|B-4 2F.A ....|B-4 2F.A ....
....|..|--- .... ....|--- .... ....|--- .... ....
 B-4|..|B-2 2A.F ....|B-5 2F.7 ....|B-5 2F.7 ....
....|..|--- .... ....|--- .... ....|--- .... ....
 B-4|..|B-2 2A.F ....|B-4 2F.F ....|B-4 2F.F ....
....|..|--- .... ....|--- .... ....|--- .... ....
 B-4|..|B-2 2A.F ....|B-3 2F.F ....|B-3 2F.F ....
....|..|--- .... ....|--- .... ....|--- .... ....
 B-4|..|B-2 2A.F ....|B-3 2F.F ....|B-3 2F.F ....
....|..|--- .... ....|--- .... ....|--- .... ....
....|..|B-2 2F.A ....|B-4 2F.7 ....|B-4 2F.7 ....
....|..|--- .... ....|--- .... ....|--- .... ....
 B-4|..|B-2 2A.F ....|B-3 2F.F ....|B-3 2F.F ....
....|..|--- .... ....|--- .... ....|--- .... ....
....|..|B-2 2F.7 ....|B-3 2F.A ....|B-3 2F.A ....
....|..|--- .... ....|--- .... ....|--- .... ....
....|..|B-2 2F.7 ....|B-4 2F.7 ....|B-4 2F.7 ....
....|..|--- .... ....|--- .... ....|--- .... ....
....|..|B-2 2F.7 ....|B-5 2F.F ....|B-5 2F.F ....
....|..|--- .... ....|--- .... ....|--- .... ....
 B-4|..|B-3 2C.F ....|B-6 2F.F ....|B-6 2F.F ....
....|..|--- .... ....|--- .... ....|--- .... ....
....|..|R-- .... ....|R-- .... ....|R-- .... ....
....|..|--- .... ....|--- .... ....|--- .... ....
 B-4|..|B-3 2C.F ....|B-3 2F.7 ....|B-3 2F.7 ....
....|..|--- .... ....|--- .... ....|--- .... ....
 B-4|..|B-2 2A.F ....|B-6 2F.F ....|B-6 2F.F ....
....|..|--- .... ....|--- .... ....|--- .... ....
 B-4|..|B-3 2C.F ....|R-- .... ....|R-- .... ....
....|..|--- .... ....|--- .... ....|--- .... ....
 B-4|..|B-3 2C.F ....|B-5 2F.7 ....|B-5 2F.7 ....
....|..|--- .... ....|--- .... ....|--- .... ....
 B-4|..|B-3 2C.F ....|B-6 2F.7 ....|B-6 2F.7 ....
....|..|--- .... ....|--- .... ....|--- .... ....
 B-4|..|B-2 2A.F ....|B-5 2F.F ....|B-5 2F.F ....
....|..|--- .... ....|--- .... ....|--- .... ....

[Pattern33]
 B-4|..|B-2 2A.F ....|B-5 2F.F ....|B-5 2F.F ....
....|..|--- .... ....|--- .... ....|--- .... ....
 B-4|..|B-2 2A.F ....|B-6 2F.7 ....|B-6 2F.7 ....
....|..|--- .... ....|--- .... ....|--- .... ....
 B-4|..|B-3 2C.F ....|B-5 2F.F ....|B-5 2F.F ....
....|..|--- .... ....|--- .... ....|--- .... ....
 B-4|..|B-3 2C.F ....|B-5 2F.A ....|B-5 2F.A ....
....|..|--- .... ....|--- .... ....|--- .... ....
 B-4|..|B-2 2A.F ....|B-3 2F.F ....|B-3 2F.F ....
....|..|--- .... ....|--- .... ....|--- .... ....
....|..|B-2 2F.7 ....|B-3 2F.F ....|B-3 2F.F ....
....|..|--- .... ....|--- .... ....|--- .... ....
 B-4|..|B-2 2A.F ....|B-4 2F.F ....|B-4 2F.F ....
....|..|--- .... ....|--- .... ....|--- .... ....
....|..|B-2 2F.7 ....|B-4 2F.F ....|B-4 2F.F ....
....|..|--- .... ....|--- .... ....|--- .... ....
 B-4|..|B-2 2A.F ....|B-5 2F.7 ....|B-5 2F.7 ....
....|..|--- .... ....|--- .... ....|--- .... ....
 B-4|..|B-2 2A.F ....|B-5 2F.F ....|B-5 2F.F ....
....|..|--- .... ....|--- .... ....|--- .... ....
....|..|B-2 2F.7 ....|B-5 2F.F ....|B-5 2F.F ....
....|..|--- .... ....|--- .... ....|--- .... ....
....|..|B-2 2F.A ....|B-5 2F.F ....|B-5 2F.F ....
....|..|--- .... ....|--- .... ....|--- .... ....
 B-4|..|B-2 2A.F ....|B-4 2F.F ....|B-4 2F.F ....
....|..|--- .... ....|--- .... ....|--- .... ....
....|..|--- .... ....|B-4 2F.F ....|B-4 2F.F ....
....|..|--- .... ....|--- .... ....|--- .... ....
 B-4|..|B-2 2A.F ....|B-5 2F.A ....|B-5 2F.A ....
....|..|--- .... ....|--- .... ....|--- .... ....
 B-4|..|B-2 2A.F ....|B-5 2F.7 ....|B-5 2F.7 ....
....|..|--- .... ....|--- .... ....|--- .... ....
 B-4|..|B-3 2C.F ....|B-5 2F.F ....|B-5 2F.F ....
....|..|--- .... ....|--- .... ....|--- .... ....
 B-4|..|B-3 2C.F ....|B-5 2F.F ....|B-5 2F.F ....
....|..|--- .... ....|--- .... ....|--- .... ....
 B-4|..|B-3 2C.F ....|B-6 2F.F ....|B-6 2F.F ....
....|..|--- .... ....|--- .... ....|--- .... ....
....|..|B-3 2F.A ....|B-4 2F.7 ....|B-4 2F.7 ....
....|..|--- .... ....|--- .... ....|--- .... ....
 B-4|..|B-2 2A.F ....|B-5 2F.F ....|B-5 2F.F ....
....|..|--- .... ....|--- .... ....|--- .... ....
....|..|B-2 2F.7 ....|B-6 2F.A ....|B-6 2F.A ....
....|..|--- .... ....|--- .... ....|--- .... ....
....|..|B-3 2F.7 ....|B-5 2F.7 ....|B-5 2F.7 ....
....|..|--- .... ....|--- .... ....|--- .... ....
....|..|B-3 2F.7 ....|B-4 2F.F ....|B-4 2F.F ....
....|..|--- .... ....|--- .... ....|--- .... ....
 B-4|..|B-2 2A.F ....|B-5 2F.F ....|B-5 2F.F ....
....|..|--- .... ....|--- .... ....|--- .... ....
....|..|R-- .... ....|R-- .... ....|R-- .... ....
....|..|--- .... ....|--- .... ....|--- .... ....
 B-4|..|B-2 2A.F ....|B-5 2F.7 ....|B-5 2F.7 ....
....|..|--- .... ....|--- .... ....|--- .... ....
 B-4|..|B-2 2A.F ....|B-5 2F.F ....|B-5 2F.F ....
....|..|--- .... ....|--- .... ....|--- .... ....
 B-4|..|B-3 2C.F ....|R-- .... ....|R-- .... ....
....|..|--- .... ....|--- .... ....|--- .... ....
 B-4|..|B-3 2C.F ....|B-4 2F.7 ....|B-4 2F.7 ....
....|..|--- .... ....|--- .... ....|--- .... ....
 B-4|..|B-4 2C.F ....|B-5 2F.7 ....|B-5 2F.7 ....
....|..|--- .... ....|--- .... ....|--- .... ....
 B-4|..|B-4 2C.F ....|B-4 2F.F ....|B-4 2F.F ....
....|..|--- .... ....|--- .... ....|--- .... ....

[Pattern34]
 B-4|..|B-4 2C.F ....|B-4 2F.F ....|B-4 2F.F ....
....|..|--- .... ....|--- .... ....|--- .... ....
 B-4|..|B-2 2A.F ....|B-5 2F.7 ....|B-5 2F.7 ....
....|..|--- .... ....|--- .... ....|--- .... ....
 B-4|..|B-2 2A.F ....|B-4 2F.F ....|B-4 2F.F ....
....|..|--- .... ....|--- .... ....|--- .... ....
 B-4|..|B-3 2C.F ....|B-4 2F.A ....|B-4 2F.A ....
....|..|--- .... ....|--- .... ....|--- .... ....
 B-4|..|B-3 2C.F ....|B-3 2F.F ....|B-3 2F.F ....
....|..|--- .... ....|--- .... ....|--- .... ....
....|..|B-4 2F.7 ....|B-5 2F.F ....|B-5 2F.F ....
....|..|--- .... ....|--- .... ....|--- .... ....
 B-4|..|B-4 2C.F ....|B-5 2F.F ....|B-5 2F.F ....
....|..|--- .... ....|--- .... ....|--- .... ....
....|..|B-2 2F.7 ....|G-4 2F.F ....|G-4 2F.F ....
....|..|--- .... ....|--- .... ....|--- .... ....
 B-4|..|B-4 2C.F ....|B-4 2F.7 ....|B-4 2F.7 ....
....|..|--- .... ....|--- .... ....|--- .... ....
 B-4|..|B-2 2A.F ....|G-4 2F2F ....|B-4 2F.F ....
....|..|--- .... ....|--- .... ....|--- .... ....
....|..|B-3 2F.7 ....|B-4 2F.F ....|B-4 2F.F ....
....|..|--- .... ....|--- .... ....|--- .... ....
....|..|B-4 2F.A ....|B-4 2F.F ....|B-4 2F.F ....
....|..|--- .... ....|--- .... ....|--- .... ....
 B-4|..|B-2 2A.F ....|B-5 2F.F ....|B-5 2F.F ....
....|..|--- .... ....|--- .... ....|--- .... ....
....|..|--- .... ....|B-5 2F.F ....|B-5 2F.F ....
....|..|--- .... ....|--- .... ....|--- .... ....
 B-4|..|B-2 2A.F ....|B-4 2F.A ....|B-4 2F.A ....
....|..|--- .... ....|--- .... ....|--- .... ....
 B-4|..|B-2 2A.F ....|G-4 2F27 ....|B-4 2F.7 ....
....|..|--- .... ....|--- .... ....|--- .... ....
 B-4|..|B-3 2C.F ....|B-6 2F.F ....|B-6 2F.F ....
....|..|--- .... ....|--- .... ....|--- .... ....
 B-4|..|B-3 2C.F ....|B-6 2F.F ....|B-6 2F.F ....
....|..|--- .... ....|--- .... ....|--- .... ....
 B-4|..|B-3 2C.F ....|B-4 2F.F ....|B-4 2F.F ....
....|..|--- .... ....|--- .... ....|--- .... ....
....|..|B-3 2F.A ....|B-5 2F.7 ....|B-5 2F.7 ....
....|..|--- .... ....|--- .... ....|--- .... ....
 B-4|..|B-2 2A.F ....|B-3 2F.F ....|B-3 2F.F ....
....|..|--- .... ....|--- .... ....|--- .... ....
....|..|B-2 2F.7 ....|B-4 2F.A ....|B-4 2F.A ....
....|..|--- .... ....|--- .... ....|--- .... ....
....|..|B-3 2F.7 ....|B-6 2F.7 ....|B-6 2F.7 ....
....|..|--- .... ....|--- .... ....|--- .... ....
....|..|B-3 2F.7 ....|B-5 2F.F ....|B-5 2F.F ....
....|..|--- .... ....|--- .... ....|--- .... ....
 B-4|..|B-3 2C.F ....|B-5 2F.F ....|B-5 2F.F ....
....|..|--- .... ....|--- .... ....|--- .... ....
....|..|R-- .... ....|R-- .... ....|R-- .... ....
....|..|--- .... ....|--- .... ....|--- .... ....
 B-4|..|B-3 2C.F ....|B-3 2F.7 ....|B-3 2F.7 ....
....|..|--- .... ....|--- .... ....|--- .... ....
 B-4|..|B-2 2A.F ....|B-3 2F.F ....|B-3 2F.F ....
....|..|--- .... ....|--- .... ....|--- .... ....
 B-4|..|B-3 2C.F ....|R-- .... ....|R-- .... ....
....|..|--- .... ....|--- .... ....|--- .... ....
 B-4|..|B-3 2C.F ....|B-5 2F.7 ....|B-5 2F.7 ....
....|..|--- .... ....|--- .... ....|--- .... ....
 B-4|..|B-3 2C.F ....|B-5 2F.7 ....|B-5 2F.7 ....
....|..|--- .... ....|--- .... ....|--- .... ....
 B-4|..|B-2 2A.F ....|B-3 2F.F ....|B-3 2F.F ....
....|..|--- .... ....|--- .... ....|--- .... ....

[Pattern35]
 B-4|..|B-2 2A.F ....|B-3 2F.F ....|B-3 2F.F ....
....|..|--- .... ....|--- .... ....|--- .... ....
 B-4|..|B-2 2A.F ....|B-3 2F.7 ....|B-3 2F.7 ....
....|..|--- .... ....|--- .... ....|--- .... ....
 B-4|..|B-3 2C.F ....|B-4 2F.F ....|B-4 2F.F ....
....|..|--- .... ....|--- .... ....|--- .... ....
 B-4|..|B-3 2C.F ....|B-3 2F.A ....|B-3 2F.A ....
....|..|--- .... ....|--- .... ....|--- .... ....
 B-4|..|B-2 2A.F ....|B-5 2F.F ....|B-5 2F.F ....
....|..|--- .... ....|--- .... ....|--- .... ....
....|..|B-2 2F.7 ....|B-5 2F.F ....|B-5 2F.F ....
....|..|--- .... ....|--- .... ....|--- .... ....
 B-4|..|B-2 2A.F ....|B-6 2F.F ....|B-6 2F.F ....
....|..|--- .... ....|--- .... ....|--- .... ....
....|..|B-2 2F.7 ....|B-6 2F.F ....|B-6 2F.F ....
....|..|--- .... ....|--- .... ....|--- .... ....
 B-4|..|B-3 2C.F ....|B-4 2F.7 ....|B-4 2F.7 ....
....|..|--- .... ....|--- .... ....|--- .... ....
 B-4|..|B-3 2C.F ....|B-6 2F.F ....|B-6 2F.F ....
....|..|--- .... ....|--- .... ....|--- .... ....
....|..|B-2 2F.7 ....|B-3 2F.F ....|B-3 2F.F ....
....|..|--- .... ....|--- .... ....|--- .... ....
....|..|B-3 2F.A ....|B-5 2F.F ....|B-5 2F.F ....
....|..|--- .... ....|--- .... ....|--- .... ....
 B-4|..|B-4 2C.F ....|B-5 2F.F ....|B-5 2F.F ....
....|..|--- .... ....|--- .... ....|--- .... ....
....|..|--- .... ....|B-4 2F.F ....|B-4 2F.F ....
....|..|--- .... ....|--- .... ....|--- .... ....
 B-4|..|B-4 2C.F ....|B-5 2F.A ....|B-5 2F.A ....
....|..|--- .... ....|--- .... ....|--- .... ....
 B-4|..|B-2 2A.F ....|B-6 2F.7 ....|B-6 2F.7 ....
....|..|--- .... ....|--- .... ....|--- .... ....
 B-4|..|B-2 2A.F ....|B-4 2F.F ....|B-4 2F.F ....
....|..|--- .... ....|--- .... ....|--- .... ....
 B-4|..|B-2 2A.F ....|B-4 2F.F ....|B-4 2F.F ....
....|..|--- .... ....|--- .... ....|--- .... ....
 B-4|..|B-2 2A.F ....|B-5 2F.F ....|B-5 2F.F ....
....|..|--- .... ....|--- .... ....|--- .... ....
....|..|B-2 2F.A ....|B-4 2F.7 ....|B-4 2F.7 ....
....|..|--- .... ....|--- .... ....|--- .... ....
 B-4|..|B-3 2C.F ....|B-3 2F.F ....|B-3 2F.F ....
....|..|--- .... ....|--- .... ....|--- .... ....
....|..|B-2 2F.7 ....|B-5 2F.A ....|B-5 2F.A ....
....|..|--- .... ....|--- .... ....|--- .... ....
....|..|B-2 2F.7 ....|B-4 2F.7 ....|B-4 2F.7 ....
....|..|--- .... ....|--- .... ....|--- .... ....
....|..|B-2 2F.7 ....|B-4 2F.F ....|B-4 2F.F ....
....|..|--- .... ....|--- .... ....|--- .... ....
 B-4|..|B-2 2A.F ....|B-5 2F.F ....|B-5 2F.F ....
....|..|--- .... ....|--- .... ....|--- .... ....
....|..|R-- .... ....|R-- .... ....|R-- .... ....
....|..|--- .... ....|--- .... ....|--- .... ....
 B-4|..|B-3 2C.F ....|B-3 2F.7 ....|B-3 2F.7 ....
....|..|--- .... ....|--- .... ....|--- .... ....
 B-4|..|B-3 2C.F ....|B-5 2F.F ....|B-5 2F.F ....
....|..|--- .... ....|--- .... ....|--- .... ....
 B-4|..|B-3 2C.F ....|R-- .... ....|R-- .... ....
....|..|--- .... ....|--- .... ....|--- .... ....
 B-4|..|B-3 2C.F ....|B-4 2F.7 ....|B-4 2F.7 ....
....|..|--- .... ....|--- .... ....|--- .... ....
 B-4|..|B-3 2C.F ....|B-5 2F.7 ....|B-5 2F.7 ....
....|..|--- .... ....|--- .... ....|--- .... ....
 B-4|..|B-2 2A.F ....|B-3 2F.F ....|B-3 2F.F ....
....|..|--- .... ....|--- .... ....|--- .... ....

[Pattern36]
 B-4|..|B-2 2A.F ....|B-3 2F.F ....|B-3 2F.F ....
....|..|--- .... ....|--- .... ....|--- .... ....
 B-4|..|B-2 2A.F ....|B-5 2F.7 ....|B-5 2F.7 ....
....|..|--- .... ....|--- .... ....|--- .... ....
 B-4|..|B-2 2A.F ....|B-4 2F.F ....|B-4 2F.F ....
....|..|--- .... ....|--- .... ....|--- .... ....
 B-4|..|B-2 2A.F ....|B-3 2F.A ....|B-3 2F.A ....
....|..|--- .... ....|--- .... ....|--- .... ....
 B-4|..|B-2 2A.F ....|B-5 2F.F ....|B-5 2F.F ....
....|..|--- .... ....|--- .... ....|--- .... ....
....|..|B-2 2F.7 ....|B-6 2F.F ....|B-6 2F.F ....
....|..|--- .... ....|--- .... ....|--- .... ....
 B-4|..|B-2 2A.F ....|B-6 2F.F ....|B-6 2F.F ....
....|..|--- .... ....|--- .... ....|--- .... ....
....|..|B-2 2F.7 ....|B-5 2F.F ....|B-5 2F.F ....
....|..|--- .... ....|--- .... ....|--- .... ....
 B-4|..|B-3 2C.F ....|B-4 2F.7 ....|B-4 2F.7 ....
....|..|--- .... ....|--- .... ....|--- .... ....
 B-4|..|B-3 2C.F ....|B-5 2F.F ....|B-5 2F.F ....
....|..|--- .... ....|--- .... ....|--- .... ....
....|..|B-2 2F.7 ....|B-4 2F.F ....|B-4 2F.F ....
....|..|--- .... ....|--- .... ....|--- .... ....
....|..|B-3 2F.A ....|B-4 2F.F ....|B-4 2F.F ....
....|..|--- .... ....|--- .... ....|--- .... ....
 B-4|..|B-4 2C.F ....|B-5 2F.F ....|B-5 2F.F ....
....|..|--- .... ....|--- .... ....|--- .... ....
....|..|--- .... ....|B-5 2F.F ....|B-5 2F.F ....
....|..|--- .... ....|--- .... ....|--- .... ....
 B-4|..|B-4 2C.F ....|B-4 2F.A ....|B-4 2F.A ....
....|..|--- .... ....|--- .... ....|--- .... ....
 B-4|..|B-2 2A.F ....|B-5 2F.7 ....|B-5 2F.7 ....
....|..|--- .... ....|--- .... ....|--- .... ....
 B-4|..|B-2 2A.F ....|B-6 2F.F ....|B-6 2F.F ....
....|..|--- .... ....|--- .... ....|--- .... ....
 B-4|..|B-2 2A.F ....|B-6 2F.F ....|B-6 2F.F ....
....|..|--- .... ....|--- .... ....|--- .... ....
 B-4|..|B-2 2A.F ....|B-3 2F.F ....|B-3 2F.F ....
....|..|--- .... ....|--- .... ....|--- .... ....
....|..|B-2 2F.A ....|B-5 2F.7 ....|B-5 2F.7 ....
....|..|--- .... ....|--- .... ....|--- .... ....
 B-4|..|B-2 2A.F ....|B-3 2F.F ....|B-3 2F.F ....
....|..|--- .... ....|--- .... ....|--- .... ....
....|..|B-2 2F.7 ....|B-3 2F.A ....|B-3 2F.A ....
....|..|--- .... ....|--- .... ....|--- .... ....
....|..|B-2 2F.7 ....|B-6 2F.7 ....|B-6 2F.7 ....
....|..|--- .... ....|--- .... ....|--- .... ....
....|..|B-2 2F.7 ....|B-4 2F.F ....|B-4 2F.F ....
....|..|--- .... ....|--- .... ....|--- .... ....
 B-4|..|B-2 2A.F ....|B-5 2F.F ....|B-5 2F.F ....
....|..|--- .... ....|--- .... ....|--- .... ....
....|..|R-- .... ....|R-- .... ....|R-- .... ....
....|..|--- .... ....|--- .... ....|--- .... ....
 B-4|..|B-2 2A.F ....|B-3 2F.7 ....|B-3 2F.7 ....
....|..|--- .... ....|--- .... ....|--- .... ....
 B-4|..|B-2 2A.F ....|B-5 2F.F ....|B-5 2F.F ....
....|..|--- .... ....|--- .... ....|--- .... ....
 B-4|..|B-3 2C.F ....|R-- .... ....|R-- .... ....
....|..|--- .... ....|--- .... ....|--- .... ....
 B-4|..|B-3 2C.F ....|B-4 2F.7 ....|B-4 2F.7 ....
....|..|--- .... ....|--- .... ....|--- .... ....
 B-4|..|B-3 2C.F ....|B-5 2F.7 ....|B-5 2F.7 ....
....|..|--- .... ....|--- .... ....|--- .... ....
 B-4|..|B-2 2A.F ....|B-4 2F.F ....|B-4 2F.F ....
....|..|--- .... ....|--- .... ....|--- .... ....

[Pattern37]
 B-4|..|B-2 2A.F ....|B-4 2F.F ....|B-4 2F.F ....
....|..|--- .... ....|--- .... ....|--- .... ....
 B-4|..|B-2 2A.F ....|B-5 2F.7 ....|B-5 2F.7 ....
....|..|--- .... ....|--- .... ....|--- .... ....
 B-4|..|B-2 2A.F ....|D-4 2F.F ....|D-4 2F.F ....
....|..|--- .... ....|--- .... ....|--- .... ....
 B-4|..|B-2 2A.F ....|B-4 2F.A ....|B-4 2F.A ....
....|..|--- .... ....|--- .... ....|--- .... ....
 B-4|..|B-2 2A.F ....|B-5 2F.F ....|B-5 2F.F ....
....|..|--- .... ....|--- .... ....|--- .... ....
....|..|B-2 2F.7 ....|B-6 2F.F ....|B-6 2F.F ....
....|..|--- .... ....|--- .... ....|--- .... ....
 B-4|..|B-3 2C.F ....|B-6 2F.F ....|B-6 2F.F ....
....|..|--- .... ....|--- .... ....|--- .... ....
....|..|B-2 2F.7 ....|G-4 2F.F ....|G-4 2F.F ....
....|..|--- .... ....|--- .... ....|--- .... ....
 B-4|..|B-3 2C.F ....|D-4 2F.7 ....|D-4 2F.7 ....
....|..|--- .... ....|--- .... ....|--- .... ....
 B-4|..|B-3 2C.F ....|B-5 2F.F ....|B-5 2F.F ....
....|..|--- .... ....|--- .... ....|--- .... ....
....|..|B-2 2F.7 ....|B-5 2F.F ....|B-5 2F.F ....
....|..|--- .... ....|--- .... ....|--- .... ....
....|..|B-3 2F.A ....|B-5 2F.F ....|B-5 2F.F ....
....|..|--- .... ....|--- .... ....|--- .... ....
 B-4|..|B-4 2C.F ....|B-4 2F.F ....|B-4 2F.F ....
....|..|--- .... ....|--- .... ....|--- .... ....
....|..|--- .... ....|B-4 2F.F ....|B-4 2F.F ....
....|..|--- .... ....|--- .... ....|--- .... ....
 B-4|..|B-4 2C.F ....|B-5 2F.A ....|B-5 2F.A ....
....|..|--- .... ....|--- .... ....|--- .... ....
 B-4|..|B-2 2A.F ....|B-5 2F.7 ....|B-5 2F.7 ....
....|..|--- .... ....|--- .... ....|--- .... ....
 B-4|..|B-2 2A.F ....|B-4 2F.F ....|B-4 2F.F ....
....|..|--- .... ....|--- .... ....|--- .... ....
 B-4|..|B-2 2A.F ....|B-3 2F.F ....|B-3 2F.F ....
....|..|--- .... ....|--- .... ....|--- .... ....
 B-4|..|B-2 2A.F ....|B-5 2F.F ....|B-5 2F.F ....
....|..|--- .... ....|--- .... ....|--- .... ....
....|..|B-2 2F.A ....|B-4 2F.7 ....|B-4 2F.7 ....
....|..|--- .... ....|--- .... ....|--- .... ....
 B-4|..|B-3 2C.F ....|B-4 2F.F ....|B-4 2F.F ....
....|..|--- .... ....|--- .... ....|--- .... ....
....|..|B-2 2F.7 ....|B-5 2F.A ....|B-5 2F.A ....
....|..|--- .... ....|--- .... ....|--- .... ....
....|..|B-2 2F.7 ....|B-4 2F.7 ....|B-4 2F.7 ....
....|..|--- .... ....|--- .... ....|--- .... ....
....|..|B-2 2F.7 ....|B-5 2F.F ....|B-5 2F.F ....
....|..|--- .... ....|--- .... ....|--- .... ....
 B-4|..|B-3 2C.F ....|B-6 2F.F ....|B-6 2F.F ....
....|..|--- .... ....|--- .... ....|--- .... ....
....|..|R-- .... ....|R-- .... ....|R-- .... ....
....|..|--- .... ....|--- .... ....|--- .... ....
 B-4|..|B-3 2C.F ....|B-4 2F.7 ....|B-4 2F.7 ....
....|..|--- .... ....|--- .... ....|--- .... ....
 B-4|..|B-2 2A.F ....|B-6 2F.F ....|B-6 2F.F ....
....|..|--- .... ....|--- .... ....|--- .... ....
 B-4|..|B-3 2C.F ....|R-- .... ....|R-- .... ....
....|..|--- .... ....|--- .... ....|--- .... ....
 B-4|..|B-3 2C.F ....|B-5 2F.7 ....|B-5 2F.7 ....
....|..|--- .... ....|--- .... ....|--- .... ....
 B-4|..|B-4 2C.F ....|B-6 2F.7 ....|B-6 2F.7 ....
....|..|--- .... ....|--- .... ....|--- .... ....
 B-4|..|B-4 2C.F ....|B-5 2F.F ....|B-5 2F.F ....
....|..|--- .... ....|--- .... ....|--- .... ....

[Pattern38]
 B-4|..|B-4 2C.F ....|B-5 2F.F ....|B-5 2F.F ....
....|..|--- .... ....|--- .... ....|--- .... ....
 B-4|..|B-2 2A.F ....|B-6 2F.7 ....|B-6 2F.7 ....
....|..|--- .... ....|--- .... ....|--- .... ....
 B-4|..|B-2 2A.F ....|D-4 2F.F ....|D-4 2F.F ....
....|..|--- .... ....|--- .... ....|--- .... ....
 B-4|..|B-2 2A.F ....|B-5 2F.A ....|B-5 2F.A ....
....|..|--- .... ....|--- .... ....|--- .... ....
 B-4|..|B-2 2A.F ....|B-5 2F.F ....|B-5 2F.F ....
....|..|--- .... ....|--- .... ....|--- .... ....
....|..|B-4 2F.7 ....|B-6 2F.F ....|B-6 2F.F ....
....|..|--- .... ....|--- .... ....|--- .... ....
 B-4|..|B-3 2C.F ....|B-6 2F.F ....|B-6 2F.F ....
....|..|--- .... ....|--- .... ....|--- .... ....
....|..|B-2 2F.7 ....|G-4 2F.F ....|G-4 2F.F ....
....|..|--- .... ....|--- .... ....|--- .... ....
 B-4|..|B-3 2C.F ....|D-4 2F.7 ....|D-4 2F.7 ....
....|..|--- .... ....|--- .... ....|--- .... ....
 B-4|..|B-3 2C.F ....|B-5 2F.F ....|B-5 2F.F ....
....|..|--- .... ....|--- .... ....|--- .... ....
....|..|B-2 2F.7 ....|B-5 2F.F ....|B-5 2F.F ....
....|..|--- .... ....|--- .... ....|--- .... ....
....|..|B-3 2F.A ....|B-5 2F.F ....|B-5 2F.F ....
....|..|--- .... ....|--- .... ....|--- .... ....
 B-4|..|B-4 2C.F ....|B-4 2F.F ....|B-4 2F.F ....
....|..|--- .... ....|--- .... ....|--- .... ....
....|..|--- .... ....|B-4 2F.F ....|B-4 2F.F ....
....|..|--- .... ....|--- .... ....|--- .... ....
 B-4|..|B-4 2C.F ....|B-5 2F.A ....|B-5 2F.A ....
....|..|--- .... ....|--- .... ....|--- .... ....
 B-4|..|B-2 2A.F ....|B-5 2F.7 ....|B-5 2F.7 ....
....|..|--- .... ....|--- .... ....|--- .... ....
 B-4|..|B-2 2A.F ....|B-5 2F.F ....|B-5 2F.F ....
....|..|--- .... ....|--- .... ....|--- .... ....
 B-4|..|B-2 2A.F ....|B-5 2F.F ....|B-5 2F.F ....
....|..|--- .... ....|--- .... ....|--- .... ....
 B-4|..|B-2 2A.F ....|B-3 2F.F ....|B-3 2F.F ....
....|..|--- .... ....|--- .... ....|--- .... ....
....|..|B-2 2F.A ....|B-4 2F.7 ....|B-4 2F.7 ....
....|..|--- .... ....|--- .... ....|--- .... ....
 B-4|..|B-2 2A.F ....|B-3 2F.F ....|B-3 2F.F ....
....|..|--- .... ....|--- .... ....|--- .... ....
....|..|B-2 2F.7 ....|B-3 2F.A ....|B-3 2F.A ....
....|..|--- .... ....|--- .... ....|--- .... ....
....|..|B-2 2F.7 ....|B-5 2F.7 ....|B-5 2F.7 ....
....|..|--- .... ....|--- .... ....|--- .... ....
....|..|B-2 2F.7 ....|B-6 2F.F ....|B-6 2F.F ....
....|..|--- .... ....|--- .... ....|--- .... ....
 B-4|..|B-3 2C.F ....|B-6 2F.F ....|B-6 2F.F ....
....|..|--- .... ....|--- .... ....|--- .... ....
....|..|R-- .... ....|R-- .... ....|R-- .... ....
....|..|--- .... ....|--- .... ....|--- .... ....
 B-4|..|B-3 2C.F ....|B-3 2F.7 ....|B-3 2F.7 ....
....|..|--- .... ....|--- .... ....|--- .... ....
 B-4|..|B-2 2A.F ....|B-4 2F.F ....|B-4 2F.F ....
....|..|--- .... ....|--- .... ....|--- .... ....
 B-4|..|B-3 2C.F ....|R-- .... ....|R-- .... ....
....|..|--- .... ....|--- .... ....|--- .... ....
 B-4|..|B-3 2C.F ....|B-6 2F.7 ....|B-6 2F.7 ....
....|..|--- .... ....|--- .... ....|--- .... ....
 B-4|..|B-3 2C.F ....|B-6 2F.7 ....|B-6 2F.7 ....
....|..|--- .... ....|--- .... ....|--- .... ....
 B-4|..|B-2 2A.F ....|B-3 2F.F ....|B-3 2F.F ....
....|..|--- .... ....|--- .... ....|--- .... ....

[Pattern39]
 B-4|..|B-4 2C.F ....|--- .... ....|--- .... ....
....|..|--- .... ....|--- .... ....|--- .... ....
 B-4|..|B-4 2C.F ....|B-4 2F.7 ....|B-4 2F.7 ....
....|..|--- .... ....|--- .... ....|--- .... ....
 B-4|..|B-2 2A.F ....|B-3 2F.A ....|B-3 2F.A ....
....|..|--- .... ....|--- .... ....|--- .... ....
....|..|B-3 2F.7 ....|--- .... ....|--- .... ....
....|..|--- .... ....|--- .... ....|--- .... ....
....|..|B-3 2F.7 ....|--- .... ....|--- .... ....
....|..|--- .... ....|--- .... ....|--- .... ....
....|..|B-2 2F.7 ....|B-3 2F.7 ....|B-3 2F.7 ....
....|..|--- .... ....|--- .... ....|--- .... ....
 B-4|..|B-2 2A.F ....|--- .... ....|--- .... ....
....|..|--- .... ....|--- .... ....|--- .... ....
....|..|B-4 2F.7 ....|--- .... ....|--- .... ....
....|..|--- .... ....|--- .... ....|--- .... ....
 B-4|..|B-4 2C.F ....|R-- .... ....|R-- .... ....
....|..|--- .... ....|--- .... ....|--- .... ....
 B-4|..|B-4 2C.F ....|--- .... ....|--- .... ....
....|..|--- .... ....|--- .... ....|--- .... ....
....|..|R-- .... ....|--- .... ....|--- .... ....
....|..|--- .... ....|--- .... ....|--- .... ....
....|..|B-4 2F.A ....|--- .... ....|--- .... ....
....|..|--- .... ....|--- .... ....|--- .... ....
 B-4|..|B-5 2C.F ....|--- .... ....|--- .... ....
....|..|--- .... ....|--- .... ....|--- .... ....
....|..|--- .... ....|--- .... ....|--- .... ....
....|..|--- .... ....|--- .... ....|--- .... ....
....|..|B-4 2F.7 ....|--- .... ....|--- .... ....
....|..|--- .... ....|--- .... ....|--- .... ....
....|..|B-4 2F.7 ....|--- .... ....|--- .... ....
....|..|--- .... ....|--- .... ....|--- .... ....
 B-4|..|B-4 2C.F ....|--- .... ....|--- .... ....
....|..|--- .... ....|--- .... ....|--- .... ....
....|..|R-- .... ....|--- .... ....|--- .... ....
....|..|--- .... ....|--- .... ....|--- .... ....
 B-4|..|B-2 2A.F ....|--- .... ....|--- .... ....
....|..|--- .... ....|--- .... ....|--- .... ....
....|..|B-4 2F.A ....|--- .... ....|--- .... ....
....|..|--- .... ....|--- .... ....|--- .... ....
....|..|R-- .... ....|--- .... ....|--- .... ....
....|..|--- .... ....|--- .... ....|--- .... ....
....|..|B-2 2F.A ....|--- .... ....|--- .... ....
....|..|--- .... ....|--- .... ....|--- .... ....
....|..|B-4 2F.7 ....|--- .... ....|--- .... ....
....|..|--- .... ....|--- .... ....|--- .... ....
....|..|R-- .... ....|--- .... ....|--- .... ....
....|..|--- .... ....|--- .... ....|--- .... ....
 B-4|..|B-4 2C.F ....|--- .... ....|--- .... ....
....|..|--- .... ....|--- .... ....|--- .... ....
....|..|--- .... ....|--- .... ....|--- .... ....
....|..|--- .... ....|--- .... ....|--- .... ....
....|..|R-- .... ....|--- .... ....|--- .... ....
....|..|--- .... ....|--- .... ....|--- .... ....
....|..|B-4 2F.A ....|--- .... ....|--- .... ....
....|..|--- .... ....|--- .... ....|--- .... ....
 B-4|..|B-5 2C.F ....|--- .... ....|--- .... ....
....|..|--- .... ....|--- .... ....|--- .... ....
....|..|--- .... ....|--- .... ....|--- .... ....
....|..|--- .... ....|--- .... ....|--- .... ....
....|..|B-4 2F.7 ....|--- .... ....|--- .... ....
....|..|--- .... ....|--- .... ....|--- .... ....
....|..|B-5 2F.A ....|--- .... ....|--- .... ....
....|..|--- .... ....|--- .... ....|--- .... ....

[Pattern40]
 B-4|..|B-5 2C.F ....|--- .... ....|--- .... ....
....|..|--- .... ....|--- .... ....|--- .... ....
....|..|--- .... ....|--- .... ....|--- .... ....
....|..|--- .... ....|--- .... ....|--- .... ....
 B-4|..|B-5 2C.F ....|--- .... ....|--- .... ....
....|..|--- .... ....|--- .... ....|--- .... ....
....|..|B-5 2F.A ....|--- .... ....|--- .... ....
....|..|--- .... ....|--- .... ....|--- .... ....
 B-4|..|B-5 2C.F ....|--- .... ....|--- .... ....
....|..|--- .... ....|--- .... ....|--- .... ....
....|..|B-5 2F.A ....|--- .... ....|--- .... ....
....|..|--- .... ....|--- .... ....|--- .... ....
 B-4|..|B-5 2C.F ....|--- .... ....|--- .... ....
....|..|--- .... ....|--- .... ....|--- .... ....
....|..|B-5 2F.A ....|--- .... ....|--- .... ....
....|..|--- .... ....|--- .... ....|--- .... ....
 B-4|..|B-5 2C.F ....|--- .... ....|--- .... ....
....|..|--- .... ....|--- .... ....|--- .... ....
 B-4|..|B-5 2C.F ....|--- .... ....|--- .... ....
....|..|--- .... ....|--- .... ....|--- .... ....
....|..|B-5 2F.7 ....|--- .... ....|--- .... ....
....|..|--- .... ....|--- .... ....|--- .... ....
 B-4|..|B-5 2C.F ....|--- .... ....|--- .... ....
....|..|--- .... ....|--- .... ....|--- .... ....
 B-4|..|B-5 2C.F ....|--- .... ....|--- .... ....
....|..|--- .... ....|--- .... ....|--- .... ....
 B-4|..|B-5 2C.F ....|--- .... ....|--- .... ....
....|..|--- .... ....|--- .... ....|--- .... ....
....|..|B-5 2F.7 ....|--- .... ....|--- .... ....
....|..|--- .... ....|--- .... ....|--- .... ....
....|..|B-5 2F.7 ....|--- .... ....|--- .... ....
....|..|--- .... ....|--- .... ....|--- .... ....
 B-4|..|B-4 2C.F ....|--- .... ....|--- .... ....
....|..|--- .... ....|--- .... ....|--- .... ....
....|..|B-5 2F.7 ....|--- .... ....|--- .... ....
....|..|--- .... ....|--- .... ....|--- .... ....
 B-4|..|B-2 2A.F ....|--- .... ....|--- .... ....
....|..|--- .... ....|--- .... ....|--- .... ....
....|..|B-5 2F.7 ....|--- .... ....|--- .... ....
....|..|--- .... ....|--- .... ....|--- .... ....
....|..|R-- .... ....|--- .... ....|--- .... ....
....|..|--- .... ....|--- .... ....|--- .... ....
....|..|B-2 2F.A ....|--- .... ....|--- .... ....
....|..|--- .... ....|--- .... ....|--- .... ....
....|..|B-4 2F.7 ....|--- .... ....|--- .... ....
....|..|--- .... ....|--- .... ....|--- .... ....
....|..|R-- .... ....|--- .... ....|--- .... ....
....|..|--- .... ....|--- .... ....|--- .... ....
 B-4|..|B-4 2C.F ....|--- .... ....|--- .... ....
....|..|--- .... ....|--- .... ....|--- .... ....
....|..|--- .... ....|--- .... ....|--- .... ....
....|..|--- .... ....|--- .... ....|--- .... ....
....|..|R-- .... ....|--- .... ....|--- .... ....
....|..|--- .... ....|--- .... ....|--- .... ....
....|..|B-4 2F.A ....|--- .... ....|--- .... ....
....|..|--- .... ....|--- .... ....|--- .... ....
 B-4|..|B-4 2C.F ....|--- .... ....|--- .... ....
....|..|--- .... ....|--- .... ....|--- .... ....
....|..|--- .... ....|--- .... ....|--- .... ....
....|..|--- .... ....|--- .... ....|--- .... ....
....|..|B-4 2F.7 ....|--- .... ....|--- .... ....
....|..|--- .... ....|--- .... ....|--- .... ....
....|..|B-4 2F.A ....|--- .... ....|--- .... ....
....|..|--- .... ....|--- .... ....|--- .... ....

[Pattern41]
 B-4|..|B-4 2C.F ....|--- .... ....|--- .... ....
....|..|--- .... ....|--- .... ....|--- .... ....
....|..|--- .... ....|--- .... ....|--- .... ....
....|..|--- .... ....|--- .... ....|--- .... ....
 B-4|..|B-4 2C.F ....|--- .... ....|--- .... ....
....|..|--- .... ....|--- .... ....|--- .... ....
....|..|B-4 2F.A ....|--- .... ....|--- .... ....
....|..|--- .... ....|--- .... ....|--- .... ....
 B-4|..|B-4 2C.F ....|--- .... ....|--- .... ....
....|..|--- .... ....|--- .... ....|--- .... ....
....|..|B-4 2F.A ....|--- .... ....|--- .... ....
....|..|--- .... ....|--- .... ....|--- .... ....
 B-4|..|B-4 2C.F ....|--- .... ....|--- .... ....
....|..|--- .... ....|--- .... ....|--- .... ....
....|..|B-4 2F.A ....|--- .... ....|--- .... ....
....|..|--- .... ....|--- .... ....|--- .... ....
 B-4|..|B-4 2C.F ....|--- .... ....|--- .... ....
....|..|--- .... ....|--- .... ....|--- .... ....
 B-4|..|B-3 2C.F ....|--- .... ....|--- .... ....
....|..|--- .... ....|--- .... ....|--- .... ....
....|..|B-4 2F.7 ....|--- .... ....|--- .... ....
....|..|--- .... ....|--- .... ....|--- .... ....
 B-4|..|B-2 2A.F ....|--- .... ....|--- .... ....
....|..|--- .... ....|--- .... ....|--- .... ....
 B-4|..|B-2 2A.F ....|--- .... ....|--- .... ....
....|..|--- .... ....|--- .... ....|--- .... ....
 B-4|..|B-2 2A.F ....|--- .... ....|--- .... ....
....|..|--- .... ....|--- .... ....|--- .... ....
....|..|B-4 2F.7 ....|--- .... ....|--- .... ....
....|..|--- .... ....|--- .... ....|--- .... ....
....|..|B-3 2F.7 ....|--- .... ....|--- .... ....
....|..|--- .... ....|--- .... ....|--- .... ....
 B-4|..|B-4 2C.F ....|--- .... ....|--- .... ....
....|..|--- .... ....|--- .... ....|--- .... ....
....|..|B-2 2F.7 ....|--- .... ....|--- .... ....
....|..|--- .... ....|--- .... ....|--- .... ....
 B-4|..|B-4 2C.F ....|--- .... ....|--- .... ....
....|..|--- .... ....|--- .... ....|--- .... ....
....|..|B-2 2F.7 ....|--- .... ....|--- .... ....
....|..|--- .... ....|--- .... ....|--- .... ....
....|..|R-- .... ....|--- .... ....|--- .... ....
....|..|--- .... ....|--- .... ....|--- .... ....
....|..|B-4 2F.A ....|--- .... ....|--- .... ....
....|..|--- .... ....|--- .... ....|--- .... ....
....|..|B-4 2F.7 ....|--- .... ....|--- .... ....
....|..|--- .... ....|--- .... ....|--- .... ....
....|..|R-- .... ....|--- .... ....|--- .... ....
....|..|--- .... ....|--- .... ....|--- .... ....
 B-4|..|B-3 2C.F ....|--- .... ....|--- .... ....
....|..|--- .... ....|--- .... ....|--- .... ....
....|..|--- .... ....|--- .... ....|--- .... ....
....|..|--- .... ....|--- .... ....|--- .... ....
....|..|R-- .... ....|--- .... ....|--- .... ....
....|..|--- .... ....|--- .... ....|--- .... ....
....|..|B-3 2F.A ....|--- .... ....|--- .... ....
....|..|--- .... ....|--- .... ....|--- .... ....
 B-4|..|B-3 2C.F ....|--- .... ....|--- .... ....
....|..|--- .... ....|--- .... ....|--- .... ....
....|..|--- .... ....|--- .... ....|--- .... ....
....|..|--- .... ....|--- .... ....|--- .... ....
....|..|B-3 2F.7 ....|--- .... ....|--- .... ....
....|..|--- .... ....|--- .... ....|--- .... ....
....|..|B-3 2F.A ....|--- .... ....|--- .... ....
....|..|--- .... ....|--- .... ....|--- .... ....

[Pattern42]
 B-4|..|B-4 2C.F ....|--- .... ....|--- .... ....
....|..|--- .... ....|--- .... ....|--- .... ....
....|..|--- .... ....|--- .... ....|--- .... ....
....|..|--- .... ....|--- .... ....|--- .... ....
 B-4|..|B-4 2C.F ....|--- .... ....|--- .... ....
....|..|--- .... ....|--- .... ....|--- .... ....
....|..|B-4 2F.A ....|--- .... ....|--- .... ....
....|..|--- .... ....|--- .... ....|--- .... ....
 B-4|..|B-3 2C.F ....|--- .... ....|--- .... ....
....|..|--- .... ....|--- .... ....|--- .... ....
....|..|B-4 2F.A ....|--- .... ....|--- .... ....
....|..|--- .... ....|--- .... ....|--- .... ....
 B-4|..|B-3 2C.F ....|--- .... ....|--- .... ....
....|..|--- .... ....|--- .... ....|--- .... ....
....|..|B-3 2F.A ....|--- .... ....|--- .... ....
....|..|--- .... ....|--- .... ....|--- .... ....
 B-4|..|B-3 2C.F ....|--- .... ....|--- .... ....
....|..|--- .... ....|--- .... ....|--- .... ....
 B-4|..|B-3 2C.F ....|--- .... ....|--- .... ....
....|..|--- .... ....|--- .... ....|--- .... ....
....|..|B-3 2F.7 ....|--- .... ....|--- .... ....
....|..|--- .... ....|--- .... ....|--- .... ....
 B-4|..|B-2 2A.F ....|--- .... ....|--- .... ....
....|..|--- .... ....|--- .... ....|--- .... ....
 B-4|..|B-2 2A.F ....|--- .... ....|--- .... ....
....|..|--- .... ....|--- .... ....|--- .... ....
 B-4|..|B-2 2A.F ....|--- .... ....|--- .... ....
....|..|--- .... ....|--- .... ....|--- .... ....
....|..|B-3 2F.7 ....|--- .... ....|--- .... ....
....|..|--- .... ....|--- .... ....|--- .... ....
....|..|B-3 2F.7 ....|--- .... ....|--- .... ....
....|..|--- .... ....|--- .... ....|--- .... ....
 B-4|..|B-4 2C.F ....|--- .... ....|--- .... ....
....|..|--- .... ....|--- .... ....|--- .... ....
....|..|B-2 2F.7 ....|--- .... ....|--- .... ....
....|..|--- .... ....|--- .... ....|--- .... ....
 B-4|..|B-2 2A.F ....|--- .... ....|--- .... ....
....|..|--- .... ....|--- .... ....|--- .... ....
....|..|B-2 2F.7 ....|--- .... ....|--- .... ....
....|..|--- .... ....|--- .... ....|--- .... ....
....|..|R-- .... ....|--- .... ....|--- .... ....
....|..|--- .... ....|--- .... ....|--- .... ....
....|..|B-2 2F.A ....|--- .... ....|--- .... ....
....|..|--- .... ....|--- .... ....|--- .... ....
....|..|B-4 2F.7 ....|--- .... ....|--- .... ....
....|..|--- .... ....|--- .... ....|--- .... ....
....|..|R-- .... ....|--- .... ....|--- .... ....
....|..|--- .... ....|--- .... ....|--- .... ....
 B-4|..|B-4 2C.F ....|--- .... ....|--- .... ....
....|..|--- .... ....|--- .... ....|--- .... ....
....|..|--- .... ....|--- .... ....|--- .... ....
....|..|--- .... ....|--- .... ....|--- .... ....
....|..|R-- .... ....|--- .... ....|--- .... ....
....|..|--- .... ....|--- .... ....|--- .... ....
....|..|B-4 2F.A ....|--- .... ....|--- .... ....
....|..|--- .... ....|--- .... ....|--- .... ....
 B-4|..|B-5 2C.F ....|--- .... ....|--- .... ....
....|..|--- .... ....|--- .... ....|--- .... ....
....|..|--- .... ....|--- .... ....|--- .... ....
....|..|--- .... ....|--- .... ....|--- .... ....
....|..|B-4 2F.7 ....|--- .... ....|--- .... ....
....|..|--- .... ....|--- .... ....|--- .... ....
....|..|B-5 2F.A ....|--- .... ....|--- .... ....
....|..|--- .... ....|--- .... ....|--- .... ....

[Pattern43]
 B-4|..|B-5 2C.F ....|--- .... ....|--- .... ....
....|..|--- .... ....|--- .... ....|--- .... ....
....|..|--- .... ....|--- .... ....|--- .... ....
....|..|--- .... ....|--- .... ....|--- .... ....
 B-4|..|B-5 2C.F ....|--- .... ....|--- .... ....
....|..|--- .... ....|--- .... ....|--- .... ....
....|..|B-5 2F.A ....|--- .... ....|--- .... ....
....|..|--- .... ....|--- .... ....|--- .... ....
 B-4|..|B-5 2C.F ....|--- .... ....|--- .... ....
....|..|--- .... ....|--- .... ....|--- .... ....
....|..|B-5 2F.A ....|--- .... ....|--- .... ....
....|..|--- .... ....|--- .... ....|--- .... ....
 B-4|..|B-5 2C.F ....|--- .... ....|--- .... ....
....|..|--- .... ....|--- .... ....|--- .... ....
....|..|B-5 2F.A ....|--- .... ....|--- .... ....
....|..|--- .... ....|--- .... ....|--- .... ....
 B-4|..|B-5 2C.F ....|--- .... ....|--- .... ....
....|..|--- .... ....|--- .... ....|--- .... ....
 B-4|..|B-5 2C.F ....|--- .... ....|--- .... ....
....|..|--- .... ....|--- .... ....|--- .... ....
....|..|B-5 2F.7 ....|--- .... ....|--- .... ....
....|..|--- .... ....|--- .... ....|--- .... ....
 B-4|..|B-5 2C.F ....|--- .... ....|--- .... ....
....|..|--- .... ....|--- .... ....|--- .... ....
 B-4|..|B-5 2C.F ....|--- .... ....|--- .... ....
....|..|--- .... ....|--- .... ....|--- .... ....
 B-4|..|B-3 2C.F ....|--- .... ....|--- .... ....
....|..|--- .... ....|--- .... ....|--- .... ....
....|..|B-5 2F.7 ....|--- .... ....|--- .... ....
....|..|--- .... ....|--- .... ....|--- .... ....
....|..|B-5 2F.7 ....|--- .... ....|--- .... ....
....|..|--- .... ....|--- .... ....|--- .... ....
 B-4|..|B-4 2C.F ....|--- .... ....|--- .... ....
....|..|--- .... ....|--- .... ....|--- .... ....
....|..|B-5 2F.7 ....|--- .... ....|--- .... ....
....|..|--- .... ....|--- .... ....|--- .... ....
 B-4|..|B-3 2C.F ....|--- .... ....|--- .... ....
....|..|--- .... ....|--- .... ....|--- .... ....
....|..|B-3 2F.7 ....|--- .... ....|--- .... ....
....|..|--- .... ....|--- .... ....|--- .... ....
....|..|R-- .... ....|--- .... ....|--- .... ....
....|..|--- .... ....|--- .... ....|--- .... ....
....|..|B-3 2F.A ....|--- .... ....|--- .... ....
....|..|--- .... ....|--- .... ....|--- .... ....
....|..|B-4 2F.7 ....|--- .... ....|--- .... ....
....|..|--- .... ....|--- .... ....|--- .... ....
....|..|R-- .... ....|--- .... ....|--- .... ....
....|..|--- .... ....|--- .... ....|--- .... ....
 B-4|..|B-4 2C.F ....|--- .... ....|--- .... ....
....|..|--- .... ....|--- .... ....|--- .... ....
....|..|--- .... ....|--- .... ....|--- .... ....
....|..|--- .... ....|--- .... ....|--- .... ....
....|..|R-- .... ....|--- .... ....|--- .... ....
....|..|--- .... ....|--- .... ....|--- .... ....
....|..|B-4 2F.A ....|--- .... ....|--- .... ....
....|..|--- .... ....|--- .... ....|--- .... ....
 B-4|..|B-5 2C.F ....|--- .... ....|--- .... ....
....|..|--- .... ....|--- .... ....|--- .... ....
....|..|--- .... ....|--- .... ....|--- .... ....
....|..|--- .... ....|--- .... ....|--- .... ....
....|..|B-4 2F.7 ....|--- .... ....|--- .... ....
....|..|--- .... ....|--- .... ....|--- .... ....
....|..|B-5 2F.A ....|--- .... ....|--- .... ....
....|..|--- .... ....|--- .... ....|--- .... ....

[Pattern44]
 B-4|..|B-5 2C.F ....|--- .... ....|--- .... ....
....|..|--- .... ....|--- .... ....|--- .... ....
....|..|--- .... ....|--- .... ....|--- .... ....
....|..|--- .... ....|--- .... ....|--- .... ....
 B-4|..|B-5 2C.F ....|--- .... ....|--- .... ....
....|..|--- .... ....|--- .... ....|--- .... ....
....|..|B-5 2F.A ....|--- .... ....|--- .... ....
....|..|--- .... ....|--- .... ....|--- .... ....
 B-4|..|B-5 2C.F ....|--- .... ....|--- .... ....
....|..|--- .... ....|--- .... ....|--- .... ....
....|..|B-5 2F.A ....|--- .... ....|--- .... ....
....|..|--- .... ....|--- .... ....|--- .... ....
 B-4|..|B-5 2C.F ....|--- .... ....|--- .... ....
....|..|--- .... ....|--- .... ....|--- .... ....
....|..|B-5 2F.A ....|--- .... ....|--- .... ....
....|..|--- .... ....|--- .... ....|--- .... ....
 B-4|..|B-5 2C.F ....|--- .... ....|--- .... ....
....|..|--- .... ....|--- .... ....|--- .... ....
 B-4|..|B-5 2C.F ....|--- .... ....|--- .... ....
....|..|--- .... ....|--- .... ....|--- .... ....
....|..|B-5 2F.7 ....|--- .... ....|--- .... ....
....|..|--- .... ....|--- .... ....|--- .... ....
 B-4|..|B-5 2C.F ....|--- .... ....|--- .... ....
....|..|--- .... ....|--- .... ....|--- .... ....
 B-4|..|B-5 2C.F ....|--- .... ....|--- .... ....
....|..|--- .... ....|--- .... ....|--- .... ....
 B-4|..|B-2 2A.F ....|--- .... ....|--- .... ....
....|..|--- .... ....|--- .... ....|--- .... ....
....|..|B-5 2F.7 ....|--- .... ....|--- .... ....
....|..|--- .... ....|--- .... ....|--- .... ....
....|..|B-5 2F.7 ....|--- .... ....|--- .... ....
....|..|--- .... ....|--- .... ....|--- .... ....
 B-4|..|B-4 2C.F ....|--- .... ....|--- .... ....
....|..|--- .... ....|--- .... ....|--- .... ....
....|..|B-5 2F.7 ....|--- .... ....|--- .... ....
....|..|--- .... ....|--- .... ....|--- .... ....
 B-4|..|B-3 2C.F ....|--- .... ....|--- .... ....
....|..|--- .... ....|--- .... ....|--- .... ....
....|..|B-2 2F.7 ....|--- .... ....|--- .... ....
....|..|--- .... ....|--- .... ....|--- .... ....
....|..|R-- .... ....|--- .... ....|--- .... ....
....|..|--- .... ....|--- .... ....|--- .... ....
....|..|B-3 2F.A ....|--- .... ....|--- .... ....
....|..|--- .... ....|--- .... ....|--- .... ....
....|..|B-4 2F.7 ....|--- .... ....|--- .... ....
....|..|--- .... ....|--- .... ....|--- .... ....
....|..|R-- .... ....|--- .... ....|--- .... ....
....|..|--- .... ....|--- .... ....|--- .... ....
 B-4|..|B-3 2C.F ....|--- .... ....|--- .... ....
....|..|--- .... ....|--- .... ....|--- .... ....
....|..|--- .... ....|--- .... ....|--- .... ....
....|..|--- .... ....|--- .... ....|--- .... ....
....|..|R-- .... ....|--- .... ....|--- .... ....
....|..|--- .... ....|--- .... ....|--- .... ....
....|..|B-3 2F.A ....|--- .... ....|--- .... ....
....|..|--- .... ....|--- .... ....|--- .... ....
 B-4|..|B-3 2C.F ....|--- .... ....|--- .... ....
....|..|--- .... ....|--- .... ....|--- .... ....
....|..|--- .... ....|--- .... ....|--- .... ....
....|..|--- .... ....|--- .... ....|--- .... ....
....|..|B-3 2F.7 ....|--- .... ....|--- .... ....
....|..|--- .... ....|--- .... ....|--- .... ....
....|..|B-3 2F.A ....|--- .... ....|--- .... ....
....|..|--- .... ....|--- .... ....|--- .... ....

[Pattern45]
 B-4|..|B-4 2C.F ....|--- .... ....|--- .... ....
....|..|--- .... ....|--- .... ....|--- .... ....
....|..|--- .... ....|--- .... ....|--- .... ....
....|..|--- .... ....|--- .... ....|--- .... ....
 B-4|..|B-4 2C.F ....|--- .... ....|--- .... ....
....|..|--- .... ....|--- .... ....|--- .... ....
....|..|B-4 2F.A ....|--- .... ....|--- .... ....
....|..|--- .... ....|--- .... ....|--- .... ....
 B-4|..|B-3 2C.F ....|--- .... ....|--- .... ....
....|..|--- .... ....|--- .... ....|--- .... ....
....|..|B-4 2F.A ....|--- .... ....|--- .... ....
....|..|--- .... ....|--- .... ....|--- .... ....
 B-4|..|B-3 2C.F ....|--- .... ....|--- .... ....
....|..|--- .... ....|--- .... ....|--- .... ....
....|..|B-3 2F.A ....|--- .... ....|--- .... ....
....|..|--- .... ....|--- .... ....|--- .... ....
 B-4|..|B-3 2C.F ....|--- .... ....|--- .... ....
....|..|--- .... ....|--- .... ....|--- .... ....
 B-4|..|B-3 2C.F ....|--- .... ....|--- .... ....
....|..|--- .... ....|--- .... ....|--- .... ....
....|..|B-3 2F.7 ....|--- .... ....|--- .... ....
....|..|--- .... ....|--- .... ....|--- .... ....
 B-4|..|B-2 2A.F ....|--- .... ....|--- .... ....
....|..|--- .... ....|--- .... ....|--- .... ....
 B-4|..|B-3 2C.F ....|--- .... ....|--- .... ....
....|..|--- .... ....|--- .... ....|--- .... ....
 B-4|..|B-3 2C.F ....|--- .... ....|--- .... ....
....|..|--- .... ....|--- .... ....|--- .... ....
....|..|B-3 2F.7 ....|--- .... ....|--- .... ....
....|..|--- .... ....|--- .... ....|--- .... ....
....|..|B-3 2F.7 ....|--- .... ....|--- .... ....
....|..|--- .... ....|--- .... ....|--- .... ....
 B-4|..|B-4 2C.F ....|--- .... ....|--- .... ....
....|..|--- .... ....|--- .... ....|--- .... ....
....|..|B-2 2F.7 ....|--- .... ....|--- .... ....
....|..|--- .... ....|--- .... ....|--- .... ....
 B-4|..|B-4 2C.F ....|--- .... ....|--- .... ....
....|..|--- .... ....|--- .... ....|--- .... ....
....|..|B-3 2F.7 ....|--- .... ....|--- .... ....
....|..|--- .... ....|--- .... ....|--- .... ....
....|..|R-- .... ....|--- .... ....|--- .... ....
....|..|--- .... ....|--- .... ....|--- .... ....
....|..|B-4 2F.A ....|--- .... ....|--- .... ....
....|..|--- .... ....|--- .... ....|--- .... ....
....|..|B-4 2F.7 ....|--- .... ....|--- .... ....
....|..|--- .... ....|--- .... ....|--- .... ....
....|..|R-- .... ....|--- .... ....|--- .... ....
....|..|--- .... ....|--- .... ....|--- .... ....
 B-4|..|B-3 2C.F ....|--- .... ....|--- .... ....
....|..|--- .... ....|--- .... ....|--- .... ....
....|..|--- .... ....|--- .... ....|--- .... ....
....|..|--- .... ....|--- .... ....|--- .... ....
....|..|R-- .... ....|--- .... ....|--- .... ....
....|..|--- .... ....|--- .... ....|--- .... ....
....|..|B-3 2F.A ....|--- .... ....|--- .... ....
....|..|--- .... ....|--- .... ....|--- .... ....
 B-4|..|B-3 2C.F ....|--- .... ....|--- .... ....
....|..|--- .... ....|--- .... ....|--- .... ....
....|..|--- .... ....|--- .... ....|--- .... ....
....|..|--- .... ....|--- .... ....|--- .... ....
....|..|B-3 2F.7 ....|--- .... ....|--- .... ....
....|..|--- .... ....|--- .... ....|--- .... ....
....|..|B-3 2F.A ....|--- .... ....|--- .... ....
....|..|--- .... ....|--- .... ....|--- .... ....

[Pattern46]
 B-4|..|B-4 2C.F ....|--- .... ....|--- .... ....
....|..|--- .... ....|--- .... ....|--- .... ....
....|..|--- .... ....|--- .... ....|--- .... ....
....|..|--- .... ....|--- .... ....|--- .... ....
 B-4|..|B-4 2C.F ....|--- .... ....|--- .... ....
....|..|--- .... ....|--- .... ....|--- .... ....
....|..|B-4 2F.A ....|--- .... ....|--- .... ....
....|..|--- .... ....|--- .... ....|--- .... ....
 B-4|..|B-3 2C.F ....|--- .... ....|--- .... ....
....|..|--- .... ....|--- .... ....|--- .... ....
....|..|B-4 2F.A ....|--- .... ....|--- .... ....
....|..|--- .... ....|--- .... ....|--- .... ....
 B-4|..|B-3 2C.F ....|--- .... ....|--- .... ....
....|..|--- .... ....|--- .... ....|--- .... ....
....|..|B-3 2F.A ....|--- .... ....|--- .... ....
....|..|--- .... ....|--- .... ....|--- .... ....
 B-4|..|B-4 2C.F ....|--- .... ....|--- .... ....
....|..|--- .... ....|--- .... ....|--- .... ....
 B-4|..|B-4 2C.F ....|--- .... ....|--- .... ....
....|..|--- .... ....|--- .... ....|--- .... ....
....|..|B-3 2F.7 ....|--- .... ....|--- .... ....
....|..|--- .... ....|--- .... ....|--- .... ....
 B-4|..|B-3 2C.F ....|--- .... ....|--- .... ....
....|..|--- .... ....|--- .... ....|--- .... ....
 B-4|..|B-3 2C.F ....|--- .... ....|--- .... ....
....|..|--- .... ....|--- .... ....|--- .... ....
 B-4|..|B-2 2A.F ....|--- .... ....|--- .... ....
....|..|--- .... ....|--- .... ....|--- .... ....
....|..|B-4 2F.7 ....|--- .... ....|--- .... ....
....|..|--- .... ....|--- .... ....|--- .... ....
....|..|B-4 2F.7 ....|--- .... ....|--- .... ....
....|..|--- .... ....|--- .... ....|--- .... ....
 B-4|..|B-4 2C.F ....|--- .... ....|--- .... ....
....|..|--- .... ....|--- .... ....|--- .... ....
....|..|B-3 2F.7 ....|--- .... ....|--- .... ....
....|..|--- .... ....|--- .... ....|--- .... ....
 B-4|..|B-4 2C.F ....|--- .... ....|--- .... ....
....|..|--- .... ....|--- .... ....|--- .... ....
....|..|B-2 2F.7 ....|--- .... ....|--- .... ....
....|..|--- .... ....|--- .... ....|--- .... ....
....|..|R-- .... ....|--- .... ....|--- .... ....
....|..|--- .... ....|--- .... ....|--- .... ....
....|..|B-4 2F.A ....|--- .... ....|--- .... ....
....|..|--- .... ....|--- .... ....|--- .... ....
....|..|B-4 2F.7 ....|--- .... ....|--- .... ....
....|..|--- .... ....|--- .... ....|--- .... ....
....|..|R-- .... ....|--- .... ....|--- .... ....
....|..|--- .... ....|--- .... ....|--- .... ....
 B-4|..|B-3 2C.F ....|--- .... ....|--- .... ....
....|..|--- .... ....|--- .... ....|--- .... ....
....|..|--- .... ....|--- .... ....|--- .... ....
....|..|--- .... ....|--- .... ....|--- .... ....
....|..|R-- .... ....|--- .... ....|--- .... ....
....|..|--- .... ....|--- .... ....|--- .... ....
....|..|B-3 2F.A ....|--- .... ....|--- .... ....
....|..|--- .... ....|--- .... ....|--- .... ....
 B-4|..|B-3 2C.F ....|--- .... ....|--- .... ....
....|..|--- .... ....|--- .... ....|--- .... ....
....|..|--- .... ....|--- .... ....|--- .... ....
....|..|--- .... ....|--- .... ....|--- .... ....
....|..|B-3 2F.7 ....|--- .... ....|--- .... ....
....|..|--- .... ....|--- .... ....|--- .... ....
....|..|B-3 2F.A ....|--- .... ....|--- .... ....
....|..|--- .... ....|--- .... ....|--- .... ....

[Pattern47]
....|..|--- .... ....|B-4 2F.F ....|B-4 2F.F ....
....|..|--- .... ....|--- .... ....|--- .... ....
....|..|--- .... ....|--- .... ....|--- .... ....
....|..|--- .... ....|--- .... ....|--- .... ....
....|..|B-3 2F.7 ....|R-- .... ....|R-- .... ....
....|..|--- .... ....|--- .... ....|--- .... ....
....|..|--- .... ....|B-4 2F.A ....|B-4 2F.A ....
....|..|--- .... ....|--- .... ....|--- .... ....
....|..|--- .... ....|B-3 2F.F ....|B-3 2F.F ....
....|..|--- .... ....|--- .... ....|--- .... ....
....|..|--- .... ....|R-- .... ....|R-- .... ....
....|..|--- .... ....|--- .... ....|--- .... ....
....|..|--- .... ....|B-4 2F.7 ....|B-4 2F.7 ....
....|..|--- .... ....|--- .... ....|--- .... ....
....|..|--- .... ....|B-3 2F.A ....|B-3 2F.A ....
....|..|--- .... ....|--- .... ....|--- .... ....
....|..|--- .... ....|R-- .... ....|R-- .... ....
....|..|--- .... ....|--- .... ....|--- .... ....
 B-4|..|B-2 2A.F ....|R-- .... ....|R-- .... ....
....|..|--- .... ....|--- .... ....|--- .... ....
....|..|--- .... ....|B-3 2F.7 ....|B-3 2F.7 ....
....|..|--- .... ....|--- .... ....|--- .... ....
....|..|--- .... ....|--- .... ....|--- .... ....
....|..|--- .... ....|--- .... ....|--- .... ....
....|..|B-2 2F.A ....|R-- .... ....|R-- .... ....
....|..|--- .... ....|--- .... ....|--- .... ....
....|..|R-- .... ....|--- .... ....|--- .... ....
....|..|--- .... ....|--- .... ....|--- .... ....
....|..|--- .... ....|B-4 2F.F ....|B-4 2F.F ....
....|..|--- .... ....|--- .... ....|--- .... ....
....|..|B-2 2F.7 ....|--- .... ....|--- .... ....
....|..|--- .... ....|--- .... ....|--- .... ....
....|..|R-- .... ....|B-4 2F.F ....|B-4 2F.F ....
....|..|--- .... ....|--- .... ....|--- .... ....
....|..|--- .... ....|B-4 2F.F ....|B-4 2F.F ....
....|..|--- .... ....|--- .... ....|--- .... ....
....|..|--- .... ....|B-3 2F.F ....|B-3 2F.F ....
....|..|--- .... ....|--- .... ....|--- .... ....
....|..|R-- .... ....|B-4 2F.A ....|B-4 2F.A ....
....|..|--- .... ....|--- .... ....|--- .... ....
....|..|--- .... ....|B-3 2F.F ....|B-3 2F.F ....
....|..|--- .... ....|--- .... ....|--- .... ....
....|..|--- .... ....|B-3 2F.A ....|B-3 2F.A ....
....|..|--- .... ....|--- .... ....|--- .... ....
....|..|--- .... ....|B-4 2F.7 ....|B-4 2F.7 ....
....|..|--- .... ....|--- .... ....|--- .... ....
....|..|--- .... ....|B-4 2F.7 ....|B-4 2F.7 ....
....|..|--- .... ....|--- .... ....|--- .... ....
....|..|--- .... ....|B-3 2F.7 ....|B-3 2F.7 ....
....|..|--- .... ....|--- .... ....|--- .... ....
....|..|--- .... ....|R-- .... ....|R-- .... ....
....|..|--- .... ....|--- .... ....|--- .... ....
....|..|--- .... ....|B-3 2F.7 ....|B-3 2F.7 ....
....|..|--- .... ....|--- .... ....|--- .... ....
....|..|--- .... ....|--- .... ....|--- .... ....
....|..|--- .... ....|--- .... ....|--- .... ....
....|..|--- .... ....|R-- .... ....|R-- .... ....
....|..|--- .... ....|--- .... ....|--- .... ....
....|..|--- .... ....|--- .... ....|--- .... ....
....|..|--- .... ....|--- .... ....|--- .... ....
....|..|--- .... ....|--- .... ....|--- .... ....
....|..|--- .... ....|--- .... ....|--- .... ....
....|..|--- .... ....|--- .... ....|--- .... ....
....|..|--- .... ....|--- .... ....|--- .... ....

[Pattern48]
....|..|--- .... ....|B-4 2F.F ....|B-4 2F.F ....
....|..|--- .... ....|--- .... ....|--- .... ....
....|..|--- .... ....|--- .... ....|--- .... ....
....|..|--- .... ....|--- .... ....|--- .... ....
....|..|--- .... ....|R-- .... ....|R-- .... ....
....|..|--- .... ....|--- .... ....|--- .... ....
....|..|--- .... ....|B-4 2F.A ....|B-4 2F.A ....
....|..|--- .... ....|--- .... ....|--- .... ....
....|..|--- .... ....|B-3 2F.F ....|B-3 2F.F ....
....|..|--- .... ....|--- .... ....|--- .... ....
....|..|--- .... ....|R-- .... ....|R-- .... ....
....|..|--- .... ....|--- .... ....|--- .... ....
....|..|--- .... ....|B-4 2F.7 ....|B-4 2F.7 ....
....|..|--- .... ....|--- .... ....|--- .... ....
....|..|--- .... ....|B-3 2F.A ....|B-3 2F.A ....
....|..|--- .... ....|--- .... ....|--- .... ....
....|..|--- .... ....|R-- .... ....|R-- .... ....
....|..|--- .... ....|--- .... ....|--- .... ....
....|..|--- .... ....|R-- .... ....|R-- .... ....
....|..|--- .... ....|--- .... ....|--- .... ....
....|..|--- .... ....|B-3 2F.7 ....|B-3 2F.7 ....
....|..|--- .... ....|--- .... ....|--- .... ....
....|..|--- .... ....|--- .... ....|--- .... ....
....|..|--- .... ....|--- .... ....|--- .... ....
....|..|--- .... ....|R-- .... ....|R-- .... ....
....|..|--- .... ....|--- .... ....|--- .... ....
....|..|--- .... ....|--- .... ....|--- .... ....
....|..|--- .... ....|--- .... ....|--- .... ....
....|..|--- .... ....|B-4 2F.F ....|B-4 2F.F ....
....|..|--- .... ....|--- .... ....|--- .... ....
....|..|--- .... ....|--- .... ....|--- .... ....
....|..|--- .... ....|--- .... ....|--- .... ....
....|..|--- .... ....|B-4 2F.F ....|B-4 2F.F ....
....|..|--- .... ....|--- .... ....|--- .... ....
....|..|--- .... ....|B-4 2F.F ....|B-4 2F.F ....
....|..|--- .... ....|--- .... ....|--- .... ....
....|..|--- .... ....|B-3 2F.F ....|B-3 2F.F ....
....|..|--- .... ....|--- .... ....|--- .... ....
....|..|--- .... ....|B-4 2F.A ....|B-4 2F.A ....
....|..|--- .... ....|--- .... ....|--- .... ....
....|..|--- .... ....|B-3 2F.F ....|B-3 2F.F ....
....|..|--- .... ....|--- .... ....|--- .... ....
....|..|--- .... ....|B-3 2F.A ....|B-3 2F.A ....
....|..|--- .... ....|--- .... ....|--- .... ....
....|..|--- .... ....|B-4 2F.7 ....|B-4 2F.7 ....
....|..|--- .... ....|--- .... ....|--- .... ....
....|..|--- .... ....|B-4 2F.7 ....|B-4 2F.7 ....
....|..|--- .... ....|--- .... ....|--- .... ....
....|..|--- .... ....|B-3 2F.7 ....|B-3 2F.7 ....
....|..|--- .... ....|--- .... ....|--- .... ....
....|..|--- .... ....|R-- .... ....|R-- .... ....
....|..|--- .... ....|--- .... ....|--- .... ....
....|..|--- .... ....|B-3 2F.7 ....|B-3 2F.7 ....
....|..|--- .... ....|--- .... ....|--- .... ....
....|..|--- .... ....|--- .... ....|--- .... ....
....|..|--- .... ....|--- .... ....|--- .... ....
....|..|--- .... ....|R-- .... ....|R-- .... ....
....|..|--- .... ....|--- .... ....|--- .... ....
....|..|--- .... ....|--- .... ....|--- .... ....
....|..|--- .... ....|--- .... ....|--- .... ....
....|..|--- .... ....|--- .... ....|--- .... ....
....|..|--- .... ....|--- .... ....|--- .... ....
....|..|--- .... ....|--- .... ....|--- .... ....
....|..|--- .... ....|--- .... ....|--- .... ....

[Pattern55]
 B-4|..|B-3 2C.F ....|B-4 2F.F ....|B-4 2F.F ....
....|..|--- .... ....|--- .... ....|--- .... ....
....|..|--- .... ....|--- .... ....|--- .... ....
....|..|--- .... ....|--- .... ....|--- .... ....
 B-4|..|B-3 2C.F ....|R-- .... ....|R-- .... ....
....|..|--- .... ....|--- .... ....|--- .... ....
....|..|B-3 2F.A ....|B-4 2F.A ....|B-4 2F.A ....
....|..|--- .... ....|--- .... ....|--- .... ....
 B-4|..|B-3 2C.F ....|B-3 2F.F ....|B-3 2F.F ....
....|..|--- .... ....|--- .... ....|--- .... ....
....|..|B-3 2F.A ....|R-- .... ....|R-- .... ....
....|..|--- .... ....|--- .... ....|--- .... ....
 B-4|..|B-2 2A.F ....|B-4 2F.7 ....|B-4 2F.7 ....
....|..|--- .... ....|--- .... ....|--- .... ....
....|..|B-3 2F.A ....|B-3 2F.A ....|B-3 2F.A ....
....|..|--- .... ....|--- .... ....|--- .... ....
 B-4|..|B-3 2C.F ....|B-3 2F.F ....|B-3 2F.F ....
....|..|--- .... ....|--- .... ....|--- .... ....
 B-4|..|B-3 2C.F ....|R-- .... ....|R-- .... ....
....|..|--- .... ....|--- .... ....|--- .... ....
....|..|B-3 2F.7 ....|B-3 2F.7 ....|B-3 2F.7 ....
....|..|--- .... ....|--- .... ....|--- .... ....
....|..|B-3 2F.A ....|B-3 2F.A ....|B-3 2F.A ....
....|..|--- .... ....|--- .... ....|--- .... ....
 B-4|..|B-3 2C.F ....|R-- .... ....|R-- .... ....
....|..|--- .... ....|--- .... ....|--- .... ....
....|..|R-- .... ....|R-- .... ....|R-- .... ....
....|..|--- .... ....|--- .... ....|--- .... ....
....|..|B-3 2F.7 ....|B-3 2F.7 ....|B-3 2F.7 ....
....|..|--- .... ....|--- .... ....|--- .... ....
....|..|B-3 2F.7 ....|--- .... ....|--- .... ....
....|..|--- .... ....|--- .... ....|--- .... ....
 B-4|..|B-3 2C.F ....|B-4 2F.F ....|B-4 2F.F ....
....|..|--- .... ....|--- .... ....|--- .... ....
 B-4|..|B-3 2C.F ....|--- .... ....|--- .... ....
....|..|--- .... ....|--- .... ....|--- .... ....
 B-4|..|B-3 2C.F ....|B-3 2F.F ....|B-3 2F.F ....
....|..|--- .... ....|--- .... ....|--- .... ....
....|..|B-3 2F.A ....|B-4 2F.A ....|B-4 2F.A ....
....|..|--- .... ....|--- .... ....|--- .... ....
 B-4|..|B-3 2C.F ....|B-4 2F.F ....|B-4 2F.F ....
....|..|--- .... ....|--- .... ....|--- .... ....
....|..|B-3 2F.A ....|B-3 2F.A ....|B-3 2F.A ....
....|..|--- .... ....|--- .... ....|--- .... ....
 B-4|..|B-4 2C.F ....|B-4 2F.7 ....|B-4 2F.7 ....
....|..|--- .... ....|--- .... ....|--- .... ....
....|..|B-3 2F.7 ....|B-4 2F.A ....|B-4 2F.A ....
....|..|--- .... ....|--- .... ....|--- .... ....
 B-4|..|B-4 2C.F ....|B-3 2F.7 ....|B-3 2F.7 ....
....|..|--- .... ....|--- .... ....|--- .... ....
 B-4|..|B-3 2C.F ....|R-- .... ....|R-- .... ....
....|..|--- .... ....|--- .... ....|--- .... ....
....|..|B-3 2F.7 ....|B-4 2F.7 ....|B-4 2F.7 ....
....|..|--- .... ....|--- .... ....|--- .... ....
....|..|B-4 2F.A ....|--- .... ....|--- .... ....
....|..|--- .... ....|--- .... ....|--- .... ....
 B-4|..|B-3 2C.F ....|R-- .... ....|R-- .... ....
....|..|--- .... ....|--- .... ....|--- .... ....
....|..|R-- .... ....|--- .... ....|--- .... ....
....|..|--- .... ....|--- .... ....|--- .... ....
....|..|B-4 2F.7 ....|--- .... ....|--- .... ....
....|..|--- .... ....|--- .... ....|--- .... ....
....|..|B-3 2F.7 ....|--- .... ....|--- .... ....
....|..|--- .... ....|--- .... ....|--- .... ....

[Pattern56]
 B-4|..|B-3 2C.F ....|B-4 2F.F ....|B-4 2F.F ....
....|..|--- .... ....|--- .... ....|--- .... ....
 B-4|..|B-3 2C.F ....|--- .... ....|--- .... ....
....|..|--- .... ....|--- .... ....|--- .... ....
 B-4|..|B-3 2C.F ....|R-- .... ....|R-- .... ....
....|..|--- .... ....|--- .... ....|--- .... ....
....|..|B-3 2F.A ....|B-4 2F.A ....|B-4 2F.A ....
....|..|--- .... ....|--- .... ....|--- .... ....
 B-4|..|B-3 2C.F ....|B-4 2F.F ....|B-4 2F.F ....
....|..|--- .... ....|--- .... ....|--- .... ....
....|..|B-3 2F.A ....|R-- .... ....|R-- .... ....
....|..|--- .... ....|--- .... ....|--- .... ....
 B-4|..|B-2 2A.F ....|B-4 2F.7 ....|B-4 2F.7 ....
....|..|--- .... ....|--- .... ....|--- .... ....
....|..|B-3 2F.7 ....|B-4 2F.A ....|B-4 2F.A ....
....|..|--- .... ....|--- .... ....|--- .... ....
 B-4|..|B-3 2C.F ....|B-3 2F.F ....|B-3 2F.F ....
....|..|--- .... ....|--- .... ....|--- .... ....
 B-4|..|B-3 2C.F ....|R-- .... ....|R-- .... ....
....|..|--- .... ....|--- .... ....|--- .... ....
....|..|B-3 2F.7 ....|B-4 2F.7 ....|B-4 2F.7 ....
....|..|--- .... ....|--- .... ....|--- .... ....
....|..|B-3 2F.A ....|B-3 2F.A ....|B-3 2F.A ....
....|..|--- .... ....|--- .... ....|--- .... ....
 B-4|..|B-3 2C.F ....|R-- .... ....|R-- .... ....
....|..|--- .... ....|--- .... ....|--- .... ....
....|..|R-- .... ....|R-- .... ....|R-- .... ....
....|..|--- .... ....|--- .... ....|--- .... ....
....|..|B-3 2F.7 ....|B-3 2F.7 ....|B-3 2F.7 ....
....|..|--- .... ....|--- .... ....|--- .... ....
....|..|B-3 2F.7 ....|--- .... ....|--- .... ....
....|..|--- .... ....|--- .... ....|--- .... ....
 B-4|..|B-3 2C.F ....|B-3 2F.F ....|B-3 2F.F ....
....|..|--- .... ....|--- .... ....|--- .... ....
 B-4|..|B-3 2C.F ....|--- .... ....|--- .... ....
....|..|--- .... ....|--- .... ....|--- .... ....
 B-4|..|B-3 2C.F ....|B-3 2F.F ....|B-3 2F.F ....
....|..|--- .... ....|--- .... ....|--- .... ....
....|..|B-3 2F.A ....|B-3 2F.A ....|B-3 2F.A ....
....|..|--- .... ....|--- .... ....|--- .... ....
 B-4|..|B-4 2C.F ....|B-4 2F.F ....|B-4 2F.F ....
....|..|--- .... ....|--- .... ....|--- .... ....
....|..|B-3 2F.A ....|B-3 2F.A ....|B-3 2F.A ....
....|..|--- .... ....|--- .... ....|--- .... ....
 B-4|..|B-2 2A.F ....|B-3 2F.7 ....|B-3 2F.7 ....
....|..|--- .... ....|--- .... ....|--- .... ....
....|..|B-3 2F.7 ....|B-4 2F.A ....|B-4 2F.A ....
....|..|--- .... ....|--- .... ....|--- .... ....
 B-4|..|B-3 2C.F ....|B-3 2F.7 ....|B-3 2F.7 ....
....|..|--- .... ....|--- .... ....|--- .... ....
 B-4|..|B-3 2C.F ....|R-- .... ....|R-- .... ....
....|..|--- .... ....|--- .... ....|--- .... ....
....|..|B-4 2F.7 ....|B-4 2F.7 ....|B-4 2F.7 ....
....|..|--- .... ....|--- .... ....|--- .... ....
....|..|B-3 2F.A ....|--- .... ....|--- .... ....
....|..|--- .... ....|--- .... ....|--- .... ....
 B-4|..|B-3 2C.F ....|R-- .... ....|R-- .... ....
....|..|--- .... ....|--- .... ....|--- .... ....
....|..|R-- .... ....|--- .... ....|--- .... ....
....|..|--- .... ....|--- .... ....|--- .... ....
....|..|B-3 2F.7 ....|--- .... ....|--- .... ....
....|..|--- .... ....|--- .... ....|--- .... ....
....|..|B-3 2F.7 ....|--- .... ....|--- .... ....
....|..|--- .... ....|--- .... ....|--- .... ....

[Pattern57]
 B-4|..|B-3 2C.F ....|B-4 2F.F ....|B-4 2F.F ....
....|..|--- .... ....|--- .... ....|--- .... ....
 B-4|..|B-3 2C.F ....|--- .... ....|--- .... ....
....|..|--- .... ....|--- .... ....|--- .... ....
 B-4|..|B-3 2C.F ....|R-- .... ....|R-- .... ....
....|..|--- .... ....|--- .... ....|--- .... ....
....|..|B-3 2F.A ....|B-4 2F.A ....|B-4 2F.A ....
....|..|--- .... ....|--- .... ....|--- .... ....
 B-4|..|B-3 2C.F ....|B-3 2F.F ....|B-3 2F.F ....
....|..|--- .... ....|--- .... ....|--- .... ....
....|..|B-3 2F.A ....|R-- .... ....|R-- .... ....
....|..|--- .... ....|--- .... ....|--- .... ....
 B-4|..|B-2 2A.F ....|B-4 2F.7 ....|B-4 2F.7 ....
....|..|--- .... ....|--- .... ....|--- .... ....
....|..|B-3 2F.7 ....|B-3 2F.A ....|B-3 2F.A ....
....|..|--- .... ....|--- .... ....|--- .... ....
 B-4|..|B-3 2C.F ....|B-3 2F.F ....|B-3 2F.F ....
....|..|--- .... ....|--- .... ....|--- .... ....
 B-4|..|B-3 2C.F ....|R-- .... ....|R-- .... ....
....|..|--- .... ....|--- .... ....|--- .... ....
....|..|B-3 2F.7 ....|B-3 2F.7 ....|B-3 2F.7 ....
....|..|--- .... ....|--- .... ....|--- .... ....
....|..|B-3 2F.A ....|B-3 2F.A ....|B-3 2F.A ....
....|..|--- .... ....|--- .... ....|--- .... ....
 B-4|..|B-3 2C.F ....|R-- .... ....|R-- .... ....
....|..|--- .... ....|--- .... ....|--- .... ....
....|..|R-- .... ....|R-- .... ....|R-- .... ....
....|..|--- .... ....|--- .... ....|--- .... ....
....|..|B-3 2F.7 ....|B-3 2F.7 ....|B-3 2F.7 ....
....|..|--- .... ....|--- .... ....|--- .... ....
....|..|B-3 2F.7 ....|--- .... ....|--- .... ....
....|..|--- .... ....|--- .... ....|--- .... ....
 B-4|..|B-3 2C.F ....|B-4 2F.F ....|B-4 2F.F ....
....|..|--- .... ....|--- .... ....|--- .... ....
 B-4|..|B-3 2C.F ....|--- .... ....|--- .... ....
....|..|--- .... ....|--- .... ....|--- .... ....
 B-4|..|B-3 2C.F ....|B-3 2F.F ....|B-3 2F.F ....
....|..|--- .... ....|--- .... ....|--- .... ....
....|..|B-3 2F.A ....|B-4 2F.A ....|B-4 2F.A ....
....|..|--- .... ....|--- .... ....|--- .... ....
 B-4|..|B-3 2C.F ....|B-4 2F.F ....|B-4 2F.F ....
....|..|--- .... ....|--- .... ....|--- .... ....
....|..|B-3 2F.A ....|B-3 2F.A ....|B-3 2F.A ....
....|..|--- .... ....|--- .... ....|--- .... ....
 B-4|..|B-2 2A.F ....|B-4 2F.7 ....|B-4 2F.7 ....
....|..|--- .... ....|--- .... ....|--- .... ....
....|..|B-3 2F.7 ....|B-4 2F.A ....|B-4 2F.A ....
....|..|--- .... ....|--- .... ....|--- .... ....
 B-4|..|B-3 2C.F ....|B-3 2F.7 ....|B-3 2F.7 ....
....|..|--- .... ....|--- .... ....|--- .... ....
 B-4|..|B-3 2C.F ....|R-- .... ....|R-- .... ....
....|..|--- .... ....|--- .... ....|--- .... ....
....|..|B-3 2F.7 ....|B-4 2F.7 ....|B-4 2F.7 ....
....|..|--- .... ....|--- .... ....|--- .... ....
....|..|B-3 2F.A ....|--- .... ....|--- .... ....
....|..|--- .... ....|--- .... ....|--- .... ....
 B-4|..|B-3 2C.F ....|R-- .... ....|R-- .... ....
....|..|--- .... ....|--- .... ....|--- .... ....
....|..|R-- .... ....|--- .... ....|--- .... ....
....|..|--- .... ....|--- .... ....|--- .... ....
....|..|B-3 2F.7 ....|--- .... ....|--- .... ....
....|..|--- .... ....|--- .... ....|--- .... ....
....|..|B-3 2F.7 ....|--- .... ....|--- .... ....
....|..|--- .... ....|--- .... ....|--- .... ....

[Pattern58]
 B-4|..|B-3 2C.F ....|B-4 2F.F ....|B-4 2F.F ....
....|..|--- .... ....|--- .... ....|--- .... ....
 B-4|..|B-3 2C.F ....|--- .... ....|--- .... ....
....|..|--- .... ....|--- .... ....|--- .... ....
 B-4|..|B-3 2C.F ....|R-- .... ....|R-- .... ....
....|..|--- .... ....|--- .... ....|--- .... ....
....|..|B-3 2F.A ....|B-4 2F.A ....|B-4 2F.A ....
....|..|--- .... ....|--- .... ....|--- .... ....
 B-4|..|B-4 2C.F ....|B-3 2F.F ....|B-3 2F.F ....
....|..|--- .... ....|--- .... ....|--- .... ....
....|..|B-3 2F.A ....|R-- .... ....|R-- .... ....
....|..|--- .... ....|--- .... ....|--- .... ....
 B-4|..|B-2 2A.F ....|B-4 2F.7 ....|B-4 2F.7 ....
....|..|--- .... ....|--- .... ....|--- .... ....
....|..|B-3 2F.7 ....|B-3 2F.A ....|B-3 2F.A ....
....|..|--- .... ....|--- .... ....|--- .... ....
 B-4|..|B-3 2C.F ....|B-4 2F.F ....|B-4 2F.F ....
....|..|--- .... ....|--- .... ....|--- .... ....
 B-4|..|B-3 2C.F ....|R-- .... ....|R-- .... ....
....|..|--- .... ....|--- .... ....|--- .... ....
....|..|B-4 2F.7 ....|B-3 2F.7 ....|B-3 2F.7 ....
....|..|--- .... ....|--- .... ....|--- .... ....
....|..|B-3 2F.A ....|B-4 2F.A ....|B-4 2F.A ....
....|..|--- .... ....|--- .... ....|--- .... ....
 B-4|..|B-3 2C.F ....|R-- .... ....|R-- .... ....
....|..|--- .... ....|--- .... ....|--- .... ....
....|..|R-- .... ....|R-- .... ....|R-- .... ....
....|..|--- .... ....|--- .... ....|--- .... ....
....|..|B-3 2F.7 ....|B-4 2F.7 ....|B-4 2F.7 ....
....|..|--- .... ....|--- .... ....|--- .... ....
 B-4|..|B-3 2C.F ....|--- .... ....|--- .... ....
....|..|--- .... ....|--- .... ....|--- .... ....
 B-4|..|B-3 2C.F ....|B-4 2F.F ....|B-4 2F.F ....
....|..|--- .... ....|--- .... ....|--- .... ....
 B-4|..|B-3 2C.F ....|--- .... ....|--- .... ....
....|..|--- .... ....|--- .... ....|--- .... ....
 B-4|..|B-3 2C.F ....|B-3 2F.F ....|B-3 2F.F ....
....|..|--- .... ....|--- .... ....|--- .... ....
....|..|B-3 2F.A ....|B-4 2F.A ....|B-4 2F.A ....
....|..|--- .... ....|--- .... ....|--- .... ....
 B-4|..|B-3 2C.F ....|B-4 2F.F ....|B-4 2F.F ....
....|..|--- .... ....|--- .... ....|--- .... ....
....|..|B-3 2F.7 ....|B-3 2F.A ....|B-3 2F.A ....
....|..|--- .... ....|--- .... ....|--- .... ....
 B-4|..|B-2 2A.F ....|B-4 2F.7 ....|B-4 2F.7 ....
....|..|--- .... ....|--- .... ....|--- .... ....
....|..|B-3 2F.7 ....|B-4 2F.A ....|B-4 2F.A ....
....|..|--- .... ....|--- .... ....|--- .... ....
 B-4|..|B-3 2C.F ....|B-3 2F.7 ....|B-3 2F.7 ....
....|..|--- .... ....|--- .... ....|--- .... ....
 B-4|..|B-3 2C.F ....|R-- .... ....|R-- .... ....
....|..|--- .... ....|--- .... ....|--- .... ....
....|..|B-3 2F.7 ....|B-4 2F.7 ....|B-4 2F.7 ....
....|..|--- .... ....|--- .... ....|--- .... ....
....|..|B-3 2F.A ....|--- .... ....|--- .... ....
....|..|--- .... ....|--- .... ....|--- .... ....
 B-4|..|B-3 2C.F ....|R-- .... ....|R-- .... ....
....|..|--- .... ....|--- .... ....|--- .... ....
....|..|R-- .... ....|--- .... ....|--- .... ....
....|..|--- .... ....|--- .... ....|--- .... ....
....|..|B-3 2F.7 ....|--- .... ....|--- .... ....
....|..|--- .... ....|--- .... ....|--- .... ....
....|..|B-3 2F.7 ....|--- .... ....|--- .... ....
....|..|--- .... ....|--- .... ....|--- .... ....

[Pattern59]
 B-4|..|B-3 2C.F ....|B-4 2F.F ....|B-4 2F.F ....
....|..|--- .... ....|--- .... ....|--- .... ....
 B-4|..|B-3 2C.F ....|--- .... ....|--- .... ....
....|..|--- .... ....|--- .... ....|--- .... ....
 B-4|..|B-3 2C.F ....|R-- .... ....|R-- .... ....
....|..|--- .... ....|--- .... ....|--- .... ....
....|..|B-3 2F.A ....|B-4 2F.A ....|B-4 2F.A ....
....|..|--- .... ....|--- .... ....|--- .... ....
 B-4|..|B-3 2C.F ....|B-3 2F.F ....|B-3 2F.F ....
....|..|--- .... ....|--- .... ....|--- .... ....
....|..|B-3 2F.A ....|R-- .... ....|R-- .... ....
....|..|--- .... ....|--- .... ....|--- .... ....
 B-4|..|B-2 2A.F ....|B-4 2F.7 ....|B-4 2F.7 ....
....|..|--- .... ....|--- .... ....|--- .... ....
....|..|B-3 2F.7 ....|B-3 2F.A ....|B-3 2F.A ....
....|..|--- .... ....|--- .... ....|--- .... ....
 B-4|..|B-3 2C.F ....|B-3 2F.F ....|B-3 2F.F ....
....|..|--- .... ....|--- .... ....|--- .... ....
 B-4|..|B-3 2C.F ....|R-- .... ....|R-- .... ....
....|..|--- .... ....|--- .... ....|--- .... ....
....|..|B-3 2F.7 ....|B-3 2F.7 ....|B-3 2F.7 ....
....|..|--- .... ....|--- .... ....|--- .... ....
....|..|B-3 2F.A ....|B-3 2F.A ....|B-3 2F.A ....
....|..|--- .... ....|--- .... ....|--- .... ....
 B-4|..|B-4 2C.F ....|R-- .... ....|R-- .... ....
....|..|--- .... ....|--- .... ....|--- .... ....
....|..|R-- .... ....|R-- .... ....|R-- .... ....
....|..|--- .... ....|--- .... ....|--- .... ....
....|..|B-3 2F.7 ....|B-3 2F.7 ....|B-3 2F.7 ....
....|..|--- .... ....|--- .... ....|--- .... ....
....|..|B-3 2F.7 ....|--- .... ....|--- .... ....
....|..|--- .... ....|--- .... ....|--- .... ....
 B-4|..|B-4 2C.F ....|B-4 2F.F ....|B-4 2F.F ....
....|..|--- .... ....|--- .... ....|--- .... ....
 B-4|..|B-3 2C.F ....|--- .... ....|--- .... ....
....|..|--- .... ....|--- .... ....|--- .... ....
 B-4|..|B-3 2C.F ....|B-3 2F.F ....|B-3 2F.F ....
....|..|--- .... ....|--- .... ....|--- .... ....
....|..|B-4 2F.A ....|B-4 2F.A ....|B-4 2F.A ....
....|..|--- .... ....|--- .... ....|--- .... ....
 B-4|..|B-3 2C.F ....|B-3 2F.F ....|B-3 2F.F ....
....|..|--- .... ....|--- .... ....|--- .... ....
....|..|B-3 2F.A ....|B-3 2F.A ....|B-3 2F.A ....
....|..|--- .... ....|--- .... ....|--- .... ....
 B-4|..|B-2 2A.F ....|B-4 2F.7 ....|B-4 2F.7 ....
....|..|--- .... ....|--- .... ....|--- .... ....
....|..|B-3 2F.7 ....|B-3 2F.A ....|B-3 2F.A ....
....|..|--- .... ....|--- .... ....|--- .... ....
 B-4|..|B-3 2C.F ....|B-3 2F.7 ....|B-3 2F.7 ....
....|..|--- .... ....|--- .... ....|--- .... ....
 B-4|..|B-3 2C.F ....|R-- .... ....|R-- .... ....
....|..|--- .... ....|--- .... ....|--- .... ....
....|..|B-3 2F.7 ....|B-3 2F.7 ....|B-3 2F.7 ....
....|..|--- .... ....|--- .... ....|--- .... ....
....|..|B-3 2F.A ....|--- .... ....|--- .... ....
....|..|--- .... ....|--- .... ....|--- .... ....
 B-4|..|B-3 2C.F ....|R-- .... ....|R-- .... ....
....|..|--- .... ....|--- .... ....|--- .... ....
....|..|R-- .... ....|--- .... ....|--- .... ....
....|..|--- .... ....|--- .... ....|--- .... ....
....|..|B-3 2F.7 ....|--- .... ....|--- .... ....
....|..|--- .... ....|--- .... ....|--- .... ....
....|..|B-3 2F.7 ....|--- .... ....|--- .... ....
....|..|--- .... ....|--- .... ....|--- .... ....

[Pattern60]
 B-4|..|B-3 2C.F ....|B-3 2F.F ....|B-3 2F.F ....
....|..|--- .... ....|--- .... ....|--- .... ....
 B-4|..|B-3 2C.F ....|--- .... ....|--- .... ....
....|..|--- .... ....|--- .... ....|--- .... ....
 B-4|..|B-3 2C.F ....|R-- .... ....|R-- .... ....
....|..|--- .... ....|--- .... ....|--- .... ....
....|..|B-3 2F.A ....|B-3 2F.A ....|B-3 2F.A ....
....|..|--- .... ....|--- .... ....|--- .... ....
 B-4|..|B-3 2C.F ....|B-4 2F.F ....|B-4 2F.F ....
....|..|--- .... ....|--- .... ....|--- .... ....
....|..|B-3 2F.A ....|R-- .... ....|R-- .... ....
....|..|--- .... ....|--- .... ....|--- .... ....
 B-4|..|B-2 2A.F ....|B-3 2F.7 ....|B-3 2F.7 ....
....|..|--- .... ....|--- .... ....|--- .... ....
....|..|B-3 2F.7 ....|B-4 2F.A ....|B-4 2F.A ....
....|..|--- .... ....|--- .... ....|--- .... ....
 B-4|..|B-3 2C.F ....|B-5 2F.F ....|B-5 2F.F ....
....|..|--- .... ....|--- .... ....|--- .... ....
 B-4|..|B-3 2C.F ....|R-- .... ....|R-- .... ....
....|..|--- .... ....|--- .... ....|--- .... ....
....|..|B-3 2F.7 ....|B-4 2F.7 ....|B-4 2F.7 ....
....|..|--- .... ....|--- .... ....|--- .... ....
....|..|B-3 2F.A ....|B-5 2F.A ....|B-5 2F.A ....
....|..|--- .... ....|--- .... ....|--- .... ....
 B-4|..|B-3 2C.F ....|R-- .... ....|R-- .... ....
....|..|--- .... ....|--- .... ....|--- .... ....
....|..|R-- .... ....|R-- .... ....|R-- .... ....
....|..|--- .... ....|--- .... ....|--- .... ....
....|..|B-3 2F.7 ....|B-5 2F.7 ....|B-5 2F.7 ....
....|..|--- .... ....|--- .... ....|--- .... ....
....|..|B-3 2F.7 ....|--- .... ....|--- .... ....
....|..|--- .... ....|--- .... ....|--- .... ....
 B-4|..|B-3 2C.F ....|B-3 2F.F ....|B-3 2F.F ....
....|..|--- .... ....|--- .... ....|--- .... ....
 B-4|..|B-3 2C.F ....|--- .... ....|--- .... ....
....|..|--- .... ....|--- .... ....|--- .... ....
 B-4|..|B-4 2C.F ....|B-3 2F.F ....|B-3 2F.F ....
....|..|--- .... ....|--- .... ....|--- .... ....
....|..|B-3 2F.A ....|B-3 2F.A ....|B-3 2F.A ....
....|..|--- .... ....|--- .... ....|--- .... ....
 B-4|..|B-3 2C.F ....|B-4 2F.F ....|B-4 2F.F ....
....|..|--- .... ....|--- .... ....|--- .... ....
....|..|B-4 2F.A ....|B-3 2F.A ....|B-3 2F.A ....
....|..|--- .... ....|--- .... ....|--- .... ....
 B-4|..|B-2 2A.F ....|B-3 2F.7 ....|B-3 2F.7 ....
....|..|--- .... ....|--- .... ....|--- .... ....
....|..|B-3 2F.7 ....|B-4 2F.A ....|B-4 2F.A ....
....|..|--- .... ....|--- .... ....|--- .... ....
 B-4|..|B-3 2C.F ....|B-3 2F.7 ....|B-3 2F.7 ....
....|..|--- .... ....|--- .... ....|--- .... ....
 B-4|..|B-3 2C.F ....|R-- .... ....|R-- .... ....
....|..|--- .... ....|--- .... ....|--- .... ....
....|..|B-3 2F.7 ....|B-4 2F.7 ....|B-4 2F.7 ....
....|..|--- .... ....|--- .... ....|--- .... ....
....|..|B-3 2F.A ....|--- .... ....|--- .... ....
....|..|--- .... ....|--- .... ....|--- .... ....
 B-4|..|B-3 2C.F ....|R-- .... ....|R-- .... ....
....|..|--- .... ....|--- .... ....|--- .... ....
....|..|R-- .... ....|--- .... ....|--- .... ....
....|..|--- .... ....|--- .... ....|--- .... ....
....|..|B-3 2F.7 ....|--- .... ....|--- .... ....
....|..|--- .... ....|--- .... ....|--- .... ....
....|..|B-3 2F.7 ....|--- .... ....|--- .... ....
....|..|--- .... ....|--- .... ....|--- .... ....

[Pattern61]
 B-4|..|B-3 2C.F ....|B-3 2F.F ....|B-3 2F.F ....
....|..|--- .... ....|--- .... ....|--- .... ....
 B-4|..|B-3 2C.F ....|--- .... ....|--- .... ....
....|..|--- .... ....|--- .... ....|--- .... ....
 B-4|..|B-3 2C.F ....|R-- .... ....|R-- .... ....
....|..|--- .... ....|--- .... ....|--- .... ....
....|..|B-3 2F.A ....|B-3 2F.A ....|B-3 2F.A ....
....|..|--- .... ....|--- .... ....|--- .... ....
 B-4|..|B-3 2C.F ....|B-4 2F.F ....|B-4 2F.F ....
....|..|--- .... ....|--- .... ....|--- .... ....
....|..|B-3 2F.A ....|R-- .... ....|R-- .... ....
....|..|--- .... ....|--- .... ....|--- .... ....
 B-4|..|B-2 2A.F ....|B-3 2F.7 ....|B-3 2F.7 ....
....|..|--- .... ....|--- .... ....|--- .... ....
....|..|B-3 2F.7 ....|B-4 2F.A ....|B-4 2F.A ....
....|..|--- .... ....|--- .... ....|--- .... ....
 B-4|..|B-3 2C.F ....|B-5 2F.F ....|B-5 2F.F ....
....|..|--- .... ....|--- .... ....|--- .... ....
 B-4|..|B-3 2C.F ....|R-- .... ....|R-- .... ....
....|..|--- .... ....|--- .... ....|--- .... ....
....|..|B-3 2F.7 ....|B-4 2F.7 ....|B-4 2F.7 ....
....|..|--- .... ....|--- .... ....|--- .... ....
....|..|B-3 2F.A ....|B-5 2F.A ....|B-5 2F.A ....
....|..|--- .... ....|--- .... ....|--- .... ....
 B-4|..|B-3 2C.F ....|R-- .... ....|R-- .... ....
....|..|--- .... ....|--- .... ....|--- .... ....
....|..|R-- .... ....|R-- .... ....|R-- .... ....
....|..|--- .... ....|--- .... ....|--- .... ....
....|..|B-3 2F.7 ....|B-5 2F.7 ....|B-5 2F.7 ....
....|..|--- .... ....|--- .... ....|--- .... ....
....|..|B-3 2F.7 ....|--- .... ....|--- .... ....
....|..|--- .... ....|--- .... ....|--- .... ....
 B-4|..|B-3 2C.F ....|B-4 2F.F ....|B-4 2F.F ....
....|..|--- .... ....|--- .... ....|--- .... ....
 B-4|..|B-3 2C.F ....|--- .... ....|--- .... ....
....|..|--- .... ....|--- .... ....|--- .... ....
 B-4|..|B-3 2C.F ....|B-3 2F.F ....|B-3 2F.F ....
....|..|--- .... ....|--- .... ....|--- .... ....
....|..|B-3 2F.A ....|B-4 2F.A ....|B-4 2F.A ....
....|..|--- .... ....|--- .... ....|--- .... ....
 B-4|..|B-3 2C.F ....|B-4 2F.F ....|B-4 2F.F ....
....|..|--- .... ....|--- .... ....|--- .... ....
....|..|B-3 2F.A ....|B-3 2F.A ....|B-3 2F.A ....
....|..|--- .... ....|--- .... ....|--- .... ....
 B-4|..|B-4 2C.F ....|B-4 2F.7 ....|B-4 2F.7 ....
....|..|--- .... ....|--- .... ....|--- .... ....
....|..|B-3 2F.7 ....|B-4 2F.A ....|B-4 2F.A ....
....|..|--- .... ....|--- .... ....|--- .... ....
 B-4|..|B-4 2C.F ....|B-3 2F.7 ....|B-3 2F.7 ....
....|..|--- .... ....|--- .... ....|--- .... ....
 B-4|..|B-3 2C.F ....|R-- .... ....|R-- .... ....
....|..|--- .... ....|--- .... ....|--- .... ....
....|..|B-3 2F.7 ....|B-4 2F.7 ....|B-4 2F.7 ....
....|..|--- .... ....|--- .... ....|--- .... ....
....|..|B-4 2F.A ....|--- .... ....|--- .... ....
....|..|--- .... ....|--- .... ....|--- .... ....
 B-4|..|B-3 2C.F ....|R-- .... ....|R-- .... ....
....|..|--- .... ....|--- .... ....|--- .... ....
....|..|R-- .... ....|--- .... ....|--- .... ....
....|..|--- .... ....|--- .... ....|--- .... ....
....|..|B-4 2F.7 ....|--- .... ....|--- .... ....
....|..|--- .... ....|--- .... ....|--- .... ....
....|..|B-3 2F.7 ....|--- .... ....|--- .... ....
....|..|--- .... ....|--- .... ....|--- .... ....

[Pattern62]
 B-4|..|B-3 2C.F ....|B-4 2F.F ....|B-4 2F.F ....
....|..|--- .... ....|--- .... ....|--- .... ....
 B-4|..|B-3 2C.F ....|--- .... ....|--- .... ....
....|..|--- .... ....|--- .... ....|--- .... ....
 B-4|..|B-3 2C.F ....|R-- .... ....|R-- .... ....
....|..|--- .... ....|--- .... ....|--- .... ....
....|..|B-3 2F.A ....|B-4 2F.A ....|B-4 2F.A ....
....|..|--- .... ....|--- .... ....|--- .... ....
 B-4|..|B-3 2C.F ....|B-4 2F.F ....|B-4 2F.F ....
....|..|--- .... ....|--- .... ....|--- .... ....
....|..|B-3 2F.A ....|R-- .... ....|R-- .... ....
....|..|--- .... ....|--- .... ....|--- .... ....
 B-4|..|B-2 2A.F ....|B-4 2F.7 ....|B-4 2F.7 ....
....|..|--- .... ....|--- .... ....|--- .... ....
....|..|B-3 2F.7 ....|B-4 2F.A ....|B-4 2F.A ....
....|..|--- .... ....|--- .... ....|--- .... ....
 B-4|..|B-3 2C.F ....|B-3 2F.F ....|B-3 2F.F ....
....|..|--- .... ....|--- .... ....|--- .... ....
 B-4|..|B-3 2C.F ....|R-- .... ....|R-- .... ....
....|..|--- .... ....|--- .... ....|--- .... ....
....|..|B-3 2F.7 ....|B-4 2F.7 ....|B-4 2F.7 ....
....|..|--- .... ....|--- .... ....|--- .... ....
....|..|B-3 2F.A ....|B-3 2F.A ....|B-3 2F.A ....
....|..|--- .... ....|--- .... ....|--- .... ....
 B-4|..|B-3 2C.F ....|R-- .... ....|R-- .... ....
....|..|--- .... ....|--- .... ....|--- .... ....
....|..|R-- .... ....|R-- .... ....|R-- .... ....
....|..|--- .... ....|--- .... ....|--- .... ....
....|..|B-3 2F.7 ....|B-3 2F.7 ....|B-3 2F.7 ....
....|..|--- .... ....|--- .... ....|--- .... ....
....|..|B-3 2F.7 ....|--- .... ....|--- .... ....
....|..|--- .... ....|--- .... ....|--- .... ....
 B-4|..|B-3 2C.F ....|B-4 2F.F ....|B-4 2F.F ....
....|..|--- .... ....|--- .... ....|--- .... ....
 B-4|..|B-3 2C.F ....|--- .... ....|--- .... ....
....|..|--- .... ....|--- .... ....|--- .... ....
 B-4|..|B-3 2C.F ....|B-3 2F.F ....|B-3 2F.F ....
....|..|--- .... ....|--- .... ....|--- .... ....
....|..|B-3 2F.A ....|B-4 2F.A ....|B-4 2F.A ....
....|..|--- .... ....|--- .... ....|--- .... ....
 B-4|..|B-3 2C.F ....|B-3 2F.F ....|B-3 2F.F ....
....|..|--- .... ....|--- .... ....|--- .... ....
....|..|B-3 2F.A ....|B-3 2F.A ....|B-3 2F.A ....
....|..|--- .... ....|--- .... ....|--- .... ....
 B-4|..|B-2 2A.F ....|B-4 2F.7 ....|B-4 2F.7 ....
....|..|--- .... ....|--- .... ....|--- .... ....
....|..|B-3 2F.7 ....|B-3 2F.A ....|B-3 2F.A ....
....|..|--- .... ....|--- .... ....|--- .... ....
 B-4|..|B-3 2C.F ....|B-3 2F.7 ....|B-3 2F.7 ....
....|..|--- .... ....|--- .... ....|--- .... ....
 B-4|..|B-3 2C.F ....|R-- .... ....|R-- .... ....
....|..|--- .... ....|--- .... ....|--- .... ....
....|..|B-3 2F.7 ....|B-3 2F.7 ....|B-3 2F.7 ....
....|..|--- .... ....|--- .... ....|--- .... ....
....|..|B-3 2F.A ....|--- .... ....|--- .... ....
....|..|--- .... ....|--- .... ....|--- .... ....
 B-4|..|B-3 2C.F ....|R-- .... ....|R-- .... ....
....|..|--- .... ....|--- .... ....|--- .... ....
....|..|R-- .... ....|--- .... ....|--- .... ....
....|..|--- .... ....|--- .... ....|--- .... ....
....|..|B-3 2F.7 ....|--- .... ....|--- .... ....
....|..|--- .... ....|--- .... ....|--- .... ....
....|..|B-3 2F.7 ....|--- .... ....|--- .... ....
....|..|--- .... ....|--- .... ....|--- .... ....

[Pattern63]
....|..|R-- .... ....|A-4 2F.F ....|A-4 2F.F ....
....|..|--- .... ....|--- .... ....|--- .... ....
....|..|R-- .... ....|--- .... ....|--- .... ....
....|..|--- .... ....|--- .... ....|--- .... ....
....|..|B-3 2F.7 ....|R-- .... ....|R-- .... ....
....|..|--- .... ....|--- .... ....|--- .... ....
....|..|--- .... ....|A-4 2F.A ....|A-4 2F.A ....
....|..|--- .... ....|--- .... ....|--- .... ....
....|..|R-- .... ....|E-5 2F.F ....|E-5 2F.F ....
....|..|--- .... ....|--- .... ....|--- .... ....
....|..|--- .... ....|R-- .... ....|R-- .... ....
....|..|--- .... ....|--- .... ....|--- .... ....
....|..|--- .... ....|A-4 2F.7 ....|A-4 2F.7 ....
....|..|--- .... ....|--- .... ....|--- .... ....
....|..|R-- .... ....|E-5 2F.A ....|E-5 2F.A ....
....|..|--- .... ....|--- .... ....|--- .... ....
....|..|--- .... ....|R-- .... ....|R-- .... ....
....|..|--- .... ....|--- .... ....|--- .... ....
....|..|--- .... ....|--- .... ....|--- .... ....
....|..|--- .... ....|--- .... ....|--- .... ....
....|..|--- .... ....|E-5 2F.7 ....|E-5 2F.7 ....
....|..|--- .... ....|--- .... ....|--- .... ....
....|..|--- .... ....|E-4 2F1F ....|A-5 2F.F ....
....|..|--- .... ....|--- .... ....|--- .... ....
....|..|--- .... ....|A-5 2F.F ....|A-5 2F.F ....
....|..|--- .... ....|--- .... ....|--- .... ....
....|..|--- .... ....|--- .... ....|--- .... ....
....|..|--- .... ....|--- .... ....|--- .... ....
....|..|--- .... ....|E-4 2F1A ....|A-5 2F.A ....
....|..|--- .... ....|--- .... ....|--- .... ....
....|..|--- .... ....|A-5 2F.A ....|A-5 2F.A ....
....|..|--- .... ....|--- .... ....|--- .... ....
....|..|--- .... ....|A-5 2F.F ....|A-5 2F.F ....
....|..|--- .... ....|--- .... ....|--- .... ....
....|..|--- .... ....|E-4 2F.F ....|E-4 2F.F ....
....|..|--- .... ....|--- .... ....|--- .... ....
....|..|--- .... ....|A-5 2F.7 ....|A-5 2F.7 ....
....|..|--- .... ....|--- .... ....|--- .... ....
....|..|--- .... ....|A-5 2F.A ....|A-5 2F.A ....
....|..|--- .... ....|--- .... ....|--- .... ....
....|..|--- .... ....|E-5 2F.F ....|E-5 2F.F ....
....|..|--- .... ....|--- .... ....|--- .... ....
....|..|--- .... ....|R-- .... ....|R-- .... ....
....|..|--- .... ....|--- .... ....|--- .... ....
....|..|--- .... ....|E-4 2F1F ....|A-5 2F.F ....
....|..|--- .... ....|--- .... ....|--- .... ....
....|..|--- .... ....|A-5 2F.F ....|A-5 2F.F ....
....|..|--- .... ....|--- .... ....|--- .... ....
....|..|--- .... ....|R-- .... ....|R-- .... ....
....|..|--- .... ....|--- .... ....|--- .... ....
....|..|--- .... ....|E-4 2F1A ....|A-5 2F.A ....
....|..|--- .... ....|--- .... ....|--- .... ....
....|..|--- .... ....|E-5 2F.7 ....|E-5 2F.7 ....
....|..|--- .... ....|--- .... ....|--- .... ....
....|..|--- .... ....|--- .... ....|--- .... ....
....|..|--- .... ....|--- .... ....|--- .... ....
....|..|--- .... ....|E-6 2F.F ....|E-6 2F.F ....
....|..|--- .... ....|--- .... ....|--- .... ....
....|..|--- .... ....|E-6 2F.F ....|E-6 2F.F ....
....|..|--- .... ....|--- .... ....|--- .... ....
....|..|--- .... ....|--- .... ....|--- .... ....
....|..|--- .... ....|--- .... ....|--- .... ....
....|..|--- .... ....|E-6 2F.A ....|E-6 2F.A ....
....|..|--- .... ....|--- .... ....|--- .... ....

[Pattern64]
....|..|--- .... ....|E-5 2F1F ....|A-6 2F.F ....
....|..|--- .... ....|--- .... ....|--- .... ....
....|..|--- .... ....|--- .... ....|--- .... ....
....|..|--- .... ....|--- .... ....|--- .... ....
....|..|--- .... ....|E-6 2F.F ....|E-6 2F.F ....
....|..|--- .... ....|--- .... ....|--- .... ....
....|..|--- .... ....|E-6 2F.7 ....|E-6 2F.7 ....
....|..|--- .... ....|--- .... ....|--- .... ....
....|..|--- .... ....|E-4 2F1F ....|A-4 2F.F ....
....|..|--- .... ....|--- .... ....|--- .... ....
....|..|--- .... ....|A-4 2F.F ....|A-4 2F.F ....
....|..|--- .... ....|--- .... ....|--- .... ....
....|..|--- .... ....|E-5 2F17 ....|A-6 2F.7 ....
....|..|--- .... ....|--- .... ....|--- .... ....
....|..|--- .... ....|E-4 2F1A ....|A-4 2F.A ....
....|..|--- .... ....|--- .... ....|--- .... ....
....|..|--- .... ....|E-6 2F.7 ....|E-6 2F.7 ....
....|..|--- .... ....|--- .... ....|--- .... ....
....|..|--- .... ....|--- .... ....|--- .... ....
....|..|--- .... ....|--- .... ....|--- .... ....
....|..|--- .... ....|E-4 2F17 ....|A-4 2F.7 ....
....|..|--- .... ....|--- .... ....|--- .... ....
....|..|--- .... ....|F-4 2F2F ....|A-4 2F.F ....
....|..|--- .... ....|--- .... ....|--- .... ....
....|..|--- .... ....|F-4 2F.F ....|F-4 2F.F ....
....|..|--- .... ....|--- .... ....|--- .... ....
....|..|--- .... ....|--- .... ....|--- .... ....
....|..|--- .... ....|--- .... ....|--- .... ....
....|..|--- .... ....|F-4 2F2A ....|A-4 2F.A ....
....|..|--- .... ....|--- .... ....|--- .... ....
....|..|--- .... ....|F-4 2F.A ....|F-4 2F.A ....
....|..|--- .... ....|--- .... ....|--- .... ....
....|..|--- .... ....|E-4 2F4F ....|F-4 2F.F ....
....|..|--- .... ....|--- .... ....|--- .... ....
....|..|--- .... ....|E-4 2F.F ....|E-4 2F.F ....
....|..|--- .... ....|--- .... ....|--- .... ....
....|..|--- .... ....|F-4 2F.7 ....|F-4 2F.7 ....
....|..|--- .... ....|--- .... ....|--- .... ....
....|..|--- .... ....|E-4 2F4A ....|F-4 2F.A ....
....|..|--- .... ....|--- .... ....|--- .... ....
....|..|--- .... ....|E-5 2F.F ....|E-5 2F.F ....
....|..|--- .... ....|--- .... ....|--- .... ....
....|..|--- .... ....|R-- .... ....|R-- .... ....
....|..|--- .... ....|--- .... ....|--- .... ....
....|..|--- .... ....|E-4 2F1F ....|A-5 2F.F ....
....|..|--- .... ....|--- .... ....|--- .... ....
....|..|--- .... ....|A-5 2F.F ....|A-5 2F.F ....
....|..|--- .... ....|--- .... ....|--- .... ....
....|..|--- .... ....|R-- .... ....|R-- .... ....
....|..|--- .... ....|--- .... ....|--- .... ....
....|..|--- .... ....|E-4 2F1A ....|A-5 2F.A ....
....|..|--- .... ....|--- .... ....|--- .... ....
....|..|--- .... ....|E-5 2F.7 ....|E-5 2F.7 ....
....|..|--- .... ....|--- .... ....|--- .... ....
....|..|--- .... ....|--- .... ....|--- .... ....
....|..|--- .... ....|--- .... ....|--- .... ....
....|..|--- .... ....|E-6 2F.F ....|E-6 2F.F ....
....|..|--- .... ....|--- .... ....|--- .... ....
....|..|--- .... ....|E-6 2F.F ....|E-6 2F.F ....
....|..|--- .... ....|--- .... ....|--- .... ....
....|..|--- .... ....|--- .... ....|--- .... ....
....|..|--- .... ....|--- .... ....|--- .... ....
....|..|--- .... ....|E-6 2F.A ....|E-6 2F.A ....
....|..|--- .... ....|--- .... ....|--- .... ....

[Pattern65]
....|..|--- .... ....|E-6 2F.F ....|E-6 2F.F ....
....|..|--- .... ....|--- .... ....|--- .... ....
....|..|--- .... ....|--- .... ....|--- .... ....
....|..|--- .... ....|--- .... ....|--- .... ....
....|..|--- .... ....|E-6 2F.F ....|E-6 2F.F ....
....|..|--- .... ....|--- .... ....|--- .... ....
....|..|--- .... ....|E-6 2F.7 ....|E-6 2F.7 ....
....|..|--- .... ....|--- .... ....|--- .... ....
....|..|--- .... ....|E-5 2F.F ....|E-5 2F.F ....
....|..|--- .... ....|--- .... ....|--- .... ....
....|..|--- .... ....|E-6 2F.A ....|E-6 2F.A ....
....|..|--- .... ....|--- .... ....|--- .... ....
....|..|--- .... ....|E-6 2F.7 ....|E-6 2F.7 ....
....|..|--- .... ....|--- .... ....|--- .... ....
....|..|--- .... ....|E-5 2F.A ....|E-5 2F.A ....
....|..|--- .... ....|--- .... ....|--- .... ....
....|..|--- .... ....|E-6 2F.7 ....|E-6 2F.7 ....
....|..|--- .... ....|--- .... ....|--- .... ....
....|..|--- .... ....|--- .... ....|--- .... ....
....|..|--- .... ....|--- .... ....|--- .... ....
....|..|--- .... ....|E-5 2F.7 ....|E-5 2F.7 ....
....|..|--- .... ....|--- .... ....|--- .... ....
....|..|--- .... ....|E-4 2F1F ....|A-5 2F.F ....
....|..|--- .... ....|--- .... ....|--- .... ....
....|..|--- .... ....|A-5 2F.F ....|A-5 2F.F ....
....|..|--- .... ....|--- .... ....|--- .... ....
....|..|--- .... ....|--- .... ....|--- .... ....
....|..|--- .... ....|--- .... ....|--- .... ....
....|..|--- .... ....|E-4 2F1A ....|A-5 2F.A ....
....|..|--- .... ....|--- .... ....|--- .... ....
....|..|--- .... ....|A-5 2F.A ....|A-5 2F.A ....
....|..|--- .... ....|--- .... ....|--- .... ....
....|..|--- .... ....|E-4 2F1F ....|A-5 2F.F ....
....|..|--- .... ....|--- .... ....|--- .... ....
....|..|--- .... ....|E-5 2F.F ....|E-5 2F.F ....
....|..|--- .... ....|--- .... ....|--- .... ....
....|..|--- .... ....|A-5 2F.7 ....|A-5 2F.7 ....
....|..|--- .... ....|--- .... ....|--- .... ....
....|..|--- .... ....|E-4 2F1A ....|A-5 2F.A ....
....|..|--- .... ....|--- .... ....|--- .... ....
....|..|--- .... ....|A-5 2F.F ....|A-5 2F.F ....
....|..|--- .... ....|--- .... ....|--- .... ....
....|..|--- .... ....|R-- .... ....|R-- .... ....
....|..|--- .... ....|--- .... ....|--- .... ....
....|..|--- .... ....|E-6 2F.F ....|E-6 2F.F ....
....|..|--- .... ....|--- .... ....|--- .... ....
....|..|--- .... ....|E-6 2F.F ....|E-6 2F.F ....
....|..|--- .... ....|--- .... ....|--- .... ....
....|..|--- .... ....|R-- .... ....|R-- .... ....
....|..|--- .... ....|--- .... ....|--- .... ....
....|..|--- .... ....|E-6 2F.A ....|E-6 2F.A ....
....|..|--- .... ....|--- .... ....|--- .... ....
....|..|--- .... ....|A-5 2F.7 ....|A-5 2F.7 ....
....|..|--- .... ....|--- .... ....|--- .... ....
....|..|--- .... ....|--- .... ....|--- .... ....
....|..|--- .... ....|--- .... ....|--- .... ....
....|..|--- .... ....|E-6 2F.F ....|E-6 2F.F ....
....|..|--- .... ....|--- .... ....|--- .... ....
....|..|--- .... ....|E-4 2F.F ....|E-4 2F.F ....
....|..|--- .... ....|--- .... ....|--- .... ....
....|..|--- .... ....|--- .... ....|--- .... ....
....|..|--- .... ....|--- .... ....|--- .... ....
....|..|--- .... ....|E-6 2F.A ....|E-6 2F.A ....
....|..|--- .... ....|--- .... ....|--- .... ....

[Pattern66]
....|..|--- .... ....|E-4 2F.F ....|E-4 2F.F ....
....|..|--- .... ....|--- .... ....|--- .... ....
....|..|--- .... ....|--- .... ....|--- .... ....
....|..|--- .... ....|--- .... ....|--- .... ....
....|..|--- .... ....|E-4 2F.F ....|E-4 2F.F ....
....|..|--- .... ....|--- .... ....|--- .... ....
....|..|--- .... ....|E-4 2F.7 ....|E-4 2F.7 ....
....|..|--- .... ....|--- .... ....|--- .... ....
....|..|--- .... ....|E-4 2F.F ....|E-4 2F.F ....
....|..|--- .... ....|--- .... ....|--- .... ....
....|..|--- .... ....|E-4 2F.A ....|E-4 2F.A ....
....|..|--- .... ....|--- .... ....|--- .... ....
....|..|--- .... ....|E-4 2F.7 ....|E-4 2F.7 ....
....|..|--- .... ....|--- .... ....|--- .... ....
....|..|--- .... ....|E-4 2F.A ....|E-4 2F.A ....
....|..|--- .... ....|--- .... ....|--- .... ....
....|..|--- .... ....|E-4 2F.7 ....|E-4 2F.7 ....
....|..|--- .... ....|--- .... ....|--- .... ....
....|..|--- .... ....|--- .... ....|--- .... ....
....|..|--- .... ....|--- .... ....|--- .... ....
....|..|--- .... ....|E-4 2F.7 ....|E-4 2F.7 ....
....|..|--- .... ....|--- .... ....|--- .... ....
....|..|--- .... ....|A-6 2F.F ....|A-6 2F.F ....
....|..|--- .... ....|--- .... ....|--- .... ....
....|..|--- .... ....|A-6 2F.F ....|A-6 2F.F ....
....|..|--- .... ....|--- .... ....|--- .... ....
....|..|--- .... ....|--- .... ....|--- .... ....
....|..|--- .... ....|--- .... ....|--- .... ....
....|..|--- .... ....|A-6 2F.A ....|A-6 2F.A ....
....|..|--- .... ....|--- .... ....|--- .... ....
....|..|--- .... ....|A-6 2F.A ....|A-6 2F.A ....
....|..|--- .... ....|--- .... ....|--- .... ....
....|..|--- .... ....|A-6 2F.F ....|A-6 2F.F ....
....|..|--- .... ....|--- .... ....|--- .... ....
....|..|--- .... ....|E-4 2F.F ....|E-4 2F.F ....
....|..|--- .... ....|--- .... ....|--- .... ....
....|..|--- .... ....|A-6 2F.7 ....|A-6 2F.7 ....
....|..|--- .... ....|--- .... ....|--- .... ....
....|..|--- .... ....|A-6 2F.A ....|A-6 2F.A ....
....|..|--- .... ....|--- .... ....|--- .... ....
....|..|--- .... ....|A-4 2F.F ....|A-4 2F.F ....
....|..|--- .... ....|--- .... ....|--- .... ....
....|..|--- .... ....|R-- .... ....|R-- .... ....
....|..|--- .... ....|--- .... ....|--- .... ....
....|..|--- .... ....|E-5 2F.F ....|E-5 2F.F ....
....|..|--- .... ....|--- .... ....|--- .... ....
....|..|--- .... ....|E-5 2F.F ....|E-5 2F.F ....
....|..|--- .... ....|--- .... ....|--- .... ....
....|..|--- .... ....|R-- .... ....|R-- .... ....
....|..|--- .... ....|--- .... ....|--- .... ....
....|..|--- .... ....|E-5 2F.A ....|E-5 2F.A ....
....|..|--- .... ....|--- .... ....|--- .... ....
....|..|--- .... ....|A-4 2F.7 ....|A-4 2F.7 ....
....|..|--- .... ....|--- .... ....|--- .... ....
....|..|--- .... ....|--- .... ....|--- .... ....
....|..|--- .... ....|--- .... ....|--- .... ....
....|..|--- .... ....|E-4 2F1F ....|A-5 2F.F ....
....|..|--- .... ....|--- .... ....|--- .... ....
....|..|--- .... ....|A-5 2F.F ....|A-5 2F.F ....
....|..|--- .... ....|--- .... ....|--- .... ....
....|..|--- .... ....|--- .... ....|--- .... ....
....|..|--- .... ....|--- .... ....|--- .... ....
....|..|--- .... ....|E-4 2F1A ....|A-5 2F.A ....
....|..|--- .... ....|--- .... ....|--- .... ....

[Pattern67]
....|..|--- .... ....|A-5 2F.F ....|A-5 2F.F ....
....|..|--- .... ....|--- .... ....|--- .... ....
....|..|--- .... ....|--- .... ....|--- .... ....
....|..|--- .... ....|--- .... ....|--- .... ....
....|..|--- .... ....|A-5 2F.F ....|A-5 2F.F ....
....|..|--- .... ....|--- .... ....|--- .... ....
....|..|--- .... ....|A-5 2F.7 ....|A-5 2F.7 ....
....|..|--- .... ....|--- .... ....|--- .... ....
....|..|--- .... ....|E-4 2F.F ....|E-4 2F.F ....
....|..|--- .... ....|--- .... ....|--- .... ....
....|..|--- .... ....|A-5 2F.A ....|A-5 2F.A ....
....|..|--- .... ....|--- .... ....|--- .... ....
....|..|--- .... ....|A-5 2F.7 ....|A-5 2F.7 ....
....|..|--- .... ....|--- .... ....|--- .... ....
....|..|--- .... ....|E-4 2F.A ....|E-4 2F.A ....
....|..|--- .... ....|--- .... ....|--- .... ....
....|..|--- .... ....|A-5 2F.7 ....|A-5 2F.7 ....
....|..|--- .... ....|--- .... ....|--- .... ....
....|..|--- .... ....|--- .... ....|--- .... ....
....|..|--- .... ....|--- .... ....|--- .... ....
....|..|--- .... ....|E-4 2F.7 ....|E-4 2F.7 ....
....|..|--- .... ....|--- .... ....|--- .... ....
....|..|--- .... ....|E-4 2F1F ....|A-4 2F.F ....
....|..|--- .... ....|--- .... ....|--- .... ....
....|..|--- .... ....|A-4 2F.F ....|A-4 2F.F ....
....|..|--- .... ....|--- .... ....|--- .... ....
....|..|--- .... ....|--- .... ....|--- .... ....
....|..|--- .... ....|--- .... ....|--- .... ....
....|..|--- .... ....|E-4 2F1A ....|A-4 2F.A ....
....|..|--- .... ....|--- .... ....|--- .... ....
....|..|--- .... ....|A-4 2F.A ....|A-4 2F.A ....
....|..|--- .... ....|--- .... ....|--- .... ....
....|..|--- .... ....|E-5 2F.F ....|E-5 2F.F ....
....|..|--- .... ....|--- .... ....|--- .... ....
....|..|--- .... ....|E-5 2F.F ....|E-5 2F.F ....
....|..|--- .... ....|--- .... ....|--- .... ....
....|..|--- .... ....|A-4 2F.7 ....|A-4 2F.7 ....
....|..|--- .... ....|--- .... ....|--- .... ....
....|..|--- .... ....|E-5 2F.A ....|E-5 2F.A ....
....|..|--- .... ....|--- .... ....|--- .... ....
....|..|--- .... ....|A-5 2F.F ....|A-5 2F.F ....
....|..|--- .... ....|--- .... ....|--- .... ....
....|..|--- .... ....|R-- .... ....|R-- .... ....
....|..|--- .... ....|--- .... ....|--- .... ....
....|..|--- .... ....|A-5 2F.F ....|A-5 2F.F ....
....|..|--- .... ....|--- .... ....|--- .... ....
....|..|--- .... ....|E-4 2F.F ....|E-4 2F.F ....
....|..|--- .... ....|--- .... ....|--- .... ....
....|..|--- .... ....|R-- .... ....|R-- .... ....
....|..|--- .... ....|--- .... ....|--- .... ....
....|..|--- .... ....|A-5 2F.A ....|A-5 2F.A ....
....|..|--- .... ....|--- .... ....|--- .... ....
....|..|--- .... ....|A-5 2F.7 ....|A-5 2F.7 ....
....|..|--- .... ....|--- .... ....|--- .... ....
....|..|--- .... ....|--- .... ....|--- .... ....
....|..|--- .... ....|--- .... ....|--- .... ....
....|..|--- .... ....|E-6 2F.F ....|E-6 2F.F ....
....|..|--- .... ....|--- .... ....|--- .... ....
....|..|--- .... ....|E-6 2F.F ....|E-6 2F.F ....
....|..|--- .... ....|--- .... ....|--- .... ....
....|..|--- .... ....|--- .... ....|--- .... ....
....|..|--- .... ....|--- .... ....|--- .... ....
....|..|--- .... ....|E-6 2F.A ....|E-6 2F.A ....
....|..|--- .... ....|--- .... ....|--- .... ....

[Pattern68]
....|..|--- .... ....|E-5 2F1F ....|A-6 2F.F ....
....|..|--- .... ....|--- .... ....|--- .... ....
....|..|--- .... ....|--- .... ....|--- .... ....
....|..|--- .... ....|--- .... ....|--- .... ....
....|..|--- .... ....|E-6 2F.F ....|E-6 2F.F ....
....|..|--- .... ....|--- .... ....|--- .... ....
....|..|--- .... ....|E-6 2F.7 ....|E-6 2F.7 ....
....|..|--- .... ....|--- .... ....|--- .... ....
....|..|--- .... ....|A-4 2F.F ....|A-4 2F.F ....
....|..|--- .... ....|--- .... ....|--- .... ....
....|..|--- .... ....|E-6 2F.A ....|E-6 2F.A ....
....|..|--- .... ....|--- .... ....|--- .... ....
....|..|--- .... ....|E-5 2F17 ....|A-6 2F.7 ....
....|..|--- .... ....|--- .... ....|--- .... ....
....|..|--- .... ....|A-4 2F.A ....|A-4 2F.A ....
....|..|--- .... ....|--- .... ....|--- .... ....
....|..|--- .... ....|E-6 2F.7 ....|E-6 2F.7 ....
....|..|--- .... ....|--- .... ....|--- .... ....
....|..|--- .... ....|--- .... ....|--- .... ....
....|..|--- .... ....|--- .... ....|--- .... ....
....|..|--- .... ....|E-5 2F.F ....|E-5 2F.F ....
....|..|--- .... ....|--- .... ....|--- .... ....
....|..|--- .... ....|E-4 2F1F ....|A-5 2F.F ....
....|..|--- .... ....|--- .... ....|--- .... ....
....|..|--- .... ....|A-5 2F.F ....|A-5 2F.F ....
....|..|--- .... ....|--- .... ....|--- .... ....
....|..|--- .... ....|E-5 2F.A ....|E-5 2F.A ....
....|..|--- .... ....|--- .... ....|--- .... ....
....|..|--- .... ....|E-4 2F1A ....|A-5 2F.A ....
....|..|--- .... ....|--- .... ....|--- .... ....
....|..|--- .... ....|A-5 2F.A ....|A-5 2F.A ....
....|..|--- .... ....|--- .... ....|--- .... ....
....|..|--- .... ....|E-6 2F.F ....|E-6 2F.F ....
....|..|--- .... ....|--- .... ....|--- .... ....
....|..|--- .... ....|E-6 2F.F ....|E-6 2F.F ....
....|..|--- .... ....|--- .... ....|--- .... ....
....|..|--- .... ....|A-5 2F.7 ....|A-5 2F.7 ....
....|..|--- .... ....|--- .... ....|--- .... ....
....|..|--- .... ....|E-6 2F.A ....|E-6 2F.A ....
....|..|--- .... ....|--- .... ....|--- .... ....
....|..|--- .... ....|A-6 2F.F ....|A-6 2F.F ....
....|..|--- .... ....|--- .... ....|--- .... ....
....|..|--- .... ....|R-- .... ....|R-- .... ....
....|..|--- .... ....|--- .... ....|--- .... ....
....|..|--- .... ....|A-6 2F.F ....|A-6 2F.F ....
....|..|--- .... ....|--- .... ....|--- .... ....
....|..|--- .... ....|A-4 2F.F ....|A-4 2F.F ....
....|..|--- .... ....|--- .... ....|--- .... ....
....|..|--- .... ....|R-- .... ....|R-- .... ....
....|..|--- .... ....|--- .... ....|--- .... ....
....|..|--- .... ....|A-6 2F.A ....|A-6 2F.A ....
....|..|--- .... ....|--- .... ....|--- .... ....
....|..|--- .... ....|A-6 2F.7 ....|A-6 2F.7 ....
....|..|--- .... ....|--- .... ....|--- .... ....
....|..|--- .... ....|--- .... ....|--- .... ....
....|..|--- .... ....|--- .... ....|--- .... ....
....|..|--- .... ....|E-5 2F.F ....|E-5 2F.F ....
....|..|--- .... ....|--- .... ....|--- .... ....
....|..|--- .... ....|E-5 2F.F ....|E-5 2F.F ....
....|..|--- .... ....|--- .... ....|--- .... ....
....|..|--- .... ....|--- .... ....|--- .... ....
....|..|--- .... ....|--- .... ....|--- .... ....
....|..|--- .... ....|E-5 2F.A ....|E-5 2F.A ....
....|..|--- .... ....|--- .... ....|--- .... ....

[Pattern69]
....|..|--- .... ....|E-5 2F.F ....|E-5 2F.F ....
....|..|--- .... ....|--- .... ....|--- .... ....
....|..|--- .... ....|--- .... ....|--- .... ....
....|..|--- .... ....|--- .... ....|--- .... ....
....|..|--- .... ....|E-5 2F.F ....|E-5 2F.F ....
....|..|--- .... ....|--- .... ....|--- .... ....
....|..|--- .... ....|E-5 2F.7 ....|E-5 2F.7 ....
....|..|--- .... ....|--- .... ....|--- .... ....
....|..|--- .... ....|E-4 2F.F ....|E-4 2F.F ....
....|..|--- .... ....|--- .... ....|--- .... ....
....|..|--- .... ....|E-5 2F.A ....|E-5 2F.A ....
....|..|--- .... ....|--- .... ....|--- .... ....
....|..|--- .... ....|E-5 2F.7 ....|E-5 2F.7 ....
....|..|--- .... ....|--- .... ....|--- .... ....
....|..|--- .... ....|E-4 2F.A ....|E-4 2F.A ....
....|..|--- .... ....|--- .... ....|--- .... ....
....|..|--- .... ....|E-5 2F.7 ....|E-5 2F.7 ....
....|..|--- .... ....|--- .... ....|--- .... ....
....|..|--- .... ....|--- .... ....|--- .... ....
....|..|--- .... ....|--- .... ....|--- .... ....
....|..|--- .... ....|E-4 2F.7 ....|E-4 2F.7 ....
....|..|--- .... ....|--- .... ....|--- .... ....
....|..|--- .... ....|E-5 2F.F ....|E-5 2F.F ....
....|..|--- .... ....|--- .... ....|--- .... ....
....|..|--- .... ....|E-5 2F.F ....|E-5 2F.F ....
....|..|--- .... ....|--- .... ....|--- .... ....
....|..|--- .... ....|--- .... ....|--- .... ....
....|..|--- .... ....|--- .... ....|--- .... ....
....|..|--- .... ....|E-5 2F.A ....|E-5 2F.A ....
....|..|--- .... ....|--- .... ....|--- .... ....
....|..|--- .... ....|E-5 2F.A ....|E-5 2F.A ....
....|..|--- .... ....|--- .... ....|--- .... ....
....|..|--- .... ....|E-5 2F.F ....|E-5 2F.F ....
....|..|--- .... ....|--- .... ....|--- .... ....
....|..|--- .... ....|A-4 2F.F ....|A-4 2F.F ....
....|..|--- .... ....|--- .... ....|--- .... ....
....|..|--- .... ....|E-5 2F.7 ....|E-5 2F.7 ....
....|..|--- .... ....|--- .... ....|--- .... ....
....|..|--- .... ....|E-5 2F.A ....|E-5 2F.A ....
....|..|--- .... ....|--- .... ....|--- .... ....
....|..|--- .... ....|E-5 2F.F ....|E-5 2F.F ....
....|..|--- .... ....|--- .... ....|--- .... ....
....|..|--- .... ....|R-- .... ....|R-- .... ....
....|..|--- .... ....|--- .... ....|--- .... ....
....|..|--- .... ....|E-4 2F1F ....|A-5 2F.F ....
....|..|--- .... ....|--- .... ....|--- .... ....
....|..|--- .... ....|A-5 2F.F ....|A-5 2F.F ....
....|..|--- .... ....|--- .... ....|--- .... ....
....|..|--- .... ....|R-- .... ....|R-- .... ....
....|..|--- .... ....|--- .... ....|--- .... ....
....|..|--- .... ....|E-4 2F1A ....|A-5 2F.A ....
....|..|--- .... ....|--- .... ....|--- .... ....
....|..|--- .... ....|E-5 2F.7 ....|E-5 2F.7 ....
....|..|--- .... ....|--- .... ....|--- .... ....
....|..|--- .... ....|--- .... ....|--- .... ....
....|..|--- .... ....|--- .... ....|--- .... ....
....|..|--- .... ....|E-6 2F.F ....|E-6 2F.F ....
....|..|--- .... ....|--- .... ....|--- .... ....
....|..|--- .... ....|E-6 2F.F ....|E-6 2F.F ....
....|..|--- .... ....|--- .... ....|--- .... ....
....|..|--- .... ....|--- .... ....|--- .... ....
....|..|--- .... ....|--- .... ....|--- .... ....
....|..|--- .... ....|E-6 2F.A ....|E-6 2F.A ....
....|..|--- .... ....|--- .... ....|--- .... ....

[Pattern70]
....|..|--- .... ....|E-5 2F1F ....|A-6 2F.F ....
....|..|--- .... ....|--- .... ....|--- .... ....
....|..|--- .... ....|--- .... ....|--- .... ....
....|..|--- .... ....|--- .... ....|--- .... ....
....|..|--- .... ....|E-6 2F.F ....|E-6 2F.F ....
....|..|--- .... ....|--- .... ....|--- .... ....
....|..|--- .... ....|E-6 2F.7 ....|E-6 2F.7 ....
....|..|--- .... ....|--- .... ....|--- .... ....
....|..|--- .... ....|A-4 2F.F ....|A-4 2F.F ....
....|..|--- .... ....|--- .... ....|--- .... ....
....|..|--- .... ....|E-6 2F.A ....|E-6 2F.A ....
....|..|--- .... ....|--- .... ....|--- .... ....
....|..|--- .... ....|E-5 2F17 ....|A-6 2F.7 ....
....|..|--- .... ....|--- .... ....|--- .... ....
....|..|--- .... ....|A-4 2F.A ....|A-4 2F.A ....
....|..|--- .... ....|--- .... ....|--- .... ....
....|..|--- .... ....|E-6 2F.7 ....|E-6 2F.7 ....
....|..|--- .... ....|--- .... ....|--- .... ....
....|..|--- .... ....|--- .... ....|--- .... ....
....|..|--- .... ....|--- .... ....|--- .... ....
....|..|--- .... ....|A-4 2F.7 ....|A-4 2F.7 ....
....|..|--- .... ....|--- .... ....|--- .... ....
....|..|--- .... ....|E-5 2F.F ....|E-5 2F.F ....
....|..|--- .... ....|--- .... ....|--- .... ....
....|..|--- .... ....|E-5 2F.F ....|E-5 2F.F ....
....|..|--- .... ....|--- .... ....|--- .... ....
....|..|--- .... ....|E-5 2F.F ....|E-5 2F.F ....
....|..|--- .... ....|--- .... ....|--- .... ....
....|..|--- .... ....|E-5 2F.A ....|E-5 2F.A ....
....|..|--- .... ....|--- .... ....|--- .... ....
....|..|--- .... ....|E-5 2F.A ....|E-5 2F.A ....
....|..|--- .... ....|--- .... ....|--- .... ....
....|..|--- .... ....|E-4 2F4F ....|E-5 2F.F ....
....|..|--- .... ....|--- .... ....|--- .... ....
....|..|--- .... ....|E-4 2F.F ....|E-4 2F.F ....
....|..|--- .... ....|--- .... ....|--- .... ....
....|..|--- .... ....|E-5 2F.7 ....|E-5 2F.7 ....
....|..|--- .... ....|--- .... ....|--- .... ....
....|..|--- .... ....|E-5 2F.7 ....|E-5 2F.7 ....
....|..|--- .... ....|--- .... ....|--- .... ....
....|..|--- .... ....|A-5 2F.F ....|A-5 2F.F ....
....|..|--- .... ....|--- .... ....|--- .... ....
....|..|--- .... ....|R-- .... ....|R-- .... ....
....|..|--- .... ....|--- .... ....|--- .... ....
....|..|--- .... ....|A-5 2F.F ....|A-5 2F.F ....
....|..|--- .... ....|--- .... ....|--- .... ....
....|..|--- .... ....|F-4 2F.F ....|F-4 2F.F ....
....|..|--- .... ....|--- .... ....|--- .... ....
....|..|--- .... ....|R-- .... ....|R-- .... ....
....|..|--- .... ....|--- .... ....|--- .... ....
....|..|--- .... ....|A-5 2F.A ....|A-5 2F.A ....
....|..|--- .... ....|--- .... ....|--- .... ....
....|..|--- .... ....|A-5 2F.7 ....|A-5 2F.7 ....
....|..|--- .... ....|--- .... ....|--- .... ....
....|..|--- .... ....|--- .... ....|--- .... ....
....|..|--- .... ....|--- .... ....|--- .... ....
....|..|--- .... ....|E-6 2F.F ....|E-6 2F.F ....
....|..|--- .... ....|--- .... ....|--- .... ....
....|..|--- .... ....|E-6 2F.F ....|E-6 2F.F ....
....|..|--- .... ....|--- .... ....|--- .... ....
....|..|--- .... ....|--- .... ....|--- .... ....
....|..|--- .... ....|--- .... ....|--- .... ....
....|..|--- .... ....|E-6 2F.A ....|E-6 2F.A ....
....|..|--- .... ....|--- .... ....|--- .... ....

[Pattern71]
 E-4|..|E-4 2C.F ....|E-6 2F.F ....|E-6 2F.F ....
....|..|--- .... ....|--- .... ....|--- .... ....
....|..|--- .... ....|--- .... ....|--- .... ....
....|..|--- .... ....|--- .... ....|--- .... ....
....|..|R-- .... ....|E-6 2F.F ....|E-6 2F.F ....
....|..|--- .... ....|--- .... ....|--- .... ....
....|..|E-4 2F.A ....|E-6 2F.7 ....|E-6 2F.7 ....
....|..|--- .... ....|--- .... ....|--- .... ....
 E-4|..|E-4 2C.F ....|E-5 2F.F ....|E-5 2F.F ....
....|..|--- .... ....|--- .... ....|--- .... ....
....|..|R-- .... ....|E-6 2F.A ....|E-6 2F.A ....
....|..|--- .... ....|--- .... ....|--- .... ....
....|..|E-4 2F.7 ....|E-6 2F.7 ....|E-6 2F.7 ....
....|..|--- .... ....|--- .... ....|--- .... ....
 E-4|..|E-4 2C.F ....|E-5 2F.A ....|E-5 2F.A ....
....|..|--- .... ....|--- .... ....|--- .... ....
 E-4|..|E-4 2C.F ....|E-6 2F.7 ....|E-6 2F.7 ....
....|..|--- .... ....|--- .... ....|--- .... ....
 E-4|..|E-4 2C.F ....|--- .... ....|--- .... ....
....|..|--- .... ....|--- .... ....|--- .... ....
 E-4|..|E-4 2C.F ....|E-5 2F.7 ....|E-5 2F.7 ....
....|..|--- .... ....|--- .... ....|--- .... ....
 E-4|..|E-4 2C.F ....|E-4 2F1F ....|A-5 2F.F ....
....|..|--- .... ....|--- .... ....|--- .... ....
 E-4|..|E-4 2C.F ....|A-5 2F.F ....|A-5 2F.F ....
....|..|--- .... ....|--- .... ....|--- .... ....
 E-4|..|E-3 2C.F ....|--- .... ....|--- .... ....
....|..|--- .... ....|--- .... ....|--- .... ....
....|..|E-4 2F.7 ....|E-4 2F1A ....|A-5 2F.A ....
....|..|--- .... ....|--- .... ....|--- .... ....
....|..|E-4 2F.7 ....|A-5 2F.A ....|A-5 2F.A ....
....|..|--- .... ....|--- .... ....|--- .... ....
 A-3|..|A-3 2C.F ....|E-6 2F.F ....|E-6 2F.F ....
....|..|--- .... ....|--- .... ....|--- .... ....
....|..|E-4 2F.7 ....|E-6 2F.F ....|E-6 2F.F ....
....|..|--- .... ....|--- .... ....|--- .... ....
....|..|E-4 2F.7 ....|A-5 2F.7 ....|A-5 2F.7 ....
....|..|--- .... ....|--- .... ....|--- .... ....
....|..|E-3 2F.7 ....|E-6 2F.A ....|E-6 2F.A ....
....|..|--- .... ....|--- .... ....|--- .... ....
 E-4|..|E-4 2C.F ....|A-6 2F.F ....|A-6 2F.F ....
....|..|--- .... ....|--- .... ....|--- .... ....
....|..|R-- .... ....|R-- .... ....|R-- .... ....
....|..|--- .... ....|--- .... ....|--- .... ....
....|..|A-3 2F.7 ....|E-7 2F.F ....|E-7 2F.F ....
....|..|--- .... ....|--- .... ....|--- .... ....
....|..|E-4 2F.A ....|E-7 2F.F ....|E-7 2F.F ....
....|..|--- .... ....|--- .... ....|--- .... ....
....|..|R-- .... ....|R-- .... ....|R-- .... ....
....|..|--- .... ....|--- .... ....|--- .... ....
....|..|--- .... ....|E-7 2F.A ....|E-7 2F.A ....
....|..|--- .... ....|--- .... ....|--- .... ....
....|..|E-4 2F.7 ....|A-6 2F.7 ....|A-6 2F.7 ....
....|..|--- .... ....|--- .... ....|--- .... ....
....|..|--- .... ....|--- .... ....|--- .... ....
....|..|--- .... ....|--- .... ....|--- .... ....
....|..|--- .... ....|E-7 2F.F ....|E-7 2F.F ....
....|..|--- .... ....|--- .... ....|--- .... ....
....|..|--- .... ....|E-4 2F.F ....|E-4 2F.F ....
....|..|--- .... ....|--- .... ....|--- .... ....
 E-4|..|E-4 2C.F ....|--- .... ....|--- .... ....
....|..|--- .... ....|--- .... ....|--- .... ....
....|..|--- .... ....|E-7 2F.A ....|E-7 2F.A ....
....|..|--- .... ....|--- .... ....|--- .... ....

[Pattern72]
 E-4|..|E-4 2C.F ....|E-4 2F1F ....|A-4 2F.F ....
....|..|--- .... ....|--- .... ....|--- .... ....
 E-4|..|E-4 2C.F ....|--- .... ....|--- .... ....
....|..|--- .... ....|--- .... ....|--- .... ....
 E-4|..|E-3 2C.F ....|E-4 2F.F ....|E-4 2F.F ....
....|..|--- .... ....|--- .... ....|--- .... ....
....|..|E-4 2F.A ....|E-4 2F.7 ....|E-4 2F.7 ....
....|..|--- .... ....|--- .... ....|--- .... ....
 E-4|..|E-4 2C.F ....|E-5 2F.F ....|E-5 2F.F ....
....|..|--- .... ....|--- .... ....|--- .... ....
....|..|E-3 2F.A ....|E-4 2F.A ....|E-4 2F.A ....
....|..|--- .... ....|--- .... ....|--- .... ....
....|..|E-4 2F.7 ....|E-4 2F17 ....|A-4 2F.7 ....
....|..|--- .... ....|--- .... ....|--- .... ....
 A-3|..|A-4 2C.F ....|E-5 2F.A ....|E-5 2F.A ....
....|..|--- .... ....|--- .... ....|--- .... ....
 A-3|..|A-4 2C.F ....|E-4 2F.7 ....|E-4 2F.7 ....
....|..|--- .... ....|--- .... ....|--- .... ....
 E-4|..|E-4 2C.F ....|--- .... ....|--- .... ....
....|..|--- .... ....|--- .... ....|--- .... ....
 E-4|..|E-4 2C.F ....|E-5 2F.7 ....|E-5 2F.7 ....
....|..|--- .... ....|--- .... ....|--- .... ....
 E-4|..|E-4 2C.F ....|E-4 2F1F ....|A-5 2F.F ....
....|..|--- .... ....|--- .... ....|--- .... ....
 E-4|..|E-4 2C.F ....|A-5 2F.F ....|A-5 2F.F ....
....|..|--- .... ....|--- .... ....|--- .... ....
 E-4|..|E-3 2C.F ....|--- .... ....|--- .... ....
....|..|--- .... ....|--- .... ....|--- .... ....
....|..|A-4 2F.7 ....|E-4 2F1A ....|A-5 2F.A ....
....|..|--- .... ....|--- .... ....|--- .... ....
....|..|E-4 2F.7 ....|A-5 2F.A ....|A-5 2F.A ....
....|..|--- .... ....|--- .... ....|--- .... ....
 A-3|..|A-3 2C.F ....|E-6 2F.F ....|E-6 2F.F ....
....|..|--- .... ....|--- .... ....|--- .... ....
....|..|E-4 2F.7 ....|E-6 2F.F ....|E-6 2F.F ....
....|..|--- .... ....|--- .... ....|--- .... ....
....|..|E-4 2F.7 ....|A-5 2F.7 ....|A-5 2F.7 ....
....|..|--- .... ....|--- .... ....|--- .... ....
....|..|E-3 2F.7 ....|E-6 2F.A ....|E-6 2F.A ....
....|..|--- .... ....|--- .... ....|--- .... ....
 E-4|..|E-4 2C.F ....|A-6 2F.F ....|A-6 2F.F ....
....|..|--- .... ....|--- .... ....|--- .... ....
....|..|R-- .... ....|R-- .... ....|R-- .... ....
....|..|--- .... ....|--- .... ....|--- .... ....
....|..|A-3 2F.7 ....|E-7 2F.F ....|E-7 2F.F ....
....|..|--- .... ....|--- .... ....|--- .... ....
....|..|E-4 2F.A ....|E-7 2F.F ....|E-7 2F.F ....
....|..|--- .... ....|--- .... ....|--- .... ....
....|..|R-- .... ....|R-- .... ....|R-- .... ....
....|..|--- .... ....|--- .... ....|--- .... ....
....|..|--- .... ....|E-7 2F.A ....|E-7 2F.A ....
....|..|--- .... ....|--- .... ....|--- .... ....
....|..|E-4 2F.7 ....|A-6 2F.7 ....|A-6 2F.7 ....
....|..|--- .... ....|--- .... ....|--- .... ....
....|..|--- .... ....|--- .... ....|--- .... ....
....|..|--- .... ....|--- .... ....|--- .... ....
....|..|--- .... ....|E-7 2F.F ....|E-7 2F.F ....
....|..|--- .... ....|--- .... ....|--- .... ....
....|..|--- .... ....|E-4 2F.F ....|E-4 2F.F ....
....|..|--- .... ....|--- .... ....|--- .... ....
 E-4|..|E-4 2C.F ....|--- .... ....|--- .... ....
....|..|--- .... ....|--- .... ....|--- .... ....
....|..|--- .... ....|E-7 2F.A ....|E-7 2F.A ....
....|..|--- .... ....|--- .... ....|--- .... ....

[Pattern73]
 E-4|..|E-4 2C.F ....|E-4 2F1F ....|A-4 2F.F ....
....|..|--- .... ....|--- .... ....|--- .... ....
 E-4|..|E-4 2C.F ....|--- .... ....|--- .... ....
....|..|--- .... ....|--- .... ....|--- .... ....
 E-4|..|E-3 2C.F ....|E-4 2F.F ....|E-4 2F.F ....
....|..|--- .... ....|--- .... ....|--- .... ....
....|..|E-4 2F.A ....|E-4 2F.7 ....|E-4 2F.7 ....
....|..|--- .... ....|--- .... ....|--- .... ....
 E-4|..|E-4 2C.F ....|E-5 2F.F ....|E-5 2F.F ....
....|..|--- .... ....|--- .... ....|--- .... ....
....|..|E-3 2F.A ....|E-4 2F.A ....|E-4 2F.A ....
....|..|--- .... ....|--- .... ....|--- .... ....
....|..|E-4 2F.7 ....|E-4 2F17 ....|A-4 2F.7 ....
....|..|--- .... ....|--- .... ....|--- .... ....
 E-4|..|E-4 2C.F ....|E-5 2F.A ....|E-5 2F.A ....
....|..|--- .... ....|--- .... ....|--- .... ....
 E-4|..|E-4 2C.F ....|E-4 2F.7 ....|E-4 2F.7 ....
....|..|--- .... ....|--- .... ....|--- .... ....
 E-4|..|E-4 2C.F ....|--- .... ....|--- .... ....
....|..|--- .... ....|--- .... ....|--- .... ....
 E-4|..|E-4 2C.F ....|E-5 2F.7 ....|E-5 2F.7 ....
....|..|--- .... ....|--- .... ....|--- .... ....
 E-4|..|E-4 2C.F ....|E-4 2F1F ....|A-5 2F.F ....
....|..|--- .... ....|--- .... ....|--- .... ....
 E-4|..|E-4 2C.F ....|A-5 2F.F ....|A-5 2F.F ....
....|..|--- .... ....|--- .... ....|--- .... ....
 E-4|..|E-3 2C.F ....|--- .... ....|--- .... ....
....|..|--- .... ....|--- .... ....|--- .... ....
....|..|E-4 2F.7 ....|E-4 2F1A ....|A-5 2F.A ....
....|..|--- .... ....|--- .... ....|--- .... ....
....|..|E-4 2F.7 ....|A-5 2F.A ....|A-5 2F.A ....
....|..|--- .... ....|--- .... ....|--- .... ....
 A-3|..|A-3 2C.F ....|E-6 2F.F ....|E-6 2F.F ....
....|..|--- .... ....|--- .... ....|--- .... ....
....|..|E-4 2F.7 ....|E-6 2F.F ....|E-6 2F.F ....
....|..|--- .... ....|--- .... ....|--- .... ....
....|..|E-4 2F.7 ....|A-5 2F.7 ....|A-5 2F.7 ....
....|..|--- .... ....|--- .... ....|--- .... ....
....|..|E-3 2F.7 ....|E-6 2F.A ....|E-6 2F.A ....
....|..|--- .... ....|--- .... ....|--- .... ....
 E-4|..|E-4 2C.F ....|A-6 2F.F ....|A-6 2F.F ....
....|..|--- .... ....|--- .... ....|--- .... ....
....|..|R-- .... ....|R-- .... ....|R-- .... ....
....|..|--- .... ....|--- .... ....|--- .... ....
....|..|A-3 2F.7 ....|A-6 2F.F ....|A-6 2F.F ....
....|..|--- .... ....|--- .... ....|--- .... ....
....|..|E-4 2F.A ....|E-4 2F.F ....|E-4 2F.F ....
....|..|--- .... ....|--- .... ....|--- .... ....
....|..|R-- .... ....|R-- .... ....|R-- .... ....
....|..|--- .... ....|--- .... ....|--- .... ....
....|..|--- .... ....|A-6 2F.A ....|A-6 2F.A ....
....|..|--- .... ....|--- .... ....|--- .... ....
....|..|E-4 2F.7 ....|A-6 2F.7 ....|A-6 2F.7 ....
....|..|--- .... ....|--- .... ....|--- .... ....
....|..|--- .... ....|--- .... ....|--- .... ....
....|..|--- .... ....|--- .... ....|--- .... ....
....|..|--- .... ....|E-7 2F.F ....|E-7 2F.F ....
....|..|--- .... ....|--- .... ....|--- .... ....
....|..|--- .... ....|E-7 2F.F ....|E-7 2F.F ....
....|..|--- .... ....|--- .... ....|--- .... ....
 E-4|..|E-4 2C.F ....|--- .... ....|--- .... ....
....|..|--- .... ....|--- .... ....|--- .... ....
....|..|--- .... ....|E-7 2F.A ....|E-7 2F.A ....
....|..|--- .... ....|--- .... ....|--- .... ....

[Pattern74]
 E-4|..|E-4 2C.F ....|E-7 2F.F ....|E-7 2F.F ....
....|..|--- .... ....|--- .... ....|--- .... ....
 E-4|..|E-4 2C.F ....|--- .... ....|--- .... ....
....|..|--- .... ....|--- .... ....|--- .... ....
 E-4|..|E-3 2C.F ....|E-7 2F.F ....|E-7 2F.F ....
....|..|--- .... ....|--- .... ....|--- .... ....
....|..|E-4 2F.A ....|E-7 2F.7 ....|E-7 2F.7 ....
....|..|--- .... ....|--- .... ....|--- .... ....
 E-4|..|E-4 2C.F ....|E-5 2F.F ....|E-5 2F.F ....
....|..|--- .... ....|--- .... ....|--- .... ....
....|..|E-3 2F.A ....|E-7 2F.A ....|E-7 2F.A ....
....|..|--- .... ....|--- .... ....|--- .... ....
....|..|E-4 2F.7 ....|E-7 2F.7 ....|E-7 2F.7 ....
....|..|--- .... ....|--- .... ....|--- .... ....
 E-4|..|E-4 2C.F ....|E-5 2F.A ....|E-5 2F.A ....
....|..|--- .... ....|--- .... ....|--- .... ....
 A-3|..|A-4 2C.F ....|E-7 2F.7 ....|E-7 2F.7 ....
....|..|--- .... ....|--- .... ....|--- .... ....
 A-3|..|A-4 2C.F ....|--- .... ....|--- .... ....
....|..|--- .... ....|--- .... ....|--- .... ....
 A-3|..|A-4 2C.F ....|E-5 2F.7 ....|E-5 2F.7 ....
....|..|--- .... ....|--- .... ....|--- .... ....
 E-4|..|E-4 2C.F ....|E-4 2F1F ....|A-5 2F.F ....
....|..|--- .... ....|--- .... ....|--- .... ....
 E-4|..|E-4 2C.F ....|A-5 2F.F ....|A-5 2F.F ....
....|..|--- .... ....|--- .... ....|--- .... ....
 E-4|..|E-3 2C.F ....|--- .... ....|--- .... ....
....|..|--- .... ....|--- .... ....|--- .... ....
....|..|A-4 2F.7 ....|E-4 2F1A ....|A-5 2F.A ....
....|..|--- .... ....|--- .... ....|--- .... ....
....|..|A-4 2F.7 ....|A-5 2F.A ....|A-5 2F.A ....
....|..|--- .... ....|--- .... ....|--- .... ....
 A-3|..|A-3 2C.F ....|E-6 2F.F ....|E-6 2F.F ....
....|..|--- .... ....|--- .... ....|--- .... ....
....|..|E-4 2F.7 ....|E-6 2F.F ....|E-6 2F.F ....
....|..|--- .... ....|--- .... ....|--- .... ....
....|..|E-4 2F.7 ....|A-5 2F.7 ....|A-5 2F.7 ....
....|..|--- .... ....|--- .... ....|--- .... ....
....|..|E-3 2F.7 ....|E-6 2F.A ....|E-6 2F.A ....
....|..|--- .... ....|--- .... ....|--- .... ....
 E-4|..|E-4 2C.F ....|A-6 2F.F ....|A-6 2F.F ....
....|..|--- .... ....|--- .... ....|--- .... ....
....|..|R-- .... ....|R-- .... ....|R-- .... ....
....|..|--- .... ....|--- .... ....|--- .... ....
....|..|A-3 2F.7 ....|A-6 2F.F ....|A-6 2F.F ....
....|..|--- .... ....|--- .... ....|--- .... ....
....|..|E-4 2F.A ....|E-4 2F.F ....|E-4 2F.F ....
....|..|--- .... ....|--- .... ....|--- .... ....
....|..|R-- .... ....|R-- .... ....|R-- .... ....
....|..|--- .... ....|--- .... ....|--- .... ....
....|..|--- .... ....|A-6 2F.A ....|A-6 2F.A ....
....|..|--- .... ....|--- .... ....|--- .... ....
....|..|E-4 2F.7 ....|A-6 2F.7 ....|A-6 2F.7 ....
....|..|--- .... ....|--- .... ....|--- .... ....
....|..|--- .... ....|--- .... ....|--- .... ....
....|..|--- .... ....|--- .... ....|--- .... ....
....|..|--- .... ....|E-7 2F.F ....|E-7 2F.F ....
....|..|--- .... ....|--- .... ....|--- .... ....
....|..|--- .... ....|E-7 2F.F ....|E-7 2F.F ....
....|..|--- .... ....|--- .... ....|--- .... ....
 E-4|..|E-4 2C.F ....|--- .... ....|--- .... ....
....|..|--- .... ....|--- .... ....|--- .... ....
....|..|--- .... ....|E-7 2F.A ....|E-7 2F.A ....
....|..|--- .... ....|--- .... ....|--- .... ....

[Pattern75]
 E-4|..|E-4 2C.F ....|E-7 2F.F ....|E-7 2F.F ....
....|..|--- .... ....|--- .... ....|--- .... ....
 E-4|..|E-4 2C.F ....|--- .... ....|--- .... ....
....|..|--- .... ....|--- .... ....|--- .... ....
 E-4|..|E-3 2C.F ....|E-7 2F.F ....|E-7 2F.F ....
....|..|--- .... ....|--- .... ....|--- .... ....
....|..|E-4 2F.A ....|E-7 2F.7 ....|E-7 2F.7 ....
....|..|--- .... ....|--- .... ....|--- .... ....
 E-4|..|E-4 2C.F ....|E-5 2F.F ....|E-5 2F.F ....
....|..|--- .... ....|--- .... ....|--- .... ....
....|..|E-3 2F.A ....|E-7 2F.A ....|E-7 2F.A ....
....|..|--- .... ....|--- .... ....|--- .... ....
....|..|E-4 2F.7 ....|E-7 2F.7 ....|E-7 2F.7 ....
....|..|--- .... ....|--- .... ....|--- .... ....
 A-3|..|A-4 2C.F ....|E-5 2F.A ....|E-5 2F.A ....
....|..|--- .... ....|--- .... ....|--- .... ....
 A-3|..|A-4 2C.F ....|E-7 2F.7 ....|E-7 2F.7 ....
....|..|--- .... ....|--- .... ....|--- .... ....
 E-4|..|E-4 2C.F ....|--- .... ....|--- .... ....
....|..|--- .... ....|--- .... ....|--- .... ....
 E-4|..|E-4 2C.F ....|E-5 2F.7 ....|E-5 2F.7 ....
....|..|--- .... ....|--- .... ....|--- .... ....
 E-4|..|E-4 2C.F ....|E-4 2F1F ....|A-5 2F.F ....
....|..|--- .... ....|--- .... ....|--- .... ....
 E-4|..|E-4 2C.F ....|A-5 2F.F ....|A-5 2F.F ....
....|..|--- .... ....|--- .... ....|--- .... ....
 E-4|..|E-3 2C.F ....|--- .... ....|--- .... ....
....|..|--- .... ....|--- .... ....|--- .... ....
....|..|A-4 2F.7 ....|E-4 2F1A ....|A-5 2F.A ....
....|..|--- .... ....|--- .... ....|--- .... ....
....|..|E-4 2F.7 ....|A-5 2F.A ....|A-5 2F.A ....
....|..|--- .... ....|--- .... ....|--- .... ....
 A-3|..|A-3 2C.F ....|E-6 2F.F ....|E-6 2F.F ....
....|..|--- .... ....|--- .... ....|--- .... ....
....|..|E-4 2F.7 ....|E-6 2F.F ....|E-6 2F.F ....
....|..|--- .... ....|--- .... ....|--- .... ....
....|..|E-4 2F.7 ....|A-5 2F.7 ....|A-5 2F.7 ....
....|..|--- .... ....|--- .... ....|--- .... ....
....|..|E-3 2F.7 ....|E-6 2F.A ....|E-6 2F.A ....
....|..|--- .... ....|--- .... ....|--- .... ....
 E-4|..|E-4 2C.F ....|A-6 2F.F ....|A-6 2F.F ....
....|..|--- .... ....|--- .... ....|--- .... ....
....|..|R-- .... ....|R-- .... ....|R-- .... ....
....|..|--- .... ....|--- .... ....|--- .... ....
....|..|A-3 2F.7 ....|E-7 2F.F ....|E-7 2F.F ....
....|..|--- .... ....|--- .... ....|--- .... ....
....|..|E-4 2F.A ....|E-7 2F.F ....|E-7 2F.F ....
....|..|--- .... ....|--- .... ....|--- .... ....
....|..|R-- .... ....|R-- .... ....|R-- .... ....
....|..|--- .... ....|--- .... ....|--- .... ....
....|..|--- .... ....|E-7 2F.A ....|E-7 2F.A ....
....|..|--- .... ....|--- .... ....|--- .... ....
....|..|E-4 2F.7 ....|A-6 2F.7 ....|A-6 2F.7 ....
....|..|--- .... ....|--- .... ....|--- .... ....
....|..|--- .... ....|--- .... ....|--- .... ....
....|..|--- .... ....|--- .... ....|--- .... ....
....|..|--- .... ....|E-7 2F.F ....|E-7 2F.F ....
....|..|--- .... ....|--- .... ....|--- .... ....
....|..|--- .... ....|A-4 2F.F ....|A-4 2F.F ....
....|..|--- .... ....|--- .... ....|--- .... ....
 E-4|..|E-5 2C.F ....|--- .... ....|--- .... ....
....|..|--- .... ....|--- .... ....|--- .... ....
....|..|--- .... ....|E-7 2F.A ....|E-7 2F.A ....
....|..|--- .... ....|--- .... ....|--- .... ....

[Pattern76]
 E-4|..|E-5 2C.F ....|A-4 2F.F ....|A-4 2F.F ....
....|..|--- .... ....|--- .... ....|--- .... ....
 E-4|..|E-5 2C.F ....|--- .... ....|--- .... ....
....|..|--- .... ....|--- .... ....|--- .... ....
 E-4|..|E-5 2C.F ....|A-4 2F.F ....|A-4 2F.F ....
....|..|--- .... ....|--- .... ....|--- .... ....
....|..|E-5 2F.A ....|A-4 2F.7 ....|A-4 2F.7 ....
....|..|--- .... ....|--- .... ....|--- .... ....
 E-4|..|E-5 2C.F ....|E-5 2F.F ....|E-5 2F.F ....
....|..|--- .... ....|--- .... ....|--- .... ....
....|..|E-5 2F.A ....|A-4 2F.A ....|A-4 2F.A ....
....|..|--- .... ....|--- .... ....|--- .... ....
....|..|E-5 2F.7 ....|A-4 2F.7 ....|A-4 2F.7 ....
....|..|--- .... ....|--- .... ....|--- .... ....
 E-4|..|E-5 2C.F ....|E-5 2F.A ....|E-5 2F.A ....
....|..|--- .... ....|--- .... ....|--- .... ....
 E-4|..|E-5 2C.F ....|A-4 2F.7 ....|A-4 2F.7 ....
....|..|--- .... ....|--- .... ....|--- .... ....
 E-4|..|E-5 2C.F ....|--- .... ....|--- .... ....
....|..|--- .... ....|--- .... ....|--- .... ....
 A-3|..|A-4 2C.F ....|E-5 2F.7 ....|E-5 2F.7 ....
....|..|--- .... ....|--- .... ....|--- .... ....
 E-4|..|E-4 2C.F ....|E-4 2F1F ....|A-5 2F.F ....
....|..|--- .... ....|--- .... ....|--- .... ....
 E-4|..|E-4 2C.F ....|A-5 2F.F ....|A-5 2F.F ....
....|..|--- .... ....|--- .... ....|--- .... ....
 E-4|..|E-3 2C.F ....|--- .... ....|--- .... ....
....|..|--- .... ....|--- .... ....|--- .... ....
....|..|E-5 2F.7 ....|E-4 2F1A ....|A-5 2F.A ....
....|..|--- .... ....|--- .... ....|--- .... ....
....|..|E-5 2F.7 ....|A-5 2F.A ....|A-5 2F.A ....
....|..|--- .... ....|--- .... ....|--- .... ....
 A-3|..|A-3 2C.F ....|A-5 2F.F ....|A-5 2F.F ....
....|..|--- .... ....|--- .... ....|--- .... ....
....|..|E-4 2F.7 ....|E-4 2F.F ....|E-4 2F.F ....
....|..|--- .... ....|--- .... ....|--- .... ....
....|..|E-4 2F.7 ....|A-5 2F.7 ....|A-5 2F.7 ....
....|..|--- .... ....|--- .... ....|--- .... ....
....|..|E-3 2F.7 ....|A-5 2F.A ....|A-5 2F.A ....
....|..|--- .... ....|--- .... ....|--- .... ....
 E-4|..|E-4 2C.F ....|E-6 2F.F ....|E-6 2F.F ....
....|..|--- .... ....|--- .... ....|--- .... ....
....|..|R-- .... ....|R-- .... ....|R-- .... ....
....|..|--- .... ....|--- .... ....|--- .... ....
....|..|A-3 2F.7 ....|E-5 2F1F ....|A-6 2F.F ....
....|..|--- .... ....|--- .... ....|--- .... ....
....|..|E-4 2F.A ....|A-6 2F.F ....|A-6 2F.F ....
....|..|--- .... ....|--- .... ....|--- .... ....
....|..|R-- .... ....|R-- .... ....|R-- .... ....
....|..|--- .... ....|--- .... ....|--- .... ....
....|..|--- .... ....|E-5 2F1A ....|A-6 2F.A ....
....|..|--- .... ....|--- .... ....|--- .... ....
....|..|E-4 2F.7 ....|E-6 2F.7 ....|E-6 2F.7 ....
....|..|--- .... ....|--- .... ....|--- .... ....
....|..|--- .... ....|--- .... ....|--- .... ....
....|..|--- .... ....|--- .... ....|--- .... ....
....|..|--- .... ....|E-7 2F.F ....|E-7 2F.F ....
....|..|--- .... ....|--- .... ....|--- .... ....
....|..|--- .... ....|E-7 2F.F ....|E-7 2F.F ....
....|..|--- .... ....|--- .... ....|--- .... ....
 E-4|..|E-4 2C.F ....|--- .... ....|--- .... ....
....|..|--- .... ....|--- .... ....|--- .... ....
....|..|--- .... ....|E-7 2F.A ....|E-7 2F.A ....
....|..|--- .... ....|--- .... ....|--- .... ....

[Pattern77]
 E-4|..|E-4 2C.F ....|E-7 2F.F ....|E-7 2F.F ....
....|..|--- .... ....|--- .... ....|--- .... ....
 E-4|..|E-4 2C.F ....|E-7 2F.F ....|E-7 2F.F ....
....|..|--- .... ....|--- .... ....|--- .... ....
 E-4|..|E-3 2C.F ....|E-7 2F.7 ....|E-7 2F.7 ....
....|..|--- .... ....|--- .... ....|--- .... ....
....|..|E-4 2F.A ....|E-7 2F.7 ....|E-7 2F.7 ....
....|..|--- .... ....|--- .... ....|--- .... ....
 E-4|..|E-4 2C.F ....|E-4 2F.F ....|E-4 2F.F ....
....|..|--- .... ....|--- .... ....|--- .... ....
....|..|E-3 2F.A ....|--- .... ....|--- .... ....
....|..|--- .... ....|--- .... ....|--- .... ....
....|..|E-4 2F.7 ....|E-7 2F.7 ....|E-7 2F.7 ....
....|..|--- .... ....|--- .... ....|--- .... ....
 E-4|..|E-4 2C.F ....|E-7 2F.7 ....|E-7 2F.7 ....
....|..|--- .... ....|--- .... ....|--- .... ....
 E-4|..|E-4 2C.F ....|--- .... ....|--- .... ....
....|..|--- .... ....|--- .... ....|--- .... ....
 E-4|..|E-4 2C.F ....|--- .... ....|--- .... ....
....|..|--- .... ....|--- .... ....|--- .... ....
 E-4|..|E-4 2C.F ....|E-4 2F.7 ....|E-4 2F.7 ....
....|..|--- .... ....|--- .... ....|--- .... ....
 E-4|..|E-4 2C.F ....|E-5 2F.F ....|E-5 2F.F ....
....|..|--- .... ....|--- .... ....|--- .... ....
 E-4|..|E-4 2C.F ....|E-5 2F.F ....|E-5 2F.F ....
....|..|--- .... ....|--- .... ....|--- .... ....
 E-4|..|E-3 2C.F ....|--- .... ....|--- .... ....
....|..|--- .... ....|--- .... ....|--- .... ....
....|..|E-4 2F.7 ....|E-5 2F.A ....|E-5 2F.A ....
....|..|--- .... ....|--- .... ....|--- .... ....
....|..|E-4 2F.7 ....|E-5 2F.A ....|E-5 2F.A ....
....|..|--- .... ....|--- .... ....|--- .... ....
 A-3|..|A-4 2C.F ....|E-4 2F1F ....|A-5 2F.F ....
....|..|--- .... ....|--- .... ....|--- .... ....
....|..|E-4 2F.7 ....|A-5 2F.F ....|A-5 2F.F ....
....|..|--- .... ....|--- .... ....|--- .... ....
....|..|E-4 2F.7 ....|E-5 2F.7 ....|E-5 2F.7 ....
....|..|--- .... ....|--- .... ....|--- .... ....
....|..|E-3 2F.7 ....|E-4 2F1A ....|A-5 2F.A ....
....|..|--- .... ....|--- .... ....|--- .... ....
 E-4|..|E-4 2C.F ....|E-6 2F.F ....|E-6 2F.F ....
....|..|--- .... ....|--- .... ....|--- .... ....
....|..|R-- .... ....|R-- .... ....|R-- .... ....
....|..|--- .... ....|--- .... ....|--- .... ....
....|..|A-4 2F.7 ....|E-5 2F1F ....|A-6 2F.F ....
....|..|--- .... ....|--- .... ....|--- .... ....
....|..|E-4 2F.A ....|A-6 2F.F ....|A-6 2F.F ....
....|..|--- .... ....|--- .... ....|--- .... ....
....|..|R-- .... ....|R-- .... ....|R-- .... ....
....|..|--- .... ....|--- .... ....|--- .... ....
....|..|--- .... ....|E-5 2F1A ....|A-6 2F.A ....
....|..|--- .... ....|--- .... ....|--- .... ....
....|..|E-4 2F.7 ....|E-6 2F.7 ....|E-6 2F.7 ....
....|..|--- .... ....|--- .... ....|--- .... ....
....|..|--- .... ....|--- .... ....|--- .... ....
....|..|--- .... ....|--- .... ....|--- .... ....
....|..|--- .... ....|E-7 2F.F ....|E-7 2F.F ....
....|..|--- .... ....|--- .... ....|--- .... ....
....|..|--- .... ....|E-7 2F.F ....|E-7 2F.F ....
....|..|--- .... ....|--- .... ....|--- .... ....
 E-4|..|E-4 2C.F ....|--- .... ....|--- .... ....
....|..|--- .... ....|--- .... ....|--- .... ....
....|..|--- .... ....|E-7 2F.A ....|E-7 2F.A ....
....|..|--- .... ....|--- .... ....|--- .... ....

[Pattern78]
 E-4|..|E-4 2C.F ....|E-7 2F.F ....|E-7 2F.F ....
....|..|--- .... ....|--- .... ....|--- .... ....
 E-4|..|E-4 2C.F ....|--- .... ....|--- .... ....
....|..|--- .... ....|--- .... ....|--- .... ....
 E-4|..|E-3 2C.F ....|E-7 2F.F ....|E-7 2F.F ....
....|..|--- .... ....|--- .... ....|--- .... ....
....|..|E-4 2F.A ....|E-7 2F.7 ....|E-7 2F.7 ....
....|..|--- .... ....|--- .... ....|--- .... ....
 E-4|..|E-4 2C.F ....|E-5 2F.F ....|E-5 2F.F ....
....|..|--- .... ....|--- .... ....|--- .... ....
....|..|E-3 2F.A ....|E-7 2F.A ....|E-7 2F.A ....
....|..|--- .... ....|--- .... ....|--- .... ....
....|..|E-4 2F.7 ....|E-7 2F.7 ....|E-7 2F.7 ....
....|..|--- .... ....|--- .... ....|--- .... ....
 E-4|..|E-4 2C.F ....|E-5 2F.A ....|E-5 2F.A ....
....|..|--- .... ....|--- .... ....|--- .... ....
 E-4|..|E-4 2C.F ....|E-7 2F.7 ....|E-7 2F.7 ....
....|..|--- .... ....|--- .... ....|--- .... ....
 E-4|..|E-4 2C.F ....|--- .... ....|--- .... ....
....|..|--- .... ....|--- .... ....|--- .... ....
 E-4|..|E-4 2C.F ....|E-5 2F.7 ....|E-5 2F.7 ....
....|..|--- .... ....|--- .... ....|--- .... ....
 E-4|..|E-4 2C.F ....|E-4 2F1F ....|A-5 2F.F ....
....|..|--- .... ....|--- .... ....|--- .... ....
 E-4|..|E-4 2C.F ....|A-5 2F.F ....|A-5 2F.F ....
....|..|--- .... ....|--- .... ....|--- .... ....
 E-4|..|E-3 2C.F ....|--- .... ....|--- .... ....
....|..|--- .... ....|--- .... ....|--- .... ....
....|..|E-4 2F.7 ....|E-4 2F1A ....|A-5 2F.A ....
....|..|--- .... ....|--- .... ....|--- .... ....
....|..|E-4 2F.7 ....|A-5 2F.A ....|A-5 2F.A ....
....|..|--- .... ....|--- .... ....|--- .... ....
 A-3|..|A-3 2C.F ....|E-6 2F.F ....|E-6 2F.F ....
....|..|--- .... ....|--- .... ....|--- .... ....
....|..|E-4 2F.7 ....|E-6 2F.F ....|E-6 2F.F ....
....|..|--- .... ....|--- .... ....|--- .... ....
....|..|E-4 2F.7 ....|A-5 2F.7 ....|A-5 2F.7 ....
....|..|--- .... ....|--- .... ....|--- .... ....
....|..|E-3 2F.7 ....|E-6 2F.A ....|E-6 2F.A ....
....|..|--- .... ....|--- .... ....|--- .... ....
 E-4|..|E-4 2C.F ....|A-6 2F.F ....|A-6 2F.F ....
....|..|--- .... ....|--- .... ....|--- .... ....
....|..|R-- .... ....|R-- .... ....|R-- .... ....
....|..|--- .... ....|--- .... ....|--- .... ....
....|..|A-3 2F.7 ....|E-7 2F.F ....|E-7 2F.F ....
....|..|--- .... ....|--- .... ....|--- .... ....
....|..|E-4 2F.A ....|E-7 2F.F ....|E-7 2F.F ....
....|..|--- .... ....|--- .... ....|--- .... ....
....|..|R-- .... ....|R-- .... ....|R-- .... ....
....|..|--- .... ....|--- .... ....|--- .... ....
....|..|--- .... ....|E-7 2F.A ....|E-7 2F.A ....
....|..|--- .... ....|--- .... ....|--- .... ....
....|..|E-4 2F.7 ....|A-6 2F.7 ....|A-6 2F.7 ....
....|..|--- .... ....|--- .... ....|--- .... ....
....|..|--- .... ....|--- .... ....|--- .... ....
....|..|--- .... ....|--- .... ....|--- .... ....
....|..|--- .... ....|E-7 2F.F ....|E-7 2F.F ....
....|..|--- .... ....|--- .... ....|--- .... ....
....|..|--- .... ....|A-4 2F.F ....|A-4 2F.F ....
....|..|--- .... ....|--- .... ....|--- .... ....
 E-4|..|E-4 2C.F ....|--- .... ....|--- .... ....
....|..|--- .... ....|--- .... ....|--- .... ....
....|..|--- .... ....|E-7 2F.A ....|E-7 2F.A ....
....|..|--- .... ....|--- .... ....|--- .... ....

[Pattern79]
....|..|--- .... ....|A-4 2F.A ....|A-4 2F.A ....
....|..|--- .... ....|--- .... ....|--- .... ....
 E-4|..|E-3 2C.F ....|--- .... ....|--- .... ....
....|..|--- .... ....|--- .... ....|--- .... ....
....|..|--- .... ....|E-7 2F.7 ....|E-7 2F.7 ....
....|..|--- .... ....|--- .... ....|--- .... ....
....|..|--- .... ....|A-4 2F.7 ....|A-4 2F.7 ....
....|..|--- .... ....|--- .... ....|--- .... ....
....|..|E-4 2F.7 ....|R-- .... ....|R-- .... ....
....|..|--- .... ....|--- .... ....|--- .... ....
....|..|--- .... ....|--- .... ....|--- .... ....
....|..|--- .... ....|--- .... ....|--- .... ....
....|..|--- .... ....|--- .... ....|--- .... ....
....|..|--- .... ....|--- .... ....|--- .... ....
....|..|E-3 2F.7 ....|R-- .... ....|R-- .... ....
....|..|--- .... ....|--- .... ....|--- .... ....
....|..|--- .... ....|--- .... ....|--- .... ....
....|..|--- .... ....|--- .... ....|--- .... ....
....|..|--- .... ....|--- .... ....|--- .... ....
....|..|--- .... ....|--- .... ....|--- .... ....
....|..|R-- .... ....|R-- .... ....|R-- .... ....
....|..|--- .... ....|--- .... ....|--- .... ....
....|..|--- .... ....|--- .... ....|--- .... ....
....|..|--- .... ....|--- .... ....|--- .... ....
....|..|--- .... ....|--- .... ....|--- .... ....
....|..|--- .... ....|--- .... ....|--- .... ....
....|..|R-- .... ....|--- .... ....|--- .... ....
....|..|--- .... ....|--- .... ....|--- .... ....
....|..|--- .... ....|--- .... ....|--- .... ....
....|..|--- .... ....|--- .... ....|--- .... ....
....|..|--- .... ....|--- .... ....|--- .... ....
....|..|--- .... ....|--- .... ....|--- .... ....
....|..|R-- .... ....|--- .... ....|--- .... ....
....|..|--- .... ....|--- .... ....|--- .... ....
....|..|--- .... ....|--- .... ....|--- .... ....
....|..|--- .... ....|--- .... ....|--- .... ....
....|..|--- .... ....|--- .... ....|--- .... ....
....|..|--- .... ....|--- .... ....|--- .... ....
....|..|--- .... ....|--- .... ....|--- .... ....
....|..|--- .... ....|--- .... ....|--- .... ....
....|..|--- .... ....|--- .... ....|--- .... ....
....|..|--- .... ....|--- .... ....|--- .... ....
....|..|--- .... ....|--- .... ....|--- .... ....
....|..|--- .... ....|--- .... ....|--- .... ....
....|..|--- .... ....|--- .... ....|--- .... ....
....|..|--- .... ....|--- .... ....|--- .... ....
....|..|--- .... ....|--- .... ....|--- .... ....
....|..|--- .... ....|--- .... ....|--- .... ....
....|..|--- .... ....|--- .... ....|--- .... ....
....|..|--- .... ....|--- .... ....|--- .... ....
....|..|--- .... ....|--- .... ....|--- .... ....
....|..|--- .... ....|--- .... ....|--- .... ....
....|..|--- .... ....|--- .... ....|--- .... ....
....|..|--- .... ....|--- .... ....|--- .... ....
....|..|--- .... ....|--- .... ....|--- .... ....
....|..|--- .... ....|--- .... ....|--- .... ....
....|..|--- .... ....|--- .... ....|--- .... ....
....|..|--- .... ....|--- .... ....|--- .... ....
....|..|--- .... ....|--- .... ....|--- .... ....
....|..|--- .... ....|--- .... ....|--- .... ....
....|..|--- .... ....|--- .... ....|--- .... ....
....|..|--- .... ....|--- .... ....|--- .... ....
....|..|--- .... ....|--- .... ....|--- .... ....
....|..|--- .... ....|--- .... ....|--- .... ....

[Pattern80]
....|..|--- .... ....|--- .... ....|--- .... ....
....|..|--- .... ....|--- .... ....|--- .... ....
....|..|--- .... ....|--- .... ....|--- .... ....
....|..|--- .... ....|--- .... ....|--- .... ....
....|..|--- .... ....|--- .... ....|--- .... ....
....|..|--- .... ....|--- .... ....|--- .... ....
....|..|--- .... ....|--- .... ....|--- .... ....
....|..|--- .... ....|--- .... ....|--- .... ....
....|..|--- .... ....|--- .... ....|--- .... ....
....|..|--- .... ....|--- .... ....|--- .... ....
....|..|--- .... ....|--- .... ....|--- .... ....
....|..|--- .... ....|--- .... ....|--- .... ....
....|..|--- .... ....|--- .... ....|--- .... ....
....|..|--- .... ....|--- .... ....|--- .... ....
....|..|--- .... ....|--- .... ....|--- .... ....
....|..|--- .... ....|--- .... ....|--- .... ....
....|..|--- .... ....|--- .... ....|--- .... ....
....|..|--- .... ....|--- .... ....|--- .... ....
....|..|--- .... ....|--- .... ....|--- .... ....
....|..|--- .... ....|--- .... ....|--- .... ....
....|..|--- .... ....|--- .... ....|--- .... ....
....|..|--- .... ....|--- .... ....|--- .... ....
....|..|--- .... ....|--- .... ....|--- .... ....
....|..|--- .... ....|--- .... ....|--- .... ....
....|..|--- .... ....|--- .... ....|--- .... ....
....|..|--- .... ....|--- .... ....|--- .... ....
....|..|--- .... ....|--- .... ....|--- .... ....
....|..|--- .... ....|--- .... ....|--- .... ....
....|..|--- .... ....|--- .... ....|--- .... ....
....|..|--- .... ....|--- .... ....|--- .... ....
....|..|--- .... ....|--- .... ....|--- .... ....
....|..|--- .... ....|--- .... ....|--- .... ....
....|..|--- .... ....|--- .... ....|--- .... ....
....|..|--- .... ....|--- .... ....|--- .... ....
....|..|--- .... ....|--- .... ....|--- .... ....
....|..|--- .... ....|--- .... ....|--- .... ....
....|..|--- .... ....|--- .... ....|--- .... ....
....|..|--- .... ....|--- .... ....|--- .... ....
....|..|--- .... ....|--- .... ....|--- .... ....
....|..|--- .... ....|--- .... ....|--- .... ....
....|..|--- .... ....|--- .... ....|--- .... ....
....|..|--- .... ....|--- .... ....|--- .... ....
....|..|--- .... ....|--- .... ....|--- .... ....
....|..|--- .... ....|--- .... ....|--- .... ....
....|..|--- .... ....|--- .... ....|--- .... ....
....|..|--- .... ....|--- .... ....|--- .... ....
....|..|--- .... ....|--- .... ....|--- .... ....
....|..|--- .... ....|--- .... ....|--- .... ....
....|..|--- .... ....|--- .... ....|--- .... ....
....|..|--- .... ....|--- .... ....|--- .... ....
....|..|--- .... ....|--- .... ....|--- .... ....
....|..|--- .... ....|--- .... ....|--- .... ....
....|..|--- .... ....|--- .... ....|--- .... ....
....|..|--- .... ....|--- .... ....|--- .... ....
....|..|--- .... ....|--- .... ....|--- .... ....
....|..|--- .... ....|--- .... ....|--- .... ....
....|..|--- .... ....|--- .... ....|--- .... ....
....|..|--- .... ....|--- .... ....|--- .... ....
....|..|--- .... ....|--- .... ....|--- .... ....
....|..|--- .... ....|--- .... ....|--- .... ....
....|..|--- .... ....|--- .... ....|--- .... ....
....|..|--- .... ....|--- .... ....|--- .... ....
....|..|--- .... ....|--- .... ....|--- .... ....
....|..|--- .... ....|--- .... ....|--- .... ....

[Pattern87]
 E-4|..|E-4 2C.F ....|A-4 2F.F ....|A-4 2F.F ....
....|..|--- .... ....|--- .... ....|--- .... ....
....|..|--- .... ....|--- .... ....|--- .... ....
....|..|--- .... ....|--- .... ....|--- .... ....
....|..|R-- .... ....|R-- .... ....|R-- .... ....
....|..|--- .... ....|--- .... ....|--- .... ....
....|..|E-4 2F.A ....|A-4 2F.A ....|A-4 2F.A ....
....|..|--- .... ....|--- .... ....|--- .... ....
 E-4|..|E-4 2C.F ....|--- .... ....|--- .... ....
....|..|--- .... ....|--- .... ....|--- .... ....
....|..|R-- .... ....|R-- .... ....|R-- .... ....
....|..|--- .... ....|--- .... ....|--- .... ....
....|..|E-4 2F.7 ....|E-5 2F.F ....|E-5 2F.F ....
....|..|--- .... ....|--- .... ....|--- .... ....
....|..|E-4 2F.A ....|--- .... ....|--- .... ....
....|..|--- .... ....|--- .... ....|--- .... ....
 E-4|..|E-4 2C.F ....|R-- .... ....|R-- .... ....
....|..|--- .... ....|--- .... ....|--- .... ....
....|..|--- .... ....|E-5 2F.A ....|E-5 2F.A ....
....|..|--- .... ....|--- .... ....|--- .... ....
 E-4|..|E-4 2C.F ....|--- .... ....|--- .... ....
....|..|--- .... ....|--- .... ....|--- .... ....
....|..|E-4 2F.A ....|--- .... ....|--- .... ....
....|..|--- .... ....|--- .... ....|--- .... ....
 E-4|..|E-4 2C.F ....|E-5 2F.7 ....|E-5 2F.7 ....
....|..|--- .... ....|--- .... ....|--- .... ....
 E-4|..|E-3 2C.F ....|--- .... ....|--- .... ....
....|..|--- .... ....|--- .... ....|--- .... ....
....|..|E-4 2F.7 ....|R-- .... ....|R-- .... ....
....|..|--- .... ....|--- .... ....|--- .... ....
....|..|E-4 2F.A ....|--- .... ....|--- .... ....
....|..|--- .... ....|--- .... ....|--- .... ....
 A-3|..|A-3 2C.F ....|A-4 2F.F ....|A-4 2F.F ....
....|..|--- .... ....|--- .... ....|--- .... ....
....|..|--- .... ....|R-- .... ....|R-- .... ....
....|..|--- .... ....|--- .... ....|--- .... ....
....|..|E-4 2F.7 ....|R-- .... ....|R-- .... ....
....|..|--- .... ....|--- .... ....|--- .... ....
....|..|E-3 2F.7 ....|A-4 2F.A ....|A-4 2F.A ....
....|..|--- .... ....|--- .... ....|--- .... ....
 E-4|..|E-4 2C.F ....|R-- .... ....|R-- .... ....
....|..|--- .... ....|--- .... ....|--- .... ....
....|..|R-- .... ....|R-- .... ....|R-- .... ....
....|..|--- .... ....|--- .... ....|--- .... ....
....|..|A-3 2F.7 ....|A-4 2F.7 ....|A-4 2F.7 ....
....|..|--- .... ....|--- .... ....|--- .... ....
....|..|E-4 2F.A ....|--- .... ....|--- .... ....
....|..|--- .... ....|--- .... ....|--- .... ....
....|..|R-- .... ....|R-- .... ....|R-- .... ....
....|..|--- .... ....|--- .... ....|--- .... ....
....|..|--- .... ....|--- .... ....|--- .... ....
....|..|--- .... ....|--- .... ....|--- .... ....
....|..|E-4 2F.7 ....|--- .... ....|--- .... ....
....|..|--- .... ....|--- .... ....|--- .... ....
....|..|--- .... ....|--- .... ....|--- .... ....
....|..|--- .... ....|--- .... ....|--- .... ....
....|..|--- .... ....|--- .... ....|--- .... ....
....|..|--- .... ....|--- .... ....|--- .... ....
....|..|R-- .... ....|--- .... ....|--- .... ....
....|..|--- .... ....|--- .... ....|--- .... ....
 E-4|..|E-3 2C.F ....|--- .... ....|--- .... ....
....|..|--- .... ....|--- .... ....|--- .... ....
....|..|--- .... ....|--- .... ....|--- .... ....
....|..|--- .... ....|--- .... ....|--- .... ....

[Pattern88]
 E-4|..|E-4 2C.F ....|A-4 2F.F ....|A-4 2F.F ....
....|..|--- .... ....|--- .... ....|--- .... ....
....|..|E-3 2F.A ....|--- .... ....|--- .... ....
....|..|--- .... ....|--- .... ....|--- .... ....
 E-4|..|E-3 2C.F ....|R-- .... ....|R-- .... ....
....|..|--- .... ....|--- .... ....|--- .... ....
....|..|E-4 2F.A ....|A-4 2F.A ....|A-4 2F.A ....
....|..|--- .... ....|--- .... ....|--- .... ....
 E-4|..|E-4 2C.F ....|E-5 2F.F ....|E-5 2F.F ....
....|..|--- .... ....|--- .... ....|--- .... ....
....|..|E-3 2F.A ....|R-- .... ....|R-- .... ....
....|..|--- .... ....|--- .... ....|--- .... ....
....|..|E-4 2F.7 ....|A-4 2F.7 ....|A-4 2F.7 ....
....|..|--- .... ....|--- .... ....|--- .... ....
 E-4|..|E-3 2C.F ....|E-5 2F.A ....|E-5 2F.A ....
....|..|--- .... ....|--- .... ....|--- .... ....
 A-3|..|A-4 2C.F ....|E-4 2F1F ....|A-5 2F.F ....
....|..|--- .... ....|--- .... ....|--- .... ....
 A-3|..|A-4 2C.F ....|A-5 2F.F ....|A-5 2F.F ....
....|..|--- .... ....|--- .... ....|--- .... ....
 E-4|..|E-4 2C.F ....|E-5 2F.7 ....|E-5 2F.7 ....
....|..|--- .... ....|--- .... ....|--- .... ....
....|..|A-4 2F.A ....|E-4 2F1A ....|A-5 2F.A ....
....|..|--- .... ....|--- .... ....|--- .... ....
 E-4|..|E-4 2C.F ....|A-5 2F.A ....|A-5 2F.A ....
....|..|--- .... ....|--- .... ....|--- .... ....
 E-4|..|E-3 2C.F ....|--- .... ....|--- .... ....
....|..|--- .... ....|--- .... ....|--- .... ....
....|..|A-4 2F.7 ....|E-4 2F17 ....|A-5 2F.7 ....
....|..|--- .... ....|--- .... ....|--- .... ....
....|..|A-4 2F.7 ....|E-6 2F.F ....|E-6 2F.F ....
....|..|--- .... ....|--- .... ....|--- .... ....
 A-3|..|A-3 2C.F ....|E-6 2F.F ....|E-6 2F.F ....
....|..|--- .... ....|--- .... ....|--- .... ....
....|..|--- .... ....|--- .... ....|--- .... ....
....|..|--- .... ....|--- .... ....|--- .... ....
....|..|E-4 2F.7 ....|E-6 2F.F ....|E-6 2F.F ....
....|..|--- .... ....|--- .... ....|--- .... ....
....|..|E-3 2F.7 ....|E-6 2F.A ....|E-6 2F.A ....
....|..|--- .... ....|--- .... ....|--- .... ....
 E-4|..|E-4 2C.F ....|E-6 2F.F ....|E-6 2F.F ....
....|..|--- .... ....|--- .... ....|--- .... ....
....|..|R-- .... ....|E-5 2F.F ....|E-5 2F.F ....
....|..|--- .... ....|--- .... ....|--- .... ....
....|..|A-3 2F.7 ....|E-4 2F1F ....|A-5 2F.F ....
....|..|--- .... ....|--- .... ....|--- .... ....
....|..|E-4 2F.A ....|A-5 2F.F ....|A-5 2F.F ....
....|..|--- .... ....|--- .... ....|--- .... ....
....|..|R-- .... ....|E-6 2F.7 ....|E-6 2F.7 ....
....|..|--- .... ....|--- .... ....|--- .... ....
....|..|--- .... ....|E-4 2F1A ....|A-5 2F.A ....
....|..|--- .... ....|--- .... ....|--- .... ....
....|..|E-4 2F.7 ....|E-6 2F.7 ....|E-6 2F.7 ....
....|..|--- .... ....|--- .... ....|--- .... ....
....|..|--- .... ....|E-5 2F.7 ....|E-5 2F.7 ....
....|..|--- .... ....|--- .... ....|--- .... ....
....|..|--- .... ....|E-4 2F17 ....|A-5 2F.7 ....
....|..|--- .... ....|--- .... ....|--- .... ....
....|..|R-- .... ....|A-5 2F.7 ....|A-5 2F.7 ....
....|..|--- .... ....|--- .... ....|--- .... ....
 E-4|..|E-3 2C.F ....|E-5 2F.F ....|E-5 2F.F ....
....|..|--- .... ....|--- .... ....|--- .... ....
....|..|--- .... ....|--- .... ....|--- .... ....
....|..|--- .... ....|--- .... ....|--- .... ....

[Pattern89]
 E-4|..|E-4 2C.F ....|E-5 2F.F ....|E-5 2F.F ....
....|..|--- .... ....|--- .... ....|--- .... ....
....|..|E-3 2F.A ....|E-5 2F.A ....|E-5 2F.A ....
....|..|--- .... ....|--- .... ....|--- .... ....
 E-4|..|E-3 2C.F ....|E-5 2F.F ....|E-5 2F.F ....
....|..|--- .... ....|--- .... ....|--- .... ....
....|..|E-4 2F.A ....|E-5 2F.A ....|E-5 2F.A ....
....|..|--- .... ....|--- .... ....|--- .... ....
 E-4|..|E-4 2C.F ....|E-5 2F.7 ....|E-5 2F.7 ....
....|..|--- .... ....|--- .... ....|--- .... ....
....|..|E-3 2F.A ....|E-5 2F.A ....|E-5 2F.A ....
....|..|--- .... ....|--- .... ....|--- .... ....
....|..|E-4 2F.7 ....|E-5 2F.F ....|E-5 2F.F ....
....|..|--- .... ....|--- .... ....|--- .... ....
 E-4|..|E-3 2C.F ....|--- .... ....|--- .... ....
....|..|--- .... ....|--- .... ....|--- .... ....
 A-3|..|A-4 2C.F ....|E-5 2F.F ....|E-5 2F.F ....
....|..|--- .... ....|--- .... ....|--- .... ....
 A-3|..|A-4 2C.F ....|E-5 2F.A ....|E-5 2F.A ....
....|..|--- .... ....|--- .... ....|--- .... ....
 E-4|..|E-4 2C.F ....|--- .... ....|--- .... ....
....|..|--- .... ....|--- .... ....|--- .... ....
....|..|A-4 2F.A ....|E-5 2F.A ....|E-5 2F.A ....
....|..|--- .... ....|--- .... ....|--- .... ....
 A-3|..|A-4 2C.F ....|E-5 2F.7 ....|E-5 2F.7 ....
....|..|--- .... ....|--- .... ....|--- .... ....
 A-3|..|A-4 2C.F ....|--- .... ....|--- .... ....
....|..|--- .... ....|--- .... ....|--- .... ....
....|..|A-4 2F.7 ....|E-4 2F.F ....|E-4 2F.F ....
....|..|--- .... ....|--- .... ....|--- .... ....
....|..|A-4 2F.7 ....|R-- .... ....|R-- .... ....
....|..|--- .... ....|--- .... ....|--- .... ....
 E-4|..|E-5 2C.F ....|E-4 2F.F ....|E-4 2F.F ....
....|..|--- .... ....|--- .... ....|--- .... ....
....|..|--- .... ....|E-4 2F.A ....|E-4 2F.A ....
....|..|--- .... ....|--- .... ....|--- .... ....
....|..|A-4 2F.7 ....|R-- .... ....|R-- .... ....
....|..|--- .... ....|--- .... ....|--- .... ....
....|..|A-4 2F.7 ....|E-4 2F.A ....|E-4 2F.A ....
....|..|--- .... ....|--- .... ....|--- .... ....
 E-4|..|E-4 2C.F ....|E-4 2F.7 ....|E-4 2F.7 ....
....|..|--- .... ....|--- .... ....|--- .... ....
....|..|R-- .... ....|R-- .... ....|R-- .... ....
....|..|--- .... ....|--- .... ....|--- .... ....
....|..|E-5 2F.7 ....|E-4 2F.7 ....|E-4 2F.7 ....
....|..|--- .... ....|--- .... ....|--- .... ....
....|..|E-4 2F.A ....|--- .... ....|--- .... ....
....|..|--- .... ....|--- .... ....|--- .... ....
....|..|R-- .... ....|R-- .... ....|R-- .... ....
....|..|--- .... ....|--- .... ....|--- .... ....
....|..|--- .... ....|--- .... ....|--- .... ....
....|..|--- .... ....|--- .... ....|--- .... ....
....|..|E-4 2F.7 ....|--- .... ....|--- .... ....
....|..|--- .... ....|--- .... ....|--- .... ....
....|..|--- .... ....|--- .... ....|--- .... ....
....|..|--- .... ....|--- .... ....|--- .... ....
....|..|--- .... ....|--- .... ....|--- .... ....
....|..|--- .... ....|--- .... ....|--- .... ....
....|..|R-- .... ....|--- .... ....|--- .... ....
....|..|--- .... ....|--- .... ....|--- .... ....
 E-4|..|E-3 2C.F ....|--- .... ....|--- .... ....
....|..|--- .... ....|--- .... ....|--- .... ....
....|..|--- .... ....|--- .... ....|--- .... ....
....|..|--- .... ....|--- .... ....|--- .... ....

[Pattern90]
 E-4|..|E-4 2C.F ....|A-4 2F.F ....|A-4 2F.F ....
....|..|--- .... ....|--- .... ....|--- .... ....
....|..|E-3 2F.A ....|--- .... ....|--- .... ....
....|..|--- .... ....|--- .... ....|--- .... ....
 E-4|..|E-3 2C.F ....|R-- .... ....|R-- .... ....
....|..|--- .... ....|--- .... ....|--- .... ....
....|..|E-4 2F.A ....|A-4 2F.A ....|A-4 2F.A ....
....|..|--- .... ....|--- .... ....|--- .... ....
 E-4|..|E-4 2C.F ....|E-4 2F.F ....|E-4 2F.F ....
....|..|--- .... ....|--- .... ....|--- .... ....
....|..|E-3 2F.A ....|R-- .... ....|R-- .... ....
....|..|--- .... ....|--- .... ....|--- .... ....
....|..|E-4 2F.7 ....|A-4 2F.7 ....|A-4 2F.7 ....
....|..|--- .... ....|--- .... ....|--- .... ....
 E-4|..|E-3 2C.F ....|E-4 2F.A ....|E-4 2F.A ....
....|..|--- .... ....|--- .... ....|--- .... ....
 E-4|..|E-4 2C.F ....|E-5 2F.F ....|E-5 2F.F ....
....|..|--- .... ....|--- .... ....|--- .... ....
 E-4|..|E-4 2C.F ....|E-5 2F.F ....|E-5 2F.F ....
....|..|--- .... ....|--- .... ....|--- .... ....
 A-3|..|A-4 2C.F ....|E-4 2F.7 ....|E-4 2F.7 ....
....|..|--- .... ....|--- .... ....|--- .... ....
....|..|E-4 2F.A ....|E-5 2F.A ....|E-5 2F.A ....
....|..|--- .... ....|--- .... ....|--- .... ....
 A-3|..|A-4 2C.F ....|E-5 2F.A ....|E-5 2F.A ....
....|..|--- .... ....|--- .... ....|--- .... ....
 E-4|..|E-3 2C.F ....|--- .... ....|--- .... ....
....|..|--- .... ....|--- .... ....|--- .... ....
....|..|E-4 2F.7 ....|E-5 2F.7 ....|E-5 2F.7 ....
....|..|--- .... ....|--- .... ....|--- .... ....
....|..|E-4 2F.7 ....|A-5 2F.F ....|A-5 2F.F ....
....|..|--- .... ....|--- .... ....|--- .... ....
 E-4|..|E-4 2C.F ....|A-5 2F.F ....|A-5 2F.F ....
....|..|--- .... ....|--- .... ....|--- .... ....
....|..|--- .... ....|--- .... ....|--- .... ....
....|..|--- .... ....|--- .... ....|--- .... ....
....|..|A-4 2F.7 ....|A-5 2F.F ....|A-5 2F.F ....
....|..|--- .... ....|--- .... ....|--- .... ....
....|..|E-3 2F.7 ....|A-5 2F.A ....|A-5 2F.A ....
....|..|--- .... ....|--- .... ....|--- .... ....
 E-4|..|E-4 2C.F ....|A-5 2F.F ....|A-5 2F.F ....
....|..|--- .... ....|--- .... ....|--- .... ....
....|..|R-- .... ....|A-4 2F.F ....|A-4 2F.F ....
....|..|--- .... ....|--- .... ....|--- .... ....
....|..|E-4 2F.7 ....|E-5 2F.F ....|E-5 2F.F ....
....|..|--- .... ....|--- .... ....|--- .... ....
....|..|E-4 2F.A ....|E-5 2F.F ....|E-5 2F.F ....
....|..|--- .... ....|--- .... ....|--- .... ....
....|..|R-- .... ....|A-5 2F.7 ....|A-5 2F.7 ....
....|..|--- .... ....|--- .... ....|--- .... ....
....|..|--- .... ....|E-5 2F.A ....|E-5 2F.A ....
....|..|--- .... ....|--- .... ....|--- .... ....
....|..|E-4 2F.7 ....|A-5 2F.7 ....|A-5 2F.7 ....
....|..|--- .... ....|--- .... ....|--- .... ....
....|..|--- .... ....|A-4 2F.7 ....|A-4 2F.7 ....
....|..|--- .... ....|--- .... ....|--- .... ....
....|..|--- .... ....|E-5 2F.7 ....|E-5 2F.7 ....
....|..|--- .... ....|--- .... ....|--- .... ....
....|..|R-- .... ....|E-5 2F.7 ....|E-5 2F.7 ....
....|..|--- .... ....|--- .... ....|--- .... ....
 E-4|..|E-3 2C.F ....|E-4 2F.F ....|E-4 2F.F ....
....|..|--- .... ....|--- .... ....|--- .... ....
....|..|--- .... ....|--- .... ....|--- .... ....
....|..|--- .... ....|--- .... ....|--- .... ....

[Pattern91]
 E-4|..|E-4 2C.F ....|E-4 2F1F ....|A-4 2F.F ....
....|..|--- .... ....|--- .... ....|--- .... ....
 E-4|..|E-3 2C.F ....|E-4 2F.A ....|E-4 2F.A ....
....|..|--- .... ....|--- .... ....|--- .... ....
....|..|--- .... ....|E-4 2F.F ....|E-4 2F.F ....
....|..|--- .... ....|--- .... ....|--- .... ....
....|..|E-4 2F.A ....|E-4 2F1A ....|A-4 2F.A ....
....|..|--- .... ....|--- .... ....|--- .... ....
 E-4|..|E-4 2C.F ....|E-4 2F.7 ....|E-4 2F.7 ....
....|..|--- .... ....|--- .... ....|--- .... ....
....|..|--- .... ....|E-4 2F.A ....|E-4 2F.A ....
....|..|--- .... ....|--- .... ....|--- .... ....
....|..|E-4 2F.7 ....|E-5 2F.F ....|E-5 2F.F ....
....|..|--- .... ....|--- .... ....|--- .... ....
 E-4|..|E-3 2C.F ....|--- .... ....|--- .... ....
....|..|--- .... ....|--- .... ....|--- .... ....
 A-3|..|A-4 2C.F ....|E-4 2F.7 ....|E-4 2F.7 ....
....|..|--- .... ....|--- .... ....|--- .... ....
 A-3|..|A-4 2C.F ....|E-5 2F.A ....|E-5 2F.A ....
....|..|--- .... ....|--- .... ....|--- .... ....
 E-4|..|E-4 2C.F ....|--- .... ....|--- .... ....
....|..|--- .... ....|--- .... ....|--- .... ....
....|..|A-4 2F.A ....|--- .... ....|--- .... ....
....|..|--- .... ....|--- .... ....|--- .... ....
 E-4|..|E-4 2C.F ....|E-5 2F.7 ....|E-5 2F.7 ....
....|..|--- .... ....|--- .... ....|--- .... ....
 E-4|..|E-3 2C.F ....|--- .... ....|--- .... ....
....|..|--- .... ....|--- .... ....|--- .... ....
....|..|A-4 2F.7 ....|R-- .... ....|R-- .... ....
....|..|--- .... ....|--- .... ....|--- .... ....
....|..|A-4 2F.7 ....|--- .... ....|--- .... ....
....|..|--- .... ....|--- .... ....|--- .... ....
 A-3|..|A-3 2C.F ....|A-4 2F.F ....|A-4 2F.F ....
....|..|--- .... ....|--- .... ....|--- .... ....
....|..|--- .... ....|R-- .... ....|R-- .... ....
....|..|--- .... ....|--- .... ....|--- .... ....
....|..|E-4 2F.7 ....|R-- .... ....|R-- .... ....
....|..|--- .... ....|--- .... ....|--- .... ....
....|..|E-3 2F.7 ....|A-4 2F.A ....|A-4 2F.A ....
....|..|--- .... ....|--- .... ....|--- .... ....
 E-4|..|E-4 2C.F ....|R-- .... ....|R-- .... ....
....|..|--- .... ....|--- .... ....|--- .... ....
....|..|R-- .... ....|R-- .... ....|R-- .... ....
....|..|--- .... ....|--- .... ....|--- .... ....
....|..|A-3 2F.7 ....|A-4 2F.7 ....|A-4 2F.7 ....
....|..|--- .... ....|--- .... ....|--- .... ....
....|..|E-4 2F.A ....|--- .... ....|--- .... ....
....|..|--- .... ....|--- .... ....|--- .... ....
....|..|R-- .... ....|R-- .... ....|R-- .... ....
....|..|--- .... ....|--- .... ....|--- .... ....
....|..|--- .... ....|--- .... ....|--- .... ....
....|..|--- .... ....|--- .... ....|--- .... ....
....|..|E-4 2F.7 ....|--- .... ....|--- .... ....
....|..|--- .... ....|--- .... ....|--- .... ....
....|..|--- .... ....|--- .... ....|--- .... ....
....|..|--- .... ....|--- .... ....|--- .... ....
....|..|--- .... ....|--- .... ....|--- .... ....
....|..|--- .... ....|--- .... ....|--- .... ....
....|..|R-- .... ....|--- .... ....|--- .... ....
....|..|--- .... ....|--- .... ....|--- .... ....
 E-4|..|E-3 2C.F ....|--- .... ....|--- .... ....
....|..|--- .... ....|--- .... ....|--- .... ....
....|..|--- .... ....|--- .... ....|--- .... ....
....|..|--- .... ....|--- .... ....|--- .... ....

[Pattern92]
 E-4|..|E-4 2C.F ....|A-4 2F.F ....|A-4 2F.F ....
....|..|--- .... ....|--- .... ....|--- .... ....
....|..|E-3 2F.A ....|--- .... ....|--- .... ....
....|..|--- .... ....|--- .... ....|--- .... ....
 E-4|..|E-3 2C.F ....|R-- .... ....|R-- .... ....
....|..|--- .... ....|--- .... ....|--- .... ....
....|..|E-4 2F.A ....|A-4 2F.A ....|A-4 2F.A ....
....|..|--- .... ....|--- .... ....|--- .... ....
 E-4|..|E-4 2C.F ....|E-4 2F.F ....|E-4 2F.F ....
....|..|--- .... ....|--- .... ....|--- .... ....
....|..|E-3 2F.A ....|R-- .... ....|R-- .... ....
....|..|--- .... ....|--- .... ....|--- .... ....
....|..|E-4 2F.7 ....|A-4 2F.7 ....|A-4 2F.7 ....
....|..|--- .... ....|--- .... ....|--- .... ....
 E-4|..|E-3 2C.F ....|E-4 2F.A ....|E-4 2F.A ....
....|..|--- .... ....|--- .... ....|--- .... ....
 A-3|..|A-4 2C.F ....|E-4 2F.F ....|E-4 2F.F ....
....|..|--- .... ....|--- .... ....|--- .... ....
 A-3|..|A-4 2C.F ....|E-4 2F.F ....|E-4 2F.F ....
....|..|--- .... ....|--- .... ....|--- .... ....
 E-4|..|E-4 2C.F ....|E-4 2F.7 ....|E-4 2F.7 ....
....|..|--- .... ....|--- .... ....|--- .... ....
....|..|A-4 2F.A ....|E-4 2F.A ....|E-4 2F.A ....
....|..|--- .... ....|--- .... ....|--- .... ....
 E-4|..|E-4 2C.F ....|E-4 2F.A ....|E-4 2F.A ....
....|..|--- .... ....|--- .... ....|--- .... ....
 E-4|..|E-3 2C.F ....|--- .... ....|--- .... ....
....|..|--- .... ....|--- .... ....|--- .... ....
....|..|A-4 2F.7 ....|E-4 2F.7 ....|E-4 2F.7 ....
....|..|--- .... ....|--- .... ....|--- .... ....
....|..|A-4 2F.7 ....|E-5 2F.F ....|E-5 2F.F ....
....|..|--- .... ....|--- .... ....|--- .... ....
 A-3|..|A-4 2C.F ....|E-5 2F.F ....|E-5 2F.F ....
....|..|--- .... ....|--- .... ....|--- .... ....
....|..|--- .... ....|--- .... ....|--- .... ....
....|..|--- .... ....|--- .... ....|--- .... ....
....|..|E-4 2F.7 ....|E-5 2F.F ....|E-5 2F.F ....
....|..|--- .... ....|--- .... ....|--- .... ....
....|..|E-3 2F.7 ....|E-5 2F.A ....|E-5 2F.A ....
....|..|--- .... ....|--- .... ....|--- .... ....
 E-4|..|E-4 2C.F ....|E-5 2F.F ....|E-5 2F.F ....
....|..|--- .... ....|--- .... ....|--- .... ....
....|..|R-- .... ....|E-5 2F.F ....|E-5 2F.F ....
....|..|--- .... ....|--- .... ....|--- .... ....
....|..|A-4 2F.7 ....|E-4 2F1F ....|A-5 2F.F ....
....|..|--- .... ....|--- .... ....|--- .... ....
....|..|E-4 2F.A ....|A-5 2F.F ....|A-5 2F.F ....
....|..|--- .... ....|--- .... ....|--- .... ....
....|..|R-- .... ....|E-5 2F.7 ....|E-5 2F.7 ....
....|..|--- .... ....|--- .... ....|--- .... ....
....|..|--- .... ....|E-4 2F1A ....|A-5 2F.A ....
....|..|--- .... ....|--- .... ....|--- .... ....
....|..|E-4 2F.7 ....|E-5 2F.7 ....|E-5 2F.7 ....
....|..|--- .... ....|--- .... ....|--- .... ....
....|..|--- .... ....|E-5 2F.7 ....|E-5 2F.7 ....
....|..|--- .... ....|--- .... ....|--- .... ....
....|..|--- .... ....|E-4 2F17 ....|A-5 2F.7 ....
....|..|--- .... ....|--- .... ....|--- .... ....
....|..|R-- .... ....|A-5 2F.7 ....|A-5 2F.7 ....
....|..|--- .... ....|--- .... ....|--- .... ....
 E-4|..|E-3 2C.F ....|E-5 2F.F ....|E-5 2F.F ....
....|..|--- .... ....|--- .... ....|--- .... ....
....|..|--- .... ....|--- .... ....|--- .... ....
....|..|--- .... ....|--- .... ....|--- .... ....

[Pattern93]
 E-4|..|E-4 2C.F ....|E-5 2F.F ....|E-5 2F.F ....
....|..|--- .... ....|--- .... ....|--- .... ....
....|..|E-3 2F.A ....|E-5 2F.A ....|E-5 2F.A ....
....|..|--- .... ....|--- .... ....|--- .... ....
 E-4|..|E-3 2C.F ....|E-5 2F.F ....|E-5 2F.F ....
....|..|--- .... ....|--- .... ....|--- .... ....
....|..|E-4 2F.A ....|E-5 2F.A ....|E-5 2F.A ....
....|..|--- .... ....|--- .... ....|--- .... ....
 E-4|..|E-4 2C.F ....|E-5 2F.7 ....|E-5 2F.7 ....
....|..|--- .... ....|--- .... ....|--- .... ....
....|..|E-3 2F.A ....|E-5 2F.A ....|E-5 2F.A ....
....|..|--- .... ....|--- .... ....|--- .... ....
....|..|E-4 2F.7 ....|E-5 2F.F ....|E-5 2F.F ....
....|..|--- .... ....|--- .... ....|--- .... ....
 E-4|..|E-3 2C.F ....|--- .... ....|--- .... ....
....|..|--- .... ....|--- .... ....|--- .... ....
 E-4|..|E-4 2C.F ....|E-5 2F.F ....|E-5 2F.F ....
....|..|--- .... ....|--- .... ....|--- .... ....
 E-4|..|E-4 2C.F ....|E-5 2F.A ....|E-5 2F.A ....
....|..|--- .... ....|--- .... ....|--- .... ....
 E-4|..|E-4 2C.F ....|--- .... ....|--- .... ....
....|..|--- .... ....|--- .... ....|--- .... ....
....|..|E-4 2F.A ....|E-5 2F.A ....|E-5 2F.A ....
....|..|--- .... ....|--- .... ....|--- .... ....
 A-3|..|A-4 2C.F ....|E-5 2F.7 ....|E-5 2F.7 ....
....|..|--- .... ....|--- .... ....|--- .... ....
 A-3|..|A-4 2C.F ....|--- .... ....|--- .... ....
....|..|--- .... ....|--- .... ....|--- .... ....
....|..|E-4 2F.7 ....|E-5 2F.F ....|E-5 2F.F ....
....|..|--- .... ....|--- .... ....|--- .... ....
....|..|E-4 2F.7 ....|R-- .... ....|R-- .... ....
....|..|--- .... ....|--- .... ....|--- .... ....
 A-3|..|A-3 2C.F ....|A-4 2F.F ....|A-4 2F.F ....
....|..|--- .... ....|--- .... ....|--- .... ....
....|..|--- .... ....|E-5 2F.A ....|E-5 2F.A ....
....|..|--- .... ....|--- .... ....|--- .... ....
....|..|A-4 2F.7 ....|R-- .... ....|R-- .... ....
....|..|--- .... ....|--- .... ....|--- .... ....
....|..|A-4 2F.7 ....|A-4 2F.A ....|A-4 2F.A ....
....|..|--- .... ....|--- .... ....|--- .... ....
 E-4|..|E-4 2C.F ....|E-5 2F.7 ....|E-5 2F.7 ....
....|..|--- .... ....|--- .... ....|--- .... ....
....|..|R-- .... ....|R-- .... ....|R-- .... ....
....|..|--- .... ....|--- .... ....|--- .... ....
....|..|A-3 2F.7 ....|A-4 2F.7 ....|A-4 2F.7 ....
....|..|--- .... ....|--- .... ....|--- .... ....
....|..|E-4 2F.A ....|--- .... ....|--- .... ....
....|..|--- .... ....|--- .... ....|--- .... ....
....|..|R-- .... ....|R-- .... ....|R-- .... ....
....|..|--- .... ....|--- .... ....|--- .... ....
....|..|--- .... ....|--- .... ....|--- .... ....
....|..|--- .... ....|--- .... ....|--- .... ....
....|..|E-4 2F.7 ....|--- .... ....|--- .... ....
....|..|--- .... ....|--- .... ....|--- .... ....
....|..|--- .... ....|--- .... ....|--- .... ....
....|..|--- .... ....|--- .... ....|--- .... ....
....|..|--- .... ....|--- .... ....|--- .... ....
....|..|--- .... ....|--- .... ....|--- .... ....
....|..|R-- .... ....|--- .... ....|--- .... ....
....|..|--- .... ....|--- .... ....|--- .... ....
 E-4|..|E-5 2C.F ....|--- .... ....|--- .... ....
....|..|--- .... ....|--- .... ....|--- .... ....
....|..|--- .... ....|--- .... ....|--- .... ....
....|..|--- .... ....|--- .... ....|--- .... ....

[Pattern94]
 E-4|..|E-5 2C.F ....|A-4 2F.F ....|A-4 2F.F ....
....|..|--- .... ....|--- .... ....|--- .... ....
....|..|E-5 2F.A ....|--- .... ....|--- .... ....
....|..|--- .... ....|--- .... ....|--- .... ....
 E-4|..|E-5 2C.F ....|R-- .... ....|R-- .... ....
....|..|--- .... ....|--- .... ....|--- .... ....
....|..|E-5 2F.A ....|A-4 2F.A ....|A-4 2F.A ....
....|..|--- .... ....|--- .... ....|--- .... ....
 E-4|..|E-5 2C.F ....|E-4 2F.F ....|E-4 2F.F ....
....|..|--- .... ....|--- .... ....|--- .... ....
....|..|E-5 2F.A ....|R-- .... ....|R-- .... ....
....|..|--- .... ....|--- .... ....|--- .... ....
....|..|E-5 2F.7 ....|A-4 2F.7 ....|A-4 2F.7 ....
....|..|--- .... ....|--- .... ....|--- .... ....
 E-4|..|E-5 2C.F ....|E-4 2F.A ....|E-4 2F.A ....
....|..|--- .... ....|--- .... ....|--- .... ....
 E-4|..|E-5 2C.F ....|E-4 2F.F ....|E-4 2F.F ....
....|..|--- .... ....|--- .... ....|--- .... ....
 E-4|..|E-4 2C.F ....|E-4 2F.F ....|E-4 2F.F ....
....|..|--- .... ....|--- .... ....|--- .... ....
 E-4|..|E-4 2C.F ....|E-4 2F.7 ....|E-4 2F.7 ....
....|..|--- .... ....|--- .... ....|--- .... ....
....|..|E-5 2F.A ....|E-4 2F.A ....|E-4 2F.A ....
....|..|--- .... ....|--- .... ....|--- .... ....
 E-4|..|E-4 2C.F ....|E-4 2F.A ....|E-4 2F.A ....
....|..|--- .... ....|--- .... ....|--- .... ....
 E-4|..|E-3 2C.F ....|--- .... ....|--- .... ....
....|..|--- .... ....|--- .... ....|--- .... ....
....|..|E-5 2F.7 ....|E-4 2F.7 ....|E-4 2F.7 ....
....|..|--- .... ....|--- .... ....|--- .... ....
....|..|E-4 2F.7 ....|E-4 2F.F ....|E-4 2F.F ....
....|..|--- .... ....|--- .... ....|--- .... ....
 A-3|..|A-3 2C.F ....|E-4 2F.F ....|E-4 2F.F ....
....|..|--- .... ....|--- .... ....|--- .... ....
....|..|--- .... ....|--- .... ....|--- .... ....
....|..|--- .... ....|--- .... ....|--- .... ....
....|..|E-4 2F.7 ....|E-4 2F.F ....|E-4 2F.F ....
....|..|--- .... ....|--- .... ....|--- .... ....
....|..|E-3 2F.7 ....|E-4 2F.A ....|E-4 2F.A ....
....|..|--- .... ....|--- .... ....|--- .... ....
 E-4|..|E-4 2C.F ....|E-5 2F.F ....|E-5 2F.F ....
....|..|--- .... ....|--- .... ....|--- .... ....
....|..|R-- .... ....|E-5 2F.F ....|E-5 2F.F ....
....|..|--- .... ....|--- .... ....|--- .... ....
....|..|A-3 2F.7 ....|E-5 2F.F ....|E-5 2F.F ....
....|..|--- .... ....|--- .... ....|--- .... ....
....|..|E-4 2F.A ....|E-5 2F.F ....|E-5 2F.F ....
....|..|--- .... ....|--- .... ....|--- .... ....
....|..|R-- .... ....|E-4 2F.7 ....|E-4 2F.7 ....
....|..|--- .... ....|--- .... ....|--- .... ....
....|..|--- .... ....|E-5 2F.A ....|E-5 2F.A ....
....|..|--- .... ....|--- .... ....|--- .... ....
....|..|E-4 2F.7 ....|E-5 2F.7 ....|E-5 2F.7 ....
....|..|--- .... ....|--- .... ....|--- .... ....
....|..|--- .... ....|E-5 2F.7 ....|E-5 2F.7 ....
....|..|--- .... ....|--- .... ....|--- .... ....
....|..|--- .... ....|E-5 2F.7 ....|E-5 2F.7 ....
....|..|--- .... ....|--- .... ....|--- .... ....
....|..|R-- .... ....|E-5 2F.7 ....|E-5 2F.7 ....
....|..|--- .... ....|--- .... ....|--- .... ....
 E-4|..|E-4 2C.F ....|E-4 2F.F ....|E-4 2F.F ....
....|..|--- .... ....|--- .... ....|--- .... ....
....|..|--- .... ....|--- .... ....|--- .... ....
....|..|--- .... ....|--- .... ....|--- .... ....

[Pattern95]
....|..|--- .... ....|--- .... ....|--- .... ....
....|..|--- .... ....|--- .... ....|--- .... ....
....|..|E-4 2F.A ....|E-4 2F.A ....|E-4 2F.A ....
....|..|--- .... ....|--- .... ....|--- .... ....
....|..|--- .... ....|--- .... ....|--- .... ....
....|..|--- .... ....|--- .... ....|--- .... ....
....|..|--- .... ....|--- .... ....|--- .... ....
....|..|--- .... ....|--- .... ....|--- .... ....
....|..|E-4 2F.7 ....|E-4 2F.7 ....|E-4 2F.7 ....
....|..|--- .... ....|--- .... ....|--- .... ....
....|..|--- .... ....|--- .... ....|--- .... ....
....|..|--- .... ....|--- .... ....|--- .... ....
....|..|--- .... ....|R-- .... ....|R-- .... ....
....|..|--- .... ....|--- .... ....|--- .... ....
....|..|--- .... ....|--- .... ....|--- .... ....
....|..|--- .... ....|--- .... ....|--- .... ....
....|..|--- .... ....|--- .... ....|--- .... ....
....|..|--- .... ....|--- .... ....|--- .... ....
....|..|R-- .... ....|R-- .... ....|R-- .... ....
....|..|--- .... ....|--- .... ....|--- .... ....
....|..|--- .... ....|--- .... ....|--- .... ....
....|..|--- .... ....|--- .... ....|--- .... ....
....|..|--- .... ....|--- .... ....|--- .... ....
....|..|--- .... ....|--- .... ....|--- .... ....
....|..|R-- .... ....|R-- .... ....|R-- .... ....
....|..|--- .... ....|--- .... ....|--- .... ....
....|..|--- .... ....|--- .... ....|--- .... ....
....|..|--- .... ....|--- .... ....|--- .... ....
....|..|--- .... ....|--- .... ....|--- .... ....
....|..|--- .... ....|--- .... ....|--- .... ....
