[Module]
VortexTrackerII=0
Version=3.5
Title=2me,1p,1d
Author=oisee/siril^4d 2024.06.21
ShowInfo=0
NoteTable=4
ChipFreq=1750000
IntFreq=48828
Speed=4
Noise=HEX
PlayOrder=L0,1,2,3,4,5


[Ornament1]
L0,0,5,5

[Ornament2]
L0,0,4,4

[Ornament3]
L0,0,2,2

[Ornament4]
L0,0,1,1

[Ornament5]
L0

[Ornament6]
L0

[Ornament7]
L0

[Ornament8]
L0

[Ornament9]
L0

[Ornament10]
L0

[Ornament11]
L0

[Ornament12]
L0

[Ornament13]
L0

[Ornament14]
L0

[Ornament15]
L0

[Sample1]
T.E +000_ +00_ F_
T.E +000_ +00_ F_
T.E +000_ +00_ F_
T.E +000_ +00_ D_
T.E +000_ +00_ B_
T.E +000_ +00_ B_ L

[Sample2]
T.E +000_ +00_ F_ L

[Sample3]
T.E +001_ +00_ F_
T.E +002_ +00_ F_
T.E +001_ +00_ E_
T.E +002_ +00_ E_
T.E +000_ +00_ E_ L
T.E -001_ +00_ E_
T.E -002_ +00_ E_
T.E -001_ +00_ E_
T.E +000_ +00_ E_
T.E +001_ +00_ E_
T.E +002_ +00_ E_
T.E +001_ +00_ E_

[Sample4]
T.E +002_ +00_ D_
T.E +002_ +00_ D_
T.E +002_ +00_ C_
T.E +002_ +00_ B_
T.E +002_ +00_ A_ L
T.E +002_ +00_ A_
T.E +002_ +00_ A_
T.E +002_ +00_ A_
T.E +002_ +00_ A_
T.E +002_ +00_ A_
T.E +002_ +00_ A_
T.E +002_ +00_ A_

[Sample5]
T.E +000_ +00_ F_
T.E +000_ +00_ F_
... +000_ +00_ 0_ L

[Sample6]
T.E -001_ +00_ F_ L

[Sample7]
T.E +006_ +00_ F_ L

[Sample8]
.N. +000_ +00_ F_
.N. +000_ +00_ B_
.N. +000_ +00_ 7_
.N. +000_ +00_ 6- L

[Sample9]
T.E +080_ +00_ F_
T.E +100_ +00_ E_
T.E +180_ +00_ E_
T.E +200_ +00_ E_
T.E +240_ +00_ D_
T.E +280_ +00_ D_
T.E +2C0_ +00_ D_
T.E +300_ +00_ C_
T.E +300_ +00_ C_
T.E +340_ +00_ C_
T.E +340_ +00_ C_
T.E +380_ +00_ B_
T.E +380_ +00_ B_
T.E +400_ +00_ B_
T.E +400_ +00_ B_
T.E +480_ +00_ A_
T.E +500_ +00_ 9_
T.E +580_ +00_ 7_
T.E +600_ +00_ 4_
T.E +680_ +00_ 1_
T.E +000_ +00_ 0_ L

[Sample10]
T.. +1C0_ +00_ F_
T.. +280_ +00_ E_
T.. +380_ +00_ C_
T.. +440_ +00_ A_
T.. +480_ +00_ 8_
T.E +000_ +00_ 0_ L

[Sample11]
TN. +200_ -0A_ F_
.N. +000_ +0F_ A_
TN. +200_ -07_ E_
.N. +000_ +0E_ B- L

[Sample12]
TNE +0A0_ +05_ F_
TNE +140_ +02_ D_
TNE +140_ +02_ B_
TNE +100_ +00_ A_ L
TNE +140_ +00_ A_
TNE +200_ +00_ A-

[Sample13]
T.. +200_ +00_ F_
T.. +2C0_ +00_ F_
T.. +380_ +00_ E_
T.. +500_ +00_ C_
T.. +520_ +00_ 9_
... +000_ +00_ 0_ L

[Sample14]
TNE -100_ +00_ F_
TNE -100_ +00_ D_
TNE -100_ +00_ A_
TNE -100_ +00_ 5_
... +000_ +00_ 0_ L

[Sample15]
TNE -100_ +00_ 5_
TNE -100_ +00_ 8_
TNE -100_ +00_ B_
TNE -100_ +00_ F_
TN. -100_ +00_ 9- L

[Sample16]
T.E +000_ +00_ C_
T.E +000_ +00_ E_
T.E +000_ +00_ F_
T.E +000_ +00_ F_
T.E +000_ +00_ E_
T.E +000_ +00_ D_
T.E +000_ +00_ C_
T.E +000_ +00_ C_ L
T.E +001_ +00_ C_
T.E +002_ +00_ C_
T.E +003_ +00_ C_
T.E +001_ +00_ C_
T.E +000_ +00_ C_
T.E -001_ +00_ C_
T.E -002_ +00_ C_
T.E -003_ +00_ C_
T.E -001_ +00_ C_
T.E +000_ +00_ C_
T.E +000_ +00_ C_

[Sample17]
T.. +1C0_ +00_ F_
T.. +280_ +00_ D_
T.. +380_ +00_ 7_
TNE +000_ +00_ 0_ L

[Sample18]
T.E -00C_ +00_ 0_ L

[Sample19]
TN. +000_ +00_ F_
TN. +000_ +00_ C_
TN. +000_ +00_ 6_
TN. +000_ +01_ A- L

[Sample20]
TNE +140_ +00_ F_
.NE +000_ +00_ B- L

[Sample21]
.NE +000_ +00_ D_
.NE +000_ +00_ 8_
.NE +000_ +00_ 1_
TNE +000_ +00_ 0_ L

[Sample22]
T.E +000_ +00_ D_ L
T.E +000_ +00_ D_
... +000_ +00_ 9_
... +000_ +00_ 9_
T.E +000_ +00_ D_
T.E +000_ +00_ D_
... +000_ +00_ 9_
... +000_ +00_ 9_
T.E +000_ +00_ D_
T.E +000_ +00_ D_
T.E +000_ +00_ D_
T.E +000_ +00_ D_
T.E +000_ +00_ D_
T.E +000_ +00_ D_
... +000_ +00_ 9_
... +000_ +00_ 9_

[Sample23]
T.E +000_ +00_ F_ L
T.E +010_ +01_ F_
T.E +010_ +01_ F_
T.E +010_ +01_ F_
T.E +010_ +01_ F_
T.E +000_ +00_ F_
T.E +000_ +00_ F_
T.E -010_ -01_ F_
T.E -010_ -01_ F_
T.E -010_ -01_ F_
T.E -010_ -01_ F_
T.E +000_ +00_ F_

[Sample24]
TN. +000_ -01_ C_
TN. +000_ -01_ D_
TN. +000_ -01_ E_
TN. +000_ -01_ F_
TN. +000_ -01_ F_
TN. +000_ -01_ F_
TN. +000_ -01_ F_
TN. +000_ -01_ F_
TN. +000_ -01_ E_
TN. +000_ -01_ E_
TN. +000_ -01_ E_
TN. +000_ -01_ F_
TN. +000_ -01_ F_ L

[Sample25]
TNE +000_ +00_ F_
TNE +000_ +00_ F_ L
TNE +000_ +00_ F_
TNE +000_ +00_ F_
TNE +000_ +00_ F-

[Sample26]
... +000_ +00_ 0_ L

[Sample27]
T.E +100_ +05_ F_
T.E +200_ +02_ A_
T.E +300_ +02_ 7_
TNE +400_ +00_ 3- L

[Sample28]
... +000_ +00_ 0_ L

[Sample29]
..E +000_ +00_ 0_ L

[Sample30]
TNE +000_ +00_ C+ L

[Sample31]
TN. +1C0_ +00_ F_
T.. +280_ +00_ E_
T.. +380_ +00_ C_
T.. +440_ +00_ A_
T.. +480_ +00_ 8_
T.E +000_ +00_ 0_ L

[Pattern0]
..12|..|E-4 2C.F ....|A-4 2F.F ....|C-4 LF.F ....
....|..|--- .... ....|--- .... ....|--- .... ....
....|..|E-3 2F.A ....|--- .... ....|--- .... ....
....|..|--- .... ....|--- .... ....|--- .... ....
..12|..|E-3 2C.F ....|R-- .... ....|R-- .... ....
....|..|--- .... ....|--- .... ....|--- .... ....
....|..|E-4 2F.A ....|A-4 2F.A ....|C-4 LF.A ....
....|..|--- .... ....|--- .... ....|--- .... ....
..12|..|E-4 2C.F ....|E-5 2F.F ....|C-4 LF.F ....
....|..|--- .... ....|--- .... ....|--- .... ....
....|..|E-3 2F.A ....|R-- .... ....|R-- .... ....
....|..|--- .... ....|--- .... ....|--- .... ....
....|..|E-4 2F.7 ....|A-4 2F.7 ....|C-4 LF.7 ....
....|..|--- .... ....|--- .... ....|--- .... ....
..12|..|E-3 2C.F ....|E-5 2F.A ....|C-4 LF.A ....
....|..|--- .... ....|--- .... ....|--- .... ....
..12|..|E-4 2C.F ....|E-4 2F1F ....|C-4 LF.F ....
....|..|--- .... ....|--- .... ....|--- .... ....
..12|..|E-4 2C.F ....|A-5 2F.F ....|C-4 LF.F ....
....|..|--- .... ....|--- .... ....|--- .... ....
..12|..|E-4 2C.F ....|E-5 2F.7 ....|C-4 LF.7 ....
....|..|--- .... ....|--- .... ....|--- .... ....
....|..|E-4 2F.A ....|E-4 2F1A ....|C-4 LF.A ....
....|..|--- .... ....|--- .... ....|--- .... ....
..12|..|E-4 2C.F ....|A-5 2F.A ....|C-4 LF.A ....
....|..|--- .... ....|--- .... ....|--- .... ....
..12|..|E-3 2C.F ....|--- .... ....|--- .... ....
....|..|--- .... ....|--- .... ....|--- .... ....
....|..|E-4 2F.7 ....|E-4 2F17 ....|C-4 LF.7 ....
....|..|--- .... ....|--- .... ....|--- .... ....
....|..|E-4 2F.7 ....|E-4 2F.F ....|C-4 LF.F ....
....|..|--- .... ....|--- .... ....|--- .... ....
..1B|..|A-3 2C.F ....|E-6 2F.F ....|C-4 LF.F ....
....|..|--- .... ....|--- .... ....|--- .... ....
....|..|--- .... ....|--- .... ....|--- .... ....
....|..|--- .... ....|--- .... ....|--- .... ....
....|..|E-4 2F.7 ....|E-4 2F.F ....|C-4 LF.F ....
....|..|--- .... ....|--- .... ....|--- .... ....
....|..|E-3 2F.7 ....|E-6 2F.A ....|C-4 LF.A ....
....|..|--- .... ....|--- .... ....|--- .... ....
..12|..|E-4 2C.F ....|A-6 2F.F ....|C-4 LF.F ....
....|..|--- .... ....|--- .... ....|--- .... ....
....|..|R-- .... ....|A-6 2F.F ....|C-4 LF.F ....
....|..|--- .... ....|--- .... ....|--- .... ....
....|..|A-3 2F.7 ....|A-6 2F.F ....|C-4 LF.F ....
....|..|--- .... ....|--- .... ....|--- .... ....
....|..|E-4 2F.A ....|B-4 2F.F ....|C-4 LF.F ....
....|..|--- .... ....|--- .... ....|--- .... ....
....|..|R-- .... ....|E-4 2F.7 ....|C-4 LF.7 ....
....|..|--- .... ....|--- .... ....|--- .... ....
....|..|--- .... ....|A-6 2F.A ....|C-4 LF.A ....
....|..|--- .... ....|--- .... ....|--- .... ....
....|..|E-4 2F.7 ....|A-6 2F.7 ....|C-4 LF.7 ....
....|..|--- .... ....|--- .... ....|--- .... ....
....|..|--- .... ....|A-6 2F.7 ....|C-4 LF.7 ....
....|..|--- .... ....|--- .... ....|--- .... ....
....|..|--- .... ....|A-6 2F.7 ....|C-4 LF.7 ....
....|..|--- .... ....|--- .... ....|--- .... ....
....|..|R-- .... ....|B-4 2F.7 ....|C-4 LF.7 ....
....|..|--- .... ....|--- .... ....|--- .... ....
..1B|..|A-4 2C.F ....|E-4 2F.F ....|C-4 LF.F ....
....|..|--- .... ....|--- .... ....|--- .... ....
....|..|--- .... ....|--- .... ....|--- .... ....
....|..|--- .... ....|--- .... ....|--- .... ....

[Pattern1]
..1B|..|A-4 2C.F ....|E-4 2F1F ....|C-4 LF.F ....
....|..|--- .... ....|--- .... ....|--- .... ....
....|..|A-4 2F.A ....|E-4 2F.A ....|C-4 LF.A ....
....|..|--- .... ....|--- .... ....|--- .... ....
..1B|..|A-4 2C.F ....|E-4 2F.F ....|C-4 LF.F ....
....|..|--- .... ....|--- .... ....|--- .... ....
....|..|A-4 2F.A ....|E-4 2F1A ....|C-4 LF.A ....
....|..|--- .... ....|--- .... ....|--- .... ....
..1B|..|A-4 2C.F ....|E-4 2F.7 ....|C-4 LF.7 ....
....|..|--- .... ....|--- .... ....|--- .... ....
....|..|A-4 2F.A ....|E-4 2F.A ....|C-4 LF.A ....
....|..|--- .... ....|--- .... ....|--- .... ....
....|..|A-4 2F.7 ....|E-7 2F.F ....|C-4 LF.F ....
....|..|--- .... ....|--- .... ....|--- .... ....
..1B|..|A-4 2C.F ....|--- .... ....|--- .... ....
....|..|--- .... ....|--- .... ....|--- .... ....
..1B|..|A-4 2C.F ....|E-4 2F.7 ....|C-4 LF.7 ....
....|..|--- .... ....|--- .... ....|--- .... ....
..12|..|E-4 2C.F ....|E-7 2F.A ....|C-4 LF.A ....
....|..|--- .... ....|--- .... ....|--- .... ....
..12|..|E-4 2C.F ....|--- .... ....|--- .... ....
....|..|--- .... ....|--- .... ....|--- .... ....
....|..|A-4 2F.A ....|--- .... ....|--- .... ....
....|..|--- .... ....|--- .... ....|--- .... ....
..12|..|E-4 2C.F ....|E-7 2F.7 ....|C-4 LF.7 ....
....|..|--- .... ....|--- .... ....|--- .... ....
..1B|..|A-3 2C.F ....|--- .... ....|--- .... ....
....|..|--- .... ....|--- .... ....|--- .... ....
....|..|A-4 2F.7 ....|R-- .... ....|R-- .... ....
....|..|--- .... ....|--- .... ....|--- .... ....
....|..|E-4 2F.7 ....|E-4 2F.F ....|C-4 LF.F ....
....|..|--- .... ....|--- .... ....|--- .... ....
..1B|..|A-3 2C.F ....|E-4 2F.F ....|C-4 LF.F ....
....|..|--- .... ....|--- .... ....|--- .... ....
....|..|--- .... ....|E-4 2F.F ....|C-4 LF.F ....
....|..|--- .... ....|--- .... ....|--- .... ....
....|..|E-4 2F.7 ....|E-4 2F.A ....|C-4 LF.A ....
....|..|--- .... ....|--- .... ....|--- .... ....
....|..|A-3 2F.7 ....|E-4 2F.A ....|C-4 LF.A ....
....|..|--- .... ....|--- .... ....|--- .... ....
..12|..|E-4 2C.F ....|E-4 2F.A ....|C-4 LF.A ....
....|..|--- .... ....|--- .... ....|--- .... ....
....|..|R-- .... ....|E-4 2F.7 ....|C-4 LF.7 ....
....|..|--- .... ....|--- .... ....|--- .... ....
....|..|A-3 2F.7 ....|E-4 2F.7 ....|C-4 LF.7 ....
....|..|--- .... ....|--- .... ....|--- .... ....
....|..|E-4 2F.A ....|E-4 2F.7 ....|C-4 LF.7 ....
....|..|--- .... ....|--- .... ....|--- .... ....
....|..|R-- .... ....|R-- .... ....|R-- .... ....
....|..|--- .... ....|--- .... ....|--- .... ....
....|..|--- .... ....|--- .... ....|--- .... ....
....|..|--- .... ....|--- .... ....|--- .... ....
....|..|E-4 2F.7 ....|--- .... ....|--- .... ....
....|..|--- .... ....|--- .... ....|--- .... ....
....|..|--- .... ....|--- .... ....|--- .... ....
....|..|--- .... ....|--- .... ....|--- .... ....
....|..|--- .... ....|--- .... ....|--- .... ....
....|..|--- .... ....|--- .... ....|--- .... ....
....|..|R-- .... ....|--- .... ....|--- .... ....
....|..|--- .... ....|--- .... ....|--- .... ....
..12|..|E-3 2C.F ....|--- .... ....|--- .... ....
....|..|--- .... ....|--- .... ....|--- .... ....
....|..|--- .... ....|--- .... ....|--- .... ....
....|..|--- .... ....|--- .... ....|--- .... ....

[Pattern2]
..12|..|E-4 2C.F ....|A-4 2F.F ....|C-4 LF.F ....
....|..|--- .... ....|--- .... ....|--- .... ....
....|..|E-3 2F.A ....|--- .... ....|--- .... ....
....|..|--- .... ....|--- .... ....|--- .... ....
..12|..|E-3 2C.F ....|R-- .... ....|R-- .... ....
....|..|--- .... ....|--- .... ....|--- .... ....
....|..|E-4 2F.A ....|A-4 2F.A ....|C-4 LF.A ....
....|..|--- .... ....|--- .... ....|--- .... ....
..12|..|E-4 2C.F ....|E-4 2F.F ....|C-4 LF.F ....
....|..|--- .... ....|--- .... ....|--- .... ....
....|..|E-3 2F.A ....|R-- .... ....|R-- .... ....
....|..|--- .... ....|--- .... ....|--- .... ....
....|..|E-4 2F.7 ....|A-4 2F.7 ....|C-4 LF.7 ....
....|..|--- .... ....|--- .... ....|--- .... ....
..12|..|E-3 2C.F ....|E-4 2F.A ....|C-4 LF.A ....
....|..|--- .... ....|--- .... ....|--- .... ....
..12|..|E-4 2C.F ....|E-4 2F.F ....|C-4 LF.F ....
....|..|--- .... ....|--- .... ....|--- .... ....
..12|..|E-4 2C.F ....|E-4 2F.F ....|C-4 LF.F ....
....|..|--- .... ....|--- .... ....|--- .... ....
..12|..|E-4 2C.F ....|E-4 2F.7 ....|C-4 LF.7 ....
....|..|--- .... ....|--- .... ....|--- .... ....
....|..|E-4 2F.A ....|E-4 2F.A ....|C-4 LF.A ....
....|..|--- .... ....|--- .... ....|--- .... ....
..12|..|E-4 2C.F ....|E-4 2F.A ....|C-4 LF.A ....
....|..|--- .... ....|--- .... ....|--- .... ....
..12|..|E-3 2C.F ....|--- .... ....|--- .... ....
....|..|--- .... ....|--- .... ....|--- .... ....
....|..|E-4 2F.7 ....|E-4 2F.7 ....|C-4 LF.7 ....
....|..|--- .... ....|--- .... ....|--- .... ....
....|..|E-4 2F.7 ....|E-4 2F.F ....|C-4 LF.F ....
....|..|--- .... ....|--- .... ....|--- .... ....
..1B|..|A-3 2C.F ....|E-5 2F.F ....|C-4 LF.F ....
....|..|--- .... ....|--- .... ....|--- .... ....
....|..|--- .... ....|--- .... ....|--- .... ....
....|..|--- .... ....|--- .... ....|--- .... ....
....|..|E-4 2F.7 ....|E-4 2F.F ....|C-4 LF.F ....
....|..|--- .... ....|--- .... ....|--- .... ....
....|..|E-3 2F.7 ....|E-5 2F.A ....|C-4 LF.A ....
....|..|--- .... ....|--- .... ....|--- .... ....
..12|..|E-4 2C.F ....|E-4 2F.F ....|C-4 LF.F ....
....|..|--- .... ....|--- .... ....|--- .... ....
....|..|R-- .... ....|E-4 2F.F ....|C-4 LF.F ....
....|..|--- .... ....|--- .... ....|--- .... ....
....|..|A-3 2F.7 ....|A-5 2F.F ....|C-4 LF.F ....
....|..|--- .... ....|--- .... ....|--- .... ....
....|..|E-4 2F.A ....|A-5 2F.F ....|C-4 LF.F ....
....|..|--- .... ....|--- .... ....|--- .... ....
....|..|R-- .... ....|E-4 2F.7 ....|C-4 LF.7 ....
....|..|--- .... ....|--- .... ....|--- .... ....
....|..|--- .... ....|A-5 2F.A ....|C-4 LF.A ....
....|..|--- .... ....|--- .... ....|--- .... ....
....|..|E-4 2F.7 ....|E-4 2F.7 ....|C-4 LF.7 ....
....|..|--- .... ....|--- .... ....|--- .... ....
....|..|--- .... ....|E-4 2F.7 ....|C-4 LF.7 ....
....|..|--- .... ....|--- .... ....|--- .... ....
....|..|--- .... ....|A-5 2F.7 ....|C-4 LF.7 ....
....|..|--- .... ....|--- .... ....|--- .... ....
....|..|R-- .... ....|A-5 2F.7 ....|C-4 LF.7 ....
....|..|--- .... ....|--- .... ....|--- .... ....
..12|..|E-4 2C.F ....|E-4 2F.F ....|C-4 LF.F ....
....|..|--- .... ....|--- .... ....|--- .... ....
....|..|--- .... ....|--- .... ....|--- .... ....
....|..|--- .... ....|--- .... ....|--- .... ....

[Pattern3]
..12|..|E-4 2C.F ....|E-4 2F1F ....|C-4 LF.F ....
....|..|--- .... ....|--- .... ....|--- .... ....
....|..|E-4 2F.A ....|E-4 2F.A ....|C-4 LF.A ....
....|..|--- .... ....|--- .... ....|--- .... ....
..12|..|E-4 2C.F ....|E-4 2F.F ....|C-4 LF.F ....
....|..|--- .... ....|--- .... ....|--- .... ....
....|..|E-4 2F.A ....|E-4 2F1A ....|C-4 LF.A ....
....|..|--- .... ....|--- .... ....|--- .... ....
..12|..|E-4 2C.F ....|E-4 2F.7 ....|C-4 LF.7 ....
....|..|--- .... ....|--- .... ....|--- .... ....
....|..|E-4 2F.A ....|E-4 2F.A ....|C-4 LF.A ....
....|..|--- .... ....|--- .... ....|--- .... ....
....|..|E-4 2F.7 ....|E-4 2F.F ....|C-4 LF.F ....
....|..|--- .... ....|--- .... ....|--- .... ....
..12|..|E-4 2C.F ....|--- .... ....|--- .... ....
....|..|--- .... ....|--- .... ....|--- .... ....
..12|..|E-4 2C.F ....|E-4 2F.7 ....|C-4 LF.7 ....
....|..|--- .... ....|--- .... ....|--- .... ....
..12|..|E-4 2C.F ....|E-4 2F.A ....|C-4 LF.A ....
....|..|--- .... ....|--- .... ....|--- .... ....
..12|..|E-4 2C.F ....|--- .... ....|--- .... ....
....|..|--- .... ....|--- .... ....|--- .... ....
....|..|E-4 2F.A ....|--- .... ....|--- .... ....
....|..|--- .... ....|--- .... ....|--- .... ....
..1B|..|A-4 2C.F ....|E-4 2F.7 ....|C-4 LF.7 ....
....|..|--- .... ....|--- .... ....|--- .... ....
..1B|..|A-4 2C.F ....|--- .... ....|--- .... ....
....|..|--- .... ....|--- .... ....|--- .... ....
....|..|E-4 2F.7 ....|R-- .... ....|R-- .... ....
....|..|--- .... ....|--- .... ....|--- .... ....
....|..|E-4 2F.7 ....|--- .... ....|--- .... ....
....|..|--- .... ....|--- .... ....|--- .... ....
..1B|..|A-3 2C.F ....|E-4 2F.F ....|C-4 LF.F ....
....|..|--- .... ....|--- .... ....|--- .... ....
....|..|--- .... ....|R-- .... ....|R-- .... ....
....|..|--- .... ....|--- .... ....|--- .... ....
....|..|A-4 2F.7 ....|R-- .... ....|R-- .... ....
....|..|--- .... ....|--- .... ....|--- .... ....
....|..|A-4 2F.7 ....|E-4 2F.A ....|C-4 LF.A ....
....|..|--- .... ....|--- .... ....|--- .... ....
..12|..|E-4 2C.F ....|R-- .... ....|R-- .... ....
....|..|--- .... ....|--- .... ....|--- .... ....
....|..|R-- .... ....|R-- .... ....|R-- .... ....
....|..|--- .... ....|--- .... ....|--- .... ....
....|..|A-3 2F.7 ....|E-4 2F.7 ....|C-4 LF.7 ....
....|..|--- .... ....|--- .... ....|--- .... ....
....|..|E-4 2F.A ....|--- .... ....|--- .... ....
....|..|--- .... ....|--- .... ....|--- .... ....
....|..|R-- .... ....|R-- .... ....|R-- .... ....
....|..|--- .... ....|--- .... ....|--- .... ....
....|..|--- .... ....|--- .... ....|--- .... ....
....|..|--- .... ....|--- .... ....|--- .... ....
....|..|E-4 2F.7 ....|--- .... ....|--- .... ....
....|..|--- .... ....|--- .... ....|--- .... ....
....|..|--- .... ....|--- .... ....|--- .... ....
....|..|--- .... ....|--- .... ....|--- .... ....
....|..|--- .... ....|--- .... ....|--- .... ....
....|..|--- .... ....|--- .... ....|--- .... ....
....|..|R-- .... ....|--- .... ....|--- .... ....
....|..|--- .... ....|--- .... ....|--- .... ....
..12|..|E-3 2C.F ....|--- .... ....|--- .... ....
....|..|--- .... ....|--- .... ....|--- .... ....
....|..|--- .... ....|--- .... ....|--- .... ....
....|..|--- .... ....|--- .... ....|--- .... ....

[Pattern4]
..12|..|E-4 2C.F ....|A-4 2F.F ....|C-4 LF.F ....
....|..|--- .... ....|--- .... ....|--- .... ....
....|..|E-3 2F.A ....|--- .... ....|--- .... ....
....|..|--- .... ....|--- .... ....|--- .... ....
..12|..|E-3 2C.F ....|R-- .... ....|R-- .... ....
....|..|--- .... ....|--- .... ....|--- .... ....
....|..|E-4 2F.A ....|A-4 2F.A ....|C-4 LF.A ....
....|..|--- .... ....|--- .... ....|--- .... ....
..12|..|E-4 2C.F ....|E-5 2F.F ....|C-4 LF.F ....
....|..|--- .... ....|--- .... ....|--- .... ....
....|..|E-3 2F.A ....|R-- .... ....|R-- .... ....
....|..|--- .... ....|--- .... ....|--- .... ....
....|..|E-4 2F.7 ....|A-4 2F.7 ....|C-4 LF.7 ....
....|..|--- .... ....|--- .... ....|--- .... ....
..12|..|E-3 2C.F ....|E-5 2F.A ....|C-4 LF.A ....
....|..|--- .... ....|--- .... ....|--- .... ....
..12|..|E-4 2C.F ....|E-5 2F.F ....|C-4 LF.F ....
....|..|--- .... ....|--- .... ....|--- .... ....
..12|..|E-4 2C.F ....|E-4 2F.F ....|C-4 LF.F ....
....|..|--- .... ....|--- .... ....|--- .... ....
..12|..|E-4 2C.F ....|E-5 2F.7 ....|C-4 LF.7 ....
....|..|--- .... ....|--- .... ....|--- .... ....
....|..|E-4 2F.A ....|E-5 2F.A ....|C-4 LF.A ....
....|..|--- .... ....|--- .... ....|--- .... ....
..12|..|E-4 2C.F ....|E-4 2F.A ....|C-4 LF.A ....
....|..|--- .... ....|--- .... ....|--- .... ....
..12|..|E-3 2C.F ....|--- .... ....|--- .... ....
....|..|--- .... ....|--- .... ....|--- .... ....
....|..|E-4 2F.7 ....|E-5 2F.7 ....|C-4 LF.7 ....
....|..|--- .... ....|--- .... ....|--- .... ....
....|..|E-4 2F.7 ....|A-5 2F.F ....|C-4 LF.F ....
....|..|--- .... ....|--- .... ....|--- .... ....
..1B|..|A-4 2C.F ....|A-5 2F.F ....|C-4 LF.F ....
....|..|--- .... ....|--- .... ....|--- .... ....
....|..|--- .... ....|--- .... ....|--- .... ....
....|..|--- .... ....|--- .... ....|--- .... ....
....|..|E-4 2F.7 ....|A-5 2F.F ....|C-4 LF.F ....
....|..|--- .... ....|--- .... ....|--- .... ....
....|..|E-3 2F.7 ....|A-5 2F.A ....|C-4 LF.A ....
....|..|--- .... ....|--- .... ....|--- .... ....
..12|..|E-4 2C.F ....|E-6 2F.F ....|C-4 LF.F ....
....|..|--- .... ....|--- .... ....|--- .... ....
....|..|R-- .... ....|E-6 2F.F ....|C-4 LF.F ....
....|..|--- .... ....|--- .... ....|--- .... ....
....|..|A-4 2F.7 ....|E-6 2F.F ....|C-4 LF.F ....
....|..|--- .... ....|--- .... ....|--- .... ....
....|..|E-4 2F.A ....|B-4 2F.F ....|C-4 LF.F ....
....|..|--- .... ....|--- .... ....|--- .... ....
....|..|R-- .... ....|A-5 2F.7 ....|C-4 LF.7 ....
....|..|--- .... ....|--- .... ....|--- .... ....
....|..|--- .... ....|E-6 2F.A ....|C-4 LF.A ....
....|..|--- .... ....|--- .... ....|--- .... ....
....|..|E-4 2F.7 ....|E-6 2F.7 ....|C-4 LF.7 ....
....|..|--- .... ....|--- .... ....|--- .... ....
....|..|--- .... ....|E-6 2F.7 ....|C-4 LF.7 ....
....|..|--- .... ....|--- .... ....|--- .... ....
....|..|--- .... ....|E-6 2F.7 ....|C-4 LF.7 ....
....|..|--- .... ....|--- .... ....|--- .... ....
....|..|R-- .... ....|B-4 2F.7 ....|C-4 LF.7 ....
....|..|--- .... ....|--- .... ....|--- .... ....
..12|..|E-3 2C.F ....|A-6 2F.F ....|C-4 LF.F ....
....|..|--- .... ....|--- .... ....|--- .... ....
....|..|--- .... ....|--- .... ....|--- .... ....
....|..|--- .... ....|--- .... ....|--- .... ....

[Pattern5]
..12|..|E-4 2C.F ....|C-4 LF.F ....|A-6 2F.F ....
....|..|--- .... ....|--- .... ....|--- .... ....
....|..|E-3 2F.A ....|C-4 LF.A ....|A-6 2F.A ....
....|..|--- .... ....|--- .... ....|--- .... ....
..12|..|E-3 2C.F ....|C-4 LF.F ....|A-6 2F.F ....
....|..|--- .... ....|--- .... ....|--- .... ....
....|..|E-4 2F.A ....|C-4 LF.A ....|A-6 2F.A ....
....|..|--- .... ....|--- .... ....|--- .... ....
..12|..|E-4 2C.F ....|C-4 LF.7 ....|A-6 2F.7 ....
....|..|--- .... ....|--- .... ....|--- .... ....
....|..|E-3 2F.A ....|C-4 LF.A ....|A-6 2F.A ....
....|..|--- .... ....|--- .... ....|--- .... ....
....|..|E-4 2F.7 ....|C-4 LF.F ....|E-5 2F.F ....
....|..|--- .... ....|--- .... ....|--- .... ....
..12|..|E-3 2C.F ....|--- .... ....|--- .... ....
....|..|--- .... ....|--- .... ....|--- .... ....
..12|..|E-4 2C.F ....|C-4 LF.7 ....|A-6 2F.7 ....
....|..|--- .... ....|--- .... ....|--- .... ....
..12|..|E-4 2C.F ....|C-4 LF.A ....|E-5 2F.A ....
....|..|--- .... ....|--- .... ....|--- .... ....
..12|..|E-4 2C.F ....|--- .... ....|--- .... ....
....|..|--- .... ....|--- .... ....|--- .... ....
....|..|E-4 2F.A ....|--- .... ....|--- .... ....
....|..|--- .... ....|--- .... ....|--- .... ....
..12|..|E-4 2C.F ....|C-4 LF.7 ....|E-5 2F.7 ....
....|..|--- .... ....|--- .... ....|--- .... ....
..12|..|E-3 2C.F ....|--- .... ....|--- .... ....
....|..|--- .... ....|--- .... ....|--- .... ....
....|..|E-4 2F.7 ....|R-- .... ....|R-- .... ....
....|..|--- .... ....|--- .... ....|--- .... ....
....|..|E-4 2F.7 ....|--- .... ....|--- .... ....
....|..|--- .... ....|--- .... ....|--- .... ....
..1B|..|A-3 2C.F ....|C-4 LF.F ....|E-4 2F.F ....
....|..|--- .... ....|--- .... ....|--- .... ....
....|..|--- .... ....|R-- .... ....|R-- .... ....
....|..|--- .... ....|--- .... ....|--- .... ....
....|..|E-4 2F.7 ....|R-- .... ....|R-- .... ....
....|..|--- .... ....|--- .... ....|--- .... ....
....|..|E-3 2F.7 ....|C-4 LF.A ....|E-4 2F.A ....
....|..|--- .... ....|--- .... ....|--- .... ....
..12|..|E-4 2C.F ....|R-- .... ....|R-- .... ....
....|..|--- .... ....|--- .... ....|--- .... ....
....|..|R-- .... ....|R-- .... ....|R-- .... ....
....|..|--- .... ....|--- .... ....|--- .... ....
....|..|A-3 2F.7 ....|C-4 LF.7 ....|E-4 2F.7 ....
....|..|--- .... ....|--- .... ....|--- .... ....
....|..|E-4 2F.A ....|--- .... ....|--- .... ....
....|..|--- .... ....|--- .... ....|--- .... ....
....|..|R-- .... ....|R-- .... ....|R-- .... ....
....|..|--- .... ....|--- .... ....|--- .... ....
....|..|--- .... ....|--- .... ....|--- .... ....
....|..|--- .... ....|--- .... ....|--- .... ....
....|..|E-4 2F.7 ....|--- .... ....|--- .... ....
....|..|--- .... ....|--- .... ....|--- .... ....
....|..|--- .... ....|--- .... ....|--- .... ....
....|..|--- .... ....|--- .... ....|--- .... ....
....|..|--- .... ....|--- .... ....|--- .... ....
....|..|--- .... ....|--- .... ....|--- .... ....
....|..|R-- .... ....|--- .... ....|--- .... ....
....|..|--- .... ....|--- .... ....|--- .... ....
..12|..|E-3 2C.F ....|--- .... ....|--- .... ....
....|..|--- .... ....|--- .... ....|--- .... ....
....|..|--- .... ....|--- .... ....|--- .... ....
....|..|--- .... ....|--- .... ....|--- .... ....

[Pattern6]
..12|..|E-4 2C.F ....|A-4 2F.F ....|C-4 LF.F ....
....|..|--- .... ....|--- .... ....|--- .... ....
....|..|E-3 2F.A ....|--- .... ....|--- .... ....
....|..|--- .... ....|--- .... ....|--- .... ....
..12|..|E-3 2C.F ....|R-- .... ....|R-- .... ....
....|..|--- .... ....|--- .... ....|--- .... ....
....|..|E-4 2F.A ....|A-4 2F.A ....|C-4 LF.A ....
....|..|--- .... ....|--- .... ....|--- .... ....
..12|..|E-4 2C.F ....|A-4 2F.F ....|C-4 LF.F ....
....|..|--- .... ....|--- .... ....|--- .... ....
....|..|E-3 2F.A ....|R-- .... ....|R-- .... ....
....|..|--- .... ....|--- .... ....|--- .... ....
....|..|E-4 2F.7 ....|A-4 2F.7 ....|C-4 LF.7 ....
....|..|--- .... ....|--- .... ....|--- .... ....
..12|..|E-3 2C.F ....|A-4 2F.A ....|C-4 LF.A ....
....|..|--- .... ....|--- .... ....|--- .... ....
..12|..|E-4 2C.F ....|E-5 2F.F ....|C-4 LF.F ....
....|..|--- .... ....|--- .... ....|--- .... ....
..12|..|E-4 2C.F ....|E-5 2F.F ....|C-4 LF.F ....
....|..|--- .... ....|--- .... ....|--- .... ....
..12|..|E-4 2C.F ....|A-4 2F.7 ....|C-4 LF.7 ....
....|..|--- .... ....|--- .... ....|--- .... ....
....|..|E-4 2F.A ....|E-5 2F.A ....|C-4 LF.A ....
....|..|--- .... ....|--- .... ....|--- .... ....
..12|..|E-4 2C.F ....|E-5 2F.A ....|C-4 LF.A ....
....|..|--- .... ....|--- .... ....|--- .... ....
..12|..|E-3 2C.F ....|--- .... ....|--- .... ....
....|..|--- .... ....|--- .... ....|--- .... ....
....|..|E-4 2F.7 ....|E-5 2F.7 ....|C-4 LF.7 ....
....|..|--- .... ....|--- .... ....|--- .... ....
....|..|E-4 2F.7 ....|A-5 2F.F ....|C-4 LF.F ....
....|..|--- .... ....|--- .... ....|--- .... ....
..1B|..|A-4 2C.F ....|A-5 2F.F ....|C-4 LF.F ....
....|..|--- .... ....|--- .... ....|--- .... ....
....|..|--- .... ....|--- .... ....|--- .... ....
....|..|--- .... ....|--- .... ....|--- .... ....
....|..|E-4 2F.7 ....|A-5 2F.F ....|C-4 LF.F ....
....|..|--- .... ....|--- .... ....|--- .... ....
....|..|E-3 2F.7 ....|A-5 2F.A ....|C-4 LF.A ....
....|..|--- .... ....|--- .... ....|--- .... ....
..12|..|E-4 2C.F ....|E-6 2F.F ....|C-4 LF.F ....
....|..|--- .... ....|--- .... ....|--- .... ....
....|..|R-- .... ....|E-6 2F.F ....|C-4 LF.F ....
....|..|--- .... ....|--- .... ....|--- .... ....
....|..|A-4 2F.7 ....|E-5 2F1F ....|C-4 LF.F ....
....|..|--- .... ....|--- .... ....|--- .... ....
....|..|E-4 2F.A ....|A-6 2F.F ....|C-4 LF.F ....
....|..|--- .... ....|--- .... ....|--- .... ....
....|..|R-- .... ....|A-5 2F.7 ....|C-4 LF.7 ....
....|..|--- .... ....|--- .... ....|--- .... ....
....|..|--- .... ....|E-5 2F1A ....|C-4 LF.A ....
....|..|--- .... ....|--- .... ....|--- .... ....
....|..|E-4 2F.7 ....|E-6 2F.7 ....|C-4 LF.7 ....
....|..|--- .... ....|--- .... ....|--- .... ....
....|..|--- .... ....|E-6 2F.7 ....|C-4 LF.7 ....
....|..|--- .... ....|--- .... ....|--- .... ....
....|..|--- .... ....|E-5 2F17 ....|C-4 LF.7 ....
....|..|--- .... ....|--- .... ....|--- .... ....
....|..|R-- .... ....|A-6 2F.7 ....|C-4 LF.7 ....
....|..|--- .... ....|--- .... ....|--- .... ....
..12|..|E-3 2C.F ....|E-4 2F.F ....|C-4 LF.F ....
....|..|--- .... ....|--- .... ....|--- .... ....
....|..|--- .... ....|--- .... ....|--- .... ....
....|..|--- .... ....|--- .... ....|--- .... ....

[Pattern7]
..12|..|E-4 2C.F ....|E-5 2F.F ....|C-4 LF.F ....
....|..|--- .... ....|--- .... ....|--- .... ....
....|..|E-3 2F.A ....|E-4 2F.A ....|C-4 LF.A ....
....|..|--- .... ....|--- .... ....|--- .... ....
..12|..|E-4 2C.F ....|E-4 2F.F ....|C-4 LF.F ....
....|..|--- .... ....|--- .... ....|--- .... ....
....|..|E-4 2F.A ....|E-5 2F.A ....|C-4 LF.A ....
....|..|--- .... ....|--- .... ....|--- .... ....
..12|..|E-5 2C.F ....|E-4 2F.7 ....|C-4 LF.7 ....
....|..|--- .... ....|--- .... ....|--- .... ....
..12|..|E-5 2C.F ....|E-4 2F.A ....|C-4 LF.A ....
....|..|--- .... ....|--- .... ....|--- .... ....
....|..|E-4 2F.7 ....|A-5 2F.F ....|C-4 LF.F ....
....|..|--- .... ....|--- .... ....|--- .... ....
....|..|E-5 2F.A ....|--- .... ....|--- .... ....
....|..|--- .... ....|--- .... ....|--- .... ....
..12|..|E-5 2C.F ....|E-4 2F.7 ....|C-4 LF.7 ....
....|..|--- .... ....|--- .... ....|--- .... ....
..12|..|E-4 2C.F ....|A-5 2F.A ....|C-4 LF.A ....
....|..|--- .... ....|--- .... ....|--- .... ....
....|..|E-5 2F.7 ....|--- .... ....|--- .... ....
....|..|--- .... ....|--- .... ....|--- .... ....
....|..|E-5 2F.7 ....|--- .... ....|--- .... ....
....|..|--- .... ....|--- .... ....|--- .... ....
....|..|E-4 2F.A ....|A-5 2F.7 ....|C-4 LF.7 ....
....|..|--- .... ....|--- .... ....|--- .... ....
....|..|--- .... ....|--- .... ....|--- .... ....
....|..|--- .... ....|--- .... ....|--- .... ....
....|..|E-5 2F.7 ....|R-- .... ....|R-- .... ....
....|..|--- .... ....|--- .... ....|--- .... ....
....|..|E-4 2F.7 ....|--- .... ....|--- .... ....
....|..|--- .... ....|--- .... ....|--- .... ....
..1B|..|A-4 2C.F ....|E-4 2F.F ....|C-4 LF.F ....
....|..|--- .... ....|--- .... ....|--- .... ....
....|..|--- .... ....|R-- .... ....|R-- .... ....
....|..|--- .... ....|--- .... ....|--- .... ....
....|..|R-- .... ....|R-- .... ....|R-- .... ....
....|..|--- .... ....|--- .... ....|--- .... ....
....|..|A-4 2F.A ....|E-4 2F.A ....|C-4 LF.A ....
....|..|--- .... ....|--- .... ....|--- .... ....
....|..|--- .... ....|R-- .... ....|R-- .... ....
....|..|--- .... ....|--- .... ....|--- .... ....
....|..|R-- .... ....|R-- .... ....|R-- .... ....
....|..|--- .... ....|--- .... ....|--- .... ....
....|..|A-4 2F.7 ....|E-4 2F.7 ....|C-4 LF.7 ....
....|..|--- .... ....|--- .... ....|--- .... ....
....|..|--- .... ....|--- .... ....|--- .... ....
....|..|--- .... ....|--- .... ....|--- .... ....
..12|..|E-4 2C.F ....|R-- .... ....|R-- .... ....
....|..|--- .... ....|--- .... ....|--- .... ....
....|..|--- .... ....|--- .... ....|--- .... ....
....|..|--- .... ....|--- .... ....|--- .... ....
..12|..|E-4 2C.F ....|--- .... ....|--- .... ....
....|..|--- .... ....|--- .... ....|--- .... ....
....|..|E-4 2F.A ....|--- .... ....|--- .... ....
....|..|--- .... ....|--- .... ....|--- .... ....
..12|..|E-5 2C.F ....|--- .... ....|--- .... ....
....|..|--- .... ....|--- .... ....|--- .... ....
....|..|E-4 2F.A ....|--- .... ....|--- .... ....
....|..|--- .... ....|--- .... ....|--- .... ....
..12|..|E-5 2C.F ....|--- .... ....|--- .... ....
....|..|--- .... ....|--- .... ....|--- .... ....
....|..|E-5 2F.A ....|--- .... ....|--- .... ....
....|..|--- .... ....|--- .... ....|--- .... ....

[Pattern8]
..12|..|E-5 2C.F ....|E-5 2F.F ....|C-4 LF.F ....
....|..|--- .... ....|--- .... ....|--- .... ....
....|..|E-5 2F.A ....|--- .... ....|--- .... ....
....|..|--- .... ....|--- .... ....|--- .... ....
..12|..|E-5 2C.F ....|R-- .... ....|R-- .... ....
....|..|--- .... ....|--- .... ....|--- .... ....
....|..|E-5 2F.A ....|E-5 2F.A ....|C-4 LF.A ....
....|..|--- .... ....|--- .... ....|--- .... ....
..12|..|E-5 2C.F ....|A-5 2F.F ....|C-4 LF.F ....
....|..|--- .... ....|--- .... ....|--- .... ....
..12|..|E-5 2C.F ....|R-- .... ....|R-- .... ....
....|..|--- .... ....|--- .... ....|--- .... ....
....|..|E-5 2F.7 ....|E-5 2F.7 ....|C-4 LF.7 ....
....|..|--- .... ....|--- .... ....|--- .... ....
....|..|E-5 2F.A ....|A-5 2F.A ....|C-4 LF.A ....
....|..|--- .... ....|--- .... ....|--- .... ....
..12|..|E-5 2C.F ....|E-6 2F.F ....|C-4 LF.F ....
....|..|--- .... ....|--- .... ....|--- .... ....
..12|..|E-5 2C.F ....|E-6 2F.F ....|C-4 LF.F ....
....|..|--- .... ....|--- .... ....|--- .... ....
....|..|E-5 2F.7 ....|A-5 2F.7 ....|C-4 LF.7 ....
....|..|--- .... ....|--- .... ....|--- .... ....
....|..|E-5 2F.7 ....|E-6 2F.A ....|C-4 LF.A ....
....|..|--- .... ....|--- .... ....|--- .... ....
..12|..|E-5 2C.F ....|E-6 2F.A ....|C-4 LF.A ....
....|..|--- .... ....|--- .... ....|--- .... ....
..12|..|E-5 2C.F ....|--- .... ....|--- .... ....
....|..|--- .... ....|--- .... ....|--- .... ....
....|..|E-5 2F.7 ....|E-6 2F.7 ....|C-4 LF.7 ....
....|..|--- .... ....|--- .... ....|--- .... ....
....|..|E-5 2F.7 ....|F-4 2F.F ....|C-4 LF.F ....
....|..|--- .... ....|--- .... ....|--- .... ....
..1B|..|A-4 2C.F ....|F-4 2F2F ....|C-4 LF.F ....
....|..|--- .... ....|--- .... ....|--- .... ....
....|..|--- .... ....|--- .... ....|--- .... ....
....|..|--- .... ....|--- .... ....|--- .... ....
....|..|E-5 2F.7 ....|F-4 2F.F ....|C-4 LF.F ....
....|..|--- .... ....|--- .... ....|--- .... ....
....|..|E-5 2F.7 ....|F-4 2F2A ....|C-4 LF.A ....
....|..|--- .... ....|--- .... ....|--- .... ....
....|..|--- .... ....|E-5 2F.F ....|C-4 LF.F ....
....|..|--- .... ....|--- .... ....|--- .... ....
....|..|R-- .... ....|E-5 2F.F ....|C-4 LF.F ....
....|..|--- .... ....|--- .... ....|--- .... ....
....|..|A-4 2F.7 ....|E-4 2F1F ....|C-4 LF.F ....
....|..|--- .... ....|--- .... ....|--- .... ....
....|..|--- .... ....|A-5 2F.F ....|C-4 LF.F ....
....|..|--- .... ....|--- .... ....|--- .... ....
..1B|..|A-5 2C.F ....|F-4 2F.7 ....|C-4 LF.7 ....
....|..|--- .... ....|--- .... ....|--- .... ....
....|..|--- .... ....|E-4 2F1A ....|C-4 LF.A ....
....|..|--- .... ....|--- .... ....|--- .... ....
..1B|..|A-5 2C.F ....|E-5 2F.7 ....|C-4 LF.7 ....
....|..|--- .... ....|--- .... ....|--- .... ....
....|..|A-5 2F.A ....|E-5 2F.7 ....|C-4 LF.7 ....
....|..|--- .... ....|--- .... ....|--- .... ....
..1B|..|A-5 2C.F ....|E-4 2F17 ....|C-4 LF.7 ....
....|..|--- .... ....|--- .... ....|--- .... ....
....|..|A-5 2F.A ....|A-5 2F.7 ....|C-4 LF.7 ....
....|..|--- .... ....|--- .... ....|--- .... ....
..1B|..|A-5 2C.F ....|E-6 2F.F ....|C-4 LF.F ....
....|..|--- .... ....|--- .... ....|--- .... ....
....|..|A-5 2F.A ....|--- .... ....|--- .... ....
....|..|--- .... ....|--- .... ....|--- .... ....

[Pattern9]
..1B|..|A-5 2C.F ....|E-6 2F.F ....|C-4 LF.F ....
....|..|--- .... ....|--- .... ....|--- .... ....
....|..|A-5 2F.A ....|E-6 2F.A ....|C-4 LF.A ....
....|..|--- .... ....|--- .... ....|--- .... ....
..1B|..|A-5 2C.F ....|E-6 2F.F ....|C-4 LF.F ....
....|..|--- .... ....|--- .... ....|--- .... ....
....|..|A-5 2F.A ....|E-6 2F.A ....|C-4 LF.A ....
....|..|--- .... ....|--- .... ....|--- .... ....
..1B|..|A-5 2C.F ....|E-6 2F.7 ....|C-4 LF.7 ....
....|..|--- .... ....|--- .... ....|--- .... ....
..1B|..|A-5 2C.F ....|E-6 2F.A ....|C-4 LF.A ....
....|..|--- .... ....|--- .... ....|--- .... ....
....|..|A-5 2F.7 ....|A-5 2F.F ....|C-4 LF.F ....
....|..|--- .... ....|--- .... ....|--- .... ....
....|..|A-5 2F.A ....|--- .... ....|--- .... ....
....|..|--- .... ....|--- .... ....|--- .... ....
..1B|..|A-5 2C.F ....|E-6 2F.7 ....|C-4 LF.7 ....
....|..|--- .... ....|--- .... ....|--- .... ....
..1B|..|A-5 2C.F ....|A-5 2F.A ....|C-4 LF.A ....
....|..|--- .... ....|--- .... ....|--- .... ....
....|..|A-5 2F.7 ....|--- .... ....|--- .... ....
....|..|--- .... ....|--- .... ....|--- .... ....
....|..|A-5 2F.7 ....|--- .... ....|--- .... ....
....|..|--- .... ....|--- .... ....|--- .... ....
..12|..|E-5 2C.F ....|A-5 2F.7 ....|C-4 LF.7 ....
....|..|--- .... ....|--- .... ....|--- .... ....
..12|..|E-5 2C.F ....|--- .... ....|--- .... ....
....|..|--- .... ....|--- .... ....|--- .... ....
....|..|A-5 2F.7 ....|R-- .... ....|R-- .... ....
....|..|--- .... ....|--- .... ....|--- .... ....
....|..|A-5 2F.7 ....|--- .... ....|--- .... ....
....|..|--- .... ....|--- .... ....|--- .... ....
..1B|..|A-4 2C.F ....|E-6 2F.F ....|C-4 LF.F ....
....|..|--- .... ....|--- .... ....|--- .... ....
....|..|--- .... ....|R-- .... ....|R-- .... ....
....|..|--- .... ....|--- .... ....|--- .... ....
....|..|E-5 2F.7 ....|R-- .... ....|R-- .... ....
....|..|--- .... ....|--- .... ....|--- .... ....
....|..|E-5 2F.7 ....|E-6 2F.A ....|C-4 LF.A ....
....|..|--- .... ....|--- .... ....|--- .... ....
....|..|--- .... ....|R-- .... ....|R-- .... ....
....|..|--- .... ....|--- .... ....|--- .... ....
....|..|R-- .... ....|R-- .... ....|R-- .... ....
....|..|--- .... ....|--- .... ....|--- .... ....
....|..|A-4 2F.7 ....|E-6 2F.7 ....|C-4 LF.7 ....
....|..|--- .... ....|--- .... ....|--- .... ....
....|..|--- .... ....|--- .... ....|--- .... ....
....|..|--- .... ....|--- .... ....|--- .... ....
..1B|..|A-4 2C.F ....|R-- .... ....|R-- .... ....
....|..|--- .... ....|--- .... ....|--- .... ....
....|..|--- .... ....|--- .... ....|--- .... ....
....|..|--- .... ....|--- .... ....|--- .... ....
..1B|..|A-4 2C.F ....|--- .... ....|--- .... ....
....|..|--- .... ....|--- .... ....|--- .... ....
....|..|A-4 2F.A ....|--- .... ....|--- .... ....
....|..|--- .... ....|--- .... ....|--- .... ....
..12|..|E-5 2C.F ....|--- .... ....|--- .... ....
....|..|--- .... ....|--- .... ....|--- .... ....
....|..|A-4 2F.A ....|--- .... ....|--- .... ....
....|..|--- .... ....|--- .... ....|--- .... ....
..12|..|E-5 2C.F ....|--- .... ....|--- .... ....
....|..|--- .... ....|--- .... ....|--- .... ....
....|..|E-5 2F.A ....|--- .... ....|--- .... ....
....|..|--- .... ....|--- .... ....|--- .... ....

[Pattern10]
..12|..|E-5 2C.F ....|E-5 2F.F ....|C-4 LF.F ....
....|..|--- .... ....|--- .... ....|--- .... ....
....|..|E-5 2F.A ....|--- .... ....|--- .... ....
....|..|--- .... ....|--- .... ....|--- .... ....
..12|..|E-5 2C.F ....|R-- .... ....|R-- .... ....
....|..|--- .... ....|--- .... ....|--- .... ....
....|..|E-5 2F.A ....|E-5 2F.A ....|C-4 LF.A ....
....|..|--- .... ....|--- .... ....|--- .... ....
..12|..|E-5 2C.F ....|A-4 2F.F ....|C-4 LF.F ....
....|..|--- .... ....|--- .... ....|--- .... ....
..12|..|E-5 2C.F ....|R-- .... ....|R-- .... ....
....|..|--- .... ....|--- .... ....|--- .... ....
....|..|E-5 2F.7 ....|E-5 2F.7 ....|C-4 LF.7 ....
....|..|--- .... ....|--- .... ....|--- .... ....
....|..|E-5 2F.A ....|A-4 2F.A ....|C-4 LF.A ....
....|..|--- .... ....|--- .... ....|--- .... ....
..12|..|E-5 2C.F ....|E-4 2F1F ....|C-4 LF.F ....
....|..|--- .... ....|--- .... ....|--- .... ....
..12|..|E-5 2C.F ....|E-4 2F.F ....|C-4 LF.F ....
....|..|--- .... ....|--- .... ....|--- .... ....
....|..|E-5 2F.7 ....|A-4 2F.7 ....|C-4 LF.7 ....
....|..|--- .... ....|--- .... ....|--- .... ....
....|..|E-5 2F.7 ....|E-4 2F1A ....|C-4 LF.A ....
....|..|--- .... ....|--- .... ....|--- .... ....
..12|..|E-5 2C.F ....|E-4 2F.A ....|C-4 LF.A ....
....|..|--- .... ....|--- .... ....|--- .... ....
..12|..|E-5 2C.F ....|--- .... ....|--- .... ....
....|..|--- .... ....|--- .... ....|--- .... ....
....|..|E-5 2F.7 ....|E-4 2F17 ....|C-4 LF.7 ....
....|..|--- .... ....|--- .... ....|--- .... ....
....|..|E-5 2F.7 ....|E-5 2F.F ....|C-4 LF.F ....
....|..|--- .... ....|--- .... ....|--- .... ....
..1B|..|A-4 2C.F ....|E-4 2F1F ....|C-4 LF.F ....
....|..|--- .... ....|--- .... ....|--- .... ....
....|..|--- .... ....|--- .... ....|--- .... ....
....|..|--- .... ....|--- .... ....|--- .... ....
....|..|E-5 2F.7 ....|E-5 2F.F ....|C-4 LF.F ....
....|..|--- .... ....|--- .... ....|--- .... ....
....|..|E-5 2F.7 ....|E-4 2F1A ....|C-4 LF.A ....
....|..|--- .... ....|--- .... ....|--- .... ....
....|..|--- .... ....|E-6 2F.F ....|C-4 LF.F ....
....|..|--- .... ....|--- .... ....|--- .... ....
....|..|R-- .... ....|E-6 2F.F ....|C-4 LF.F ....
....|..|--- .... ....|--- .... ....|--- .... ....
....|..|A-4 2F.7 ....|E-6 2F.F ....|C-4 LF.F ....
....|..|--- .... ....|--- .... ....|--- .... ....
....|..|--- .... ....|F-4 2F.F ....|C-4 LF.F ....
....|..|--- .... ....|--- .... ....|--- .... ....
..12|..|E-4 2C.F ....|E-5 2F.7 ....|C-4 LF.7 ....
....|..|--- .... ....|--- .... ....|--- .... ....
....|..|--- .... ....|E-6 2F.A ....|C-4 LF.A ....
....|..|--- .... ....|--- .... ....|--- .... ....
..1B|..|A-4 2C.F ....|E-6 2F.7 ....|C-4 LF.7 ....
....|..|--- .... ....|--- .... ....|--- .... ....
....|..|E-4 2F.A ....|E-6 2F.7 ....|C-4 LF.7 ....
....|..|--- .... ....|--- .... ....|--- .... ....
..12|..|E-5 2C.F ....|E-6 2F.7 ....|C-4 LF.7 ....
....|..|--- .... ....|--- .... ....|--- .... ....
....|..|A-4 2F.A ....|F-4 2F.7 ....|C-4 LF.7 ....
....|..|--- .... ....|--- .... ....|--- .... ....
..12|..|E-5 2C.F ....|A-4 2F.F ....|C-4 LF.F ....
....|..|--- .... ....|--- .... ....|--- .... ....
....|..|E-5 2F.A ....|--- .... ....|--- .... ....
....|..|--- .... ....|--- .... ....|--- .... ....

[Pattern11]
..12|..|E-5 2C.F ....|E-5 2F.F ....|C-4 LF.F ....
....|..|--- .... ....|--- .... ....|--- .... ....
....|..|E-5 2F.A ....|A-4 2F.A ....|C-4 LF.A ....
....|..|--- .... ....|--- .... ....|--- .... ....
..12|..|E-5 2C.F ....|A-4 2F.F ....|C-4 LF.F ....
....|..|--- .... ....|--- .... ....|--- .... ....
....|..|E-5 2F.A ....|E-5 2F.A ....|C-4 LF.A ....
....|..|--- .... ....|--- .... ....|--- .... ....
..12|..|E-5 2C.F ....|A-4 2F.7 ....|C-4 LF.7 ....
....|..|--- .... ....|--- .... ....|--- .... ....
..12|..|E-5 2C.F ....|A-4 2F.A ....|C-4 LF.A ....
....|..|--- .... ....|--- .... ....|--- .... ....
....|..|E-5 2F.7 ....|A-5 2F.F ....|C-4 LF.F ....
....|..|--- .... ....|--- .... ....|--- .... ....
....|..|E-5 2F.A ....|--- .... ....|--- .... ....
....|..|--- .... ....|--- .... ....|--- .... ....
..1B|..|A-5 2C.F ....|A-4 2F.7 ....|C-4 LF.7 ....
....|..|--- .... ....|--- .... ....|--- .... ....
..1B|..|A-5 2C.F ....|A-5 2F.A ....|C-4 LF.A ....
....|..|--- .... ....|--- .... ....|--- .... ....
....|..|E-5 2F.7 ....|--- .... ....|--- .... ....
....|..|--- .... ....|--- .... ....|--- .... ....
....|..|E-5 2F.7 ....|--- .... ....|--- .... ....
....|..|--- .... ....|--- .... ....|--- .... ....
..12|..|E-5 2C.F ....|A-5 2F.7 ....|C-4 LF.7 ....
....|..|--- .... ....|--- .... ....|--- .... ....
..12|..|E-5 2C.F ....|--- .... ....|--- .... ....
....|..|--- .... ....|--- .... ....|--- .... ....
....|..|A-5 2F.7 ....|R-- .... ....|R-- .... ....
....|..|--- .... ....|--- .... ....|--- .... ....
....|..|A-5 2F.7 ....|--- .... ....|--- .... ....
....|..|--- .... ....|--- .... ....|--- .... ....
..1B|..|A-4 2C.F ....|E-6 2F.F ....|C-4 LF.F ....
....|..|--- .... ....|--- .... ....|--- .... ....
....|..|--- .... ....|R-- .... ....|R-- .... ....
....|..|--- .... ....|--- .... ....|--- .... ....
....|..|E-5 2F.7 ....|R-- .... ....|R-- .... ....
....|..|--- .... ....|--- .... ....|--- .... ....
....|..|E-5 2F.7 ....|E-6 2F.A ....|C-4 LF.A ....
....|..|--- .... ....|--- .... ....|--- .... ....
....|..|--- .... ....|R-- .... ....|R-- .... ....
....|..|--- .... ....|--- .... ....|--- .... ....
....|..|R-- .... ....|R-- .... ....|R-- .... ....
....|..|--- .... ....|--- .... ....|--- .... ....
....|..|A-4 2F.7 ....|E-6 2F.7 ....|C-4 LF.7 ....
....|..|--- .... ....|--- .... ....|--- .... ....
....|..|--- .... ....|--- .... ....|--- .... ....
....|..|--- .... ....|--- .... ....|--- .... ....
..1B|..|A-4 2C.F ....|R-- .... ....|R-- .... ....
....|..|--- .... ....|--- .... ....|--- .... ....
....|..|--- .... ....|--- .... ....|--- .... ....
....|..|--- .... ....|--- .... ....|--- .... ....
..1B|..|A-4 2C.F ....|--- .... ....|--- .... ....
....|..|--- .... ....|--- .... ....|--- .... ....
....|..|A-4 2F.A ....|--- .... ....|--- .... ....
....|..|--- .... ....|--- .... ....|--- .... ....
..12|..|E-5 2C.F ....|--- .... ....|--- .... ....
....|..|--- .... ....|--- .... ....|--- .... ....
....|..|A-4 2F.A ....|--- .... ....|--- .... ....
....|..|--- .... ....|--- .... ....|--- .... ....
..12|..|E-5 2C.F ....|--- .... ....|--- .... ....
....|..|--- .... ....|--- .... ....|--- .... ....
....|..|E-5 2F.A ....|--- .... ....|--- .... ....
....|..|--- .... ....|--- .... ....|--- .... ....

[Pattern12]
..12|..|E-5 2C.F ....|E-5 2F.F ....|C-4 LF.F ....
....|..|--- .... ....|--- .... ....|--- .... ....
....|..|E-5 2F.A ....|--- .... ....|--- .... ....
....|..|--- .... ....|--- .... ....|--- .... ....
..12|..|E-5 2C.F ....|R-- .... ....|R-- .... ....
....|..|--- .... ....|--- .... ....|--- .... ....
....|..|E-5 2F.A ....|E-5 2F.A ....|C-4 LF.A ....
....|..|--- .... ....|--- .... ....|--- .... ....
..12|..|E-5 2C.F ....|A-5 2F.F ....|C-4 LF.F ....
....|..|--- .... ....|--- .... ....|--- .... ....
..12|..|E-5 2C.F ....|R-- .... ....|R-- .... ....
....|..|--- .... ....|--- .... ....|--- .... ....
....|..|E-5 2F.7 ....|E-5 2F.7 ....|C-4 LF.7 ....
....|..|--- .... ....|--- .... ....|--- .... ....
....|..|E-5 2F.A ....|A-5 2F.A ....|C-4 LF.A ....
....|..|--- .... ....|--- .... ....|--- .... ....
..12|..|E-5 2C.F ....|A-5 2F.F ....|C-4 LF.F ....
....|..|--- .... ....|--- .... ....|--- .... ....
..12|..|E-5 2C.F ....|E-4 2F.F ....|C-4 LF.F ....
....|..|--- .... ....|--- .... ....|--- .... ....
....|..|E-5 2F.7 ....|A-5 2F.7 ....|C-4 LF.7 ....
....|..|--- .... ....|--- .... ....|--- .... ....
....|..|E-5 2F.7 ....|A-5 2F.A ....|C-4 LF.A ....
....|..|--- .... ....|--- .... ....|--- .... ....
..12|..|E-5 2C.F ....|E-4 2F.A ....|C-4 LF.A ....
....|..|--- .... ....|--- .... ....|--- .... ....
..12|..|E-5 2C.F ....|--- .... ....|--- .... ....
....|..|--- .... ....|--- .... ....|--- .... ....
....|..|E-5 2F.7 ....|A-5 2F.7 ....|C-4 LF.7 ....
....|..|--- .... ....|--- .... ....|--- .... ....
....|..|E-5 2F.7 ....|E-6 2F.F ....|C-4 LF.F ....
....|..|--- .... ....|--- .... ....|--- .... ....
..1B|..|A-4 2C.F ....|E-6 2F.F ....|C-4 LF.F ....
....|..|--- .... ....|--- .... ....|--- .... ....
....|..|--- .... ....|--- .... ....|--- .... ....
....|..|--- .... ....|--- .... ....|--- .... ....
....|..|E-5 2F.7 ....|E-6 2F.F ....|C-4 LF.F ....
....|..|--- .... ....|--- .... ....|--- .... ....
....|..|E-5 2F.7 ....|E-6 2F.A ....|C-4 LF.A ....
....|..|--- .... ....|--- .... ....|--- .... ....
....|..|--- .... ....|E-6 2F.F ....|C-4 LF.F ....
....|..|--- .... ....|--- .... ....|--- .... ....
....|..|R-- .... ....|E-5 2F.F ....|C-4 LF.F ....
....|..|--- .... ....|--- .... ....|--- .... ....
....|..|A-4 2F.7 ....|E-5 2F.F ....|C-4 LF.F ....
....|..|--- .... ....|--- .... ....|--- .... ....
....|..|--- .... ....|F-4 2F.F ....|C-4 LF.F ....
....|..|--- .... ....|--- .... ....|--- .... ....
..12|..|E-4 2C.F ....|E-6 2F.7 ....|C-4 LF.7 ....
....|..|--- .... ....|--- .... ....|--- .... ....
....|..|--- .... ....|E-5 2F.A ....|C-4 LF.A ....
....|..|--- .... ....|--- .... ....|--- .... ....
..1B|..|A-4 2C.F ....|E-6 2F.7 ....|C-4 LF.7 ....
....|..|--- .... ....|--- .... ....|--- .... ....
....|..|E-4 2F.A ....|E-5 2F.7 ....|C-4 LF.7 ....
....|..|--- .... ....|--- .... ....|--- .... ....
..12|..|E-5 2C.F ....|E-5 2F.7 ....|C-4 LF.7 ....
....|..|--- .... ....|--- .... ....|--- .... ....
....|..|A-4 2F.A ....|F-4 2F.7 ....|C-4 LF.7 ....
....|..|--- .... ....|--- .... ....|--- .... ....
..12|..|E-5 2C.F ....|A-5 2F.F ....|C-4 LF.F ....
....|..|--- .... ....|--- .... ....|--- .... ....
....|..|E-5 2F.A ....|--- .... ....|--- .... ....
....|..|--- .... ....|--- .... ....|--- .... ....

[Pattern13]
..12|..|E-5 2C.F ....|E-4 2F1F ....|C-4 LF.F ....
....|..|--- .... ....|--- .... ....|--- .... ....
....|..|E-5 2F.A ....|A-5 2F.A ....|C-4 LF.A ....
....|..|--- .... ....|--- .... ....|--- .... ....
..12|..|E-5 2C.F ....|A-5 2F.F ....|C-4 LF.F ....
....|..|--- .... ....|--- .... ....|--- .... ....
....|..|E-5 2F.A ....|E-4 2F1A ....|C-4 LF.A ....
....|..|--- .... ....|--- .... ....|--- .... ....
..12|..|E-5 2C.F ....|A-5 2F.7 ....|C-4 LF.7 ....
....|..|--- .... ....|--- .... ....|--- .... ....
..12|..|E-5 2C.F ....|A-5 2F.A ....|C-4 LF.A ....
....|..|--- .... ....|--- .... ....|--- .... ....
....|..|E-5 2F.7 ....|A-5 2F.F ....|C-4 LF.F ....
....|..|--- .... ....|--- .... ....|--- .... ....
....|..|E-5 2F.A ....|--- .... ....|--- .... ....
....|..|--- .... ....|--- .... ....|--- .... ....
..12|..|E-5 2C.F ....|A-5 2F.7 ....|C-4 LF.7 ....
....|..|--- .... ....|--- .... ....|--- .... ....
..12|..|E-5 2C.F ....|A-5 2F.A ....|C-4 LF.A ....
....|..|--- .... ....|--- .... ....|--- .... ....
....|..|E-5 2F.7 ....|--- .... ....|--- .... ....
....|..|--- .... ....|--- .... ....|--- .... ....
....|..|E-5 2F.7 ....|--- .... ....|--- .... ....
....|..|--- .... ....|--- .... ....|--- .... ....
..12|..|E-5 2C.F ....|A-5 2F.7 ....|C-4 LF.7 ....
....|..|--- .... ....|--- .... ....|--- .... ....
..12|..|E-5 2C.F ....|--- .... ....|--- .... ....
....|..|--- .... ....|--- .... ....|--- .... ....
....|..|E-5 2F.7 ....|R-- .... ....|R-- .... ....
....|..|--- .... ....|--- .... ....|--- .... ....
....|..|E-5 2F.7 ....|--- .... ....|--- .... ....
....|..|--- .... ....|--- .... ....|--- .... ....
..1B|..|A-5 2C.F ....|E-6 2F.F ....|C-4 LF.F ....
....|..|--- .... ....|--- .... ....|--- .... ....
....|..|--- .... ....|E-6 2F.F ....|C-4 LF.F ....
....|..|--- .... ....|--- .... ....|--- .... ....
....|..|E-5 2F.7 ....|A-4 2F.F ....|C-4 LF.F ....
....|..|--- .... ....|--- .... ....|--- .... ....
....|..|E-5 2F.7 ....|E-6 2F.A ....|C-4 LF.A ....
....|..|--- .... ....|--- .... ....|--- .... ....
....|..|--- .... ....|E-6 2F.A ....|C-4 LF.A ....
....|..|--- .... ....|--- .... ....|--- .... ....
....|..|R-- .... ....|A-4 2F.A ....|C-4 LF.A ....
....|..|--- .... ....|--- .... ....|--- .... ....
....|..|A-5 2F.7 ....|E-6 2F.7 ....|C-4 LF.7 ....
....|..|--- .... ....|--- .... ....|--- .... ....
....|..|--- .... ....|E-6 2F.7 ....|C-4 LF.7 ....
....|..|--- .... ....|--- .... ....|--- .... ....
..1B|..|A-4 2C.F ....|A-4 2F.7 ....|C-4 LF.7 ....
....|..|--- .... ....|--- .... ....|--- .... ....
....|..|--- .... ....|R-- .... ....|R-- .... ....
....|..|--- .... ....|--- .... ....|--- .... ....
..1B|..|A-4 2C.F ....|--- .... ....|--- .... ....
....|..|--- .... ....|--- .... ....|--- .... ....
....|..|A-4 2F.A ....|--- .... ....|--- .... ....
....|..|--- .... ....|--- .... ....|--- .... ....
..1B|..|A-4 2C.F ....|R-- .... ....|R-- .... ....
....|..|--- .... ....|--- .... ....|--- .... ....
....|..|A-4 2F.A ....|--- .... ....|--- .... ....
....|..|--- .... ....|--- .... ....|--- .... ....
..12|..|E-5 2C.F ....|--- .... ....|--- .... ....
....|..|--- .... ....|--- .... ....|--- .... ....
....|..|A-4 2F.A ....|R-- .... ....|R-- .... ....
....|..|--- .... ....|--- .... ....|--- .... ....

[Pattern14]
..12|..|E-5 2C.F ....|E-5 2F.F ....|C-4 LF.F ....
....|..|--- .... ....|--- .... ....|--- .... ....
....|..|E-5 2F.A ....|--- .... ....|--- .... ....
....|..|--- .... ....|--- .... ....|--- .... ....
..12|..|E-5 2C.F ....|R-- .... ....|R-- .... ....
....|..|--- .... ....|--- .... ....|--- .... ....
....|..|E-5 2F.A ....|E-5 2F.A ....|C-4 LF.A ....
....|..|--- .... ....|--- .... ....|--- .... ....
..12|..|E-5 2C.F ....|A-5 2F.F ....|C-4 LF.F ....
....|..|--- .... ....|--- .... ....|--- .... ....
..12|..|E-5 2C.F ....|R-- .... ....|R-- .... ....
....|..|--- .... ....|--- .... ....|--- .... ....
....|..|E-5 2F.7 ....|E-5 2F.7 ....|C-4 LF.7 ....
....|..|--- .... ....|--- .... ....|--- .... ....
....|..|E-5 2F.A ....|A-5 2F.A ....|C-4 LF.A ....
....|..|--- .... ....|--- .... ....|--- .... ....
..12|..|E-5 2C.F ....|A-5 2F.F ....|C-4 LF.F ....
....|..|--- .... ....|--- .... ....|--- .... ....
..12|..|E-5 2C.F ....|E-4 2F.F ....|C-4 LF.F ....
....|..|--- .... ....|--- .... ....|--- .... ....
....|..|E-5 2F.7 ....|A-5 2F.7 ....|C-4 LF.7 ....
....|..|--- .... ....|--- .... ....|--- .... ....
....|..|E-5 2F.7 ....|A-5 2F.A ....|C-4 LF.A ....
....|..|--- .... ....|--- .... ....|--- .... ....
..12|..|E-5 2C.F ....|E-4 2F.A ....|C-4 LF.A ....
....|..|--- .... ....|--- .... ....|--- .... ....
..12|..|E-5 2C.F ....|--- .... ....|--- .... ....
....|..|--- .... ....|--- .... ....|--- .... ....
....|..|E-5 2F.7 ....|A-5 2F.7 ....|C-4 LF.7 ....
....|..|--- .... ....|--- .... ....|--- .... ....
....|..|E-5 2F.7 ....|E-6 2F.F ....|C-4 LF.F ....
....|..|--- .... ....|--- .... ....|--- .... ....
..1B|..|A-4 2C.F ....|E-6 2F.F ....|C-4 LF.F ....
....|..|--- .... ....|--- .... ....|--- .... ....
....|..|--- .... ....|--- .... ....|--- .... ....
....|..|--- .... ....|--- .... ....|--- .... ....
....|..|E-5 2F.7 ....|E-6 2F.F ....|C-4 LF.F ....
....|..|--- .... ....|--- .... ....|--- .... ....
....|..|E-5 2F.7 ....|E-6 2F.A ....|C-4 LF.A ....
....|..|--- .... ....|--- .... ....|--- .... ....
....|..|--- .... ....|E-6 2F.F ....|C-4 LF.F ....
....|..|--- .... ....|--- .... ....|--- .... ....
....|..|R-- .... ....|E-5 2F.F ....|C-4 LF.F ....
....|..|--- .... ....|--- .... ....|--- .... ....
....|..|A-4 2F.7 ....|E-4 2F1F ....|C-4 LF.F ....
....|..|--- .... ....|--- .... ....|--- .... ....
....|..|--- .... ....|A-5 2F.F ....|C-4 LF.F ....
....|..|--- .... ....|--- .... ....|--- .... ....
..12|..|E-4 2C.F ....|E-6 2F.7 ....|C-4 LF.7 ....
....|..|--- .... ....|--- .... ....|--- .... ....
....|..|--- .... ....|E-4 2F1A ....|C-4 LF.A ....
....|..|--- .... ....|--- .... ....|--- .... ....
..1B|..|A-4 2C.F ....|E-6 2F.7 ....|C-4 LF.7 ....
....|..|--- .... ....|--- .... ....|--- .... ....
....|..|E-4 2F.A ....|E-5 2F.7 ....|C-4 LF.7 ....
....|..|--- .... ....|--- .... ....|--- .... ....
..12|..|E-5 2C.F ....|E-4 2F17 ....|C-4 LF.7 ....
....|..|--- .... ....|--- .... ....|--- .... ....
....|..|A-4 2F.A ....|A-5 2F.7 ....|C-4 LF.7 ....
....|..|--- .... ....|--- .... ....|--- .... ....
..12|..|E-5 2C.F ....|E-6 2F.F ....|C-4 LF.F ....
....|..|--- .... ....|--- .... ....|--- .... ....
....|..|E-5 2F.A ....|--- .... ....|--- .... ....
....|..|--- .... ....|--- .... ....|--- .... ....

[Pattern15]
..12|..|E-5 2C.F ....|E-6 2F.F ....|C-4 LF.F ....
....|..|--- .... ....|--- .... ....|--- .... ....
....|..|E-5 2F.A ....|E-6 2F.A ....|C-4 LF.A ....
....|..|--- .... ....|--- .... ....|--- .... ....
..12|..|E-5 2C.F ....|E-6 2F.F ....|C-4 LF.F ....
....|..|--- .... ....|--- .... ....|--- .... ....
....|..|E-5 2F.A ....|E-6 2F.A ....|C-4 LF.A ....
....|..|--- .... ....|--- .... ....|--- .... ....
..12|..|E-5 2C.F ....|E-6 2F.7 ....|C-4 LF.7 ....
....|..|--- .... ....|--- .... ....|--- .... ....
..12|..|E-5 2C.F ....|E-6 2F.F ....|C-4 LF.F ....
....|..|--- .... ....|--- .... ....|--- .... ....
..12|..|E-5 2C.F ....|A-5 2F.F ....|C-4 LF.F ....
....|..|--- .... ....|--- .... ....|--- .... ....
..12|..|E-5 2C.F ....|--- .... ....|--- .... ....
....|..|--- .... ....|--- .... ....|--- .... ....
..12|..|E-5 2C.F ....|E-6 2F.7 ....|C-4 LF.7 ....
....|..|--- .... ....|--- .... ....|--- .... ....
..12|..|E-5 2C.F ....|A-5 2F.A ....|C-4 LF.A ....
....|..|--- .... ....|--- .... ....|--- .... ....
..12|..|E-5 2C.F ....|R-- .... ....|R-- .... ....
....|..|--- .... ....|--- .... ....|--- .... ....
..12|..|E-5 2C.F ....|E-6 2F.7 ....|C-4 LF.7 ....
....|..|--- .... ....|--- .... ....|--- .... ....
..12|..|E-5 2C.F ....|E-6 2F.F ....|C-4 LF.F ....
....|..|--- .... ....|--- .... ....|--- .... ....
..12|..|E-5 2C.F ....|R-- .... ....|R-- .... ....
....|..|--- .... ....|--- .... ....|--- .... ....
....|..|E-5 2F.7 ....|E-6 2F.F ....|C-4 LF.F ....
....|..|--- .... ....|--- .... ....|--- .... ....
..12|..|E-4 2C.F ....|A-5 2F.F ....|C-4 LF.F ....
....|..|--- .... ....|--- .... ....|--- .... ....
..1B|..|A-4 2C.F ....|E-6 2F.F ....|C-4 LF.F ....
....|..|--- .... ....|--- .... ....|--- .... ....
..1B|..|A-4 2C.F ....|E-6 2F.F ....|C-4 LF.F ....
....|..|--- .... ....|--- .... ....|--- .... ....
..1B|..|A-4 2C.F ....|E-6 2F.7 ....|C-4 LF.7 ....
....|..|--- .... ....|--- .... ....|--- .... ....
....|..|E-5 2F.7 ....|E-6 2F.A ....|C-4 LF.A ....
....|..|--- .... ....|--- .... ....|--- .... ....
..1B|..|A-4 2C.F ....|E-6 2F.7 ....|C-4 LF.7 ....
....|..|--- .... ....|--- .... ....|--- .... ....
..12|..|E-4 2C.F ....|A-4 2F.F ....|C-4 LF.F ....
....|..|--- .... ....|--- .... ....|--- .... ....
..12|..|E-4 2C.F ....|E-6 2F.7 ....|C-4 LF.7 ....
....|..|--- .... ....|--- .... ....|--- .... ....
....|..|A-4 2F.7 ....|E-6 2F.7 ....|C-4 LF.7 ....
....|..|--- .... ....|--- .... ....|--- .... ....
..12|..|E-4 2C.F ....|A-4 2F.A ....|C-4 LF.A ....
....|..|--- .... ....|--- .... ....|--- .... ....
..12|..|E-4 2C.F ....|--- .... ....|--- .... ....
....|..|--- .... ....|--- .... ....|--- .... ....
..12|..|E-4 2C.F ....|R-- .... ....|R-- .... ....
....|..|--- .... ....|--- .... ....|--- .... ....
..12|..|E-4 2C.F ....|A-4 2F.7 ....|C-4 LF.7 ....
....|..|--- .... ....|--- .... ....|--- .... ....
..1B|..|A-4 2C.F ....|E-5 2F.F ....|C-4 LF.F ....
....|..|--- .... ....|--- .... ....|--- .... ....
..1B|..|A-4 2C.F ....|R-- .... ....|R-- .... ....
....|..|--- .... ....|--- .... ....|--- .... ....
....|..|E-4 2F.7 ....|E-4 2F1F ....|C-4 LF.F ....
....|..|--- .... ....|--- .... ....|--- .... ....
....|..|E-4 2F.7 ....|A-5 2F.F ....|C-4 LF.F ....
....|..|--- .... ....|--- .... ....|--- .... ....

[Pattern16]
..1B|..|A-4 2C.F ....|E-4 2F1F ....|C-4 LF.F ....
....|..|--- .... ....|--- .... ....|--- .... ....
..12|..|E-4 2C.F ....|E-5 2F.F ....|C-4 LF.F ....
....|..|--- .... ....|--- .... ....|--- .... ....
..12|..|E-4 2C.F ....|E-5 2F.7 ....|C-4 LF.7 ....
....|..|--- .... ....|--- .... ....|--- .... ....
....|..|A-4 2F.7 ....|E-4 2F1A ....|C-4 LF.A ....
....|..|--- .... ....|--- .... ....|--- .... ....
..12|..|E-4 2C.F ....|E-4 2F17 ....|C-4 LF.7 ....
....|..|--- .... ....|--- .... ....|--- .... ....
..12|..|E-4 2C.F ....|A-5 2F.F ....|C-4 LF.F ....
....|..|--- .... ....|--- .... ....|--- .... ....
..12|..|E-5 2C.F ....|E-4 2F17 ....|C-4 LF.7 ....
....|..|--- .... ....|--- .... ....|--- .... ....
....|..|E-4 2F.7 ....|E-5 2F.7 ....|C-4 LF.7 ....
....|..|--- .... ....|--- .... ....|--- .... ....
..12|..|E-5 2C.F ....|A-5 2F.A ....|C-4 LF.A ....
....|..|--- .... ....|--- .... ....|--- .... ....
..12|..|E-4 2C.F ....|--- .... ....|--- .... ....
....|..|--- .... ....|--- .... ....|--- .... ....
....|..|E-4 2F.7 ....|R-- .... ....|R-- .... ....
....|..|--- .... ....|--- .... ....|--- .... ....
....|..|E-4 2F.7 ....|A-5 2F.7 ....|C-4 LF.7 ....
....|..|--- .... ....|--- .... ....|--- .... ....
....|..|E-5 2F.7 ....|E-6 2F.F ....|C-4 LF.F ....
....|..|--- .... ....|--- .... ....|--- .... ....
....|..|--- .... ....|R-- .... ....|R-- .... ....
....|..|--- .... ....|--- .... ....|--- .... ....
....|..|E-5 2F.7 ....|E-6 2F.F ....|C-4 LF.F ....
....|..|--- .... ....|--- .... ....|--- .... ....
....|..|E-4 2F.7 ....|A-5 2F.F ....|C-4 LF.F ....
....|..|--- .... ....|--- .... ....|--- .... ....
..12|..|E-5 2C.F ....|E-6 2F.F ....|C-4 LF.F ....
....|..|--- .... ....|--- .... ....|--- .... ....
....|..|R-- .... ....|E-6 2F.F ....|C-4 LF.F ....
....|..|--- .... ....|--- .... ....|--- .... ....
..12|..|E-4 2C.F ....|E-6 2F.7 ....|C-4 LF.7 ....
....|..|--- .... ....|--- .... ....|--- .... ....
....|..|E-5 2F.A ....|E-6 2F.A ....|C-4 LF.A ....
....|..|--- .... ....|--- .... ....|--- .... ....
..12|..|E-4 2C.F ....|E-6 2F.7 ....|C-4 LF.7 ....
....|..|--- .... ....|--- .... ....|--- .... ....
..1B|..|A-4 2C.F ....|A-4 2F.F ....|C-4 LF.F ....
....|..|--- .... ....|--- .... ....|--- .... ....
..12|..|E-5 2C.F ....|E-6 2F.7 ....|C-4 LF.7 ....
....|..|--- .... ....|--- .... ....|--- .... ....
..12|..|E-5 2C.F ....|E-6 2F.7 ....|C-4 LF.7 ....
....|..|--- .... ....|--- .... ....|--- .... ....
....|..|E-4 2F.7 ....|A-4 2F.A ....|C-4 LF.A ....
....|..|--- .... ....|--- .... ....|--- .... ....
....|..|E-5 2F.A ....|--- .... ....|--- .... ....
....|..|--- .... ....|--- .... ....|--- .... ....
..1B|..|A-5 2C.F ....|R-- .... ....|R-- .... ....
....|..|--- .... ....|--- .... ....|--- .... ....
....|..|A-4 2F.7 ....|A-4 2F.7 ....|C-4 LF.7 ....
....|..|--- .... ....|--- .... ....|--- .... ....
..1B|..|A-5 2C.F ....|E-5 2F.F ....|C-4 LF.F ....
....|..|--- .... ....|--- .... ....|--- .... ....
..1B|..|A-5 2C.F ....|R-- .... ....|R-- .... ....
....|..|--- .... ....|--- .... ....|--- .... ....
....|..|--- .... ....|E-4 2F1F ....|C-4 LF.F ....
....|..|--- .... ....|--- .... ....|--- .... ....
....|..|A-5 2F.A ....|A-5 2F.F ....|C-4 LF.F ....
....|..|--- .... ....|--- .... ....|--- .... ....

[Pattern17]
..1B|..|A-5 2C.F ....|E-4 2F1F ....|C-4 LF.F ....
....|..|--- .... ....|--- .... ....|--- .... ....
..12|..|E-4 2C.F ....|E-5 2F.F ....|C-4 LF.F ....
....|..|--- .... ....|--- .... ....|--- .... ....
..1B|..|A-4 2C.F ....|E-5 2F.7 ....|C-4 LF.7 ....
....|..|--- .... ....|--- .... ....|--- .... ....
....|..|A-5 2F.7 ....|E-4 2F1A ....|C-4 LF.A ....
....|..|--- .... ....|--- .... ....|--- .... ....
..1B|..|A-4 2C.F ....|E-4 2F17 ....|C-4 LF.7 ....
....|..|--- .... ....|--- .... ....|--- .... ....
..12|..|E-5 2C.F ....|A-5 2F.F ....|C-4 LF.F ....
....|..|--- .... ....|--- .... ....|--- .... ....
..12|..|E-5 2C.F ....|E-4 2F17 ....|C-4 LF.7 ....
....|..|--- .... ....|--- .... ....|--- .... ....
..12|..|E-3 2C.F ....|E-5 2F.7 ....|C-4 LF.7 ....
....|..|--- .... ....|--- .... ....|--- .... ....
..1B|..|A-5 2C.F ....|A-5 2F.A ....|C-4 LF.A ....
....|..|--- .... ....|--- .... ....|--- .... ....
..1B|..|A-5 2C.F ....|--- .... ....|--- .... ....
....|..|--- .... ....|--- .... ....|--- .... ....
..1B|..|A-5 2C.F ....|R-- .... ....|R-- .... ....
....|..|--- .... ....|--- .... ....|--- .... ....
..1B|..|A-3 2C.F ....|A-5 2F.7 ....|C-4 LF.7 ....
....|..|--- .... ....|--- .... ....|--- .... ....
..12|..|E-4 2C.F ....|E-6 2F.F ....|C-4 LF.F ....
....|..|--- .... ....|--- .... ....|--- .... ....
..12|..|E-4 2C.F ....|R-- .... ....|R-- .... ....
....|..|--- .... ....|--- .... ....|--- .... ....
....|..|A-5 2F.7 ....|E-6 2F.F ....|C-4 LF.F ....
....|..|--- .... ....|--- .... ....|--- .... ....
....|..|A-5 2F.7 ....|A-5 2F.F ....|C-4 LF.F ....
....|..|--- .... ....|--- .... ....|--- .... ....
..1B|..|A-4 2C.F ....|A-5 2F.F ....|C-4 LF.F ....
....|..|--- .... ....|--- .... ....|--- .... ....
..1B|..|A-4 2C.F ....|E-4 2F.F ....|C-4 LF.F ....
....|..|--- .... ....|--- .... ....|--- .... ....
..1B|..|A-4 2C.F ....|E-6 2F.7 ....|C-4 LF.7 ....
....|..|--- .... ....|--- .... ....|--- .... ....
....|..|E-4 2F.7 ....|A-5 2F.A ....|C-4 LF.A ....
....|..|--- .... ....|--- .... ....|--- .... ....
..1B|..|A-4 2C.F ....|E-6 2F.7 ....|C-4 LF.7 ....
....|..|--- .... ....|--- .... ....|--- .... ....
..12|..|E-4 2C.F ....|E-4 2F.F ....|C-4 LF.F ....
....|..|--- .... ....|--- .... ....|--- .... ....
..12|..|E-3 2C.F ....|A-5 2F.7 ....|C-4 LF.7 ....
....|..|--- .... ....|--- .... ....|--- .... ....
....|..|A-4 2F.7 ....|E-4 2F.7 ....|C-4 LF.7 ....
....|..|--- .... ....|--- .... ....|--- .... ....
..12|..|E-4 2C.F ....|E-6 2F.F ....|C-4 LF.F ....
....|..|--- .... ....|--- .... ....|--- .... ....
..12|..|E-4 2C.F ....|--- .... ....|--- .... ....
....|..|--- .... ....|--- .... ....|--- .... ....
..12|..|E-4 2C.F ....|E-6 2F.F ....|C-4 LF.F ....
....|..|--- .... ....|--- .... ....|--- .... ....
..12|..|E-4 2C.F ....|E-4 2F.7 ....|C-4 LF.7 ....
....|..|--- .... ....|--- .... ....|--- .... ....
..12|..|E-4 2C.F ....|E-4 2F.F ....|C-4 LF.F ....
....|..|--- .... ....|--- .... ....|--- .... ....
..1B|..|A-3 2C.F ....|E-6 2F.A ....|C-4 LF.A ....
....|..|--- .... ....|--- .... ....|--- .... ....
....|..|E-4 2F.7 ....|E-4 2F.F ....|C-4 LF.F ....
....|..|--- .... ....|--- .... ....|--- .... ....
....|..|E-4 2F.7 ....|E-4 2F.F ....|C-4 LF.F ....
....|..|--- .... ....|--- .... ....|--- .... ....

[Pattern18]
..12|..|E-4 2C.F ....|E-5 2F.F ....|C-4 LF.F ....
....|..|--- .... ....|--- .... ....|--- .... ....
..12|..|E-4 2C.F ....|E-5 2F.F ....|C-4 LF.F ....
....|..|--- .... ....|--- .... ....|--- .... ....
..1B|..|A-4 2C.F ....|E-4 2F.7 ....|C-4 LF.7 ....
....|..|--- .... ....|--- .... ....|--- .... ....
....|..|A-3 2F.7 ....|E-5 2F.A ....|C-4 LF.A ....
....|..|--- .... ....|--- .... ....|--- .... ....
..1B|..|A-4 2C.F ....|E-4 2F.7 ....|C-4 LF.7 ....
....|..|--- .... ....|--- .... ....|--- .... ....
..12|..|E-4 2C.F ....|A-5 2F.F ....|C-4 LF.F ....
....|..|--- .... ....|--- .... ....|--- .... ....
..12|..|E-5 2C.F ....|E-5 2F.7 ....|C-4 LF.7 ....
....|..|--- .... ....|--- .... ....|--- .... ....
....|..|E-4 2F.7 ....|E-5 2F.7 ....|C-4 LF.7 ....
....|..|--- .... ....|--- .... ....|--- .... ....
..12|..|E-5 2C.F ....|A-5 2F.A ....|C-4 LF.A ....
....|..|--- .... ....|--- .... ....|--- .... ....
..12|..|E-4 2C.F ....|--- .... ....|--- .... ....
....|..|--- .... ....|--- .... ....|--- .... ....
....|..|A-4 2F.7 ....|R-- .... ....|R-- .... ....
....|..|--- .... ....|--- .... ....|--- .... ....
....|..|E-4 2F.7 ....|A-5 2F.7 ....|C-4 LF.7 ....
....|..|--- .... ....|--- .... ....|--- .... ....
....|..|E-5 2F.7 ....|E-6 2F.F ....|C-4 LF.F ....
....|..|--- .... ....|--- .... ....|--- .... ....
....|..|--- .... ....|R-- .... ....|R-- .... ....
....|..|--- .... ....|--- .... ....|--- .... ....
....|..|E-5 2F.7 ....|E-6 2F.F ....|C-4 LF.F ....
....|..|--- .... ....|--- .... ....|--- .... ....
....|..|E-4 2F.7 ....|A-5 2F.F ....|C-4 LF.F ....
....|..|--- .... ....|--- .... ....|--- .... ....
..12|..|E-5 2C.F ....|E-6 2F.F ....|C-4 LF.F ....
....|..|--- .... ....|--- .... ....|--- .... ....
....|..|R-- .... ....|E-6 2F.F ....|C-4 LF.F ....
....|..|--- .... ....|--- .... ....|--- .... ....
..12|..|E-4 2C.F ....|E-6 2F.7 ....|C-4 LF.7 ....
....|..|--- .... ....|--- .... ....|--- .... ....
....|..|E-5 2F.A ....|E-6 2F.A ....|C-4 LF.A ....
....|..|--- .... ....|--- .... ....|--- .... ....
..12|..|E-4 2C.F ....|E-6 2F.7 ....|C-4 LF.7 ....
....|..|--- .... ....|--- .... ....|--- .... ....
..1B|..|A-4 2C.F ....|A-4 2F.F ....|C-4 LF.F ....
....|..|--- .... ....|--- .... ....|--- .... ....
..12|..|E-5 2C.F ....|E-6 2F.7 ....|C-4 LF.7 ....
....|..|--- .... ....|--- .... ....|--- .... ....
..12|..|E-5 2C.F ....|E-6 2F.7 ....|C-4 LF.7 ....
....|..|--- .... ....|--- .... ....|--- .... ....
....|..|E-4 2F.7 ....|A-4 2F.A ....|C-4 LF.A ....
....|..|--- .... ....|--- .... ....|--- .... ....
....|..|E-5 2F.A ....|--- .... ....|--- .... ....
....|..|--- .... ....|--- .... ....|--- .... ....
..1B|..|A-5 2C.F ....|R-- .... ....|R-- .... ....
....|..|--- .... ....|--- .... ....|--- .... ....
....|..|A-4 2F.7 ....|A-4 2F.7 ....|C-4 LF.7 ....
....|..|--- .... ....|--- .... ....|--- .... ....
..1B|..|A-5 2C.F ....|E-4 2F.F ....|C-4 LF.F ....
....|..|--- .... ....|--- .... ....|--- .... ....
..1B|..|A-5 2C.F ....|E-5 2F.F ....|C-4 LF.F ....
....|..|--- .... ....|--- .... ....|--- .... ....
....|..|--- .... ....|E-4 2F1F ....|C-4 LF.F ....
....|..|--- .... ....|--- .... ....|--- .... ....
....|..|A-5 2F.A ....|A-5 2F.F ....|C-4 LF.F ....
....|..|--- .... ....|--- .... ....|--- .... ....

[Pattern19]
..1B|..|A-5 2C.F ....|E-4 2F1F ....|C-4 LF.F ....
....|..|--- .... ....|--- .... ....|--- .... ....
..12|..|E-4 2C.F ....|E-5 2F.F ....|C-4 LF.F ....
....|..|--- .... ....|--- .... ....|--- .... ....
..1B|..|A-4 2C.F ....|E-4 2F.7 ....|C-4 LF.7 ....
....|..|--- .... ....|--- .... ....|--- .... ....
....|..|A-5 2F.7 ....|E-5 2F.7 ....|C-4 LF.7 ....
....|..|--- .... ....|--- .... ....|--- .... ....
..1B|..|A-4 2C.F ....|E-4 2F17 ....|C-4 LF.7 ....
....|..|--- .... ....|--- .... ....|--- .... ....
..12|..|E-4 2C.F ....|A-5 2F.F ....|C-4 LF.F ....
....|..|--- .... ....|--- .... ....|--- .... ....
..12|..|E-4 2C.F ....|E-4 2F17 ....|C-4 LF.7 ....
....|..|--- .... ....|--- .... ....|--- .... ....
..12|..|E-3 2C.F ....|E-5 2F.7 ....|C-4 LF.7 ....
....|..|--- .... ....|--- .... ....|--- .... ....
..1B|..|A-4 2C.F ....|A-5 2F.A ....|C-4 LF.A ....
....|..|--- .... ....|--- .... ....|--- .... ....
..1B|..|A-4 2C.F ....|--- .... ....|--- .... ....
....|..|--- .... ....|--- .... ....|--- .... ....
..12|..|E-5 2C.F ....|R-- .... ....|R-- .... ....
....|..|--- .... ....|--- .... ....|--- .... ....
..12|..|E-5 2C.F ....|A-5 2F.7 ....|C-4 LF.7 ....
....|..|--- .... ....|--- .... ....|--- .... ....
..12|..|E-5 2C.F ....|E-6 2F.F ....|C-4 LF.F ....
....|..|--- .... ....|--- .... ....|--- .... ....
..12|..|E-4 2C.F ....|R-- .... ....|R-- .... ....
....|..|--- .... ....|--- .... ....|--- .... ....
....|..|A-4 2F.7 ....|E-6 2F.F ....|C-4 LF.F ....
....|..|--- .... ....|--- .... ....|--- .... ....
....|..|A-4 2F.7 ....|A-5 2F.F ....|C-4 LF.F ....
....|..|--- .... ....|--- .... ....|--- .... ....
..1B|..|A-4 2C.F ....|E-6 2F.F ....|C-4 LF.F ....
....|..|--- .... ....|--- .... ....|--- .... ....
..1B|..|A-4 2C.F ....|E-6 2F.F ....|C-4 LF.F ....
....|..|--- .... ....|R-- .... ....|R-- .... ....
..12|..|E-3 2C.F ....|E-6 2F.7 ....|C-4 LF.7 ....
....|..|--- .... ....|--- .... ....|--- .... ....
....|..|E-4 2F.7 ....|E-6 2F.A ....|C-4 LF.A ....
....|..|--- .... ....|--- .... ....|--- .... ....
..1B|..|A-4 2C.F ....|E-6 2F.7 ....|C-4 LF.7 ....
....|..|--- .... ....|R-- .... ....|R-- .... ....
..1B|..|A-4 2C.F ....|A-4 2F.F ....|C-4 LF.F ....
....|..|--- .... ....|--- .... ....|--- .... ....
..12|..|E-3 2C.F ....|E-6 2F.7 ....|C-4 LF.7 ....
....|..|--- .... ....|--- .... ....|--- .... ....
....|..|A-4 2F.7 ....|E-6 2F.7 ....|C-4 LF.7 ....
....|..|--- .... ....|R-- .... ....|R-- .... ....
..12|..|E-5 2C.F ....|A-4 2F.A ....|C-4 LF.A ....
....|..|--- .... ....|--- .... ....|--- .... ....
..12|..|E-5 2C.F ....|--- .... ....|--- .... ....
....|..|--- .... ....|--- .... ....|--- .... ....
..12|..|E-5 2C.F ....|R-- .... ....|R-- .... ....
....|..|--- .... ....|--- .... ....|--- .... ....
..1B|..|A-4 2C.F ....|A-4 2F.7 ....|C-4 LF.7 ....
....|..|--- .... ....|--- .... ....|--- .... ....
..1B|..|A-4 2C.F ....|E-5 2F.F ....|C-4 LF.F ....
....|..|--- .... ....|--- .... ....|--- .... ....
..1B|..|A-3 2C.F ....|R-- .... ....|R-- .... ....
....|..|--- .... ....|--- .... ....|--- .... ....
....|..|E-5 2F.7 ....|E-4 2F1F ....|C-4 LF.F ....
....|..|--- .... ....|--- .... ....|--- .... ....
....|..|E-5 2F.7 ....|A-5 2F.F ....|C-4 LF.F ....
....|..|--- .... ....|--- .... ....|--- .... ....

[Pattern20]
..1B|..|A-4 2C.F ....|E-4 2F1F ....|C-4 LF.F ....
....|..|--- .... ....|--- .... ....|--- .... ....
..1B|..|A-4 2C.F ....|E-5 2F.F ....|C-4 LF.F ....
....|..|--- .... ....|--- .... ....|--- .... ....
..12|..|E-4 2C.F ....|E-5 2F.7 ....|C-4 LF.7 ....
....|..|--- .... ....|--- .... ....|--- .... ....
....|..|A-3 2F.7 ....|E-4 2F1A ....|C-4 LF.A ....
....|..|--- .... ....|--- .... ....|--- .... ....
..12|..|E-4 2C.F ....|E-4 2F17 ....|C-4 LF.7 ....
....|..|--- .... ....|--- .... ....|--- .... ....
..12|..|E-4 2C.F ....|A-5 2F.F ....|C-4 LF.F ....
....|..|--- .... ....|--- .... ....|--- .... ....
..12|..|E-5 2C.F ....|E-4 2F17 ....|C-4 LF.7 ....
....|..|--- .... ....|--- .... ....|--- .... ....
....|..|A-4 2F.7 ....|E-5 2F.7 ....|C-4 LF.7 ....
....|..|--- .... ....|--- .... ....|--- .... ....
..12|..|E-5 2C.F ....|A-5 2F.A ....|C-4 LF.A ....
....|..|--- .... ....|--- .... ....|--- .... ....
..12|..|E-4 2C.F ....|--- .... ....|--- .... ....
....|..|--- .... ....|--- .... ....|--- .... ....
....|..|E-4 2F.7 ....|R-- .... ....|R-- .... ....
....|..|--- .... ....|--- .... ....|--- .... ....
....|..|E-4 2F.7 ....|A-5 2F.7 ....|C-4 LF.7 ....
....|..|--- .... ....|--- .... ....|--- .... ....
....|..|E-5 2F.7 ....|E-6 2F.F ....|C-4 LF.F ....
....|..|--- .... ....|--- .... ....|--- .... ....
....|..|--- .... ....|R-- .... ....|R-- .... ....
....|..|--- .... ....|--- .... ....|--- .... ....
....|..|E-5 2F.7 ....|E-6 2F.F ....|C-4 LF.F ....
....|..|--- .... ....|--- .... ....|--- .... ....
....|..|E-4 2F.7 ....|A-5 2F.F ....|C-4 LF.F ....
....|..|--- .... ....|--- .... ....|--- .... ....
..12|..|E-5 2C.F ....|A-5 2F.F ....|C-4 LF.F ....
....|..|--- .... ....|--- .... ....|--- .... ....
....|..|R-- .... ....|E-4 2F.F ....|C-4 LF.F ....
....|..|--- .... ....|--- .... ....|--- .... ....
..12|..|E-4 2C.F ....|E-6 2F.7 ....|C-4 LF.7 ....
....|..|--- .... ....|--- .... ....|--- .... ....
....|..|E-5 2F.A ....|A-5 2F.A ....|C-4 LF.A ....
....|..|--- .... ....|--- .... ....|--- .... ....
..12|..|E-4 2C.F ....|E-6 2F.7 ....|C-4 LF.7 ....
....|..|--- .... ....|--- .... ....|--- .... ....
..12|..|E-4 2C.F ....|E-6 2F.F ....|C-4 LF.F ....
....|..|--- .... ....|--- .... ....|--- .... ....
..1B|..|A-4 2C.F ....|A-5 2F.7 ....|C-4 LF.7 ....
....|..|--- .... ....|--- .... ....|--- .... ....
..1B|..|A-4 2C.F ....|E-4 2F.7 ....|C-4 LF.7 ....
....|..|--- .... ....|--- .... ....|--- .... ....
....|..|E-4 2F.7 ....|E-6 2F.A ....|C-4 LF.A ....
....|..|--- .... ....|--- .... ....|--- .... ....
....|..|A-4 2F.A ....|--- .... ....|--- .... ....
....|..|--- .... ....|--- .... ....|--- .... ....
..12|..|E-5 2C.F ....|R-- .... ....|R-- .... ....
....|..|--- .... ....|--- .... ....|--- .... ....
....|..|E-4 2F.7 ....|E-6 2F.7 ....|C-4 LF.7 ....
....|..|--- .... ....|--- .... ....|--- .... ....
..1B|..|A-5 2C.F ....|A-4 2F.F ....|C-4 LF.F ....
....|..|--- .... ....|--- .... ....|--- .... ....
..1B|..|A-5 2C.F ....|R-- .... ....|R-- .... ....
....|..|--- .... ....|--- .... ....|--- .... ....
....|..|--- .... ....|E-5 2F.F ....|C-4 LF.F ....
....|..|--- .... ....|--- .... ....|--- .... ....
....|..|A-5 2F.A ....|E-5 2F.F ....|C-4 LF.F ....
....|..|--- .... ....|--- .... ....|--- .... ....

[Pattern21]
..1B|..|A-5 2C.F ....|E-5 2F.F ....|C-4 LF.F ....
....|..|--- .... ....|--- .... ....|--- .... ....
..12|..|E-4 2C.F ....|E-5 2F.F ....|C-4 LF.F ....
....|..|--- .... ....|--- .... ....|--- .... ....
..1B|..|A-4 2C.F ....|A-4 2F.7 ....|C-4 LF.7 ....
....|..|--- .... ....|--- .... ....|--- .... ....
....|..|A-5 2F.7 ....|E-5 2F.A ....|C-4 LF.A ....
....|..|--- .... ....|--- .... ....|--- .... ....
..12|..|E-5 2C.F ....|E-5 2F.7 ....|C-4 LF.7 ....
....|..|--- .... ....|--- .... ....|--- .... ....
..12|..|E-5 2C.F ....|A-5 2F.F ....|C-4 LF.F ....
....|..|--- .... ....|--- .... ....|--- .... ....
..12|..|E-4 2C.F ....|E-5 2F.7 ....|C-4 LF.7 ....
....|..|--- .... ....|--- .... ....|--- .... ....
..12|..|E-4 2C.F ....|E-5 2F.7 ....|C-4 LF.7 ....
....|..|--- .... ....|--- .... ....|--- .... ....
..12|..|E-4 2C.F ....|A-5 2F.A ....|C-4 LF.A ....
....|..|--- .... ....|--- .... ....|--- .... ....
..12|..|E-4 2C.F ....|--- .... ....|--- .... ....
....|..|--- .... ....|--- .... ....|--- .... ....
..1B|..|A-4 2C.F ....|R-- .... ....|R-- .... ....
....|..|--- .... ....|--- .... ....|--- .... ....
..1B|..|A-4 2C.F ....|A-5 2F.7 ....|C-4 LF.7 ....
....|..|--- .... ....|--- .... ....|--- .... ....
..1B|..|A-4 2C.F ....|E-6 2F.F ....|C-4 LF.F ....
....|..|--- .... ....|--- .... ....|--- .... ....
..12|..|E-4 2C.F ....|R-- .... ....|R-- .... ....
....|..|--- .... ....|--- .... ....|--- .... ....
....|..|E-4 2F.7 ....|E-6 2F.F ....|C-4 LF.F ....
....|..|--- .... ....|--- .... ....|--- .... ....
....|..|E-4 2F.7 ....|A-5 2F.F ....|C-4 LF.F ....
....|..|--- .... ....|--- .... ....|--- .... ....
..1B|..|A-4 2C.F ....|E-6 2F.F ....|C-4 LF.F ....
....|..|--- .... ....|--- .... ....|--- .... ....
..1B|..|A-4 2C.F ....|E-6 2F.F ....|C-4 LF.F ....
....|..|--- .... ....|--- .... ....|--- .... ....
..12|..|E-3 2C.F ....|E-6 2F.7 ....|C-4 LF.7 ....
....|..|--- .... ....|--- .... ....|--- .... ....
....|..|E-4 2F.7 ....|E-6 2F.A ....|C-4 LF.A ....
....|..|--- .... ....|--- .... ....|--- .... ....
..12|..|E-4 2C.F ....|E-6 2F.7 ....|C-4 LF.7 ....
....|..|--- .... ....|--- .... ....|--- .... ....
..12|..|E-4 2C.F ....|A-4 2F.F ....|C-4 LF.F ....
....|..|--- .... ....|--- .... ....|--- .... ....
..12|..|E-4 2C.F ....|E-6 2F.7 ....|C-4 LF.7 ....
....|..|--- .... ....|--- .... ....|--- .... ....
....|..|A-4 2F.7 ....|E-6 2F.7 ....|C-4 LF.7 ....
....|..|--- .... ....|--- .... ....|--- .... ....
..12|..|E-4 2C.F ....|A-4 2F.A ....|C-4 LF.A ....
....|..|--- .... ....|--- .... ....|--- .... ....
..12|..|E-4 2C.F ....|--- .... ....|--- .... ....
....|..|--- .... ....|--- .... ....|--- .... ....
..1B|..|A-4 2C.F ....|R-- .... ....|R-- .... ....
....|..|--- .... ....|--- .... ....|--- .... ....
..1B|..|A-4 2C.F ....|A-4 2F.7 ....|C-4 LF.7 ....
....|..|--- .... ....|--- .... ....|--- .... ....
..1B|..|A-4 2C.F ....|E-5 2F.F ....|C-4 LF.F ....
....|..|--- .... ....|--- .... ....|--- .... ....
..1B|..|A-3 2C.F ....|R-- .... ....|R-- .... ....
....|..|--- .... ....|--- .... ....|--- .... ....
....|..|E-4 2F.7 ....|E-4 2F1F ....|C-4 LF.F ....
....|..|--- .... ....|--- .... ....|--- .... ....
....|..|E-4 2F.7 ....|A-5 2F.F ....|C-4 LF.F ....
....|..|--- .... ....|--- .... ....|--- .... ....

[Pattern22]
..1B|..|A-4 2C.F ....|E-4 2F1F ....|C-4 LF.F ....
....|..|--- .... ....|--- .... ....|--- .... ....
..1B|..|A-4 2C.F ....|E-5 2F.F ....|C-4 LF.F ....
....|..|--- .... ....|--- .... ....|--- .... ....
..12|..|E-4 2C.F ....|E-5 2F.7 ....|C-4 LF.7 ....
....|..|--- .... ....|--- .... ....|--- .... ....
....|..|A-3 2F.7 ....|E-4 2F1A ....|C-4 LF.A ....
....|..|--- .... ....|--- .... ....|--- .... ....
..1B|..|A-4 2C.F ....|E-4 2F17 ....|C-4 LF.7 ....
....|..|--- .... ....|--- .... ....|--- .... ....
..1B|..|A-4 2C.F ....|A-4 2F.F ....|C-4 LF.F ....
....|..|--- .... ....|--- .... ....|--- .... ....
..12|..|E-5 2C.F ....|E-4 2F17 ....|C-4 LF.7 ....
....|..|--- .... ....|--- .... ....|--- .... ....
....|..|A-4 2F.7 ....|E-5 2F.7 ....|C-4 LF.7 ....
....|..|--- .... ....|--- .... ....|--- .... ....
..12|..|E-5 2C.F ....|A-4 2F.A ....|C-4 LF.A ....
....|..|--- .... ....|--- .... ....|--- .... ....
..12|..|E-3 2C.F ....|--- .... ....|--- .... ....
....|..|--- .... ....|--- .... ....|--- .... ....
....|..|A-4 2F.7 ....|R-- .... ....|R-- .... ....
....|..|--- .... ....|--- .... ....|--- .... ....
....|..|A-4 2F.7 ....|A-4 2F.7 ....|C-4 LF.7 ....
....|..|--- .... ....|--- .... ....|--- .... ....
....|..|E-5 2F.7 ....|E-5 2F.F ....|C-4 LF.F ....
....|..|--- .... ....|--- .... ....|--- .... ....
....|..|--- .... ....|R-- .... ....|R-- .... ....
....|..|--- .... ....|--- .... ....|--- .... ....
....|..|E-5 2F.7 ....|E-5 2F.F ....|C-4 LF.F ....
....|..|--- .... ....|--- .... ....|--- .... ....
....|..|E-3 2F.7 ....|E-5 2F.F ....|C-4 LF.F ....
....|..|--- .... ....|--- .... ....|--- .... ....
..12|..|E-5 2C.F ....|E-4 2F1F ....|C-4 LF.F ....
....|..|--- .... ....|--- .... ....|--- .... ....
....|..|R-- .... ....|A-5 2F.F ....|C-4 LF.F ....
....|..|--- .... ....|--- .... ....|--- .... ....
..12|..|E-4 2C.F ....|E-5 2F.7 ....|C-4 LF.7 ....
....|..|--- .... ....|--- .... ....|--- .... ....
....|..|E-5 2F.A ....|E-4 2F1A ....|C-4 LF.A ....
....|..|--- .... ....|--- .... ....|--- .... ....
..1B|..|A-4 2C.F ....|E-5 2F.7 ....|C-4 LF.7 ....
....|..|--- .... ....|--- .... ....|--- .... ....
..1B|..|A-4 2C.F ....|E-6 2F.F ....|C-4 LF.F ....
....|..|--- .... ....|--- .... ....|--- .... ....
..12|..|E-5 2C.F ....|E-4 2F17 ....|C-4 LF.7 ....
....|..|--- .... ....|--- .... ....|--- .... ....
..12|..|E-5 2C.F ....|A-5 2F.7 ....|C-4 LF.7 ....
....|..|--- .... ....|--- .... ....|--- .... ....
....|..|E-4 2F.7 ....|E-6 2F.A ....|C-4 LF.A ....
....|..|--- .... ....|--- .... ....|--- .... ....
....|..|E-5 2F.A ....|--- .... ....|--- .... ....
....|..|--- .... ....|--- .... ....|--- .... ....
..12|..|E-5 2C.F ....|R-- .... ....|R-- .... ....
....|..|--- .... ....|--- .... ....|--- .... ....
....|..|A-4 2F.7 ....|E-6 2F.7 ....|C-4 LF.7 ....
....|..|--- .... ....|--- .... ....|--- .... ....
..12|..|E-5 2C.F ....|A-4 2F.F ....|C-4 LF.F ....
....|..|--- .... ....|--- .... ....|--- .... ....
..12|..|E-4 2C.F ....|R-- .... ....|R-- .... ....
....|..|--- .... ....|--- .... ....|--- .... ....
....|..|--- .... ....|E-5 2F.F ....|C-4 LF.F ....
....|..|--- .... ....|--- .... ....|--- .... ....
....|..|E-5 2F.A ....|E-5 2F.F ....|C-4 LF.F ....
....|..|--- .... ....|--- .... ....|--- .... ....

[Pattern23]
..12|..|E-4 2C.F ....|E-5 2F.F ....|C-4 LF.F ....
....|..|--- .... ....|--- .... ....|--- .... ....
..1B|..|A-3 2C.F ....|E-4 2F.F ....|C-4 LF.F ....
....|..|--- .... ....|--- .... ....|--- .... ....
..12|..|E-4 2C.F ....|A-4 2F.7 ....|C-4 LF.7 ....
....|..|--- .... ....|--- .... ....|--- .... ....
....|..|E-4 2F.7 ....|E-5 2F.A ....|C-4 LF.A ....
....|..|--- .... ....|--- .... ....|--- .... ....
..1B|..|A-4 2C.F ....|E-5 2F.7 ....|C-4 LF.7 ....
....|..|--- .... ....|--- .... ....|--- .... ....
..1B|..|A-4 2C.F ....|A-4 2F.F ....|C-4 LF.F ....
....|..|--- .... ....|--- .... ....|--- .... ....
....|..|E-4 2F.7 ....|E-5 2F.7 ....|C-4 LF.7 ....
....|..|--- .... ....|--- .... ....|--- .... ....
....|..|A-3 2F.7 ....|E-4 2F.7 ....|C-4 LF.7 ....
....|..|--- .... ....|--- .... ....|--- .... ....
..1B|..|A-4 2C.F ....|A-4 2F.A ....|C-4 LF.A ....
....|..|--- .... ....|--- .... ....|--- .... ....
..12|..|E-4 2C.F ....|--- .... ....|--- .... ....
....|..|--- .... ....|--- .... ....|--- .... ....
....|..|A-4 2F.7 ....|R-- .... ....|R-- .... ....
....|..|--- .... ....|--- .... ....|--- .... ....
....|..|A-4 2F.7 ....|A-4 2F.7 ....|C-4 LF.7 ....
....|..|--- .... ....|--- .... ....|--- .... ....
..1B|..|A-4 2C.F ....|E-5 2F.F ....|C-4 LF.F ....
....|..|--- .... ....|--- .... ....|--- .... ....
..1B|..|A-4 2C.F ....|R-- .... ....|R-- .... ....
....|..|--- .... ....|--- .... ....|--- .... ....
....|..|A-4 2F.7 ....|E-4 2F1F ....|C-4 LF.F ....
....|..|--- .... ....|--- .... ....|--- .... ....
....|..|E-4 2F.7 ....|A-5 2F.F ....|C-4 LF.F ....
....|..|--- .... ....|--- .... ....|--- .... ....
..1B|..|A-3 2C.F ....|A-5 2F.F ....|C-4 LF.F ....
....|..|--- .... ....|--- .... ....|--- .... ....
....|..|--- .... ....|E-4 2F.F ....|C-4 LF.F ....
....|..|--- .... ....|--- .... ....|--- .... ....
..12|..|E-4 2C.F ....|E-5 2F.7 ....|C-4 LF.7 ....
....|..|--- .... ....|--- .... ....|--- .... ....
....|..|A-4 2F.7 ....|A-5 2F.A ....|C-4 LF.A ....
....|..|--- .... ....|--- .... ....|--- .... ....
..1B|..|A-4 2C.F ....|E-4 2F17 ....|C-4 LF.7 ....
....|..|--- .... ....|--- .... ....|--- .... ....
..1B|..|A-4 2C.F ....|E-4 2F.F ....|C-4 LF.F ....
....|..|--- .... ....|--- .... ....|--- .... ....
....|..|A-3 2F.7 ....|A-5 2F.7 ....|C-4 LF.7 ....
....|..|--- .... ....|--- .... ....|--- .... ....
....|..|A-4 2F.A ....|E-4 2F.7 ....|C-4 LF.7 ....
....|..|--- .... ....|--- .... ....|--- .... ....
..1B|..|A-4 2C.F ....|E-4 2F.A ....|C-4 LF.A ....
....|..|--- .... ....|--- .... ....|--- .... ....
..12|..|E-4 2C.F ....|--- .... ....|--- .... ....
....|..|--- .... ....|--- .... ....|--- .... ....
....|..|A-4 2F.7 ....|R-- .... ....|R-- .... ....
....|..|--- .... ....|--- .... ....|--- .... ....
....|..|A-4 2F.7 ....|E-4 2F.7 ....|C-4 LF.7 ....
....|..|--- .... ....|--- .... ....|--- .... ....
..1B|..|A-4 2C.F ....|A-4 2F.F ....|C-4 LF.F ....
....|..|--- .... ....|--- .... ....|--- .... ....
..1B|..|A-4 2C.F ....|R-- .... ....|R-- .... ....
....|..|--- .... ....|--- .... ....|--- .... ....
....|..|A-4 2F.7 ....|E-5 2F.F ....|C-4 LF.F ....
....|..|--- .... ....|--- .... ....|--- .... ....
....|..|E-4 2F.7 ....|E-5 2F.F ....|C-4 LF.F ....
....|..|--- .... ....|--- .... ....|--- .... ....

[Pattern24]
..1B|..|A-3 2C.F ....|E-5 2F.F ....|C-4 LF.F ....
....|..|--- .... ....|--- .... ....|--- .... ....
....|..|--- .... ....|A-4 2F.F ....|C-4 LF.F ....
....|..|--- .... ....|--- .... ....|--- .... ....
..12|..|E-4 2C.F ....|A-4 2F.7 ....|C-4 LF.7 ....
....|..|--- .... ....|--- .... ....|--- .... ....
....|..|A-4 2F.7 ....|E-5 2F.A ....|C-4 LF.A ....
....|..|--- .... ....|--- .... ....|--- .... ....
..1B|..|A-4 2C.F ....|E-5 2F.7 ....|C-4 LF.7 ....
....|..|--- .... ....|--- .... ....|--- .... ....
..1B|..|A-4 2C.F ....|E-5 2F.F ....|C-4 LF.F ....
....|..|--- .... ....|--- .... ....|--- .... ....
....|..|A-3 2F.7 ....|E-5 2F.7 ....|C-4 LF.7 ....
....|..|--- .... ....|--- .... ....|--- .... ....
....|..|A-4 2F.A ....|A-4 2F.7 ....|C-4 LF.7 ....
....|..|--- .... ....|--- .... ....|--- .... ....
..1B|..|A-4 2C.F ....|E-5 2F.A ....|C-4 LF.A ....
....|..|--- .... ....|--- .... ....|--- .... ....
..12|..|E-4 2C.F ....|--- .... ....|--- .... ....
....|..|--- .... ....|--- .... ....|--- .... ....
....|..|A-4 2F.7 ....|R-- .... ....|R-- .... ....
....|..|--- .... ....|--- .... ....|--- .... ....
....|..|A-4 2F.7 ....|E-5 2F.7 ....|C-4 LF.7 ....
....|..|--- .... ....|--- .... ....|--- .... ....
..1B|..|A-4 2C.F ....|E-4 2F.F ....|C-4 LF.F ....
....|..|--- .... ....|--- .... ....|--- .... ....
..1B|..|A-4 2C.F ....|R-- .... ....|R-- .... ....
....|..|--- .... ....|--- .... ....|--- .... ....
....|..|A-4 2F.7 ....|A-5 2F.F ....|C-4 LF.F ....
....|..|--- .... ....|--- .... ....|--- .... ....
....|..|E-4 2F.7 ....|A-5 2F.F ....|C-4 LF.F ....
....|..|--- .... ....|--- .... ....|--- .... ....
..1B|..|A-3 2C.F ....|A-5 2F.F ....|C-4 LF.F ....
....|..|--- .... ....|--- .... ....|--- .... ....
....|..|--- .... ....|A-4 2F.F ....|C-4 LF.F ....
....|..|--- .... ....|--- .... ....|--- .... ....
..12|..|E-4 2C.F ....|E-4 2F.7 ....|C-4 LF.7 ....
....|..|--- .... ....|--- .... ....|--- .... ....
....|..|A-4 2F.7 ....|A-5 2F.A ....|C-4 LF.A ....
....|..|--- .... ....|--- .... ....|--- .... ....
..1B|..|A-4 2C.F ....|A-5 2F.7 ....|C-4 LF.7 ....
....|..|--- .... ....|--- .... ....|--- .... ....
..1B|..|A-4 2C.F ....|E-5 2F.F ....|C-4 LF.F ....
....|..|--- .... ....|--- .... ....|--- .... ....
....|..|A-3 2F.7 ....|A-5 2F.7 ....|C-4 LF.7 ....
....|..|--- .... ....|--- .... ....|--- .... ....
....|..|A-4 2F.A ....|A-4 2F.7 ....|C-4 LF.7 ....
....|..|--- .... ....|--- .... ....|--- .... ....
..1B|..|A-4 2C.F ....|E-5 2F.A ....|C-4 LF.A ....
....|..|--- .... ....|--- .... ....|--- .... ....
..12|..|E-4 2C.F ....|--- .... ....|--- .... ....
....|..|--- .... ....|--- .... ....|--- .... ....
....|..|A-4 2F.7 ....|R-- .... ....|R-- .... ....
....|..|--- .... ....|--- .... ....|--- .... ....
....|..|A-4 2F.7 ....|E-5 2F.7 ....|C-4 LF.7 ....
....|..|--- .... ....|--- .... ....|--- .... ....
..1B|..|A-4 2C.F ....|E-4 2F.F ....|C-4 LF.F ....
....|..|--- .... ....|--- .... ....|--- .... ....
..1B|..|A-4 2C.F ....|R-- .... ....|R-- .... ....
....|..|--- .... ....|--- .... ....|--- .... ....
....|..|A-4 2F.7 ....|A-5 2F.F ....|C-4 LF.F ....
....|..|--- .... ....|--- .... ....|--- .... ....
....|..|E-4 2F.7 ....|A-5 2F.F ....|C-4 LF.F ....
....|..|--- .... ....|--- .... ....|--- .... ....

[Pattern25]
..1B|..|A-3 2C.F ....|A-5 2F.F ....|C-4 LF.F ....
....|..|--- .... ....|--- .... ....|--- .... ....
....|..|--- .... ....|A-4 2F.F ....|C-4 LF.F ....
....|..|--- .... ....|--- .... ....|--- .... ....
..12|..|E-4 2C.F ....|E-4 2F.7 ....|C-4 LF.7 ....
....|..|--- .... ....|--- .... ....|--- .... ....
....|..|A-4 2F.7 ....|A-5 2F.A ....|C-4 LF.A ....
....|..|--- .... ....|--- .... ....|--- .... ....
..1B|..|A-4 2C.F ....|A-5 2F.7 ....|C-4 LF.7 ....
....|..|--- .... ....|--- .... ....|--- .... ....
..1B|..|A-4 2C.F ....|E-5 2F.F ....|C-4 LF.F ....
....|..|--- .... ....|--- .... ....|--- .... ....
....|..|A-3 2F.7 ....|A-5 2F.7 ....|C-4 LF.7 ....
....|..|--- .... ....|--- .... ....|--- .... ....
....|..|A-4 2F.A ....|A-4 2F.7 ....|C-4 LF.7 ....
....|..|--- .... ....|--- .... ....|--- .... ....
..1B|..|A-4 2C.F ....|E-5 2F.A ....|C-4 LF.A ....
....|..|--- .... ....|--- .... ....|--- .... ....
..12|..|E-4 2C.F ....|--- .... ....|--- .... ....
....|..|--- .... ....|--- .... ....|--- .... ....
....|..|A-4 2F.7 ....|R-- .... ....|R-- .... ....
....|..|--- .... ....|--- .... ....|--- .... ....
....|..|A-4 2F.7 ....|E-5 2F.7 ....|C-4 LF.7 ....
....|..|--- .... ....|--- .... ....|--- .... ....
..1B|..|A-4 2C.F ....|A-5 2F.F ....|C-4 LF.F ....
....|..|--- .... ....|--- .... ....|--- .... ....
..1B|..|A-4 2C.F ....|R-- .... ....|R-- .... ....
....|..|--- .... ....|--- .... ....|--- .... ....
....|..|A-4 2F.7 ....|A-5 2F.F ....|C-4 LF.F ....
....|..|--- .... ....|--- .... ....|--- .... ....
....|..|E-4 2F.7 ....|D-4 2F.F ....|C-4 LF.F ....
....|..|--- .... ....|--- .... ....|--- .... ....
..1B|..|A-3 2C.F ....|D-4 2F3F ....|C-4 LF.F ....
....|..|--- .... ....|--- .... ....|--- .... ....
....|..|--- .... ....|E-4 2F.F ....|C-4 LF.F ....
....|..|--- .... ....|--- .... ....|--- .... ....
..12|..|E-4 2C.F ....|A-5 2F.7 ....|C-4 LF.7 ....
....|..|--- .... ....|--- .... ....|--- .... ....
....|..|A-4 2F.7 ....|D-4 2F3A ....|C-4 LF.A ....
....|..|--- .... ....|--- .... ....|--- .... ....
..1B|..|A-4 2C.F ....|A-5 2F.7 ....|C-4 LF.7 ....
....|..|--- .... ....|--- .... ....|--- .... ....
..1B|..|A-4 2C.F ....|A-4 2F.F ....|C-4 LF.F ....
....|..|--- .... ....|--- .... ....|--- .... ....
....|..|A-3 2F.7 ....|D-4 2F37 ....|C-4 LF.7 ....
....|..|--- .... ....|--- .... ....|--- .... ....
....|..|A-4 2F.A ....|E-4 2F.7 ....|C-4 LF.7 ....
....|..|--- .... ....|--- .... ....|--- .... ....
..1B|..|A-4 2C.F ....|A-4 2F.A ....|C-4 LF.A ....
....|..|--- .... ....|--- .... ....|--- .... ....
..12|..|E-4 2C.F ....|--- .... ....|--- .... ....
....|..|--- .... ....|--- .... ....|--- .... ....
....|..|A-4 2F.7 ....|R-- .... ....|R-- .... ....
....|..|--- .... ....|--- .... ....|--- .... ....
....|..|A-4 2F.7 ....|A-4 2F.7 ....|C-4 LF.7 ....
....|..|--- .... ....|--- .... ....|--- .... ....
..1B|..|A-4 2C.F ....|E-4 2F.F ....|C-4 LF.F ....
....|..|--- .... ....|--- .... ....|--- .... ....
..1B|..|A-4 2C.F ....|R-- .... ....|R-- .... ....
....|..|--- .... ....|--- .... ....|--- .... ....
....|..|A-4 2F.7 ....|D-4 2F3F ....|C-4 LF.F ....
....|..|--- .... ....|--- .... ....|--- .... ....
....|..|E-4 2F.7 ....|D-4 2F.F ....|C-4 LF.F ....
....|..|--- .... ....|--- .... ....|--- .... ....

[Pattern26]
..1B|..|A-3 2C.F ....|A-4 2F.F ....|C-4 LF.F ....
....|..|--- .... ....|--- .... ....|--- .... ....
....|..|--- .... ....|A-4 2F.F ....|C-4 LF.F ....
....|..|--- .... ....|--- .... ....|--- .... ....
..12|..|E-4 2C.F ....|E-4 2F.7 ....|C-4 LF.7 ....
....|..|--- .... ....|--- .... ....|--- .... ....
....|..|A-4 2F.7 ....|A-4 2F.A ....|C-4 LF.A ....
....|..|--- .... ....|--- .... ....|--- .... ....
..1B|..|A-4 2C.F ....|D-4 2F37 ....|C-4 LF.7 ....
....|..|--- .... ....|--- .... ....|--- .... ....
..1B|..|A-4 2C.F ....|E-4 2F.F ....|C-4 LF.F ....
....|..|--- .... ....|--- .... ....|--- .... ....
....|..|A-3 2F.7 ....|A-4 2F.7 ....|C-4 LF.7 ....
....|..|--- .... ....|--- .... ....|--- .... ....
....|..|A-4 2F.A ....|A-4 2F.7 ....|C-4 LF.7 ....
....|..|--- .... ....|--- .... ....|--- .... ....
..1B|..|A-4 2C.F ....|E-4 2F.A ....|C-4 LF.A ....
....|..|--- .... ....|--- .... ....|--- .... ....
..12|..|E-4 2C.F ....|--- .... ....|--- .... ....
....|..|--- .... ....|--- .... ....|--- .... ....
....|..|A-4 2F.7 ....|R-- .... ....|R-- .... ....
....|..|--- .... ....|--- .... ....|--- .... ....
....|..|A-4 2F.7 ....|E-4 2F.7 ....|C-4 LF.7 ....
....|..|--- .... ....|--- .... ....|--- .... ....
..1B|..|A-4 2C.F ....|E-5 2F.F ....|C-4 LF.F ....
....|..|--- .... ....|--- .... ....|--- .... ....
..1B|..|A-4 2C.F ....|R-- .... ....|R-- .... ....
....|..|--- .... ....|--- .... ....|--- .... ....
....|..|A-4 2F.7 ....|E-5 2F.F ....|C-4 LF.F ....
....|..|--- .... ....|--- .... ....|--- .... ....
....|..|E-4 2F.7 ....|D-4 2F.F ....|C-4 LF.F ....
....|..|--- .... ....|--- .... ....|--- .... ....
..1B|..|A-3 2C.F ....|A-4 2F.F ....|C-4 LF.F ....
....|..|--- .... ....|--- .... ....|--- .... ....
....|..|--- .... ....|A-4 2F.F ....|C-4 LF.F ....
....|..|--- .... ....|--- .... ....|--- .... ....
..12|..|E-4 2C.F ....|E-5 2F.7 ....|C-4 LF.7 ....
....|..|--- .... ....|--- .... ....|--- .... ....
....|..|A-4 2F.7 ....|A-4 2F.A ....|C-4 LF.A ....
....|..|--- .... ....|--- .... ....|--- .... ....
..1B|..|A-4 2C.F ....|E-5 2F.7 ....|C-4 LF.7 ....
....|..|--- .... ....|--- .... ....|--- .... ....
..1B|..|A-4 2C.F ....|E-5 2F.F ....|C-4 LF.F ....
....|..|--- .... ....|--- .... ....|--- .... ....
....|..|A-3 2F.7 ....|A-4 2F.7 ....|C-4 LF.7 ....
....|..|--- .... ....|--- .... ....|--- .... ....
....|..|A-4 2F.A ....|A-4 2F.7 ....|C-4 LF.7 ....
....|..|--- .... ....|--- .... ....|--- .... ....
..1B|..|A-4 2C.F ....|E-5 2F.A ....|C-4 LF.A ....
....|..|--- .... ....|--- .... ....|--- .... ....
..12|..|E-4 2C.F ....|--- .... ....|--- .... ....
....|..|--- .... ....|--- .... ....|--- .... ....
....|..|A-4 2F.7 ....|R-- .... ....|R-- .... ....
....|..|--- .... ....|--- .... ....|--- .... ....
....|..|A-4 2F.7 ....|E-5 2F.7 ....|C-4 LF.7 ....
....|..|--- .... ....|--- .... ....|--- .... ....
..1B|..|A-4 2C.F ....|A-5 2F.F ....|C-4 LF.F ....
....|..|--- .... ....|--- .... ....|--- .... ....
..1B|..|A-4 2C.F ....|R-- .... ....|R-- .... ....
....|..|--- .... ....|--- .... ....|--- .... ....
....|..|A-4 2F.7 ....|E-6 2F.F ....|C-4 LF.F ....
....|..|--- .... ....|--- .... ....|--- .... ....
....|..|E-4 2F.7 ....|E-6 2F.F ....|C-4 LF.F ....
....|..|--- .... ....|--- .... ....|--- .... ....

[Pattern27]
..1B|..|A-3 2C.F ....|E-6 2F.F ....|C-4 LF.F ....
....|..|--- .... ....|--- .... ....|--- .... ....
....|..|--- .... ....|A-4 2F.F ....|C-4 LF.F ....
....|..|--- .... ....|--- .... ....|--- .... ....
..12|..|E-4 2C.F ....|A-5 2F.7 ....|C-4 LF.7 ....
....|..|--- .... ....|--- .... ....|--- .... ....
....|..|A-4 2F.7 ....|E-6 2F.A ....|C-4 LF.A ....
....|..|--- .... ....|--- .... ....|--- .... ....
..12|..|E-4 2C.F ....|E-6 2F.7 ....|C-4 LF.7 ....
....|..|--- .... ....|--- .... ....|--- .... ....
..12|..|E-4 2C.F ....|E-4 2F.F ....|C-4 LF.F ....
....|..|--- .... ....|--- .... ....|--- .... ....
....|..|A-3 2F.7 ....|E-6 2F.7 ....|C-4 LF.7 ....
....|..|--- .... ....|--- .... ....|--- .... ....
....|..|E-4 2F.A ....|A-4 2F.7 ....|C-4 LF.7 ....
....|..|--- .... ....|--- .... ....|--- .... ....
..1B|..|A-4 2C.F ....|E-4 2F.A ....|C-4 LF.A ....
....|..|--- .... ....|--- .... ....|--- .... ....
..1B|..|A-4 2C.F ....|--- .... ....|--- .... ....
....|..|--- .... ....|--- .... ....|--- .... ....
....|..|E-4 2F.7 ....|R-- .... ....|R-- .... ....
....|..|--- .... ....|--- .... ....|--- .... ....
....|..|E-4 2F.7 ....|E-4 2F.7 ....|C-4 LF.7 ....
....|..|--- .... ....|--- .... ....|--- .... ....
..1B|..|A-4 2C.F ....|E-4 2F.F ....|C-4 LF.F ....
....|..|--- .... ....|--- .... ....|--- .... ....
..12|..|E-4 2C.F ....|R-- .... ....|R-- .... ....
....|..|--- .... ....|--- .... ....|--- .... ....
....|..|A-4 2F.7 ....|D-4 2F3F ....|C-4 LF.F ....
....|..|--- .... ....|--- .... ....|--- .... ....
....|..|A-4 2F.7 ....|D-4 2F.F ....|C-4 LF.F ....
....|..|--- .... ....|--- .... ....|--- .... ....
..1B|..|A-3 2C.F ....|A-4 2F.F ....|C-4 LF.F ....
....|..|--- .... ....|--- .... ....|--- .... ....
....|..|--- .... ....|A-4 2F.F ....|C-4 LF.F ....
....|..|--- .... ....|--- .... ....|--- .... ....
..12|..|E-4 2C.F ....|E-4 2F.7 ....|C-4 LF.7 ....
....|..|--- .... ....|--- .... ....|--- .... ....
....|..|E-4 2F.7 ....|A-4 2F.A ....|C-4 LF.A ....
....|..|--- .... ....|--- .... ....|--- .... ....
..1B|..|A-4 2C.F ....|D-4 2F37 ....|C-4 LF.7 ....
....|..|--- .... ....|--- .... ....|--- .... ....
..1B|..|A-4 2C.F ....|E-4 2F.F ....|C-4 LF.F ....
....|..|--- .... ....|--- .... ....|--- .... ....
....|..|A-3 2F.7 ....|A-4 2F.7 ....|C-4 LF.7 ....
....|..|--- .... ....|--- .... ....|--- .... ....
....|..|A-4 2F.A ....|A-4 2F.7 ....|C-4 LF.7 ....
....|..|--- .... ....|--- .... ....|--- .... ....
..1B|..|A-4 2C.F ....|E-4 2F.A ....|C-4 LF.A ....
....|..|--- .... ....|--- .... ....|--- .... ....
..12|..|E-4 2C.F ....|--- .... ....|--- .... ....
....|..|--- .... ....|--- .... ....|--- .... ....
....|..|A-4 2F.7 ....|R-- .... ....|R-- .... ....
....|..|--- .... ....|--- .... ....|--- .... ....
....|..|A-4 2F.7 ....|E-4 2F.7 ....|C-4 LF.7 ....
....|..|--- .... ....|--- .... ....|--- .... ....
..1B|..|A-4 2C.F ....|E-5 2F.F ....|C-4 LF.F ....
....|..|--- .... ....|--- .... ....|--- .... ....
..1B|..|A-4 2C.F ....|R-- .... ....|R-- .... ....
....|..|--- .... ....|--- .... ....|--- .... ....
....|..|A-4 2F.7 ....|E-4 2F1F ....|C-4 LF.F ....
....|..|--- .... ....|--- .... ....|--- .... ....
....|..|E-4 2F.7 ....|A-5 2F.F ....|C-4 LF.F ....
....|..|--- .... ....|--- .... ....|--- .... ....

[Pattern28]
..1B|..|A-3 2C.F ....|A-5 2F.F ....|C-4 LF.F ....
....|..|--- .... ....|--- .... ....|--- .... ....
....|..|--- .... ....|A-4 2F.F ....|C-4 LF.F ....
....|..|--- .... ....|--- .... ....|--- .... ....
..12|..|E-4 2C.F ....|E-5 2F.7 ....|C-4 LF.7 ....
....|..|--- .... ....|--- .... ....|--- .... ....
....|..|A-4 2F.7 ....|A-5 2F.A ....|C-4 LF.A ....
....|..|--- .... ....|--- .... ....|--- .... ....
..1B|..|A-4 2C.F ....|E-4 2F17 ....|C-4 LF.7 ....
....|..|--- .... ....|--- .... ....|--- .... ....
..1B|..|A-4 2C.F ....|E-5 2F.F ....|C-4 LF.F ....
....|..|--- .... ....|--- .... ....|--- .... ....
....|..|A-3 2F.7 ....|A-5 2F.7 ....|C-4 LF.7 ....
....|..|--- .... ....|--- .... ....|--- .... ....
....|..|A-4 2F.A ....|A-4 2F.7 ....|C-4 LF.7 ....
....|..|--- .... ....|--- .... ....|--- .... ....
..1B|..|A-4 2C.F ....|E-5 2F.A ....|C-4 LF.A ....
....|..|--- .... ....|--- .... ....|--- .... ....
..12|..|E-4 2C.F ....|--- .... ....|--- .... ....
....|..|--- .... ....|--- .... ....|--- .... ....
....|..|A-4 2F.7 ....|R-- .... ....|R-- .... ....
....|..|--- .... ....|--- .... ....|--- .... ....
....|..|A-4 2F.7 ....|E-5 2F.7 ....|C-4 LF.7 ....
....|..|--- .... ....|--- .... ....|--- .... ....
..1B|..|A-4 2C.F ....|E-4 2F.F ....|C-4 LF.F ....
....|..|--- .... ....|--- .... ....|--- .... ....
..1B|..|A-4 2C.F ....|R-- .... ....|R-- .... ....
....|..|--- .... ....|--- .... ....|--- .... ....
....|..|A-4 2F.7 ....|D-4 2F3F ....|C-4 LF.F ....
....|..|--- .... ....|--- .... ....|--- .... ....
....|..|E-4 2F.7 ....|D-4 2F.F ....|C-4 LF.F ....
....|..|--- .... ....|--- .... ....|--- .... ....
..1B|..|A-3 2C.F ....|D-4 2F3F ....|C-4 LF.F ....
....|..|--- .... ....|--- .... ....|--- .... ....
....|..|--- .... ....|E-4 2F.F ....|C-4 LF.F ....
....|..|--- .... ....|--- .... ....|--- .... ....
..12|..|E-4 2C.F ....|E-4 2F.7 ....|C-4 LF.7 ....
....|..|--- .... ....|--- .... ....|--- .... ....
....|..|A-4 2F.7 ....|D-4 2F3A ....|C-4 LF.A ....
....|..|--- .... ....|--- .... ....|--- .... ....
..1B|..|A-4 2C.F ....|D-4 2F37 ....|C-4 LF.7 ....
....|..|--- .... ....|--- .... ....|--- .... ....
..1B|..|A-4 2C.F ....|A-4 2F.F ....|C-4 LF.F ....
....|..|--- .... ....|--- .... ....|--- .... ....
....|..|A-3 2F.7 ....|D-4 2F37 ....|C-4 LF.7 ....
....|..|--- .... ....|--- .... ....|--- .... ....
....|..|A-4 2F.A ....|E-4 2F.7 ....|C-4 LF.7 ....
....|..|--- .... ....|--- .... ....|--- .... ....
..1B|..|A-4 2C.F ....|A-4 2F.A ....|C-4 LF.A ....
....|..|--- .... ....|--- .... ....|--- .... ....
..12|..|E-4 2C.F ....|--- .... ....|--- .... ....
....|..|--- .... ....|--- .... ....|--- .... ....
....|..|A-4 2F.7 ....|R-- .... ....|R-- .... ....
....|..|--- .... ....|--- .... ....|--- .... ....
....|..|A-4 2F.7 ....|A-4 2F.7 ....|C-4 LF.7 ....
....|..|--- .... ....|--- .... ....|--- .... ....
..1B|..|A-4 2C.F ....|E-4 2F.F ....|C-4 LF.F ....
....|..|--- .... ....|--- .... ....|--- .... ....
..1B|..|A-4 2C.F ....|R-- .... ....|R-- .... ....
....|..|--- .... ....|--- .... ....|--- .... ....
....|..|A-4 2F.7 ....|E-5 2F.F ....|C-4 LF.F ....
....|..|--- .... ....|--- .... ....|--- .... ....
....|..|E-4 2F.7 ....|E-5 2F.F ....|C-4 LF.F ....
....|..|--- .... ....|--- .... ....|--- .... ....

[Pattern29]
..1B|..|A-3 2C.F ....|E-5 2F.F ....|C-4 LF.F ....
....|..|--- .... ....|--- .... ....|--- .... ....
....|..|--- .... ....|A-4 2F.F ....|C-4 LF.F ....
....|..|--- .... ....|--- .... ....|--- .... ....
..12|..|E-4 2C.F ....|E-4 2F.7 ....|C-4 LF.7 ....
....|..|--- .... ....|--- .... ....|--- .... ....
....|..|A-4 2F.7 ....|E-5 2F.A ....|C-4 LF.A ....
....|..|--- .... ....|--- .... ....|--- .... ....
..1B|..|A-4 2C.F ....|E-5 2F.7 ....|C-4 LF.7 ....
....|..|--- .... ....|--- .... ....|--- .... ....
..1B|..|A-4 2C.F ....|E-4 2F.F ....|C-4 LF.F ....
....|..|--- .... ....|--- .... ....|--- .... ....
....|..|A-3 2F.7 ....|E-5 2F.7 ....|C-4 LF.7 ....
....|..|--- .... ....|--- .... ....|--- .... ....
....|..|A-4 2F.A ....|A-4 2F.7 ....|C-4 LF.7 ....
....|..|--- .... ....|--- .... ....|--- .... ....
..1B|..|A-4 2C.F ....|E-4 2F.A ....|C-4 LF.A ....
....|..|--- .... ....|--- .... ....|--- .... ....
..12|..|E-4 2C.F ....|--- .... ....|--- .... ....
....|..|--- .... ....|--- .... ....|--- .... ....
....|..|A-4 2F.7 ....|R-- .... ....|R-- .... ....
....|..|--- .... ....|--- .... ....|--- .... ....
....|..|A-4 2F.7 ....|E-4 2F.7 ....|C-4 LF.7 ....
....|..|--- .... ....|--- .... ....|--- .... ....
..1B|..|A-4 2C.F ....|E-4 2F.F ....|C-4 LF.F ....
....|..|--- .... ....|--- .... ....|--- .... ....
..1B|..|A-4 2C.F ....|R-- .... ....|R-- .... ....
....|..|--- .... ....|--- .... ....|--- .... ....
....|..|A-4 2F.7 ....|E-5 2F.F ....|C-4 LF.F ....
....|..|--- .... ....|--- .... ....|--- .... ....
....|..|E-4 2F.7 ....|E-5 2F.F ....|C-4 LF.F ....
....|..|--- .... ....|--- .... ....|--- .... ....
..1B|..|A-3 2C.F ....|E-5 2F.F ....|C-4 LF.F ....
....|..|--- .... ....|--- .... ....|--- .... ....
....|..|--- .... ....|A-4 2F.F ....|C-4 LF.F ....
....|..|--- .... ....|--- .... ....|--- .... ....
..12|..|E-4 2C.F ....|E-4 2F.7 ....|C-4 LF.7 ....
....|..|--- .... ....|--- .... ....|--- .... ....
....|..|A-4 2F.7 ....|E-5 2F.A ....|C-4 LF.A ....
....|..|--- .... ....|--- .... ....|--- .... ....
..1B|..|A-4 2C.F ....|E-5 2F.7 ....|C-4 LF.7 ....
....|..|--- .... ....|--- .... ....|--- .... ....
..1B|..|A-4 2C.F ....|E-5 2F.F ....|C-4 LF.F ....
....|..|--- .... ....|--- .... ....|--- .... ....
....|..|A-3 2F.7 ....|E-5 2F.7 ....|C-4 LF.7 ....
....|..|--- .... ....|--- .... ....|--- .... ....
....|..|A-4 2F.A ....|A-4 2F.7 ....|C-4 LF.7 ....
....|..|--- .... ....|--- .... ....|--- .... ....
..1B|..|A-4 2C.F ....|E-5 2F.A ....|C-4 LF.A ....
....|..|--- .... ....|--- .... ....|--- .... ....
..12|..|E-4 2C.F ....|--- .... ....|--- .... ....
....|..|--- .... ....|--- .... ....|--- .... ....
....|..|A-4 2F.7 ....|R-- .... ....|R-- .... ....
....|..|--- .... ....|--- .... ....|--- .... ....
....|..|A-4 2F.7 ....|E-5 2F.7 ....|C-4 LF.7 ....
....|..|--- .... ....|--- .... ....|--- .... ....
..1B|..|A-4 2C.F ....|A-5 2F.F ....|C-4 LF.F ....
....|..|--- .... ....|--- .... ....|--- .... ....
..1B|..|A-4 2C.F ....|R-- .... ....|R-- .... ....
....|..|--- .... ....|--- .... ....|--- .... ....
....|..|A-4 2F.7 ....|E-6 2F.F ....|C-4 LF.F ....
....|..|--- .... ....|--- .... ....|--- .... ....
....|..|E-4 2F.7 ....|E-6 2F.F ....|C-4 LF.F ....
....|..|--- .... ....|--- .... ....|--- .... ....

[Pattern30]
..1B|..|A-3 2C.F ....|E-6 2F.F ....|C-4 LF.F ....
....|..|--- .... ....|--- .... ....|--- .... ....
....|..|--- .... ....|A-4 2F.F ....|C-4 LF.F ....
....|..|--- .... ....|--- .... ....|--- .... ....
..12|..|E-4 2C.F ....|A-5 2F.7 ....|C-4 LF.7 ....
....|..|--- .... ....|--- .... ....|--- .... ....
....|..|A-4 2F.7 ....|E-6 2F.A ....|C-4 LF.A ....
....|..|--- .... ....|--- .... ....|--- .... ....
..1B|..|A-4 2C.F ....|E-6 2F.7 ....|C-4 LF.7 ....
....|..|--- .... ....|--- .... ....|--- .... ....
..1B|..|A-4 2C.F ....|E-5 2F.F ....|C-4 LF.F ....
....|..|--- .... ....|--- .... ....|--- .... ....
....|..|A-3 2F.7 ....|E-6 2F.7 ....|C-4 LF.7 ....
....|..|--- .... ....|--- .... ....|--- .... ....
....|..|A-4 2F.A ....|A-4 2F.7 ....|C-4 LF.7 ....
....|..|--- .... ....|--- .... ....|--- .... ....
..1B|..|A-4 2C.F ....|E-5 2F.A ....|C-4 LF.A ....
....|..|--- .... ....|--- .... ....|--- .... ....
..12|..|E-4 2C.F ....|--- .... ....|--- .... ....
....|..|--- .... ....|--- .... ....|--- .... ....
....|..|A-4 2F.7 ....|R-- .... ....|R-- .... ....
....|..|--- .... ....|--- .... ....|--- .... ....
....|..|A-4 2F.7 ....|E-5 2F.7 ....|C-4 LF.7 ....
....|..|--- .... ....|--- .... ....|--- .... ....
..1B|..|A-4 2C.F ....|E-4 2F.F ....|C-4 LF.F ....
....|..|--- .... ....|--- .... ....|--- .... ....
..1B|..|A-4 2C.F ....|R-- .... ....|R-- .... ....
....|..|--- .... ....|--- .... ....|--- .... ....
....|..|A-4 2F.7 ....|A-5 2F.F ....|C-4 LF.F ....
....|..|--- .... ....|--- .... ....|--- .... ....
....|..|E-4 2F.7 ....|A-5 2F.F ....|C-4 LF.F ....
....|..|--- .... ....|--- .... ....|--- .... ....
..1B|..|A-3 2C.F ....|A-5 2F.F ....|C-4 LF.F ....
....|..|--- .... ....|--- .... ....|--- .... ....
....|..|--- .... ....|A-4 2F.F ....|C-4 LF.F ....
....|..|--- .... ....|--- .... ....|--- .... ....
..12|..|E-4 2C.F ....|E-4 2F.7 ....|C-4 LF.7 ....
....|..|--- .... ....|--- .... ....|--- .... ....
....|..|A-4 2F.7 ....|A-5 2F.A ....|C-4 LF.A ....
....|..|--- .... ....|--- .... ....|--- .... ....
..1B|..|A-4 2C.F ....|A-5 2F.7 ....|C-4 LF.7 ....
....|..|--- .... ....|--- .... ....|--- .... ....
..1B|..|A-4 2C.F ....|E-4 2F.F ....|C-4 LF.F ....
....|..|--- .... ....|--- .... ....|--- .... ....
....|..|A-3 2F.7 ....|A-5 2F.7 ....|C-4 LF.7 ....
....|..|--- .... ....|--- .... ....|--- .... ....
....|..|A-4 2F.A ....|A-4 2F.7 ....|C-4 LF.7 ....
....|..|--- .... ....|--- .... ....|--- .... ....
..1B|..|A-4 2C.F ....|E-4 2F.A ....|C-4 LF.A ....
....|..|--- .... ....|--- .... ....|--- .... ....
..12|..|E-4 2C.F ....|--- .... ....|--- .... ....
....|..|--- .... ....|--- .... ....|--- .... ....
....|..|A-4 2F.7 ....|R-- .... ....|R-- .... ....
....|..|--- .... ....|--- .... ....|--- .... ....
....|..|A-4 2F.7 ....|E-4 2F.7 ....|C-4 LF.7 ....
....|..|--- .... ....|--- .... ....|--- .... ....
..1B|..|A-4 2C.F ....|E-4 2F.F ....|C-4 LF.F ....
....|..|--- .... ....|--- .... ....|--- .... ....
..1B|..|A-4 2C.F ....|R-- .... ....|R-- .... ....
....|..|--- .... ....|--- .... ....|--- .... ....
....|..|A-4 2F.7 ....|E-5 2F.F ....|C-4 LF.F ....
....|..|--- .... ....|--- .... ....|--- .... ....
....|..|E-4 2F.7 ....|E-5 2F.F ....|C-4 LF.F ....
....|..|--- .... ....|--- .... ....|--- .... ....

[Pattern31]
...C|..|B-2 2A.F ....|B-4 2F1F ....|C-4 LF.F ....
....|..|--- .... ....|--- .... ....|--- .... ....
....|..|--- .... ....|B-4 2F.F ....|C-4 LF.F ....
....|..|--- .... ....|--- .... ....|--- .... ....
...C|..|B-2 2A.F ....|D-4 2F.F ....|C-4 LF.F ....
....|..|--- .... ....|--- .... ....|--- .... ....
...C|..|B-2 2A.F ....|B-4 2F1A ....|C-4 LF.A ....
....|..|--- .... ....|--- .... ....|--- .... ....
...C|..|B-2 2A.F ....|B-5 2F.F ....|C-4 LF.F ....
....|..|--- .... ....|--- .... ....|--- .... ....
....|..|B-2 2F.A ....|B-5 2F.F ....|C-4 LF.F ....
....|..|--- .... ....|--- .... ....|--- .... ....
...C|..|B-2 2A.F ....|B-6 2F.F ....|C-4 LF.F ....
....|..|--- .... ....|--- .... ....|--- .... ....
....|..|B-2 2F.A ....|B-6 2F.F ....|C-4 LF.F ....
....|..|--- .... ....|--- .... ....|--- .... ....
...C|..|B-2 2A.F ....|D-4 2F.7 ....|C-4 LF.7 ....
....|..|--- .... ....|--- .... ....|--- .... ....
...C|..|B-2 2A.F ....|B-6 2F.F ....|C-4 LF.F ....
....|..|--- .... ....|--- .... ....|--- .... ....
....|..|B-2 2F.7 ....|B-5 2F.F ....|C-4 LF.F ....
....|..|--- .... ....|--- .... ....|--- .... ....
....|..|B-2 2F.A ....|B-5 2F.F ....|C-4 LF.F ....
....|..|--- .... ....|--- .... ....|--- .... ....
...C|..|B-3 2C.F ....|B-5 2F.F ....|C-4 LF.F ....
....|..|--- .... ....|--- .... ....|--- .... ....
....|..|--- .... ....|B-5 2F.F ....|C-4 LF.F ....
....|..|--- .... ....|--- .... ....|--- .... ....
...C|..|B-3 2C.F ....|B-5 2F.A ....|C-4 LF.A ....
....|..|--- .... ....|--- .... ....|--- .... ....
...C|..|B-2 2A.F ....|B-6 2F.7 ....|C-4 LF.7 ....
....|..|--- .... ....|--- .... ....|--- .... ....
...C|..|B-2 2A.F ....|B-6 2F.F ....|C-4 LF.F ....
....|..|--- .... ....|--- .... ....|--- .... ....
...C|..|B-2 2A.F ....|B-6 2F.F ....|C-4 LF.F ....
....|..|--- .... ....|--- .... ....|--- .... ....
...C|..|B-2 2A.F ....|B-4 2F.F ....|C-4 LF.F ....
....|..|--- .... ....|--- .... ....|--- .... ....
....|..|B-2 2F.A ....|B-5 2F.7 ....|C-4 LF.7 ....
....|..|--- .... ....|--- .... ....|--- .... ....
...C|..|B-3 2C.F ....|B-5 2F.F ....|C-4 LF.F ....
....|..|--- .... ....|--- .... ....|--- .... ....
....|..|B-2 2F.7 ....|B-4 2F.A ....|C-4 LF.A ....
....|..|--- .... ....|--- .... ....|--- .... ....
....|..|B-2 2F.7 ....|B-6 2F.7 ....|C-4 LF.7 ....
....|..|--- .... ....|--- .... ....|--- .... ....
....|..|B-2 2F.7 ....|A-4 2F.F ....|C-4 LF.F ....
....|..|--- .... ....|--- .... ....|--- .... ....
...C|..|B-2 2A.F ....|A-4 2F3F ....|C-4 LF.F ....
....|..|--- .... ....|--- .... ....|--- .... ....
....|..|R-- .... ....|R-- .... ....|R-- .... ....
....|..|--- .... ....|--- .... ....|--- .... ....
...C|..|B-3 2C.F ....|B-5 2F.7 ....|C-4 LF.7 ....
....|..|--- .... ....|--- .... ....|--- .... ....
...C|..|B-3 2C.F ....|B-4 2F.F ....|C-4 LF.F ....
....|..|--- .... ....|--- .... ....|--- .... ....
...C|..|B-3 2C.F ....|R-- .... ....|R-- .... ....
....|..|--- .... ....|--- .... ....|--- .... ....
...C|..|B-3 2C.F ....|A-4 2F.7 ....|C-4 LF.7 ....
....|..|--- .... ....|--- .... ....|--- .... ....
...C|..|B-3 2C.F ....|A-4 2F37 ....|C-4 LF.7 ....
....|..|--- .... ....|--- .... ....|--- .... ....
...C|..|B-2 2A.F ....|B-3 2F.F ....|C-4 LF.F ....
....|..|--- .... ....|--- .... ....|--- .... ....

[Pattern32]
...C|..|B-2 2A.F ....|B-4 2F.F ....|C-4 LF.F ....
....|..|--- .... ....|--- .... ....|--- .... ....
...C|..|B-2 2A.F ....|B-4 2F.7 ....|C-4 LF.7 ....
....|..|--- .... ....|--- .... ....|--- .... ....
...C|..|B-2 2A.F ....|B-5 2F.F ....|C-4 LF.F ....
....|..|--- .... ....|--- .... ....|--- .... ....
...C|..|B-3 2C.F ....|B-4 2F.A ....|C-4 LF.A ....
....|..|--- .... ....|--- .... ....|--- .... ....
...C|..|B-3 2C.F ....|B-3 2F.F ....|C-4 LF.F ....
....|..|--- .... ....|--- .... ....|--- .... ....
....|..|B-2 2F.7 ....|B-4 2F.F ....|C-4 LF.F ....
....|..|--- .... ....|--- .... ....|--- .... ....
...C|..|B-4 2C.F ....|B-5 2F.F ....|C-4 LF.F ....
....|..|--- .... ....|--- .... ....|--- .... ....
....|..|B-2 2F.7 ....|B-5 2F.F ....|C-4 LF.F ....
....|..|--- .... ....|--- .... ....|--- .... ....
...C|..|B-4 2C.F ....|B-5 2F.7 ....|C-4 LF.7 ....
....|..|--- .... ....|--- .... ....|--- .... ....
...C|..|B-3 2C.F ....|B-5 2F.F ....|C-4 LF.F ....
....|..|--- .... ....|--- .... ....|--- .... ....
....|..|B-3 2F.7 ....|B-3 2F.F ....|C-4 LF.F ....
....|..|--- .... ....|--- .... ....|--- .... ....
....|..|B-4 2F.A ....|B-4 2F.F ....|C-4 LF.F ....
....|..|--- .... ....|--- .... ....|--- .... ....
...C|..|B-4 2C.F ....|B-4 2F.F ....|C-4 LF.F ....
....|..|--- .... ....|--- .... ....|--- .... ....
....|..|--- .... ....|B-4 2F.F ....|C-4 LF.F ....
....|..|--- .... ....|--- .... ....|--- .... ....
...C|..|B-4 2C.F ....|B-4 2F.A ....|C-4 LF.A ....
....|..|--- .... ....|--- .... ....|--- .... ....
...C|..|B-2 2A.F ....|B-5 2F.7 ....|C-4 LF.7 ....
....|..|--- .... ....|--- .... ....|--- .... ....
...C|..|B-2 2A.F ....|B-4 2F.F ....|C-4 LF.F ....
....|..|--- .... ....|--- .... ....|--- .... ....
...C|..|B-2 2A.F ....|B-3 2F.F ....|C-4 LF.F ....
....|..|--- .... ....|--- .... ....|--- .... ....
...C|..|B-2 2A.F ....|B-3 2F.F ....|C-4 LF.F ....
....|..|--- .... ....|--- .... ....|--- .... ....
....|..|B-2 2F.A ....|B-4 2F.7 ....|C-4 LF.7 ....
....|..|--- .... ....|--- .... ....|--- .... ....
...C|..|B-2 2A.F ....|B-3 2F.F ....|C-4 LF.F ....
....|..|--- .... ....|--- .... ....|--- .... ....
....|..|B-2 2F.7 ....|B-3 2F.A ....|C-4 LF.A ....
....|..|--- .... ....|--- .... ....|--- .... ....
....|..|B-2 2F.7 ....|B-4 2F.7 ....|C-4 LF.7 ....
....|..|--- .... ....|--- .... ....|--- .... ....
....|..|B-2 2F.7 ....|B-5 2F.F ....|C-4 LF.F ....
....|..|--- .... ....|--- .... ....|--- .... ....
...C|..|B-3 2C.F ....|B-6 2F.F ....|C-4 LF.F ....
....|..|--- .... ....|--- .... ....|--- .... ....
....|..|R-- .... ....|R-- .... ....|R-- .... ....
....|..|--- .... ....|--- .... ....|--- .... ....
...C|..|B-3 2C.F ....|B-3 2F.7 ....|C-4 LF.7 ....
....|..|--- .... ....|--- .... ....|--- .... ....
...C|..|B-2 2A.F ....|B-6 2F.F ....|C-4 LF.F ....
....|..|--- .... ....|--- .... ....|--- .... ....
...C|..|B-3 2C.F ....|R-- .... ....|R-- .... ....
....|..|--- .... ....|--- .... ....|--- .... ....
...C|..|B-3 2C.F ....|B-5 2F.7 ....|C-4 LF.7 ....
....|..|--- .... ....|--- .... ....|--- .... ....
...C|..|B-3 2C.F ....|B-6 2F.7 ....|C-4 LF.7 ....
....|..|--- .... ....|--- .... ....|--- .... ....
...C|..|B-2 2A.F ....|B-5 2F.F ....|C-4 LF.F ....
....|..|--- .... ....|--- .... ....|--- .... ....

[Pattern33]
...C|..|B-2 2A.F ....|B-5 2F.F ....|C-4 LF.F ....
....|..|--- .... ....|--- .... ....|--- .... ....
...C|..|B-2 2A.F ....|B-6 2F.7 ....|C-4 LF.7 ....
....|..|--- .... ....|--- .... ....|--- .... ....
...C|..|B-3 2C.F ....|B-5 2F.F ....|C-4 LF.F ....
....|..|--- .... ....|--- .... ....|--- .... ....
...C|..|B-3 2C.F ....|B-5 2F.A ....|C-4 LF.A ....
....|..|--- .... ....|--- .... ....|--- .... ....
...C|..|B-2 2A.F ....|B-3 2F.F ....|C-4 LF.F ....
....|..|--- .... ....|--- .... ....|--- .... ....
....|..|B-2 2F.7 ....|B-3 2F.F ....|C-4 LF.F ....
....|..|--- .... ....|--- .... ....|--- .... ....
...C|..|B-2 2A.F ....|B-4 2F.F ....|C-4 LF.F ....
....|..|--- .... ....|--- .... ....|--- .... ....
....|..|B-2 2F.7 ....|B-4 2F.F ....|C-4 LF.F ....
....|..|--- .... ....|--- .... ....|--- .... ....
...C|..|B-2 2A.F ....|B-5 2F.7 ....|C-4 LF.7 ....
....|..|--- .... ....|--- .... ....|--- .... ....
...C|..|B-2 2A.F ....|B-5 2F.F ....|C-4 LF.F ....
....|..|--- .... ....|--- .... ....|--- .... ....
....|..|B-2 2F.7 ....|B-5 2F.F ....|C-4 LF.F ....
....|..|--- .... ....|--- .... ....|--- .... ....
....|..|B-2 2F.A ....|B-5 2F.F ....|C-4 LF.F ....
....|..|--- .... ....|--- .... ....|--- .... ....
...C|..|B-2 2A.F ....|B-4 2F.F ....|C-4 LF.F ....
....|..|--- .... ....|--- .... ....|--- .... ....
....|..|--- .... ....|B-4 2F.F ....|C-4 LF.F ....
....|..|--- .... ....|--- .... ....|--- .... ....
...C|..|B-2 2A.F ....|B-5 2F.A ....|C-4 LF.A ....
....|..|--- .... ....|--- .... ....|--- .... ....
...C|..|B-2 2A.F ....|B-5 2F.7 ....|C-4 LF.7 ....
....|..|--- .... ....|--- .... ....|--- .... ....
...C|..|B-3 2C.F ....|B-5 2F.F ....|C-4 LF.F ....
....|..|--- .... ....|--- .... ....|--- .... ....
...C|..|B-3 2C.F ....|B-5 2F.F ....|C-4 LF.F ....
....|..|--- .... ....|--- .... ....|--- .... ....
...C|..|B-3 2C.F ....|B-6 2F.F ....|C-4 LF.F ....
....|..|--- .... ....|--- .... ....|--- .... ....
....|..|B-3 2F.A ....|B-4 2F.7 ....|C-4 LF.7 ....
....|..|--- .... ....|--- .... ....|--- .... ....
...C|..|B-2 2A.F ....|B-5 2F.F ....|C-4 LF.F ....
....|..|--- .... ....|--- .... ....|--- .... ....
....|..|B-2 2F.7 ....|B-6 2F.A ....|C-4 LF.A ....
....|..|--- .... ....|--- .... ....|--- .... ....
....|..|B-3 2F.7 ....|B-5 2F.7 ....|C-4 LF.7 ....
....|..|--- .... ....|--- .... ....|--- .... ....
....|..|B-3 2F.7 ....|B-4 2F.F ....|C-4 LF.F ....
....|..|--- .... ....|--- .... ....|--- .... ....
...C|..|B-2 2A.F ....|B-5 2F.F ....|C-4 LF.F ....
....|..|--- .... ....|--- .... ....|--- .... ....
....|..|R-- .... ....|R-- .... ....|R-- .... ....
....|..|--- .... ....|--- .... ....|--- .... ....
...C|..|B-2 2A.F ....|B-5 2F.7 ....|C-4 LF.7 ....
....|..|--- .... ....|--- .... ....|--- .... ....
...C|..|B-2 2A.F ....|B-5 2F.F ....|C-4 LF.F ....
....|..|--- .... ....|--- .... ....|--- .... ....
...C|..|B-3 2C.F ....|R-- .... ....|R-- .... ....
....|..|--- .... ....|--- .... ....|--- .... ....
...C|..|B-3 2C.F ....|B-4 2F.7 ....|C-4 LF.7 ....
....|..|--- .... ....|--- .... ....|--- .... ....
...C|..|B-4 2C.F ....|B-5 2F.7 ....|C-4 LF.7 ....
....|..|--- .... ....|--- .... ....|--- .... ....
...C|..|B-4 2C.F ....|B-4 2F.F ....|C-4 LF.F ....
....|..|--- .... ....|--- .... ....|--- .... ....

[Pattern34]
...C|..|B-4 2C.F ....|B-4 2F.F ....|C-4 LF.F ....
....|..|--- .... ....|--- .... ....|--- .... ....
...C|..|B-2 2A.F ....|B-5 2F.7 ....|C-4 LF.7 ....
....|..|--- .... ....|--- .... ....|--- .... ....
...C|..|B-2 2A.F ....|B-4 2F.F ....|C-4 LF.F ....
....|..|--- .... ....|--- .... ....|--- .... ....
...C|..|B-3 2C.F ....|B-4 2F.A ....|C-4 LF.A ....
....|..|--- .... ....|--- .... ....|--- .... ....
...C|..|B-3 2C.F ....|B-3 2F.F ....|C-4 LF.F ....
....|..|--- .... ....|--- .... ....|--- .... ....
....|..|B-4 2F.7 ....|B-5 2F.F ....|C-4 LF.F ....
....|..|--- .... ....|--- .... ....|--- .... ....
...C|..|B-4 2C.F ....|B-5 2F.F ....|C-4 LF.F ....
....|..|--- .... ....|--- .... ....|--- .... ....
....|..|B-2 2F.7 ....|G-4 2F.F ....|C-4 LF.F ....
....|..|--- .... ....|--- .... ....|--- .... ....
...C|..|B-4 2C.F ....|B-4 2F.7 ....|C-4 LF.7 ....
....|..|--- .... ....|--- .... ....|--- .... ....
...C|..|B-2 2A.F ....|G-4 2F2F ....|C-4 LF.F ....
....|..|--- .... ....|--- .... ....|--- .... ....
....|..|B-3 2F.7 ....|B-4 2F.F ....|C-4 LF.F ....
....|..|--- .... ....|--- .... ....|--- .... ....
....|..|B-4 2F.A ....|B-4 2F.F ....|C-4 LF.F ....
....|..|--- .... ....|--- .... ....|--- .... ....
...C|..|B-2 2A.F ....|B-5 2F.F ....|C-4 LF.F ....
....|..|--- .... ....|--- .... ....|--- .... ....
....|..|--- .... ....|B-5 2F.F ....|C-4 LF.F ....
....|..|--- .... ....|--- .... ....|--- .... ....
...C|..|B-2 2A.F ....|B-4 2F.A ....|C-4 LF.A ....
....|..|--- .... ....|--- .... ....|--- .... ....
...C|..|B-2 2A.F ....|G-4 2F27 ....|C-4 LF.7 ....
....|..|--- .... ....|--- .... ....|--- .... ....
...C|..|B-3 2C.F ....|B-6 2F.F ....|C-4 LF.F ....
....|..|--- .... ....|--- .... ....|--- .... ....
...C|..|B-3 2C.F ....|B-6 2F.F ....|C-4 LF.F ....
....|..|--- .... ....|--- .... ....|--- .... ....
...C|..|B-3 2C.F ....|B-4 2F.F ....|C-4 LF.F ....
....|..|--- .... ....|--- .... ....|--- .... ....
....|..|B-3 2F.A ....|B-5 2F.7 ....|C-4 LF.7 ....
....|..|--- .... ....|--- .... ....|--- .... ....
...C|..|B-2 2A.F ....|B-3 2F.F ....|C-4 LF.F ....
....|..|--- .... ....|--- .... ....|--- .... ....
....|..|B-2 2F.7 ....|B-4 2F.A ....|C-4 LF.A ....
....|..|--- .... ....|--- .... ....|--- .... ....
....|..|B-3 2F.7 ....|B-6 2F.7 ....|C-4 LF.7 ....
....|..|--- .... ....|--- .... ....|--- .... ....
....|..|B-3 2F.7 ....|B-5 2F.F ....|C-4 LF.F ....
....|..|--- .... ....|--- .... ....|--- .... ....
...C|..|B-3 2C.F ....|B-5 2F.F ....|C-4 LF.F ....
....|..|--- .... ....|--- .... ....|--- .... ....
....|..|R-- .... ....|R-- .... ....|R-- .... ....
....|..|--- .... ....|--- .... ....|--- .... ....
...C|..|B-3 2C.F ....|B-3 2F.7 ....|C-4 LF.7 ....
....|..|--- .... ....|--- .... ....|--- .... ....
...C|..|B-2 2A.F ....|B-3 2F.F ....|C-4 LF.F ....
....|..|--- .... ....|--- .... ....|--- .... ....
...C|..|B-3 2C.F ....|R-- .... ....|R-- .... ....
....|..|--- .... ....|--- .... ....|--- .... ....
...C|..|B-3 2C.F ....|B-5 2F.7 ....|C-4 LF.7 ....
....|..|--- .... ....|--- .... ....|--- .... ....
...C|..|B-3 2C.F ....|B-5 2F.7 ....|C-4 LF.7 ....
....|..|--- .... ....|--- .... ....|--- .... ....
...C|..|B-2 2A.F ....|B-3 2F.F ....|C-4 LF.F ....
....|..|--- .... ....|--- .... ....|--- .... ....

[Pattern35]
...C|..|B-2 2A.F ....|B-3 2F.F ....|C-4 LF.F ....
....|..|--- .... ....|--- .... ....|--- .... ....
...C|..|B-2 2A.F ....|B-3 2F.7 ....|C-4 LF.7 ....
....|..|--- .... ....|--- .... ....|--- .... ....
...C|..|B-3 2C.F ....|B-4 2F.F ....|C-4 LF.F ....
....|..|--- .... ....|--- .... ....|--- .... ....
...C|..|B-3 2C.F ....|B-3 2F.A ....|C-4 LF.A ....
....|..|--- .... ....|--- .... ....|--- .... ....
...C|..|B-2 2A.F ....|B-5 2F.F ....|C-4 LF.F ....
....|..|--- .... ....|--- .... ....|--- .... ....
....|..|B-2 2F.7 ....|B-5 2F.F ....|C-4 LF.F ....
....|..|--- .... ....|--- .... ....|--- .... ....
...C|..|B-2 2A.F ....|B-6 2F.F ....|C-4 LF.F ....
....|..|--- .... ....|--- .... ....|--- .... ....
....|..|B-2 2F.7 ....|B-6 2F.F ....|C-4 LF.F ....
....|..|--- .... ....|--- .... ....|--- .... ....
...C|..|B-3 2C.F ....|B-4 2F.7 ....|C-4 LF.7 ....
....|..|--- .... ....|--- .... ....|--- .... ....
...C|..|B-3 2C.F ....|B-6 2F.F ....|C-4 LF.F ....
....|..|--- .... ....|--- .... ....|--- .... ....
....|..|B-2 2F.7 ....|B-3 2F.F ....|C-4 LF.F ....
....|..|--- .... ....|--- .... ....|--- .... ....
....|..|B-3 2F.A ....|B-5 2F.F ....|C-4 LF.F ....
....|..|--- .... ....|--- .... ....|--- .... ....
...C|..|B-4 2C.F ....|B-5 2F.F ....|C-4 LF.F ....
....|..|--- .... ....|--- .... ....|--- .... ....
....|..|--- .... ....|B-4 2F.F ....|C-4 LF.F ....
....|..|--- .... ....|--- .... ....|--- .... ....
...C|..|B-4 2C.F ....|B-5 2F.A ....|C-4 LF.A ....
....|..|--- .... ....|--- .... ....|--- .... ....
...C|..|B-2 2A.F ....|B-6 2F.7 ....|C-4 LF.7 ....
....|..|--- .... ....|--- .... ....|--- .... ....
...C|..|B-2 2A.F ....|B-4 2F.F ....|C-4 LF.F ....
....|..|--- .... ....|--- .... ....|--- .... ....
...C|..|B-2 2A.F ....|B-4 2F.F ....|C-4 LF.F ....
....|..|--- .... ....|--- .... ....|--- .... ....
...C|..|B-2 2A.F ....|B-5 2F.F ....|C-4 LF.F ....
....|..|--- .... ....|--- .... ....|--- .... ....
....|..|B-2 2F.A ....|B-4 2F.7 ....|C-4 LF.7 ....
....|..|--- .... ....|--- .... ....|--- .... ....
...C|..|B-3 2C.F ....|B-3 2F.F ....|C-4 LF.F ....
....|..|--- .... ....|--- .... ....|--- .... ....
....|..|B-2 2F.7 ....|B-5 2F.A ....|C-4 LF.A ....
....|..|--- .... ....|--- .... ....|--- .... ....
....|..|B-2 2F.7 ....|B-4 2F.7 ....|C-4 LF.7 ....
....|..|--- .... ....|--- .... ....|--- .... ....
....|..|B-2 2F.7 ....|B-4 2F.F ....|C-4 LF.F ....
....|..|--- .... ....|--- .... ....|--- .... ....
...C|..|B-2 2A.F ....|B-5 2F.F ....|C-4 LF.F ....
....|..|--- .... ....|--- .... ....|--- .... ....
....|..|R-- .... ....|R-- .... ....|R-- .... ....
....|..|--- .... ....|--- .... ....|--- .... ....
...C|..|B-3 2C.F ....|B-3 2F.7 ....|C-4 LF.7 ....
....|..|--- .... ....|--- .... ....|--- .... ....
...C|..|B-3 2C.F ....|B-5 2F.F ....|C-4 LF.F ....
....|..|--- .... ....|--- .... ....|--- .... ....
...C|..|B-3 2C.F ....|R-- .... ....|R-- .... ....
....|..|--- .... ....|--- .... ....|--- .... ....
...C|..|B-3 2C.F ....|B-4 2F.7 ....|C-4 LF.7 ....
....|..|--- .... ....|--- .... ....|--- .... ....
...C|..|B-3 2C.F ....|B-5 2F.7 ....|C-4 LF.7 ....
....|..|--- .... ....|--- .... ....|--- .... ....
...C|..|B-2 2A.F ....|B-3 2F.F ....|C-4 LF.F ....
....|..|--- .... ....|--- .... ....|--- .... ....

[Pattern36]
...C|..|B-2 2A.F ....|B-3 2F.F ....|C-4 LF.F ....
....|..|--- .... ....|--- .... ....|--- .... ....
...C|..|B-2 2A.F ....|B-5 2F.7 ....|C-4 LF.7 ....
....|..|--- .... ....|--- .... ....|--- .... ....
...C|..|B-2 2A.F ....|B-4 2F.F ....|C-4 LF.F ....
....|..|--- .... ....|--- .... ....|--- .... ....
...C|..|B-2 2A.F ....|B-3 2F.A ....|C-4 LF.A ....
....|..|--- .... ....|--- .... ....|--- .... ....
...C|..|B-2 2A.F ....|B-5 2F.F ....|C-4 LF.F ....
....|..|--- .... ....|--- .... ....|--- .... ....
....|..|B-2 2F.7 ....|B-6 2F.F ....|C-4 LF.F ....
....|..|--- .... ....|--- .... ....|--- .... ....
...C|..|B-2 2A.F ....|B-6 2F.F ....|C-4 LF.F ....
....|..|--- .... ....|--- .... ....|--- .... ....
....|..|B-2 2F.7 ....|B-5 2F.F ....|C-4 LF.F ....
....|..|--- .... ....|--- .... ....|--- .... ....
...C|..|B-3 2C.F ....|B-4 2F.7 ....|C-4 LF.7 ....
....|..|--- .... ....|--- .... ....|--- .... ....
...C|..|B-3 2C.F ....|B-5 2F.F ....|C-4 LF.F ....
....|..|--- .... ....|--- .... ....|--- .... ....
....|..|B-2 2F.7 ....|B-4 2F.F ....|C-4 LF.F ....
....|..|--- .... ....|--- .... ....|--- .... ....
....|..|B-3 2F.A ....|B-4 2F.F ....|C-4 LF.F ....
....|..|--- .... ....|--- .... ....|--- .... ....
...C|..|B-4 2C.F ....|B-5 2F.F ....|C-4 LF.F ....
....|..|--- .... ....|--- .... ....|--- .... ....
....|..|--- .... ....|B-5 2F.F ....|C-4 LF.F ....
....|..|--- .... ....|--- .... ....|--- .... ....
...C|..|B-4 2C.F ....|B-4 2F.A ....|C-4 LF.A ....
....|..|--- .... ....|--- .... ....|--- .... ....
...C|..|B-2 2A.F ....|B-5 2F.7 ....|C-4 LF.7 ....
....|..|--- .... ....|--- .... ....|--- .... ....
...C|..|B-2 2A.F ....|B-6 2F.F ....|C-4 LF.F ....
....|..|--- .... ....|--- .... ....|--- .... ....
...C|..|B-2 2A.F ....|B-6 2F.F ....|C-4 LF.F ....
....|..|--- .... ....|--- .... ....|--- .... ....
...C|..|B-2 2A.F ....|B-3 2F.F ....|C-4 LF.F ....
....|..|--- .... ....|--- .... ....|--- .... ....
....|..|B-2 2F.A ....|B-5 2F.7 ....|C-4 LF.7 ....
....|..|--- .... ....|--- .... ....|--- .... ....
...C|..|B-2 2A.F ....|B-3 2F.F ....|C-4 LF.F ....
....|..|--- .... ....|--- .... ....|--- .... ....
....|..|B-2 2F.7 ....|B-3 2F.A ....|C-4 LF.A ....
....|..|--- .... ....|--- .... ....|--- .... ....
....|..|B-2 2F.7 ....|B-6 2F.7 ....|C-4 LF.7 ....
....|..|--- .... ....|--- .... ....|--- .... ....
....|..|B-2 2F.7 ....|B-4 2F.F ....|C-4 LF.F ....
....|..|--- .... ....|--- .... ....|--- .... ....
...C|..|B-2 2A.F ....|B-5 2F.F ....|C-4 LF.F ....
....|..|--- .... ....|--- .... ....|--- .... ....
....|..|R-- .... ....|R-- .... ....|R-- .... ....
....|..|--- .... ....|--- .... ....|--- .... ....
...C|..|B-2 2A.F ....|B-3 2F.7 ....|C-4 LF.7 ....
....|..|--- .... ....|--- .... ....|--- .... ....
...C|..|B-2 2A.F ....|B-5 2F.F ....|C-4 LF.F ....
....|..|--- .... ....|--- .... ....|--- .... ....
...C|..|B-3 2C.F ....|R-- .... ....|R-- .... ....
....|..|--- .... ....|--- .... ....|--- .... ....
...C|..|B-3 2C.F ....|B-4 2F.7 ....|C-4 LF.7 ....
....|..|--- .... ....|--- .... ....|--- .... ....
...C|..|B-3 2C.F ....|B-5 2F.7 ....|C-4 LF.7 ....
....|..|--- .... ....|--- .... ....|--- .... ....
...C|..|B-2 2A.F ....|B-4 2F.F ....|C-4 LF.F ....
....|..|--- .... ....|--- .... ....|--- .... ....

[Pattern37]
...C|..|B-2 2A.F ....|B-4 2F.F ....|C-4 LF.F ....
....|..|--- .... ....|--- .... ....|--- .... ....
...C|..|B-2 2A.F ....|B-5 2F.7 ....|C-4 LF.7 ....
....|..|--- .... ....|--- .... ....|--- .... ....
...C|..|B-2 2A.F ....|D-4 2F.F ....|C-4 LF.F ....
....|..|--- .... ....|--- .... ....|--- .... ....
...C|..|B-2 2A.F ....|B-4 2F.A ....|C-4 LF.A ....
....|..|--- .... ....|--- .... ....|--- .... ....
...C|..|B-2 2A.F ....|B-5 2F.F ....|C-4 LF.F ....
....|..|--- .... ....|--- .... ....|--- .... ....
....|..|B-2 2F.7 ....|B-6 2F.F ....|C-4 LF.F ....
....|..|--- .... ....|--- .... ....|--- .... ....
...C|..|B-3 2C.F ....|B-6 2F.F ....|C-4 LF.F ....
....|..|--- .... ....|--- .... ....|--- .... ....
....|..|B-2 2F.7 ....|G-4 2F.F ....|C-4 LF.F ....
....|..|--- .... ....|--- .... ....|--- .... ....
...C|..|B-3 2C.F ....|D-4 2F.7 ....|C-4 LF.7 ....
....|..|--- .... ....|--- .... ....|--- .... ....
...C|..|B-3 2C.F ....|B-5 2F.F ....|C-4 LF.F ....
....|..|--- .... ....|--- .... ....|--- .... ....
....|..|B-2 2F.7 ....|B-5 2F.F ....|C-4 LF.F ....
....|..|--- .... ....|--- .... ....|--- .... ....
....|..|B-3 2F.A ....|B-5 2F.F ....|C-4 LF.F ....
....|..|--- .... ....|--- .... ....|--- .... ....
...C|..|B-4 2C.F ....|B-4 2F.F ....|C-4 LF.F ....
....|..|--- .... ....|--- .... ....|--- .... ....
....|..|--- .... ....|B-4 2F.F ....|C-4 LF.F ....
....|..|--- .... ....|--- .... ....|--- .... ....
...C|..|B-4 2C.F ....|B-5 2F.A ....|C-4 LF.A ....
....|..|--- .... ....|--- .... ....|--- .... ....
...C|..|B-2 2A.F ....|B-5 2F.7 ....|C-4 LF.7 ....
....|..|--- .... ....|--- .... ....|--- .... ....
...C|..|B-2 2A.F ....|B-4 2F.F ....|C-4 LF.F ....
....|..|--- .... ....|--- .... ....|--- .... ....
...C|..|B-2 2A.F ....|B-3 2F.F ....|C-4 LF.F ....
....|..|--- .... ....|--- .... ....|--- .... ....
...C|..|B-2 2A.F ....|B-5 2F.F ....|C-4 LF.F ....
....|..|--- .... ....|--- .... ....|--- .... ....
....|..|B-2 2F.A ....|B-4 2F.7 ....|C-4 LF.7 ....
....|..|--- .... ....|--- .... ....|--- .... ....
...C|..|B-3 2C.F ....|B-4 2F.F ....|C-4 LF.F ....
....|..|--- .... ....|--- .... ....|--- .... ....
....|..|B-2 2F.7 ....|B-5 2F.A ....|C-4 LF.A ....
....|..|--- .... ....|--- .... ....|--- .... ....
....|..|B-2 2F.7 ....|B-4 2F.7 ....|C-4 LF.7 ....
....|..|--- .... ....|--- .... ....|--- .... ....
....|..|B-2 2F.7 ....|B-5 2F.F ....|C-4 LF.F ....
....|..|--- .... ....|--- .... ....|--- .... ....
...C|..|B-3 2C.F ....|B-6 2F.F ....|C-4 LF.F ....
....|..|--- .... ....|--- .... ....|--- .... ....
....|..|R-- .... ....|R-- .... ....|R-- .... ....
....|..|--- .... ....|--- .... ....|--- .... ....
...C|..|B-3 2C.F ....|B-4 2F.7 ....|C-4 LF.7 ....
....|..|--- .... ....|--- .... ....|--- .... ....
...C|..|B-2 2A.F ....|B-6 2F.F ....|C-4 LF.F ....
....|..|--- .... ....|--- .... ....|--- .... ....
...C|..|B-3 2C.F ....|R-- .... ....|R-- .... ....
....|..|--- .... ....|--- .... ....|--- .... ....
...C|..|B-3 2C.F ....|B-5 2F.7 ....|C-4 LF.7 ....
....|..|--- .... ....|--- .... ....|--- .... ....
...C|..|B-4 2C.F ....|B-6 2F.7 ....|C-4 LF.7 ....
....|..|--- .... ....|--- .... ....|--- .... ....
...C|..|B-4 2C.F ....|B-5 2F.F ....|C-4 LF.F ....
....|..|--- .... ....|--- .... ....|--- .... ....

[Pattern38]
...C|..|B-4 2C.F ....|B-5 2F.F ....|C-4 LF.F ....
....|..|--- .... ....|--- .... ....|--- .... ....
...C|..|B-2 2A.F ....|B-6 2F.7 ....|C-4 LF.7 ....
....|..|--- .... ....|--- .... ....|--- .... ....
...C|..|B-2 2A.F ....|D-4 2F.F ....|C-4 LF.F ....
....|..|--- .... ....|--- .... ....|--- .... ....
...C|..|B-2 2A.F ....|B-5 2F.A ....|C-4 LF.A ....
....|..|--- .... ....|--- .... ....|--- .... ....
...C|..|B-2 2A.F ....|B-5 2F.F ....|C-4 LF.F ....
....|..|--- .... ....|--- .... ....|--- .... ....
....|..|B-4 2F.7 ....|B-6 2F.F ....|C-4 LF.F ....
....|..|--- .... ....|--- .... ....|--- .... ....
...C|..|B-3 2C.F ....|B-6 2F.F ....|C-4 LF.F ....
....|..|--- .... ....|--- .... ....|--- .... ....
....|..|B-2 2F.7 ....|G-4 2F.F ....|C-4 LF.F ....
....|..|--- .... ....|--- .... ....|--- .... ....
...C|..|B-3 2C.F ....|D-4 2F.7 ....|C-4 LF.7 ....
....|..|--- .... ....|--- .... ....|--- .... ....
...C|..|B-3 2C.F ....|B-5 2F.F ....|C-4 LF.F ....
....|..|--- .... ....|--- .... ....|--- .... ....
....|..|B-2 2F.7 ....|B-5 2F.F ....|C-4 LF.F ....
....|..|--- .... ....|--- .... ....|--- .... ....
....|..|B-3 2F.A ....|B-5 2F.F ....|C-4 LF.F ....
....|..|--- .... ....|--- .... ....|--- .... ....
...C|..|B-4 2C.F ....|B-4 2F.F ....|C-4 LF.F ....
....|..|--- .... ....|--- .... ....|--- .... ....
....|..|--- .... ....|B-4 2F.F ....|C-4 LF.F ....
....|..|--- .... ....|--- .... ....|--- .... ....
...C|..|B-4 2C.F ....|B-5 2F.A ....|C-4 LF.A ....
....|..|--- .... ....|--- .... ....|--- .... ....
...C|..|B-2 2A.F ....|B-5 2F.7 ....|C-4 LF.7 ....
....|..|--- .... ....|--- .... ....|--- .... ....
...C|..|B-2 2A.F ....|B-5 2F.F ....|C-4 LF.F ....
....|..|--- .... ....|--- .... ....|--- .... ....
...C|..|B-2 2A.F ....|B-5 2F.F ....|C-4 LF.F ....
....|..|--- .... ....|--- .... ....|--- .... ....
...C|..|B-2 2A.F ....|B-3 2F.F ....|C-4 LF.F ....
....|..|--- .... ....|--- .... ....|--- .... ....
....|..|B-2 2F.A ....|B-4 2F.7 ....|C-4 LF.7 ....
....|..|--- .... ....|--- .... ....|--- .... ....
...C|..|B-2 2A.F ....|B-3 2F.F ....|C-4 LF.F ....
....|..|--- .... ....|--- .... ....|--- .... ....
....|..|B-2 2F.7 ....|B-3 2F.A ....|C-4 LF.A ....
....|..|--- .... ....|--- .... ....|--- .... ....
....|..|B-2 2F.7 ....|B-5 2F.7 ....|C-4 LF.7 ....
....|..|--- .... ....|--- .... ....|--- .... ....
....|..|B-2 2F.7 ....|B-6 2F.F ....|C-4 LF.F ....
....|..|--- .... ....|--- .... ....|--- .... ....
...C|..|B-3 2C.F ....|B-6 2F.F ....|C-4 LF.F ....
....|..|--- .... ....|--- .... ....|--- .... ....
....|..|R-- .... ....|R-- .... ....|R-- .... ....
....|..|--- .... ....|--- .... ....|--- .... ....
...C|..|B-3 2C.F ....|B-3 2F.7 ....|C-4 LF.7 ....
....|..|--- .... ....|--- .... ....|--- .... ....
...C|..|B-2 2A.F ....|B-4 2F.F ....|C-4 LF.F ....
....|..|--- .... ....|--- .... ....|--- .... ....
...C|..|B-3 2C.F ....|R-- .... ....|R-- .... ....
....|..|--- .... ....|--- .... ....|--- .... ....
...C|..|B-3 2C.F ....|B-6 2F.7 ....|C-4 LF.7 ....
....|..|--- .... ....|--- .... ....|--- .... ....
...C|..|B-3 2C.F ....|B-6 2F.7 ....|C-4 LF.7 ....
....|..|--- .... ....|--- .... ....|--- .... ....
...C|..|B-2 2A.F ....|B-3 2F.F ....|C-4 LF.F ....
....|..|--- .... ....|--- .... ....|--- .... ....

[Pattern39]
...C|..|B-4 2C.F ....|--- .... ....|--- .... ....
....|..|--- .... ....|--- .... ....|--- .... ....
...C|..|B-4 2C.F ....|B-4 2F.7 ....|C-4 LF.7 ....
....|..|--- .... ....|--- .... ....|--- .... ....
...C|..|B-2 2A.F ....|B-3 2F.A ....|C-4 LF.A ....
....|..|--- .... ....|--- .... ....|--- .... ....
....|..|B-3 2F.7 ....|--- .... ....|--- .... ....
....|..|--- .... ....|--- .... ....|--- .... ....
....|..|B-3 2F.7 ....|--- .... ....|--- .... ....
....|..|--- .... ....|--- .... ....|--- .... ....
....|..|B-2 2F.7 ....|B-3 2F.7 ....|C-4 LF.7 ....
....|..|--- .... ....|--- .... ....|--- .... ....
...C|..|B-2 2A.F ....|--- .... ....|--- .... ....
....|..|--- .... ....|--- .... ....|--- .... ....
....|..|B-4 2F.7 ....|--- .... ....|--- .... ....
....|..|--- .... ....|--- .... ....|--- .... ....
...C|..|B-4 2C.F ....|R-- .... ....|R-- .... ....
....|..|--- .... ....|--- .... ....|--- .... ....
...C|..|B-4 2C.F ....|--- .... ....|--- .... ....
....|..|--- .... ....|--- .... ....|--- .... ....
....|..|R-- .... ....|--- .... ....|--- .... ....
....|..|--- .... ....|--- .... ....|--- .... ....
....|..|B-4 2F.A ....|--- .... ....|--- .... ....
....|..|--- .... ....|--- .... ....|--- .... ....
...C|..|B-5 2C.F ....|--- .... ....|--- .... ....
....|..|--- .... ....|--- .... ....|--- .... ....
....|..|--- .... ....|--- .... ....|--- .... ....
....|..|--- .... ....|--- .... ....|--- .... ....
....|..|B-4 2F.7 ....|--- .... ....|--- .... ....
....|..|--- .... ....|--- .... ....|--- .... ....
....|..|B-4 2F.7 ....|--- .... ....|--- .... ....
....|..|--- .... ....|--- .... ....|--- .... ....
...C|..|B-4 2C.F ....|--- .... ....|--- .... ....
....|..|--- .... ....|--- .... ....|--- .... ....
....|..|R-- .... ....|--- .... ....|--- .... ....
....|..|--- .... ....|--- .... ....|--- .... ....
...C|..|B-2 2A.F ....|--- .... ....|--- .... ....
....|..|--- .... ....|--- .... ....|--- .... ....
....|..|B-4 2F.A ....|--- .... ....|--- .... ....
....|..|--- .... ....|--- .... ....|--- .... ....
....|..|R-- .... ....|--- .... ....|--- .... ....
....|..|--- .... ....|--- .... ....|--- .... ....
....|..|B-2 2F.A ....|--- .... ....|--- .... ....
....|..|--- .... ....|--- .... ....|--- .... ....
....|..|B-4 2F.7 ....|--- .... ....|--- .... ....
....|..|--- .... ....|--- .... ....|--- .... ....
....|..|R-- .... ....|--- .... ....|--- .... ....
....|..|--- .... ....|--- .... ....|--- .... ....
...C|..|B-4 2C.F ....|--- .... ....|--- .... ....
....|..|--- .... ....|--- .... ....|--- .... ....
....|..|--- .... ....|--- .... ....|--- .... ....
....|..|--- .... ....|--- .... ....|--- .... ....
....|..|R-- .... ....|--- .... ....|--- .... ....
....|..|--- .... ....|--- .... ....|--- .... ....
....|..|B-4 2F.A ....|--- .... ....|--- .... ....
....|..|--- .... ....|--- .... ....|--- .... ....
...C|..|B-5 2C.F ....|--- .... ....|--- .... ....
....|..|--- .... ....|--- .... ....|--- .... ....
....|..|--- .... ....|--- .... ....|--- .... ....
....|..|--- .... ....|--- .... ....|--- .... ....
....|..|B-4 2F.7 ....|--- .... ....|--- .... ....
....|..|--- .... ....|--- .... ....|--- .... ....
....|..|B-5 2F.A ....|--- .... ....|--- .... ....
....|..|--- .... ....|--- .... ....|--- .... ....

[Pattern40]
...C|..|B-5 2C.F ....|--- .... ....|--- .... ....
....|..|--- .... ....|--- .... ....|--- .... ....
....|..|--- .... ....|--- .... ....|--- .... ....
....|..|--- .... ....|--- .... ....|--- .... ....
...C|..|B-5 2C.F ....|--- .... ....|--- .... ....
....|..|--- .... ....|--- .... ....|--- .... ....
....|..|B-5 2F.A ....|--- .... ....|--- .... ....
....|..|--- .... ....|--- .... ....|--- .... ....
...C|..|B-5 2C.F ....|--- .... ....|--- .... ....
....|..|--- .... ....|--- .... ....|--- .... ....
....|..|B-5 2F.A ....|--- .... ....|--- .... ....
....|..|--- .... ....|--- .... ....|--- .... ....
...C|..|B-5 2C.F ....|--- .... ....|--- .... ....
....|..|--- .... ....|--- .... ....|--- .... ....
....|..|B-5 2F.A ....|--- .... ....|--- .... ....
....|..|--- .... ....|--- .... ....|--- .... ....
...C|..|B-5 2C.F ....|--- .... ....|--- .... ....
....|..|--- .... ....|--- .... ....|--- .... ....
...C|..|B-5 2C.F ....|--- .... ....|--- .... ....
....|..|--- .... ....|--- .... ....|--- .... ....
....|..|B-5 2F.7 ....|--- .... ....|--- .... ....
....|..|--- .... ....|--- .... ....|--- .... ....
...C|..|B-5 2C.F ....|--- .... ....|--- .... ....
....|..|--- .... ....|--- .... ....|--- .... ....
...C|..|B-5 2C.F ....|--- .... ....|--- .... ....
....|..|--- .... ....|--- .... ....|--- .... ....
...C|..|B-5 2C.F ....|--- .... ....|--- .... ....
....|..|--- .... ....|--- .... ....|--- .... ....
....|..|B-5 2F.7 ....|--- .... ....|--- .... ....
....|..|--- .... ....|--- .... ....|--- .... ....
....|..|B-5 2F.7 ....|--- .... ....|--- .... ....
....|..|--- .... ....|--- .... ....|--- .... ....
...C|..|B-4 2C.F ....|--- .... ....|--- .... ....
....|..|--- .... ....|--- .... ....|--- .... ....
....|..|B-5 2F.7 ....|--- .... ....|--- .... ....
....|..|--- .... ....|--- .... ....|--- .... ....
...C|..|B-2 2A.F ....|--- .... ....|--- .... ....
....|..|--- .... ....|--- .... ....|--- .... ....
....|..|B-5 2F.7 ....|--- .... ....|--- .... ....
....|..|--- .... ....|--- .... ....|--- .... ....
....|..|R-- .... ....|--- .... ....|--- .... ....
....|..|--- .... ....|--- .... ....|--- .... ....
....|..|B-2 2F.A ....|--- .... ....|--- .... ....
....|..|--- .... ....|--- .... ....|--- .... ....
....|..|B-4 2F.7 ....|--- .... ....|--- .... ....
....|..|--- .... ....|--- .... ....|--- .... ....
....|..|R-- .... ....|--- .... ....|--- .... ....
....|..|--- .... ....|--- .... ....|--- .... ....
...C|..|B-4 2C.F ....|--- .... ....|--- .... ....
....|..|--- .... ....|--- .... ....|--- .... ....
....|..|--- .... ....|--- .... ....|--- .... ....
....|..|--- .... ....|--- .... ....|--- .... ....
....|..|R-- .... ....|--- .... ....|--- .... ....
....|..|--- .... ....|--- .... ....|--- .... ....
....|..|B-4 2F.A ....|--- .... ....|--- .... ....
....|..|--- .... ....|--- .... ....|--- .... ....
...C|..|B-4 2C.F ....|--- .... ....|--- .... ....
....|..|--- .... ....|--- .... ....|--- .... ....
....|..|--- .... ....|--- .... ....|--- .... ....
....|..|--- .... ....|--- .... ....|--- .... ....
....|..|B-4 2F.7 ....|--- .... ....|--- .... ....
....|..|--- .... ....|--- .... ....|--- .... ....
....|..|B-4 2F.A ....|--- .... ....|--- .... ....
....|..|--- .... ....|--- .... ....|--- .... ....

[Pattern41]
...C|..|B-4 2C.F ....|--- .... ....|--- .... ....
....|..|--- .... ....|--- .... ....|--- .... ....
....|..|--- .... ....|--- .... ....|--- .... ....
....|..|--- .... ....|--- .... ....|--- .... ....
...C|..|B-4 2C.F ....|--- .... ....|--- .... ....
....|..|--- .... ....|--- .... ....|--- .... ....
....|..|B-4 2F.A ....|--- .... ....|--- .... ....
....|..|--- .... ....|--- .... ....|--- .... ....
...C|..|B-4 2C.F ....|--- .... ....|--- .... ....
....|..|--- .... ....|--- .... ....|--- .... ....
....|..|B-4 2F.A ....|--- .... ....|--- .... ....
....|..|--- .... ....|--- .... ....|--- .... ....
...C|..|B-4 2C.F ....|--- .... ....|--- .... ....
....|..|--- .... ....|--- .... ....|--- .... ....
....|..|B-4 2F.A ....|--- .... ....|--- .... ....
....|..|--- .... ....|--- .... ....|--- .... ....
...C|..|B-4 2C.F ....|--- .... ....|--- .... ....
....|..|--- .... ....|--- .... ....|--- .... ....
...C|..|B-3 2C.F ....|--- .... ....|--- .... ....
....|..|--- .... ....|--- .... ....|--- .... ....
....|..|B-4 2F.7 ....|--- .... ....|--- .... ....
....|..|--- .... ....|--- .... ....|--- .... ....
...C|..|B-2 2A.F ....|--- .... ....|--- .... ....
....|..|--- .... ....|--- .... ....|--- .... ....
...C|..|B-2 2A.F ....|--- .... ....|--- .... ....
....|..|--- .... ....|--- .... ....|--- .... ....
...C|..|B-2 2A.F ....|--- .... ....|--- .... ....
....|..|--- .... ....|--- .... ....|--- .... ....
....|..|B-4 2F.7 ....|--- .... ....|--- .... ....
....|..|--- .... ....|--- .... ....|--- .... ....
....|..|B-3 2F.7 ....|--- .... ....|--- .... ....
....|..|--- .... ....|--- .... ....|--- .... ....
...C|..|B-4 2C.F ....|--- .... ....|--- .... ....
....|..|--- .... ....|--- .... ....|--- .... ....
....|..|B-2 2F.7 ....|--- .... ....|--- .... ....
....|..|--- .... ....|--- .... ....|--- .... ....
...C|..|B-4 2C.F ....|--- .... ....|--- .... ....
....|..|--- .... ....|--- .... ....|--- .... ....
....|..|B-2 2F.7 ....|--- .... ....|--- .... ....
....|..|--- .... ....|--- .... ....|--- .... ....
....|..|R-- .... ....|--- .... ....|--- .... ....
....|..|--- .... ....|--- .... ....|--- .... ....
....|..|B-4 2F.A ....|--- .... ....|--- .... ....
....|..|--- .... ....|--- .... ....|--- .... ....
....|..|B-4 2F.7 ....|--- .... ....|--- .... ....
....|..|--- .... ....|--- .... ....|--- .... ....
....|..|R-- .... ....|--- .... ....|--- .... ....
....|..|--- .... ....|--- .... ....|--- .... ....
...C|..|B-3 2C.F ....|--- .... ....|--- .... ....
....|..|--- .... ....|--- .... ....|--- .... ....
....|..|--- .... ....|--- .... ....|--- .... ....
....|..|--- .... ....|--- .... ....|--- .... ....
....|..|R-- .... ....|--- .... ....|--- .... ....
....|..|--- .... ....|--- .... ....|--- .... ....
....|..|B-3 2F.A ....|--- .... ....|--- .... ....
....|..|--- .... ....|--- .... ....|--- .... ....
...C|..|B-3 2C.F ....|--- .... ....|--- .... ....
....|..|--- .... ....|--- .... ....|--- .... ....
....|..|--- .... ....|--- .... ....|--- .... ....
....|..|--- .... ....|--- .... ....|--- .... ....
....|..|B-3 2F.7 ....|--- .... ....|--- .... ....
....|..|--- .... ....|--- .... ....|--- .... ....
....|..|B-3 2F.A ....|--- .... ....|--- .... ....
....|..|--- .... ....|--- .... ....|--- .... ....

[Pattern42]
...C|..|B-4 2C.F ....|--- .... ....|--- .... ....
....|..|--- .... ....|--- .... ....|--- .... ....
....|..|--- .... ....|--- .... ....|--- .... ....
....|..|--- .... ....|--- .... ....|--- .... ....
...C|..|B-4 2C.F ....|--- .... ....|--- .... ....
....|..|--- .... ....|--- .... ....|--- .... ....
....|..|B-4 2F.A ....|--- .... ....|--- .... ....
....|..|--- .... ....|--- .... ....|--- .... ....
...C|..|B-3 2C.F ....|--- .... ....|--- .... ....
....|..|--- .... ....|--- .... ....|--- .... ....
....|..|B-4 2F.A ....|--- .... ....|--- .... ....
....|..|--- .... ....|--- .... ....|--- .... ....
...C|..|B-3 2C.F ....|--- .... ....|--- .... ....
....|..|--- .... ....|--- .... ....|--- .... ....
....|..|B-3 2F.A ....|--- .... ....|--- .... ....
....|..|--- .... ....|--- .... ....|--- .... ....
...C|..|B-3 2C.F ....|--- .... ....|--- .... ....
....|..|--- .... ....|--- .... ....|--- .... ....
...C|..|B-3 2C.F ....|--- .... ....|--- .... ....
....|..|--- .... ....|--- .... ....|--- .... ....
....|..|B-3 2F.7 ....|--- .... ....|--- .... ....
....|..|--- .... ....|--- .... ....|--- .... ....
...C|..|B-2 2A.F ....|--- .... ....|--- .... ....
....|..|--- .... ....|--- .... ....|--- .... ....
...C|..|B-2 2A.F ....|--- .... ....|--- .... ....
....|..|--- .... ....|--- .... ....|--- .... ....
...C|..|B-2 2A.F ....|--- .... ....|--- .... ....
....|..|--- .... ....|--- .... ....|--- .... ....
....|..|B-3 2F.7 ....|--- .... ....|--- .... ....
....|..|--- .... ....|--- .... ....|--- .... ....
....|..|B-3 2F.7 ....|--- .... ....|--- .... ....
....|..|--- .... ....|--- .... ....|--- .... ....
...C|..|B-4 2C.F ....|--- .... ....|--- .... ....
....|..|--- .... ....|--- .... ....|--- .... ....
....|..|B-2 2F.7 ....|--- .... ....|--- .... ....
....|..|--- .... ....|--- .... ....|--- .... ....
...C|..|B-2 2A.F ....|--- .... ....|--- .... ....
....|..|--- .... ....|--- .... ....|--- .... ....
....|..|B-2 2F.7 ....|--- .... ....|--- .... ....
....|..|--- .... ....|--- .... ....|--- .... ....
....|..|R-- .... ....|--- .... ....|--- .... ....
....|..|--- .... ....|--- .... ....|--- .... ....
....|..|B-2 2F.A ....|--- .... ....|--- .... ....
....|..|--- .... ....|--- .... ....|--- .... ....
....|..|B-4 2F.7 ....|--- .... ....|--- .... ....
....|..|--- .... ....|--- .... ....|--- .... ....
....|..|R-- .... ....|--- .... ....|--- .... ....
....|..|--- .... ....|--- .... ....|--- .... ....
...C|..|B-4 2C.F ....|--- .... ....|--- .... ....
....|..|--- .... ....|--- .... ....|--- .... ....
....|..|--- .... ....|--- .... ....|--- .... ....
....|..|--- .... ....|--- .... ....|--- .... ....
....|..|R-- .... ....|--- .... ....|--- .... ....
....|..|--- .... ....|--- .... ....|--- .... ....
....|..|B-4 2F.A ....|--- .... ....|--- .... ....
....|..|--- .... ....|--- .... ....|--- .... ....
...C|..|B-5 2C.F ....|--- .... ....|--- .... ....
....|..|--- .... ....|--- .... ....|--- .... ....
....|..|--- .... ....|--- .... ....|--- .... ....
....|..|--- .... ....|--- .... ....|--- .... ....
....|..|B-4 2F.7 ....|--- .... ....|--- .... ....
....|..|--- .... ....|--- .... ....|--- .... ....
....|..|B-5 2F.A ....|--- .... ....|--- .... ....
....|..|--- .... ....|--- .... ....|--- .... ....

[Pattern43]
...C|..|B-5 2C.F ....|--- .... ....|--- .... ....
....|..|--- .... ....|--- .... ....|--- .... ....
....|..|--- .... ....|--- .... ....|--- .... ....
....|..|--- .... ....|--- .... ....|--- .... ....
...C|..|B-5 2C.F ....|--- .... ....|--- .... ....
....|..|--- .... ....|--- .... ....|--- .... ....
....|..|B-5 2F.A ....|--- .... ....|--- .... ....
....|..|--- .... ....|--- .... ....|--- .... ....
...C|..|B-5 2C.F ....|--- .... ....|--- .... ....
....|..|--- .... ....|--- .... ....|--- .... ....
....|..|B-5 2F.A ....|--- .... ....|--- .... ....
....|..|--- .... ....|--- .... ....|--- .... ....
...C|..|B-5 2C.F ....|--- .... ....|--- .... ....
....|..|--- .... ....|--- .... ....|--- .... ....
....|..|B-5 2F.A ....|--- .... ....|--- .... ....
....|..|--- .... ....|--- .... ....|--- .... ....
...C|..|B-5 2C.F ....|--- .... ....|--- .... ....
....|..|--- .... ....|--- .... ....|--- .... ....
...C|..|B-5 2C.F ....|--- .... ....|--- .... ....
....|..|--- .... ....|--- .... ....|--- .... ....
....|..|B-5 2F.7 ....|--- .... ....|--- .... ....
....|..|--- .... ....|--- .... ....|--- .... ....
...C|..|B-5 2C.F ....|--- .... ....|--- .... ....
....|..|--- .... ....|--- .... ....|--- .... ....
...C|..|B-5 2C.F ....|--- .... ....|--- .... ....
....|..|--- .... ....|--- .... ....|--- .... ....
...C|..|B-3 2C.F ....|--- .... ....|--- .... ....
....|..|--- .... ....|--- .... ....|--- .... ....
....|..|B-5 2F.7 ....|--- .... ....|--- .... ....
....|..|--- .... ....|--- .... ....|--- .... ....
....|..|B-5 2F.7 ....|--- .... ....|--- .... ....
....|..|--- .... ....|--- .... ....|--- .... ....
...C|..|B-4 2C.F ....|--- .... ....|--- .... ....
....|..|--- .... ....|--- .... ....|--- .... ....
....|..|B-5 2F.7 ....|--- .... ....|--- .... ....
....|..|--- .... ....|--- .... ....|--- .... ....
...C|..|B-3 2C.F ....|--- .... ....|--- .... ....
....|..|--- .... ....|--- .... ....|--- .... ....
....|..|B-3 2F.7 ....|--- .... ....|--- .... ....
....|..|--- .... ....|--- .... ....|--- .... ....
....|..|R-- .... ....|--- .... ....|--- .... ....
....|..|--- .... ....|--- .... ....|--- .... ....
....|..|B-3 2F.A ....|--- .... ....|--- .... ....
....|..|--- .... ....|--- .... ....|--- .... ....
....|..|B-4 2F.7 ....|--- .... ....|--- .... ....
....|..|--- .... ....|--- .... ....|--- .... ....
....|..|R-- .... ....|--- .... ....|--- .... ....
....|..|--- .... ....|--- .... ....|--- .... ....
...C|..|B-4 2C.F ....|--- .... ....|--- .... ....
....|..|--- .... ....|--- .... ....|--- .... ....
....|..|--- .... ....|--- .... ....|--- .... ....
....|..|--- .... ....|--- .... ....|--- .... ....
....|..|R-- .... ....|--- .... ....|--- .... ....
....|..|--- .... ....|--- .... ....|--- .... ....
....|..|B-4 2F.A ....|--- .... ....|--- .... ....
....|..|--- .... ....|--- .... ....|--- .... ....
...C|..|B-5 2C.F ....|--- .... ....|--- .... ....
....|..|--- .... ....|--- .... ....|--- .... ....
....|..|--- .... ....|--- .... ....|--- .... ....
....|..|--- .... ....|--- .... ....|--- .... ....
....|..|B-4 2F.7 ....|--- .... ....|--- .... ....
....|..|--- .... ....|--- .... ....|--- .... ....
....|..|B-5 2F.A ....|--- .... ....|--- .... ....
....|..|--- .... ....|--- .... ....|--- .... ....

[Pattern44]
...C|..|B-5 2C.F ....|--- .... ....|--- .... ....
....|..|--- .... ....|--- .... ....|--- .... ....
....|..|--- .... ....|--- .... ....|--- .... ....
....|..|--- .... ....|--- .... ....|--- .... ....
...C|..|B-5 2C.F ....|--- .... ....|--- .... ....
....|..|--- .... ....|--- .... ....|--- .... ....
....|..|B-5 2F.A ....|--- .... ....|--- .... ....
....|..|--- .... ....|--- .... ....|--- .... ....
...C|..|B-5 2C.F ....|--- .... ....|--- .... ....
....|..|--- .... ....|--- .... ....|--- .... ....
....|..|B-5 2F.A ....|--- .... ....|--- .... ....
....|..|--- .... ....|--- .... ....|--- .... ....
...C|..|B-5 2C.F ....|--- .... ....|--- .... ....
....|..|--- .... ....|--- .... ....|--- .... ....
....|..|B-5 2F.A ....|--- .... ....|--- .... ....
....|..|--- .... ....|--- .... ....|--- .... ....
...C|..|B-5 2C.F ....|--- .... ....|--- .... ....
....|..|--- .... ....|--- .... ....|--- .... ....
...C|..|B-5 2C.F ....|--- .... ....|--- .... ....
....|..|--- .... ....|--- .... ....|--- .... ....
....|..|B-5 2F.7 ....|--- .... ....|--- .... ....
....|..|--- .... ....|--- .... ....|--- .... ....
...C|..|B-5 2C.F ....|--- .... ....|--- .... ....
....|..|--- .... ....|--- .... ....|--- .... ....
...C|..|B-5 2C.F ....|--- .... ....|--- .... ....
....|..|--- .... ....|--- .... ....|--- .... ....
...C|..|B-2 2A.F ....|--- .... ....|--- .... ....
....|..|--- .... ....|--- .... ....|--- .... ....
....|..|B-5 2F.7 ....|--- .... ....|--- .... ....
....|..|--- .... ....|--- .... ....|--- .... ....
....|..|B-5 2F.7 ....|--- .... ....|--- .... ....
....|..|--- .... ....|--- .... ....|--- .... ....
...C|..|B-4 2C.F ....|--- .... ....|--- .... ....
....|..|--- .... ....|--- .... ....|--- .... ....
....|..|B-5 2F.7 ....|--- .... ....|--- .... ....
....|..|--- .... ....|--- .... ....|--- .... ....
...C|..|B-3 2C.F ....|--- .... ....|--- .... ....
....|..|--- .... ....|--- .... ....|--- .... ....
....|..|B-2 2F.7 ....|--- .... ....|--- .... ....
....|..|--- .... ....|--- .... ....|--- .... ....
....|..|R-- .... ....|--- .... ....|--- .... ....
....|..|--- .... ....|--- .... ....|--- .... ....
....|..|B-3 2F.A ....|--- .... ....|--- .... ....
....|..|--- .... ....|--- .... ....|--- .... ....
....|..|B-4 2F.7 ....|--- .... ....|--- .... ....
....|..|--- .... ....|--- .... ....|--- .... ....
....|..|R-- .... ....|--- .... ....|--- .... ....
....|..|--- .... ....|--- .... ....|--- .... ....
...C|..|B-3 2C.F ....|--- .... ....|--- .... ....
....|..|--- .... ....|--- .... ....|--- .... ....
....|..|--- .... ....|--- .... ....|--- .... ....
....|..|--- .... ....|--- .... ....|--- .... ....
....|..|R-- .... ....|--- .... ....|--- .... ....
....|..|--- .... ....|--- .... ....|--- .... ....
....|..|B-3 2F.A ....|--- .... ....|--- .... ....
....|..|--- .... ....|--- .... ....|--- .... ....
...C|..|B-3 2C.F ....|--- .... ....|--- .... ....
....|..|--- .... ....|--- .... ....|--- .... ....
....|..|--- .... ....|--- .... ....|--- .... ....
....|..|--- .... ....|--- .... ....|--- .... ....
....|..|B-3 2F.7 ....|--- .... ....|--- .... ....
....|..|--- .... ....|--- .... ....|--- .... ....
....|..|B-3 2F.A ....|--- .... ....|--- .... ....
....|..|--- .... ....|--- .... ....|--- .... ....

[Pattern45]
...C|..|B-4 2C.F ....|--- .... ....|--- .... ....
....|..|--- .... ....|--- .... ....|--- .... ....
....|..|--- .... ....|--- .... ....|--- .... ....
....|..|--- .... ....|--- .... ....|--- .... ....
...C|..|B-4 2C.F ....|--- .... ....|--- .... ....
....|..|--- .... ....|--- .... ....|--- .... ....
....|..|B-4 2F.A ....|--- .... ....|--- .... ....
....|..|--- .... ....|--- .... ....|--- .... ....
...C|..|B-3 2C.F ....|--- .... ....|--- .... ....
....|..|--- .... ....|--- .... ....|--- .... ....
....|..|B-4 2F.A ....|--- .... ....|--- .... ....
....|..|--- .... ....|--- .... ....|--- .... ....
...C|..|B-3 2C.F ....|--- .... ....|--- .... ....
....|..|--- .... ....|--- .... ....|--- .... ....
....|..|B-3 2F.A ....|--- .... ....|--- .... ....
....|..|--- .... ....|--- .... ....|--- .... ....
...C|..|B-3 2C.F ....|--- .... ....|--- .... ....
....|..|--- .... ....|--- .... ....|--- .... ....
...C|..|B-3 2C.F ....|--- .... ....|--- .... ....
....|..|--- .... ....|--- .... ....|--- .... ....
....|..|B-3 2F.7 ....|--- .... ....|--- .... ....
....|..|--- .... ....|--- .... ....|--- .... ....
...C|..|B-2 2A.F ....|--- .... ....|--- .... ....
....|..|--- .... ....|--- .... ....|--- .... ....
...C|..|B-3 2C.F ....|--- .... ....|--- .... ....
....|..|--- .... ....|--- .... ....|--- .... ....
...C|..|B-3 2C.F ....|--- .... ....|--- .... ....
....|..|--- .... ....|--- .... ....|--- .... ....
....|..|B-3 2F.7 ....|--- .... ....|--- .... ....
....|..|--- .... ....|--- .... ....|--- .... ....
....|..|B-3 2F.7 ....|--- .... ....|--- .... ....
....|..|--- .... ....|--- .... ....|--- .... ....
...C|..|B-4 2C.F ....|--- .... ....|--- .... ....
....|..|--- .... ....|--- .... ....|--- .... ....
....|..|B-2 2F.7 ....|--- .... ....|--- .... ....
....|..|--- .... ....|--- .... ....|--- .... ....
...C|..|B-4 2C.F ....|--- .... ....|--- .... ....
....|..|--- .... ....|--- .... ....|--- .... ....
....|..|B-3 2F.7 ....|--- .... ....|--- .... ....
....|..|--- .... ....|--- .... ....|--- .... ....
....|..|R-- .... ....|--- .... ....|--- .... ....
....|..|--- .... ....|--- .... ....|--- .... ....
....|..|B-4 2F.A ....|--- .... ....|--- .... ....
....|..|--- .... ....|--- .... ....|--- .... ....
....|..|B-4 2F.7 ....|--- .... ....|--- .... ....
....|..|--- .... ....|--- .... ....|--- .... ....
....|..|R-- .... ....|--- .... ....|--- .... ....
....|..|--- .... ....|--- .... ....|--- .... ....
...C|..|B-3 2C.F ....|--- .... ....|--- .... ....
....|..|--- .... ....|--- .... ....|--- .... ....
....|..|--- .... ....|--- .... ....|--- .... ....
....|..|--- .... ....|--- .... ....|--- .... ....
....|..|R-- .... ....|--- .... ....|--- .... ....
....|..|--- .... ....|--- .... ....|--- .... ....
....|..|B-3 2F.A ....|--- .... ....|--- .... ....
....|..|--- .... ....|--- .... ....|--- .... ....
...C|..|B-3 2C.F ....|--- .... ....|--- .... ....
....|..|--- .... ....|--- .... ....|--- .... ....
....|..|--- .... ....|--- .... ....|--- .... ....
....|..|--- .... ....|--- .... ....|--- .... ....
....|..|B-3 2F.7 ....|--- .... ....|--- .... ....
....|..|--- .... ....|--- .... ....|--- .... ....
....|..|B-3 2F.A ....|--- .... ....|--- .... ....
....|..|--- .... ....|--- .... ....|--- .... ....

[Pattern46]
...C|..|B-4 2C.F ....|--- .... ....|--- .... ....
....|..|--- .... ....|--- .... ....|--- .... ....
....|..|--- .... ....|--- .... ....|--- .... ....
....|..|--- .... ....|--- .... ....|--- .... ....
...C|..|B-4 2C.F ....|--- .... ....|--- .... ....
....|..|--- .... ....|--- .... ....|--- .... ....
....|..|B-4 2F.A ....|--- .... ....|--- .... ....
....|..|--- .... ....|--- .... ....|--- .... ....
...C|..|B-3 2C.F ....|--- .... ....|--- .... ....
....|..|--- .... ....|--- .... ....|--- .... ....
....|..|B-4 2F.A ....|--- .... ....|--- .... ....
....|..|--- .... ....|--- .... ....|--- .... ....
...C|..|B-3 2C.F ....|--- .... ....|--- .... ....
....|..|--- .... ....|--- .... ....|--- .... ....
....|..|B-3 2F.A ....|--- .... ....|--- .... ....
....|..|--- .... ....|--- .... ....|--- .... ....
...C|..|B-4 2C.F ....|--- .... ....|--- .... ....
....|..|--- .... ....|--- .... ....|--- .... ....
...C|..|B-4 2C.F ....|--- .... ....|--- .... ....
....|..|--- .... ....|--- .... ....|--- .... ....
....|..|B-3 2F.7 ....|--- .... ....|--- .... ....
....|..|--- .... ....|--- .... ....|--- .... ....
...C|..|B-3 2C.F ....|--- .... ....|--- .... ....
....|..|--- .... ....|--- .... ....|--- .... ....
...C|..|B-3 2C.F ....|--- .... ....|--- .... ....
....|..|--- .... ....|--- .... ....|--- .... ....
...C|..|B-2 2A.F ....|--- .... ....|--- .... ....
....|..|--- .... ....|--- .... ....|--- .... ....
....|..|B-4 2F.7 ....|--- .... ....|--- .... ....
....|..|--- .... ....|--- .... ....|--- .... ....
....|..|B-4 2F.7 ....|--- .... ....|--- .... ....
....|..|--- .... ....|--- .... ....|--- .... ....
...C|..|B-4 2C.F ....|--- .... ....|--- .... ....
....|..|--- .... ....|--- .... ....|--- .... ....
....|..|B-3 2F.7 ....|--- .... ....|--- .... ....
....|..|--- .... ....|--- .... ....|--- .... ....
...C|..|B-4 2C.F ....|--- .... ....|--- .... ....
....|..|--- .... ....|--- .... ....|--- .... ....
....|..|B-2 2F.7 ....|--- .... ....|--- .... ....
....|..|--- .... ....|--- .... ....|--- .... ....
....|..|R-- .... ....|--- .... ....|--- .... ....
....|..|--- .... ....|--- .... ....|--- .... ....
....|..|B-4 2F.A ....|--- .... ....|--- .... ....
....|..|--- .... ....|--- .... ....|--- .... ....
....|..|B-4 2F.7 ....|--- .... ....|--- .... ....
....|..|--- .... ....|--- .... ....|--- .... ....
....|..|R-- .... ....|--- .... ....|--- .... ....
....|..|--- .... ....|--- .... ....|--- .... ....
...C|..|B-3 2C.F ....|--- .... ....|--- .... ....
....|..|--- .... ....|--- .... ....|--- .... ....
....|..|--- .... ....|--- .... ....|--- .... ....
....|..|--- .... ....|--- .... ....|--- .... ....
....|..|R-- .... ....|--- .... ....|--- .... ....
....|..|--- .... ....|--- .... ....|--- .... ....
....|..|B-3 2F.A ....|--- .... ....|--- .... ....
....|..|--- .... ....|--- .... ....|--- .... ....
...C|..|B-3 2C.F ....|--- .... ....|--- .... ....
....|..|--- .... ....|--- .... ....|--- .... ....
....|..|--- .... ....|--- .... ....|--- .... ....
....|..|--- .... ....|--- .... ....|--- .... ....
....|..|B-3 2F.7 ....|--- .... ....|--- .... ....
....|..|--- .... ....|--- .... ....|--- .... ....
....|..|B-3 2F.A ....|--- .... ....|--- .... ....
....|..|--- .... ....|--- .... ....|--- .... ....

[Pattern47]
....|..|--- .... ....|B-4 2F.F ....|C-4 LF.F ....
....|..|--- .... ....|--- .... ....|--- .... ....
....|..|--- .... ....|--- .... ....|--- .... ....
....|..|--- .... ....|--- .... ....|--- .... ....
....|..|B-3 2F.7 ....|R-- .... ....|R-- .... ....
....|..|--- .... ....|--- .... ....|--- .... ....
....|..|--- .... ....|B-4 2F.A ....|C-4 LF.A ....
....|..|--- .... ....|--- .... ....|--- .... ....
....|..|--- .... ....|B-3 2F.F ....|C-4 LF.F ....
....|..|--- .... ....|--- .... ....|--- .... ....
....|..|--- .... ....|R-- .... ....|R-- .... ....
....|..|--- .... ....|--- .... ....|--- .... ....
....|..|--- .... ....|B-4 2F.7 ....|C-4 LF.7 ....
....|..|--- .... ....|--- .... ....|--- .... ....
....|..|--- .... ....|B-3 2F.A ....|C-4 LF.A ....
....|..|--- .... ....|--- .... ....|--- .... ....
....|..|--- .... ....|R-- .... ....|R-- .... ....
....|..|--- .... ....|--- .... ....|--- .... ....
...C|..|B-2 2A.F ....|R-- .... ....|R-- .... ....
....|..|--- .... ....|--- .... ....|--- .... ....
....|..|--- .... ....|B-3 2F.7 ....|C-4 LF.7 ....
....|..|--- .... ....|--- .... ....|--- .... ....
....|..|--- .... ....|--- .... ....|--- .... ....
....|..|--- .... ....|--- .... ....|--- .... ....
....|..|B-2 2F.A ....|R-- .... ....|R-- .... ....
....|..|--- .... ....|--- .... ....|--- .... ....
....|..|R-- .... ....|--- .... ....|--- .... ....
....|..|--- .... ....|--- .... ....|--- .... ....
....|..|--- .... ....|B-4 2F.F ....|C-4 LF.F ....
....|..|--- .... ....|--- .... ....|--- .... ....
....|..|B-2 2F.7 ....|--- .... ....|--- .... ....
....|..|--- .... ....|--- .... ....|--- .... ....
....|..|R-- .... ....|B-4 2F.F ....|C-4 LF.F ....
....|..|--- .... ....|--- .... ....|--- .... ....
....|..|--- .... ....|B-4 2F.F ....|C-4 LF.F ....
....|..|--- .... ....|--- .... ....|--- .... ....
....|..|--- .... ....|B-3 2F.F ....|C-4 LF.F ....
....|..|--- .... ....|--- .... ....|--- .... ....
....|..|R-- .... ....|B-4 2F.A ....|C-4 LF.A ....
....|..|--- .... ....|--- .... ....|--- .... ....
....|..|--- .... ....|B-3 2F.F ....|C-4 LF.F ....
....|..|--- .... ....|--- .... ....|--- .... ....
....|..|--- .... ....|B-3 2F.A ....|C-4 LF.A ....
....|..|--- .... ....|--- .... ....|--- .... ....
....|..|--- .... ....|B-4 2F.7 ....|C-4 LF.7 ....
....|..|--- .... ....|--- .... ....|--- .... ....
....|..|--- .... ....|B-4 2F.7 ....|C-4 LF.7 ....
....|..|--- .... ....|--- .... ....|--- .... ....
....|..|--- .... ....|B-3 2F.7 ....|C-4 LF.7 ....
....|..|--- .... ....|--- .... ....|--- .... ....
....|..|--- .... ....|R-- .... ....|R-- .... ....
....|..|--- .... ....|--- .... ....|--- .... ....
....|..|--- .... ....|B-3 2F.7 ....|C-4 LF.7 ....
....|..|--- .... ....|--- .... ....|--- .... ....
....|..|--- .... ....|--- .... ....|--- .... ....
....|..|--- .... ....|--- .... ....|--- .... ....
....|..|--- .... ....|R-- .... ....|R-- .... ....
....|..|--- .... ....|--- .... ....|--- .... ....
....|..|--- .... ....|--- .... ....|--- .... ....
....|..|--- .... ....|--- .... ....|--- .... ....
....|..|--- .... ....|--- .... ....|--- .... ....
....|..|--- .... ....|--- .... ....|--- .... ....
....|..|--- .... ....|--- .... ....|--- .... ....
....|..|--- .... ....|--- .... ....|--- .... ....

[Pattern48]
....|..|--- .... ....|B-4 2F.F ....|C-4 LF.F ....
....|..|--- .... ....|--- .... ....|--- .... ....
....|..|--- .... ....|--- .... ....|--- .... ....
....|..|--- .... ....|--- .... ....|--- .... ....
....|..|--- .... ....|R-- .... ....|R-- .... ....
....|..|--- .... ....|--- .... ....|--- .... ....
....|..|--- .... ....|B-4 2F.A ....|C-4 LF.A ....
....|..|--- .... ....|--- .... ....|--- .... ....
....|..|--- .... ....|B-3 2F.F ....|C-4 LF.F ....
....|..|--- .... ....|--- .... ....|--- .... ....
....|..|--- .... ....|R-- .... ....|R-- .... ....
....|..|--- .... ....|--- .... ....|--- .... ....
....|..|--- .... ....|B-4 2F.7 ....|C-4 LF.7 ....
....|..|--- .... ....|--- .... ....|--- .... ....
....|..|--- .... ....|B-3 2F.A ....|C-4 LF.A ....
....|..|--- .... ....|--- .... ....|--- .... ....
....|..|--- .... ....|R-- .... ....|R-- .... ....
....|..|--- .... ....|--- .... ....|--- .... ....
....|..|--- .... ....|R-- .... ....|R-- .... ....
....|..|--- .... ....|--- .... ....|--- .... ....
....|..|--- .... ....|B-3 2F.7 ....|C-4 LF.7 ....
....|..|--- .... ....|--- .... ....|--- .... ....
....|..|--- .... ....|--- .... ....|--- .... ....
....|..|--- .... ....|--- .... ....|--- .... ....
....|..|--- .... ....|R-- .... ....|R-- .... ....
....|..|--- .... ....|--- .... ....|--- .... ....
....|..|--- .... ....|--- .... ....|--- .... ....
....|..|--- .... ....|--- .... ....|--- .... ....
....|..|--- .... ....|B-4 2F.F ....|C-4 LF.F ....
....|..|--- .... ....|--- .... ....|--- .... ....
....|..|--- .... ....|--- .... ....|--- .... ....
....|..|--- .... ....|--- .... ....|--- .... ....
....|..|--- .... ....|B-4 2F.F ....|C-4 LF.F ....
....|..|--- .... ....|--- .... ....|--- .... ....
....|..|--- .... ....|B-4 2F.F ....|C-4 LF.F ....
....|..|--- .... ....|--- .... ....|--- .... ....
....|..|--- .... ....|B-3 2F.F ....|C-4 LF.F ....
....|..|--- .... ....|--- .... ....|--- .... ....
....|..|--- .... ....|B-4 2F.A ....|C-4 LF.A ....
....|..|--- .... ....|--- .... ....|--- .... ....
....|..|--- .... ....|B-3 2F.F ....|C-4 LF.F ....
....|..|--- .... ....|--- .... ....|--- .... ....
....|..|--- .... ....|B-3 2F.A ....|C-4 LF.A ....
....|..|--- .... ....|--- .... ....|--- .... ....
....|..|--- .... ....|B-4 2F.7 ....|C-4 LF.7 ....
....|..|--- .... ....|--- .... ....|--- .... ....
....|..|--- .... ....|B-4 2F.7 ....|C-4 LF.7 ....
....|..|--- .... ....|--- .... ....|--- .... ....
....|..|--- .... ....|B-3 2F.7 ....|C-4 LF.7 ....
....|..|--- .... ....|--- .... ....|--- .... ....
....|..|--- .... ....|R-- .... ....|R-- .... ....
....|..|--- .... ....|--- .... ....|--- .... ....
....|..|--- .... ....|B-3 2F.7 ....|C-4 LF.7 ....
....|..|--- .... ....|--- .... ....|--- .... ....
....|..|--- .... ....|--- .... ....|--- .... ....
....|..|--- .... ....|--- .... ....|--- .... ....
....|..|--- .... ....|R-- .... ....|R-- .... ....
....|..|--- .... ....|--- .... ....|--- .... ....
....|..|--- .... ....|--- .... ....|--- .... ....
....|..|--- .... ....|--- .... ....|--- .... ....
....|..|--- .... ....|--- .... ....|--- .... ....
....|..|--- .... ....|--- .... ....|--- .... ....
....|..|--- .... ....|--- .... ....|--- .... ....
....|..|--- .... ....|--- .... ....|--- .... ....

[Pattern55]
...C|..|B-3 2C.F ....|B-4 2F.F ....|C-4 LF.F ....
....|..|--- .... ....|--- .... ....|--- .... ....
....|..|--- .... ....|--- .... ....|--- .... ....
....|..|--- .... ....|--- .... ....|--- .... ....
...C|..|B-3 2C.F ....|R-- .... ....|R-- .... ....
....|..|--- .... ....|--- .... ....|--- .... ....
....|..|B-3 2F.A ....|B-4 2F.A ....|C-4 LF.A ....
....|..|--- .... ....|--- .... ....|--- .... ....
...C|..|B-3 2C.F ....|B-3 2F.F ....|C-4 LF.F ....
....|..|--- .... ....|--- .... ....|--- .... ....
....|..|B-3 2F.A ....|R-- .... ....|R-- .... ....
....|..|--- .... ....|--- .... ....|--- .... ....
...C|..|B-2 2A.F ....|B-4 2F.7 ....|C-4 LF.7 ....
....|..|--- .... ....|--- .... ....|--- .... ....
....|..|B-3 2F.A ....|B-3 2F.A ....|C-4 LF.A ....
....|..|--- .... ....|--- .... ....|--- .... ....
...C|..|B-3 2C.F ....|B-3 2F.F ....|C-4 LF.F ....
....|..|--- .... ....|--- .... ....|--- .... ....
...C|..|B-3 2C.F ....|R-- .... ....|R-- .... ....
....|..|--- .... ....|--- .... ....|--- .... ....
....|..|B-3 2F.7 ....|B-3 2F.7 ....|C-4 LF.7 ....
....|..|--- .... ....|--- .... ....|--- .... ....
....|..|B-3 2F.A ....|B-3 2F.A ....|C-4 LF.A ....
....|..|--- .... ....|--- .... ....|--- .... ....
...C|..|B-3 2C.F ....|R-- .... ....|R-- .... ....
....|..|--- .... ....|--- .... ....|--- .... ....
....|..|R-- .... ....|R-- .... ....|R-- .... ....
....|..|--- .... ....|--- .... ....|--- .... ....
....|..|B-3 2F.7 ....|B-3 2F.7 ....|C-4 LF.7 ....
....|..|--- .... ....|--- .... ....|--- .... ....
....|..|B-3 2F.7 ....|--- .... ....|--- .... ....
....|..|--- .... ....|--- .... ....|--- .... ....
...C|..|B-3 2C.F ....|B-4 2F.F ....|C-4 LF.F ....
....|..|--- .... ....|--- .... ....|--- .... ....
...C|..|B-3 2C.F ....|--- .... ....|--- .... ....
....|..|--- .... ....|--- .... ....|--- .... ....
...C|..|B-3 2C.F ....|B-3 2F.F ....|C-4 LF.F ....
....|..|--- .... ....|--- .... ....|--- .... ....
....|..|B-3 2F.A ....|B-4 2F.A ....|C-4 LF.A ....
....|..|--- .... ....|--- .... ....|--- .... ....
...C|..|B-3 2C.F ....|B-4 2F.F ....|C-4 LF.F ....
....|..|--- .... ....|--- .... ....|--- .... ....
....|..|B-3 2F.A ....|B-3 2F.A ....|C-4 LF.A ....
....|..|--- .... ....|--- .... ....|--- .... ....
...C|..|B-4 2C.F ....|B-4 2F.7 ....|C-4 LF.7 ....
....|..|--- .... ....|--- .... ....|--- .... ....
....|..|B-3 2F.7 ....|B-4 2F.A ....|C-4 LF.A ....
....|..|--- .... ....|--- .... ....|--- .... ....
...C|..|B-4 2C.F ....|B-3 2F.7 ....|C-4 LF.7 ....
....|..|--- .... ....|--- .... ....|--- .... ....
...C|..|B-3 2C.F ....|R-- .... ....|R-- .... ....
....|..|--- .... ....|--- .... ....|--- .... ....
....|..|B-3 2F.7 ....|B-4 2F.7 ....|C-4 LF.7 ....
....|..|--- .... ....|--- .... ....|--- .... ....
....|..|B-4 2F.A ....|--- .... ....|--- .... ....
....|..|--- .... ....|--- .... ....|--- .... ....
...C|..|B-3 2C.F ....|R-- .... ....|R-- .... ....
....|..|--- .... ....|--- .... ....|--- .... ....
....|..|R-- .... ....|--- .... ....|--- .... ....
....|..|--- .... ....|--- .... ....|--- .... ....
....|..|B-4 2F.7 ....|--- .... ....|--- .... ....
....|..|--- .... ....|--- .... ....|--- .... ....
....|..|B-3 2F.7 ....|--- .... ....|--- .... ....
....|..|--- .... ....|--- .... ....|--- .... ....

[Pattern56]
...C|..|B-3 2C.F ....|B-4 2F.F ....|C-4 LF.F ....
....|..|--- .... ....|--- .... ....|--- .... ....
...C|..|B-3 2C.F ....|--- .... ....|--- .... ....
....|..|--- .... ....|--- .... ....|--- .... ....
...C|..|B-3 2C.F ....|R-- .... ....|R-- .... ....
....|..|--- .... ....|--- .... ....|--- .... ....
....|..|B-3 2F.A ....|B-4 2F.A ....|C-4 LF.A ....
....|..|--- .... ....|--- .... ....|--- .... ....
...C|..|B-3 2C.F ....|B-4 2F.F ....|C-4 LF.F ....
....|..|--- .... ....|--- .... ....|--- .... ....
....|..|B-3 2F.A ....|R-- .... ....|R-- .... ....
....|..|--- .... ....|--- .... ....|--- .... ....
...C|..|B-2 2A.F ....|B-4 2F.7 ....|C-4 LF.7 ....
....|..|--- .... ....|--- .... ....|--- .... ....
....|..|B-3 2F.7 ....|B-4 2F.A ....|C-4 LF.A ....
....|..|--- .... ....|--- .... ....|--- .... ....
...C|..|B-3 2C.F ....|B-3 2F.F ....|C-4 LF.F ....
....|..|--- .... ....|--- .... ....|--- .... ....
...C|..|B-3 2C.F ....|R-- .... ....|R-- .... ....
....|..|--- .... ....|--- .... ....|--- .... ....
....|..|B-3 2F.7 ....|B-4 2F.7 ....|C-4 LF.7 ....
....|..|--- .... ....|--- .... ....|--- .... ....
....|..|B-3 2F.A ....|B-3 2F.A ....|C-4 LF.A ....
....|..|--- .... ....|--- .... ....|--- .... ....
...C|..|B-3 2C.F ....|R-- .... ....|R-- .... ....
....|..|--- .... ....|--- .... ....|--- .... ....
....|..|R-- .... ....|R-- .... ....|R-- .... ....
....|..|--- .... ....|--- .... ....|--- .... ....
....|..|B-3 2F.7 ....|B-3 2F.7 ....|C-4 LF.7 ....
....|..|--- .... ....|--- .... ....|--- .... ....
....|..|B-3 2F.7 ....|--- .... ....|--- .... ....
....|..|--- .... ....|--- .... ....|--- .... ....
...C|..|B-3 2C.F ....|B-3 2F.F ....|C-4 LF.F ....
....|..|--- .... ....|--- .... ....|--- .... ....
...C|..|B-3 2C.F ....|--- .... ....|--- .... ....
....|..|--- .... ....|--- .... ....|--- .... ....
...C|..|B-3 2C.F ....|B-3 2F.F ....|C-4 LF.F ....
....|..|--- .... ....|--- .... ....|--- .... ....
....|..|B-3 2F.A ....|B-3 2F.A ....|C-4 LF.A ....
....|..|--- .... ....|--- .... ....|--- .... ....
...C|..|B-4 2C.F ....|B-4 2F.F ....|C-4 LF.F ....
....|..|--- .... ....|--- .... ....|--- .... ....
....|..|B-3 2F.A ....|B-3 2F.A ....|C-4 LF.A ....
....|..|--- .... ....|--- .... ....|--- .... ....
...C|..|B-2 2A.F ....|B-3 2F.7 ....|C-4 LF.7 ....
....|..|--- .... ....|--- .... ....|--- .... ....
....|..|B-3 2F.7 ....|B-4 2F.A ....|C-4 LF.A ....
....|..|--- .... ....|--- .... ....|--- .... ....
...C|..|B-3 2C.F ....|B-3 2F.7 ....|C-4 LF.7 ....
....|..|--- .... ....|--- .... ....|--- .... ....
...C|..|B-3 2C.F ....|R-- .... ....|R-- .... ....
....|..|--- .... ....|--- .... ....|--- .... ....
....|..|B-4 2F.7 ....|B-4 2F.7 ....|C-4 LF.7 ....
....|..|--- .... ....|--- .... ....|--- .... ....
....|..|B-3 2F.A ....|--- .... ....|--- .... ....
....|..|--- .... ....|--- .... ....|--- .... ....
...C|..|B-3 2C.F ....|R-- .... ....|R-- .... ....
....|..|--- .... ....|--- .... ....|--- .... ....
....|..|R-- .... ....|--- .... ....|--- .... ....
....|..|--- .... ....|--- .... ....|--- .... ....
....|..|B-3 2F.7 ....|--- .... ....|--- .... ....
....|..|--- .... ....|--- .... ....|--- .... ....
....|..|B-3 2F.7 ....|--- .... ....|--- .... ....
....|..|--- .... ....|--- .... ....|--- .... ....

[Pattern57]
...C|..|B-3 2C.F ....|B-4 2F.F ....|C-4 LF.F ....
....|..|--- .... ....|--- .... ....|--- .... ....
...C|..|B-3 2C.F ....|--- .... ....|--- .... ....
....|..|--- .... ....|--- .... ....|--- .... ....
...C|..|B-3 2C.F ....|R-- .... ....|R-- .... ....
....|..|--- .... ....|--- .... ....|--- .... ....
....|..|B-3 2F.A ....|B-4 2F.A ....|C-4 LF.A ....
....|..|--- .... ....|--- .... ....|--- .... ....
...C|..|B-3 2C.F ....|B-3 2F.F ....|C-4 LF.F ....
....|..|--- .... ....|--- .... ....|--- .... ....
....|..|B-3 2F.A ....|R-- .... ....|R-- .... ....
....|..|--- .... ....|--- .... ....|--- .... ....
...C|..|B-2 2A.F ....|B-4 2F.7 ....|C-4 LF.7 ....
....|..|--- .... ....|--- .... ....|--- .... ....
....|..|B-3 2F.7 ....|B-3 2F.A ....|C-4 LF.A ....
....|..|--- .... ....|--- .... ....|--- .... ....
...C|..|B-3 2C.F ....|B-3 2F.F ....|C-4 LF.F ....
....|..|--- .... ....|--- .... ....|--- .... ....
...C|..|B-3 2C.F ....|R-- .... ....|R-- .... ....
....|..|--- .... ....|--- .... ....|--- .... ....
....|..|B-3 2F.7 ....|B-3 2F.7 ....|C-4 LF.7 ....
....|..|--- .... ....|--- .... ....|--- .... ....
....|..|B-3 2F.A ....|B-3 2F.A ....|C-4 LF.A ....
....|..|--- .... ....|--- .... ....|--- .... ....
...C|..|B-3 2C.F ....|R-- .... ....|R-- .... ....
....|..|--- .... ....|--- .... ....|--- .... ....
....|..|R-- .... ....|R-- .... ....|R-- .... ....
....|..|--- .... ....|--- .... ....|--- .... ....
....|..|B-3 2F.7 ....|B-3 2F.7 ....|C-4 LF.7 ....
....|..|--- .... ....|--- .... ....|--- .... ....
....|..|B-3 2F.7 ....|--- .... ....|--- .... ....
....|..|--- .... ....|--- .... ....|--- .... ....
...C|..|B-3 2C.F ....|B-4 2F.F ....|C-4 LF.F ....
....|..|--- .... ....|--- .... ....|--- .... ....
...C|..|B-3 2C.F ....|--- .... ....|--- .... ....
....|..|--- .... ....|--- .... ....|--- .... ....
...C|..|B-3 2C.F ....|B-3 2F.F ....|C-4 LF.F ....
....|..|--- .... ....|--- .... ....|--- .... ....
....|..|B-3 2F.A ....|B-4 2F.A ....|C-4 LF.A ....
....|..|--- .... ....|--- .... ....|--- .... ....
...C|..|B-3 2C.F ....|B-4 2F.F ....|C-4 LF.F ....
....|..|--- .... ....|--- .... ....|--- .... ....
....|..|B-3 2F.A ....|B-3 2F.A ....|C-4 LF.A ....
....|..|--- .... ....|--- .... ....|--- .... ....
...C|..|B-2 2A.F ....|B-4 2F.7 ....|C-4 LF.7 ....
....|..|--- .... ....|--- .... ....|--- .... ....
....|..|B-3 2F.7 ....|B-4 2F.A ....|C-4 LF.A ....
....|..|--- .... ....|--- .... ....|--- .... ....
...C|..|B-3 2C.F ....|B-3 2F.7 ....|C-4 LF.7 ....
....|..|--- .... ....|--- .... ....|--- .... ....
...C|..|B-3 2C.F ....|R-- .... ....|R-- .... ....
....|..|--- .... ....|--- .... ....|--- .... ....
....|..|B-3 2F.7 ....|B-4 2F.7 ....|C-4 LF.7 ....
....|..|--- .... ....|--- .... ....|--- .... ....
....|..|B-3 2F.A ....|--- .... ....|--- .... ....
....|..|--- .... ....|--- .... ....|--- .... ....
...C|..|B-3 2C.F ....|R-- .... ....|R-- .... ....
....|..|--- .... ....|--- .... ....|--- .... ....
....|..|R-- .... ....|--- .... ....|--- .... ....
....|..|--- .... ....|--- .... ....|--- .... ....
....|..|B-3 2F.7 ....|--- .... ....|--- .... ....
....|..|--- .... ....|--- .... ....|--- .... ....
....|..|B-3 2F.7 ....|--- .... ....|--- .... ....
....|..|--- .... ....|--- .... ....|--- .... ....

[Pattern58]
...C|..|B-3 2C.F ....|B-4 2F.F ....|C-4 LF.F ....
....|..|--- .... ....|--- .... ....|--- .... ....
...C|..|B-3 2C.F ....|--- .... ....|--- .... ....
....|..|--- .... ....|--- .... ....|--- .... ....
...C|..|B-3 2C.F ....|R-- .... ....|R-- .... ....
....|..|--- .... ....|--- .... ....|--- .... ....
....|..|B-3 2F.A ....|B-4 2F.A ....|C-4 LF.A ....
....|..|--- .... ....|--- .... ....|--- .... ....
...C|..|B-4 2C.F ....|B-3 2F.F ....|C-4 LF.F ....
....|..|--- .... ....|--- .... ....|--- .... ....
....|..|B-3 2F.A ....|R-- .... ....|R-- .... ....
....|..|--- .... ....|--- .... ....|--- .... ....
...C|..|B-2 2A.F ....|B-4 2F.7 ....|C-4 LF.7 ....
....|..|--- .... ....|--- .... ....|--- .... ....
....|..|B-3 2F.7 ....|B-3 2F.A ....|C-4 LF.A ....
....|..|--- .... ....|--- .... ....|--- .... ....
...C|..|B-3 2C.F ....|B-4 2F.F ....|C-4 LF.F ....
....|..|--- .... ....|--- .... ....|--- .... ....
...C|..|B-3 2C.F ....|R-- .... ....|R-- .... ....
....|..|--- .... ....|--- .... ....|--- .... ....
....|..|B-4 2F.7 ....|B-3 2F.7 ....|C-4 LF.7 ....
....|..|--- .... ....|--- .... ....|--- .... ....
....|..|B-3 2F.A ....|B-4 2F.A ....|C-4 LF.A ....
....|..|--- .... ....|--- .... ....|--- .... ....
...C|..|B-3 2C.F ....|R-- .... ....|R-- .... ....
....|..|--- .... ....|--- .... ....|--- .... ....
....|..|R-- .... ....|R-- .... ....|R-- .... ....
....|..|--- .... ....|--- .... ....|--- .... ....
....|..|B-3 2F.7 ....|B-4 2F.7 ....|C-4 LF.7 ....
....|..|--- .... ....|--- .... ....|--- .... ....
...C|..|B-3 2C.F ....|--- .... ....|--- .... ....
....|..|--- .... ....|--- .... ....|--- .... ....
...C|..|B-3 2C.F ....|B-4 2F.F ....|C-4 LF.F ....
....|..|--- .... ....|--- .... ....|--- .... ....
...C|..|B-3 2C.F ....|--- .... ....|--- .... ....
....|..|--- .... ....|--- .... ....|--- .... ....
...C|..|B-3 2C.F ....|B-3 2F.F ....|C-4 LF.F ....
....|..|--- .... ....|--- .... ....|--- .... ....
....|..|B-3 2F.A ....|B-4 2F.A ....|C-4 LF.A ....
....|..|--- .... ....|--- .... ....|--- .... ....
...C|..|B-3 2C.F ....|B-4 2F.F ....|C-4 LF.F ....
....|..|--- .... ....|--- .... ....|--- .... ....
....|..|B-3 2F.7 ....|B-3 2F.A ....|C-4 LF.A ....
....|..|--- .... ....|--- .... ....|--- .... ....
...C|..|B-2 2A.F ....|B-4 2F.7 ....|C-4 LF.7 ....
....|..|--- .... ....|--- .... ....|--- .... ....
....|..|B-3 2F.7 ....|B-4 2F.A ....|C-4 LF.A ....
....|..|--- .... ....|--- .... ....|--- .... ....
...C|..|B-3 2C.F ....|B-3 2F.7 ....|C-4 LF.7 ....
....|..|--- .... ....|--- .... ....|--- .... ....
...C|..|B-3 2C.F ....|R-- .... ....|R-- .... ....
....|..|--- .... ....|--- .... ....|--- .... ....
....|..|B-3 2F.7 ....|B-4 2F.7 ....|C-4 LF.7 ....
....|..|--- .... ....|--- .... ....|--- .... ....
....|..|B-3 2F.A ....|--- .... ....|--- .... ....
....|..|--- .... ....|--- .... ....|--- .... ....
...C|..|B-3 2C.F ....|R-- .... ....|R-- .... ....
....|..|--- .... ....|--- .... ....|--- .... ....
....|..|R-- .... ....|--- .... ....|--- .... ....
....|..|--- .... ....|--- .... ....|--- .... ....
....|..|B-3 2F.7 ....|--- .... ....|--- .... ....
....|..|--- .... ....|--- .... ....|--- .... ....
....|..|B-3 2F.7 ....|--- .... ....|--- .... ....
....|..|--- .... ....|--- .... ....|--- .... ....

[Pattern59]
...C|..|B-3 2C.F ....|B-4 2F.F ....|C-4 LF.F ....
....|..|--- .... ....|--- .... ....|--- .... ....
...C|..|B-3 2C.F ....|--- .... ....|--- .... ....
....|..|--- .... ....|--- .... ....|--- .... ....
...C|..|B-3 2C.F ....|R-- .... ....|R-- .... ....
....|..|--- .... ....|--- .... ....|--- .... ....
....|..|B-3 2F.A ....|B-4 2F.A ....|C-4 LF.A ....
....|..|--- .... ....|--- .... ....|--- .... ....
...C|..|B-3 2C.F ....|B-3 2F.F ....|C-4 LF.F ....
....|..|--- .... ....|--- .... ....|--- .... ....
....|..|B-3 2F.A ....|R-- .... ....|R-- .... ....
....|..|--- .... ....|--- .... ....|--- .... ....
...C|..|B-2 2A.F ....|B-4 2F.7 ....|C-4 LF.7 ....
....|..|--- .... ....|--- .... ....|--- .... ....
....|..|B-3 2F.7 ....|B-3 2F.A ....|C-4 LF.A ....
....|..|--- .... ....|--- .... ....|--- .... ....
...C|..|B-3 2C.F ....|B-3 2F.F ....|C-4 LF.F ....
....|..|--- .... ....|--- .... ....|--- .... ....
...C|..|B-3 2C.F ....|R-- .... ....|R-- .... ....
....|..|--- .... ....|--- .... ....|--- .... ....
....|..|B-3 2F.7 ....|B-3 2F.7 ....|C-4 LF.7 ....
....|..|--- .... ....|--- .... ....|--- .... ....
....|..|B-3 2F.A ....|B-3 2F.A ....|C-4 LF.A ....
....|..|--- .... ....|--- .... ....|--- .... ....
...C|..|B-4 2C.F ....|R-- .... ....|R-- .... ....
....|..|--- .... ....|--- .... ....|--- .... ....
....|..|R-- .... ....|R-- .... ....|R-- .... ....
....|..|--- .... ....|--- .... ....|--- .... ....
....|..|B-3 2F.7 ....|B-3 2F.7 ....|C-4 LF.7 ....
....|..|--- .... ....|--- .... ....|--- .... ....
....|..|B-3 2F.7 ....|--- .... ....|--- .... ....
....|..|--- .... ....|--- .... ....|--- .... ....
...C|..|B-4 2C.F ....|B-4 2F.F ....|C-4 LF.F ....
....|..|--- .... ....|--- .... ....|--- .... ....
...C|..|B-3 2C.F ....|--- .... ....|--- .... ....
....|..|--- .... ....|--- .... ....|--- .... ....
...C|..|B-3 2C.F ....|B-3 2F.F ....|C-4 LF.F ....
....|..|--- .... ....|--- .... ....|--- .... ....
....|..|B-4 2F.A ....|B-4 2F.A ....|C-4 LF.A ....
....|..|--- .... ....|--- .... ....|--- .... ....
...C|..|B-3 2C.F ....|B-3 2F.F ....|C-4 LF.F ....
....|..|--- .... ....|--- .... ....|--- .... ....
....|..|B-3 2F.A ....|B-3 2F.A ....|C-4 LF.A ....
....|..|--- .... ....|--- .... ....|--- .... ....
...C|..|B-2 2A.F ....|B-4 2F.7 ....|C-4 LF.7 ....
....|..|--- .... ....|--- .... ....|--- .... ....
....|..|B-3 2F.7 ....|B-3 2F.A ....|C-4 LF.A ....
....|..|--- .... ....|--- .... ....|--- .... ....
...C|..|B-3 2C.F ....|B-3 2F.7 ....|C-4 LF.7 ....
....|..|--- .... ....|--- .... ....|--- .... ....
...C|..|B-3 2C.F ....|R-- .... ....|R-- .... ....
....|..|--- .... ....|--- .... ....|--- .... ....
....|..|B-3 2F.7 ....|B-3 2F.7 ....|C-4 LF.7 ....
....|..|--- .... ....|--- .... ....|--- .... ....
....|..|B-3 2F.A ....|--- .... ....|--- .... ....
....|..|--- .... ....|--- .... ....|--- .... ....
...C|..|B-3 2C.F ....|R-- .... ....|R-- .... ....
....|..|--- .... ....|--- .... ....|--- .... ....
....|..|R-- .... ....|--- .... ....|--- .... ....
....|..|--- .... ....|--- .... ....|--- .... ....
....|..|B-3 2F.7 ....|--- .... ....|--- .... ....
....|..|--- .... ....|--- .... ....|--- .... ....
....|..|B-3 2F.7 ....|--- .... ....|--- .... ....
....|..|--- .... ....|--- .... ....|--- .... ....

[Pattern60]
...C|..|B-3 2C.F ....|B-3 2F.F ....|C-4 LF.F ....
....|..|--- .... ....|--- .... ....|--- .... ....
...C|..|B-3 2C.F ....|--- .... ....|--- .... ....
....|..|--- .... ....|--- .... ....|--- .... ....
...C|..|B-3 2C.F ....|R-- .... ....|R-- .... ....
....|..|--- .... ....|--- .... ....|--- .... ....
....|..|B-3 2F.A ....|B-3 2F.A ....|C-4 LF.A ....
....|..|--- .... ....|--- .... ....|--- .... ....
...C|..|B-3 2C.F ....|B-4 2F.F ....|C-4 LF.F ....
....|..|--- .... ....|--- .... ....|--- .... ....
....|..|B-3 2F.A ....|R-- .... ....|R-- .... ....
....|..|--- .... ....|--- .... ....|--- .... ....
...C|..|B-2 2A.F ....|B-3 2F.7 ....|C-4 LF.7 ....
....|..|--- .... ....|--- .... ....|--- .... ....
....|..|B-3 2F.7 ....|B-4 2F.A ....|C-4 LF.A ....
....|..|--- .... ....|--- .... ....|--- .... ....
...C|..|B-3 2C.F ....|B-5 2F.F ....|C-4 LF.F ....
....|..|--- .... ....|--- .... ....|--- .... ....
...C|..|B-3 2C.F ....|R-- .... ....|R-- .... ....
....|..|--- .... ....|--- .... ....|--- .... ....
....|..|B-3 2F.7 ....|B-4 2F.7 ....|C-4 LF.7 ....
....|..|--- .... ....|--- .... ....|--- .... ....
....|..|B-3 2F.A ....|B-5 2F.A ....|C-4 LF.A ....
....|..|--- .... ....|--- .... ....|--- .... ....
...C|..|B-3 2C.F ....|R-- .... ....|R-- .... ....
....|..|--- .... ....|--- .... ....|--- .... ....
....|..|R-- .... ....|R-- .... ....|R-- .... ....
....|..|--- .... ....|--- .... ....|--- .... ....
....|..|B-3 2F.7 ....|B-5 2F.7 ....|C-4 LF.7 ....
....|..|--- .... ....|--- .... ....|--- .... ....
....|..|B-3 2F.7 ....|--- .... ....|--- .... ....
....|..|--- .... ....|--- .... ....|--- .... ....
...C|..|B-3 2C.F ....|B-3 2F.F ....|C-4 LF.F ....
....|..|--- .... ....|--- .... ....|--- .... ....
...C|..|B-3 2C.F ....|--- .... ....|--- .... ....
....|..|--- .... ....|--- .... ....|--- .... ....
...C|..|B-4 2C.F ....|B-3 2F.F ....|C-4 LF.F ....
....|..|--- .... ....|--- .... ....|--- .... ....
....|..|B-3 2F.A ....|B-3 2F.A ....|C-4 LF.A ....
....|..|--- .... ....|--- .... ....|--- .... ....
...C|..|B-3 2C.F ....|B-4 2F.F ....|C-4 LF.F ....
....|..|--- .... ....|--- .... ....|--- .... ....
....|..|B-4 2F.A ....|B-3 2F.A ....|C-4 LF.A ....
....|..|--- .... ....|--- .... ....|--- .... ....
...C|..|B-2 2A.F ....|B-3 2F.7 ....|C-4 LF.7 ....
....|..|--- .... ....|--- .... ....|--- .... ....
....|..|B-3 2F.7 ....|B-4 2F.A ....|C-4 LF.A ....
....|..|--- .... ....|--- .... ....|--- .... ....
...C|..|B-3 2C.F ....|B-3 2F.7 ....|C-4 LF.7 ....
....|..|--- .... ....|--- .... ....|--- .... ....
...C|..|B-3 2C.F ....|R-- .... ....|R-- .... ....
....|..|--- .... ....|--- .... ....|--- .... ....
....|..|B-3 2F.7 ....|B-4 2F.7 ....|C-4 LF.7 ....
....|..|--- .... ....|--- .... ....|--- .... ....
....|..|B-3 2F.A ....|--- .... ....|--- .... ....
....|..|--- .... ....|--- .... ....|--- .... ....
...C|..|B-3 2C.F ....|R-- .... ....|R-- .... ....
....|..|--- .... ....|--- .... ....|--- .... ....
....|..|R-- .... ....|--- .... ....|--- .... ....
....|..|--- .... ....|--- .... ....|--- .... ....
....|..|B-3 2F.7 ....|--- .... ....|--- .... ....
....|..|--- .... ....|--- .... ....|--- .... ....
....|..|B-3 2F.7 ....|--- .... ....|--- .... ....
....|..|--- .... ....|--- .... ....|--- .... ....

[Pattern61]
...C|..|B-3 2C.F ....|B-3 2F.F ....|C-4 LF.F ....
....|..|--- .... ....|--- .... ....|--- .... ....
...C|..|B-3 2C.F ....|--- .... ....|--- .... ....
....|..|--- .... ....|--- .... ....|--- .... ....
...C|..|B-3 2C.F ....|R-- .... ....|R-- .... ....
....|..|--- .... ....|--- .... ....|--- .... ....
....|..|B-3 2F.A ....|B-3 2F.A ....|C-4 LF.A ....
....|..|--- .... ....|--- .... ....|--- .... ....
...C|..|B-3 2C.F ....|B-4 2F.F ....|C-4 LF.F ....
....|..|--- .... ....|--- .... ....|--- .... ....
....|..|B-3 2F.A ....|R-- .... ....|R-- .... ....
....|..|--- .... ....|--- .... ....|--- .... ....
...C|..|B-2 2A.F ....|B-3 2F.7 ....|C-4 LF.7 ....
....|..|--- .... ....|--- .... ....|--- .... ....
....|..|B-3 2F.7 ....|B-4 2F.A ....|C-4 LF.A ....
....|..|--- .... ....|--- .... ....|--- .... ....
...C|..|B-3 2C.F ....|B-5 2F.F ....|C-4 LF.F ....
....|..|--- .... ....|--- .... ....|--- .... ....
...C|..|B-3 2C.F ....|R-- .... ....|R-- .... ....
....|..|--- .... ....|--- .... ....|--- .... ....
....|..|B-3 2F.7 ....|B-4 2F.7 ....|C-4 LF.7 ....
....|..|--- .... ....|--- .... ....|--- .... ....
....|..|B-3 2F.A ....|B-5 2F.A ....|C-4 LF.A ....
....|..|--- .... ....|--- .... ....|--- .... ....
...C|..|B-3 2C.F ....|R-- .... ....|R-- .... ....
....|..|--- .... ....|--- .... ....|--- .... ....
....|..|R-- .... ....|R-- .... ....|R-- .... ....
....|..|--- .... ....|--- .... ....|--- .... ....
....|..|B-3 2F.7 ....|B-5 2F.7 ....|C-4 LF.7 ....
....|..|--- .... ....|--- .... ....|--- .... ....
....|..|B-3 2F.7 ....|--- .... ....|--- .... ....
....|..|--- .... ....|--- .... ....|--- .... ....
...C|..|B-3 2C.F ....|B-4 2F.F ....|C-4 LF.F ....
....|..|--- .... ....|--- .... ....|--- .... ....
...C|..|B-3 2C.F ....|--- .... ....|--- .... ....
....|..|--- .... ....|--- .... ....|--- .... ....
...C|..|B-3 2C.F ....|B-3 2F.F ....|C-4 LF.F ....
....|..|--- .... ....|--- .... ....|--- .... ....
....|..|B-3 2F.A ....|B-4 2F.A ....|C-4 LF.A ....
....|..|--- .... ....|--- .... ....|--- .... ....
...C|..|B-3 2C.F ....|B-4 2F.F ....|C-4 LF.F ....
....|..|--- .... ....|--- .... ....|--- .... ....
....|..|B-3 2F.A ....|B-3 2F.A ....|C-4 LF.A ....
....|..|--- .... ....|--- .... ....|--- .... ....
...C|..|B-4 2C.F ....|B-4 2F.7 ....|C-4 LF.7 ....
....|..|--- .... ....|--- .... ....|--- .... ....
....|..|B-3 2F.7 ....|B-4 2F.A ....|C-4 LF.A ....
....|..|--- .... ....|--- .... ....|--- .... ....
...C|..|B-4 2C.F ....|B-3 2F.7 ....|C-4 LF.7 ....
....|..|--- .... ....|--- .... ....|--- .... ....
...C|..|B-3 2C.F ....|R-- .... ....|R-- .... ....
....|..|--- .... ....|--- .... ....|--- .... ....
....|..|B-3 2F.7 ....|B-4 2F.7 ....|C-4 LF.7 ....
....|..|--- .... ....|--- .... ....|--- .... ....
....|..|B-4 2F.A ....|--- .... ....|--- .... ....
....|..|--- .... ....|--- .... ....|--- .... ....
...C|..|B-3 2C.F ....|R-- .... ....|R-- .... ....
....|..|--- .... ....|--- .... ....|--- .... ....
....|..|R-- .... ....|--- .... ....|--- .... ....
....|..|--- .... ....|--- .... ....|--- .... ....
....|..|B-4 2F.7 ....|--- .... ....|--- .... ....
....|..|--- .... ....|--- .... ....|--- .... ....
....|..|B-3 2F.7 ....|--- .... ....|--- .... ....
....|..|--- .... ....|--- .... ....|--- .... ....

[Pattern62]
...C|..|B-3 2C.F ....|B-4 2F.F ....|C-4 LF.F ....
....|..|--- .... ....|--- .... ....|--- .... ....
...C|..|B-3 2C.F ....|--- .... ....|--- .... ....
....|..|--- .... ....|--- .... ....|--- .... ....
...C|..|B-3 2C.F ....|R-- .... ....|R-- .... ....
....|..|--- .... ....|--- .... ....|--- .... ....
....|..|B-3 2F.A ....|B-4 2F.A ....|C-4 LF.A ....
....|..|--- .... ....|--- .... ....|--- .... ....
...C|..|B-3 2C.F ....|B-4 2F.F ....|C-4 LF.F ....
....|..|--- .... ....|--- .... ....|--- .... ....
....|..|B-3 2F.A ....|R-- .... ....|R-- .... ....
....|..|--- .... ....|--- .... ....|--- .... ....
...C|..|B-2 2A.F ....|B-4 2F.7 ....|C-4 LF.7 ....
....|..|--- .... ....|--- .... ....|--- .... ....
....|..|B-3 2F.7 ....|B-4 2F.A ....|C-4 LF.A ....
....|..|--- .... ....|--- .... ....|--- .... ....
...C|..|B-3 2C.F ....|B-3 2F.F ....|C-4 LF.F ....
....|..|--- .... ....|--- .... ....|--- .... ....
...C|..|B-3 2C.F ....|R-- .... ....|R-- .... ....
....|..|--- .... ....|--- .... ....|--- .... ....
....|..|B-3 2F.7 ....|B-4 2F.7 ....|C-4 LF.7 ....
....|..|--- .... ....|--- .... ....|--- .... ....
....|..|B-3 2F.A ....|B-3 2F.A ....|C-4 LF.A ....
....|..|--- .... ....|--- .... ....|--- .... ....
...C|..|B-3 2C.F ....|R-- .... ....|R-- .... ....
....|..|--- .... ....|--- .... ....|--- .... ....
....|..|R-- .... ....|R-- .... ....|R-- .... ....
....|..|--- .... ....|--- .... ....|--- .... ....
....|..|B-3 2F.7 ....|B-3 2F.7 ....|C-4 LF.7 ....
....|..|--- .... ....|--- .... ....|--- .... ....
....|..|B-3 2F.7 ....|--- .... ....|--- .... ....
....|..|--- .... ....|--- .... ....|--- .... ....
...C|..|B-3 2C.F ....|B-4 2F.F ....|C-4 LF.F ....
....|..|--- .... ....|--- .... ....|--- .... ....
...C|..|B-3 2C.F ....|--- .... ....|--- .... ....
....|..|--- .... ....|--- .... ....|--- .... ....
...C|..|B-3 2C.F ....|B-3 2F.F ....|C-4 LF.F ....
....|..|--- .... ....|--- .... ....|--- .... ....
....|..|B-3 2F.A ....|B-4 2F.A ....|C-4 LF.A ....
....|..|--- .... ....|--- .... ....|--- .... ....
...C|..|B-3 2C.F ....|B-3 2F.F ....|C-4 LF.F ....
....|..|--- .... ....|--- .... ....|--- .... ....
....|..|B-3 2F.A ....|B-3 2F.A ....|C-4 LF.A ....
....|..|--- .... ....|--- .... ....|--- .... ....
...C|..|B-2 2A.F ....|B-4 2F.7 ....|C-4 LF.7 ....
....|..|--- .... ....|--- .... ....|--- .... ....
....|..|B-3 2F.7 ....|B-3 2F.A ....|C-4 LF.A ....
....|..|--- .... ....|--- .... ....|--- .... ....
...C|..|B-3 2C.F ....|B-3 2F.7 ....|C-4 LF.7 ....
....|..|--- .... ....|--- .... ....|--- .... ....
...C|..|B-3 2C.F ....|R-- .... ....|R-- .... ....
....|..|--- .... ....|--- .... ....|--- .... ....
....|..|B-3 2F.7 ....|B-3 2F.7 ....|C-4 LF.7 ....
....|..|--- .... ....|--- .... ....|--- .... ....
....|..|B-3 2F.A ....|--- .... ....|--- .... ....
....|..|--- .... ....|--- .... ....|--- .... ....
...C|..|B-3 2C.F ....|R-- .... ....|R-- .... ....
....|..|--- .... ....|--- .... ....|--- .... ....
....|..|R-- .... ....|--- .... ....|--- .... ....
....|..|--- .... ....|--- .... ....|--- .... ....
....|..|B-3 2F.7 ....|--- .... ....|--- .... ....
....|..|--- .... ....|--- .... ....|--- .... ....
....|..|B-3 2F.7 ....|--- .... ....|--- .... ....
....|..|--- .... ....|--- .... ....|--- .... ....

[Pattern63]
....|..|R-- .... ....|A-4 2F.F ....|C-4 LF.F ....
....|..|--- .... ....|--- .... ....|--- .... ....
....|..|R-- .... ....|--- .... ....|--- .... ....
....|..|--- .... ....|--- .... ....|--- .... ....
....|..|B-3 2F.7 ....|R-- .... ....|R-- .... ....
....|..|--- .... ....|--- .... ....|--- .... ....
....|..|--- .... ....|A-4 2F.A ....|C-4 LF.A ....
....|..|--- .... ....|--- .... ....|--- .... ....
....|..|R-- .... ....|E-5 2F.F ....|C-4 LF.F ....
....|..|--- .... ....|--- .... ....|--- .... ....
....|..|--- .... ....|R-- .... ....|R-- .... ....
....|..|--- .... ....|--- .... ....|--- .... ....
....|..|--- .... ....|A-4 2F.7 ....|C-4 LF.7 ....
....|..|--- .... ....|--- .... ....|--- .... ....
....|..|R-- .... ....|E-5 2F.A ....|C-4 LF.A ....
....|..|--- .... ....|--- .... ....|--- .... ....
....|..|--- .... ....|R-- .... ....|R-- .... ....
....|..|--- .... ....|--- .... ....|--- .... ....
....|..|--- .... ....|--- .... ....|--- .... ....
....|..|--- .... ....|--- .... ....|--- .... ....
....|..|--- .... ....|E-5 2F.7 ....|C-4 LF.7 ....
....|..|--- .... ....|--- .... ....|--- .... ....
....|..|--- .... ....|E-4 2F1F ....|C-4 LF.F ....
....|..|--- .... ....|--- .... ....|--- .... ....
....|..|--- .... ....|A-5 2F.F ....|C-4 LF.F ....
....|..|--- .... ....|--- .... ....|--- .... ....
....|..|--- .... ....|--- .... ....|--- .... ....
....|..|--- .... ....|--- .... ....|--- .... ....
....|..|--- .... ....|E-4 2F1A ....|C-4 LF.A ....
....|..|--- .... ....|--- .... ....|--- .... ....
....|..|--- .... ....|A-5 2F.A ....|C-4 LF.A ....
....|..|--- .... ....|--- .... ....|--- .... ....
....|..|--- .... ....|A-5 2F.F ....|C-4 LF.F ....
....|..|--- .... ....|--- .... ....|--- .... ....
....|..|--- .... ....|E-4 2F.F ....|C-4 LF.F ....
....|..|--- .... ....|--- .... ....|--- .... ....
....|..|--- .... ....|A-5 2F.7 ....|C-4 LF.7 ....
....|..|--- .... ....|--- .... ....|--- .... ....
....|..|--- .... ....|A-5 2F.A ....|C-4 LF.A ....
....|..|--- .... ....|--- .... ....|--- .... ....
....|..|--- .... ....|E-5 2F.F ....|C-4 LF.F ....
....|..|--- .... ....|--- .... ....|--- .... ....
....|..|--- .... ....|R-- .... ....|R-- .... ....
....|..|--- .... ....|--- .... ....|--- .... ....
....|..|--- .... ....|E-4 2F1F ....|C-4 LF.F ....
....|..|--- .... ....|--- .... ....|--- .... ....
....|..|--- .... ....|A-5 2F.F ....|C-4 LF.F ....
....|..|--- .... ....|--- .... ....|--- .... ....
....|..|--- .... ....|R-- .... ....|R-- .... ....
....|..|--- .... ....|--- .... ....|--- .... ....
....|..|--- .... ....|E-4 2F1A ....|C-4 LF.A ....
....|..|--- .... ....|--- .... ....|--- .... ....
....|..|--- .... ....|E-5 2F.7 ....|C-4 LF.7 ....
....|..|--- .... ....|--- .... ....|--- .... ....
....|..|--- .... ....|--- .... ....|--- .... ....
....|..|--- .... ....|--- .... ....|--- .... ....
....|..|--- .... ....|E-6 2F.F ....|C-4 LF.F ....
....|..|--- .... ....|--- .... ....|--- .... ....
....|..|--- .... ....|E-6 2F.F ....|C-4 LF.F ....
....|..|--- .... ....|--- .... ....|--- .... ....
....|..|--- .... ....|--- .... ....|--- .... ....
....|..|--- .... ....|--- .... ....|--- .... ....
....|..|--- .... ....|E-6 2F.A ....|C-4 LF.A ....
....|..|--- .... ....|--- .... ....|--- .... ....

